<svg width="896" height="360" viewBox="0 0 896 360" fill="none" xmlns="http://www.w3.org/2000/svg">
<style>
@keyframes kf_Content_1_transform_0 {
  0% {
    animation-timing-function: cubic-bezier(0.16, 1, 0.3, 1);
    transform: translateX(16.318px) translateY(53.493px) translateX(-20px);
  }
  12.61% {
    transform: translateX(16.318px) translateY(53.493px) translateX(0px);
  }
  83.78% {
    animation-timing-function: cubic-bezier(0.7, 0, 0.84, 0);
    transform: translateX(16.318px) translateY(53.493px) translateX(0px);
  }
  94.59% {
    transform: translateX(16.318px) translateY(53.493px) translateX(-20px);
  }
  100% {
    transform: translateX(16.318px) translateY(53.493px) translateX(-20px);
  }
}
@keyframes kf_Content_1_opacity_0 {
  0% {
    animation-timing-function: cubic-bezier(0.16, 1, 0.3, 1);
    opacity: 0;
  }
  12.61% {
    animation-timing-function: linear;
    opacity: 1;
  }
  83.78% {
    animation-timing-function: cubic-bezier(0.7, 0, 0.84, 0);
    opacity: 1;
  }
  94.59% {
    animation-timing-function: linear;
    opacity: 0;
  }
  100% {
    opacity: 0;
  }
}
#Content_1 {
  transform-origin: 0 0;
  animation:
    kf_Content_1_transform_0 5.55s linear infinite,
    kf_Content_1_opacity_0 5.55s linear infinite;
}
@keyframes kf_Content_2_transform_0 {
  0% {
    transform: translateX(24px) translateY(203px) translateX(-20px);
  }
  10.81% {
    animation-timing-function: cubic-bezier(0.16, 1, 0.3, 1);
    transform: translateX(24px) translateY(203px) translateX(-20px);
  }
  23.42% {
    transform: translateX(24px) translateY(203px) translateX(0px);
  }
  76.58% {
    animation-timing-function: cubic-bezier(0.7, 0, 0.84, 0);
    transform: translateX(24px) translateY(203px) translateX(0px);
  }
  87.39% {
    transform: translateX(24px) translateY(203px) translateX(-20px);
  }
  100% {
    transform: translateX(24px) translateY(203px) translateX(-20px);
  }
}
@keyframes kf_Content_2_opacity_0 {
  0% {
    animation-timing-function: linear;
    opacity: 0;
  }
  10.81% {
    animation-timing-function: cubic-bezier(0.16, 1, 0.3, 1);
    opacity: 0;
  }
  23.42% {
    animation-timing-function: linear;
    opacity: 1;
  }
  76.58% {
    animation-timing-function: cubic-bezier(0.7, 0, 0.84, 0);
    opacity: 1;
  }
  87.39% {
    animation-timing-function: linear;
    opacity: 0;
  }
  100% {
    opacity: 0;
  }
}
#Content_2 {
  transform-origin: 0 0;
  animation:
    kf_Content_2_transform_0 5.55s linear infinite,
    kf_Content_2_opacity_0 5.55s linear infinite;
}
@keyframes kf_Content_3_transform_0 {
  0% {
    transform: translateX(660px) translateY(38.774px) translateX(20px);
  }
  21.62% {
    animation-timing-function: cubic-bezier(0.16, 1, 0.3, 1);
    transform: translateX(660px) translateY(38.774px) translateX(20px);
  }
  34.23% {
    transform: translateX(660px) translateY(38.774px) translateX(0px);
  }
  69.37% {
    animation-timing-function: cubic-bezier(0.7, 0, 0.84, 0);
    transform: translateX(660px) translateY(38.774px) translateX(0px);
  }
  80.18% {
    transform: translateX(660px) translateY(38.774px) translateX(20px);
  }
  100% {
    transform: translateX(660px) translateY(38.774px) translateX(20px);
  }
}
@keyframes kf_Content_3_opacity_0 {
  0% {
    animation-timing-function: linear;
    opacity: 0;
  }
  21.62% {
    animation-timing-function: cubic-bezier(0.16, 1, 0.3, 1);
    opacity: 0;
  }
  34.23% {
    animation-timing-function: linear;
    opacity: 1;
  }
  69.37% {
    animation-timing-function: cubic-bezier(0.7, 0, 0.84, 0);
    opacity: 1;
  }
  80.18% {
    animation-timing-function: linear;
    opacity: 0;
  }
  100% {
    opacity: 0;
  }
}
#Content_3 {
  transform-origin: 0 0;
  animation:
    kf_Content_3_transform_0 5.55s linear infinite,
    kf_Content_3_opacity_0 5.55s linear infinite;
}
@keyframes kf_Content_4_transform_0 {
  0% {
    transform: translateX(660.78px) translateY(213.498px) translateX(20px);
  }
  32.43% {
    animation-timing-function: cubic-bezier(0.16, 1, 0.3, 1);
    transform: translateX(660.78px) translateY(213.498px) translateX(20px);
  }
  45.05% {
    transform: translateX(660.78px) translateY(213.498px) translateX(0px);
  }
  62.16% {
    animation-timing-function: cubic-bezier(0.7, 0, 0.84, 0);
    transform: translateX(660.78px) translateY(213.498px) translateX(0px);
  }
  72.97% {
    transform: translateX(660.78px) translateY(213.498px) translateX(20px);
  }
  100% {
    transform: translateX(660.78px) translateY(213.498px) translateX(20px);
  }
}
@keyframes kf_Content_4_opacity_0 {
  0% {
    animation-timing-function: linear;
    opacity: 0;
  }
  32.43% {
    animation-timing-function: cubic-bezier(0.16, 1, 0.3, 1);
    opacity: 0;
  }
  45.05% {
    animation-timing-function: linear;
    opacity: 1;
  }
  62.16% {
    animation-timing-function: cubic-bezier(0.7, 0, 0.84, 0);
    opacity: 1;
  }
  72.97% {
    animation-timing-function: linear;
    opacity: 0;
  }
  100% {
    opacity: 0;
  }
}
#Content_4 {
  transform-origin: 0 0;
  animation:
    kf_Content_4_transform_0 5.55s linear infinite,
    kf_Content_4_opacity_0 5.55s linear infinite;
}
@keyframes kf_Arrow_to_content_2_opacity_0 {
  0% {
    animation-timing-function: linear;
    opacity: 0;
  }
  13.51% {
    animation-timing-function: cubic-bezier(0.16, 1, 0.3, 1);
    opacity: 0;
  }
  26.13% {
    animation-timing-function: linear;
    opacity: 1;
  }
  74.77% {
    animation-timing-function: cubic-bezier(0.7, 0, 0.84, 0);
    opacity: 1;
  }
  85.59% {
    animation-timing-function: linear;
    opacity: 0;
  }
  100% {
    opacity: 0;
  }
}
#Arrow_to_content_2 {
  animation: kf_Arrow_to_content_2_opacity_0 5.55s linear infinite;
}
@keyframes kf_Arrow_to_content_4_opacity_0 {
  0% {
    animation-timing-function: linear;
    opacity: 0;
  }
  35.14% {
    animation-timing-function: cubic-bezier(0.16, 1, 0.3, 1);
    opacity: 0;
  }
  47.75% {
    animation-timing-function: linear;
    opacity: 1;
  }
  60.36% {
    animation-timing-function: cubic-bezier(0.7, 0, 0.84, 0);
    opacity: 1;
  }
  71.17% {
    animation-timing-function: linear;
    opacity: 0;
  }
  100% {
    opacity: 0;
  }
}
#Arrow_to_content_4 {
  animation: kf_Arrow_to_content_4_opacity_0 5.55s linear infinite;
}
@keyframes kf_Arrow_to_content_1_opacity_0 {
  0% {
    animation-timing-function: linear;
    opacity: 0;
  }
  2.7% {
    animation-timing-function: cubic-bezier(0.16, 1, 0.3, 1);
    opacity: 0;
  }
  15.32% {
    animation-timing-function: linear;
    opacity: 1;
  }
  81.98% {
    animation-timing-function: cubic-bezier(0.7, 0, 0.84, 0);
    opacity: 1;
  }
  92.79% {
    animation-timing-function: linear;
    opacity: 0;
  }
  100% {
    opacity: 0;
  }
}
#Arrow_to_content_1 {
  animation: kf_Arrow_to_content_1_opacity_0 5.55s linear infinite;
}
@keyframes kf_Arrow_to_content_3_opacity_0 {
  0% {
    animation-timing-function: linear;
    opacity: 0;
  }
  24.32% {
    animation-timing-function: cubic-bezier(0.16, 1, 0.3, 1);
    opacity: 0;
  }
  36.94% {
    animation-timing-function: linear;
    opacity: 1;
  }
  67.57% {
    animation-timing-function: cubic-bezier(0.7, 0, 0.84, 0);
    opacity: 1;
  }
  78.38% {
    animation-timing-function: linear;
    opacity: 0;
  }
  100% {
    opacity: 0;
  }
}
#Arrow_to_content_3 {
  animation: kf_Arrow_to_content_3_opacity_0 5.55s linear infinite;
}
</style>
<g id="_2607_blog_slots_figma" clip-path="url(#clip0_8089_8396)">
<rect width="896" height="360" id="_2607_blog_slots_figma_bg_0" fill="#000028">
</rect>
<g id="Blind" transform="translate(270.435 53.4925)">
<rect width="355.131" height="248.688" rx="5.94361" id="Blind_bg_0" fill="#23233C">
</rect>
<g id="Header">
<g id="Chevron_Icon" transform="translate(11.8872 18.1692)">
<path id="Vector" transform="translate(9.34633 12.021)" fill-rule="evenodd" clip-rule="evenodd" d="M14.859 10.5796L8.48451 4.19025L2.10998 10.5796L0 8.46965L8.48451 0L16.969 8.46965L14.859 10.5796Z" fill="white"/>
</g>
<g id="Content_frame" transform="translate(59.4361 21.5)">
<g id="Primary_info_frame">
<path id="Label" d="M2.03151 23V6.55058H6.43118C7.57656 6.55058 8.45882 6.60475 9.07794 6.7131C9.69707 6.82145 10.262 7.0188 10.7728 7.30514C11.3455 7.63018 11.7944 8.11388 12.1194 8.75622C12.4522 9.39082 12.6186 10.1028 12.6186 10.8922C12.6186 12.8657 11.6628 14.1001 9.75124 14.5954C11.895 15.0442 12.9668 16.3289 12.9668 18.4494C12.9668 20.1443 12.34 21.3903 11.0862 22.1874C10.6064 22.4892 10.0647 22.702 9.46103 22.8259C8.86512 22.942 8.0293 23 6.95357 23H2.03151ZM4.86401 13.6434H6.1874C7.44113 13.6434 8.30017 13.4964 8.76451 13.2023C9.39138 12.8154 9.70481 12.1614 9.70481 11.2405C9.70481 10.2808 9.40298 9.60752 8.79934 9.22056C8.50525 9.02709 8.1686 8.89939 7.78939 8.83748C7.41017 8.76783 6.84135 8.733 6.08292 8.733H4.86401V13.6434ZM4.86401 20.8176H6.21061C7.00774 20.8176 7.58817 20.7944 7.95191 20.7479C8.32338 20.6938 8.65229 20.5893 8.93864 20.4345C9.65064 20.0553 10.0066 19.3355 10.0066 18.2753C10.0066 17.246 9.6042 16.5185 8.79934 16.0929C8.2576 15.8065 7.4063 15.6634 6.24544 15.6634H4.86401V20.8176ZM16.267 23V5.62189H19.0415V23H16.267ZM23.0962 23V10.8806H25.8707V23H23.0962ZM24.4893 5.20398C24.9923 5.20398 25.4025 5.3665 25.7198 5.69154C26.0448 6.01658 26.2073 6.4345 26.2073 6.94527C26.2073 7.44831 26.0448 7.86623 25.7198 8.19901C25.4025 8.52405 24.9962 8.68657 24.5009 8.68657C23.9901 8.68657 23.5722 8.52405 23.2472 8.19901C22.9298 7.86623 22.7712 7.44058 22.7712 6.92206C22.7712 6.42676 22.9337 6.01658 23.2588 5.69154C23.5838 5.3665 23.994 5.20398 24.4893 5.20398ZM29.9371 23V15.1294C29.9371 13.9221 29.9138 12.7651 29.8674 11.6584L29.8326 10.8806H32.4445L32.5374 12.6683C33.2571 11.9176 33.9382 11.3875 34.5805 11.0779C35.2306 10.7684 35.9813 10.6136 36.8326 10.6136C38.4268 10.6136 39.5258 11.1824 40.1294 12.3201C40.4854 12.9779 40.6634 14.1078 40.6634 15.7098V23H37.889V15.8491C37.889 14.8817 37.8116 14.1968 37.6568 13.7944C37.3782 13.0978 36.7978 12.7496 35.9155 12.7496C34.7856 12.7496 33.7176 13.4345 32.7115 14.8043V23H29.9371ZM52.1709 5.62189H54.9454V18.7396C54.9454 20.5196 54.9802 21.9397 55.0499 23H52.3915L52.2986 21.2703C51.7646 21.9978 51.219 22.5124 50.6618 22.8143C50.1046 23.1161 49.4274 23.267 48.6303 23.267C47.0593 23.267 45.8365 22.6401 44.962 21.3864C44.1494 20.2255 43.7431 18.7396 43.7431 16.9287C43.7431 14.963 44.2229 13.3881 45.1825 12.204C46.0416 11.1515 47.1908 10.6252 48.6303 10.6252C50.0543 10.6252 51.2345 11.2211 52.1709 12.4129V5.62189ZM52.1709 14.7695C51.4047 13.4306 50.4683 12.7612 49.3616 12.7612C48.4794 12.7612 47.8022 13.1481 47.3301 13.9221C46.858 14.7037 46.622 15.6943 46.622 16.8939C46.622 18.0625 46.8387 19.0492 47.2721 19.8541C47.7364 20.7054 48.4097 21.131 49.292 21.131C50.3677 21.131 51.3274 20.4345 52.1709 19.0415V14.7695Z" fill="white"/>
</g>
</g>
</g>
<g id="Content_Frame" clip-path="url(#clip1_8089_8396)" transform="translate(0 71.3234)">
<g id="Slot" clip-path="url(#clip2_8089_8396)" transform="translate(23.7745 23.7745)">
<rect id="Drop-line" opacity="0" transform="translate(123.791)" width="60" height="5.00001" rx="12" fill="#FF24BD"/>
<g id="Click_area" transform="translate(0 5.00001)">
<g clip-path="url(#clip3_8089_8396)">
<rect width="307.582" height="124.816" id="Click_area_bg_0" fill="#FF24BD" fill-opacity="0.2">
</rect>
<g id="Frame_77" transform="translate(138.932 47.5489)">
<rect width="29.7181" height="29.7181" rx="8.91542" id="Frame_77_bg_0" fill="#FF24BD">
</rect>
<g id="Frame_76" transform="translate(7.42951 7.42952)">
<line id="Line_1" transform="translate(7.05424 1.31585) rotate(90)" y1="-0.742952" x2="12.2273" y2="-0.742952" stroke="white" stroke-width="1.4859"/>
<line id="Line_2" transform="translate(1.13366 8.17247)" y1="-0.742952" x2="12.9748" y2="-0.742952" stroke="white" stroke-width="1.4859"/>
</g>
</g>
</g>
<rect x="0.742952" y="0.742952" width="306.096" height="123.33" stroke="#FF24BD" stroke-width="1.4859"/>
</g>
</g>
</g>
</g>
<g id="Content_1" transform="translate(16.3177 53.4925)">
<rect id="Rectangle_1" width="76.18" height="76.1821" fill="#37374D"/>
<rect id="Rectangle_2" transform="translate(93.0443)" width="107.199" height="24.6584" fill="white"/>
<rect id="Rectangle_3" transform="translate(93.0443 44.856)" width="133.956" height="10.431" fill="#37374D"/>
<rect id="Rectangle_4" transform="translate(93.0443 65.7512)" width="133.956" height="10.431" fill="#37374D"/>
<g id="Selection_frame" opacity="0">
<rect x="0.5" y="0.5" width="230" height="74" stroke="#0C86E1"/>
<g id="Frame_77_2" transform="translate(-3 70)">
<rect x="0.5" y="0.5" width="7" height="7" id="Frame_77_2_bg_0" fill="white">
</rect>
<rect x="0.5" y="0.5" width="7" height="7" stroke="#0C86E1"/>
</g>
<g id="Frame_79" transform="translate(227 70)">
<rect x="0.5" y="0.5" width="7" height="7" id="Frame_79_bg_0" fill="white">
</rect>
<rect x="0.5" y="0.5" width="7" height="7" stroke="#0C86E1"/>
</g>
<g id="Frame_78" transform="translate(-3 -2)">
<rect x="0.5" y="0.5" width="7" height="7" id="Frame_78_bg_0" fill="white">
</rect>
<rect x="0.5" y="0.5" width="7" height="7" stroke="#0C86E1"/>
</g>
<g id="Frame_80" transform="translate(227 -2)">
<rect x="0.5" y="0.5" width="7" height="7" id="Frame_80_bg_0" fill="white">
</rect>
<rect x="0.5" y="0.5" width="7" height="7" stroke="#0C86E1"/>
</g>
</g>
</g>
<g id="Content_2" transform="translate(24 203)">
<g id="success" transform="translate(0 0.406311)">
<path id="Vector_2" transform="translate(2 2)" fill-rule="evenodd" clip-rule="evenodd" d="M10 0C4.47717 0 0 4.47717 0 10C0 15.5228 4.47717 20 10 20C15.5228 20 20 15.5228 20 10C20 4.47717 15.5228 0 10 0ZM10 18C5.58881 18 2 14.4112 2 10C2 5.58881 5.58881 2 10 2C14.4112 2 18 5.58881 18 10C18 14.4112 14.4112 18 10 18ZM13.7658 6.42724L15.1798 7.8413L9 14.047L5.29297 10.34L6.70703 8.9259L9 11.2189L13.7658 6.42724Z" fill="#01D65A"/>
</g>
<g id="warning" transform="translate(0 32.6249)">
<path id="Vector_3" transform="translate(1.5 2)" d="M8.81738 1.0079C9.36547 0.0491192 10.587 -0.284129 11.5459 0.26376C11.8559 0.440896 12.1129 0.69794 12.29 1.0079L20.8438 15.9767C21.3918 16.9357 21.0586 18.1581 20.0996 18.7061C19.7975 18.8788 19.4554 18.9688 19.1074 18.9688H2C0.89543 18.9688 0 18.0734 0 16.9688C8.05994e-05 16.6209 0.0910655 16.2787 0.263672 15.9767L8.81738 1.0079ZM2 16.9688H19.1074L10.5537 2.00009L2 16.9688ZM10.5 12.7501C11.2143 12.7501 11.75 13.2781 11.75 13.9981C11.75 14.7181 11.2143 15.2462 10.5 15.2462C9.76962 15.2462 9.2502 14.7183 9.25 13.9825C9.25 13.2785 9.78571 12.7501 10.5 12.7501ZM11.5 5.00009V11.0001H9.5V5.00009H11.5Z" fill="#FFD732"/>
</g>
<g id="error" transform="translate(0 64.8438)">
<path id="Vector_4" transform="translate(2 2)" d="M10 0C15.522 0 20 4.478 20 10C20 15.522 15.522 20 10 20C4.478 20 0 15.522 0 10C0 4.478 4.478 0 10 0ZM10 2C5.589 2 2 5.589 2 10C2 14.411 5.589 18 10 18C14.411 18 18 14.411 18 10C18 5.589 14.411 2 10 2ZM13.707 7.70703L11.4141 10L13.707 12.293L12.293 13.707L10 11.4141L7.70703 13.707L6.29297 12.293L8.58594 10L6.29297 7.70703L7.70703 6.29297L10 8.58594L12.293 6.29297L13.707 7.70703Z" fill="#FF2640"/>
</g>
<rect id="Rectangle_3_2" transform="translate(40.8398 8.47229)" width="133.956" height="10.431" fill="#37374D"/>
<rect id="Rectangle_5" transform="translate(40.8398 40.6909)" width="133.956" height="10.431" fill="#37374D"/>
<rect id="Rectangle_7" transform="translate(40.8398 72.9097)" width="133.956" height="10.431" fill="#37374D"/>
</g>
<g id="Content_3" transform="translate(660 38.7744)">
<rect id="Rectangle_3_3" transform="translate(0.780151 -0.190674)" width="204.535" height="14.3468" fill="#37374D"/>
<g id="Group_1" transform="translate(0 25.3707)">
<rect id="Rectangle_2_2" width="84.1398" height="24.6584" fill="#00CCCC"/>
<rect id="Rectangle_6" transform="translate(88.7219)" x="0.742952" y="0.742952" width="82.6539" height="23.1725" stroke="#00CCCC" stroke-width="1.4859"/>
<rect id="Rectangle_5_2" transform="translate(14.5581 8.6149)" width="55.0236" height="7.42861" fill="#000028"/>
<rect id="Rectangle_7_2" transform="translate(103.28 8.6149)" width="55.0236" height="7.42861" fill="#00CCCC"/>
</g>
<rect id="Rectangle_4_2" transform="translate(0 65.5605)" width="62.5111" height="10.431" fill="#37374D"/>
<rect id="Rectangle_5_3" transform="translate(77.7571 65.5605)" width="95.1046" height="10.431" fill="#37374D"/>
</g>
<g id="Content_4" transform="translate(660.78 213.498)">
<rect id="Rectangle_3_4" transform="translate(0.0126953 20.7925)" x="0.742952" y="0.742952" width="203.049" height="28.4629" rx="2.25705" stroke="#9999A9" stroke-width="1.4859"/>
<rect id="Rectangle_4_3" transform="translate(0.0126953 0.600769)" width="83.3596" height="13.3992" fill="#37374D"/>
<rect id="Rectangle_5_4" transform="translate(12.1141 30.0673)" width="118.762" height="10.4" fill="white"/>
<rect id="Rectangle_6_2" transform="translate(0.721924 59.145)" x="0.742952" y="0.742952" width="82.6539" height="23.1725" stroke="#00CCCC" stroke-width="1.4859"/>
<rect id="Rectangle_7_3" transform="translate(15.28 67.7599)" width="55.0236" height="7.42861" fill="#00CCCC"/>
</g>
<path id="Arrow_to_content_2" transform="translate(223.194 181.712) rotate(4.2799)" d="M28.8544 0.117822L29.0368 1.59248L28.8544 0.117822ZM59.3181 16.5298C60.1387 16.5207 60.7965 15.8481 60.7875 15.0275L60.6396 1.65522C60.6305 0.834627 59.958 0.176762 59.1374 0.185835C58.3168 0.194909 57.6589 0.867485 57.668 1.68808L57.7994 13.5746L45.9129 13.706C45.0923 13.7151 44.4345 14.3877 44.4435 15.2083C44.4526 16.0288 45.1252 16.6867 45.9458 16.6776L59.3181 16.5298ZM0 15.044C1.34322 15.6793 1.34278 15.6802 1.34236 15.6811C1.34225 15.6814 1.34186 15.6822 1.34164 15.6826C1.3412 15.6836 1.34084 15.6843 1.34057 15.6849C1.34002 15.686 1.33982 15.6864 1.33996 15.6861C1.34025 15.6856 1.34192 15.6821 1.34502 15.676C1.35122 15.6636 1.36314 15.6402 1.38113 15.6065C1.4171 15.539 1.47732 15.4299 1.56457 15.2845C1.73908 14.9936 2.02166 14.5571 2.43468 14.0156C3.26024 12.9332 4.60863 11.4287 6.66091 9.82601C10.7552 6.62874 17.7117 2.99364 29.0368 1.59248L28.8544 0.117822L28.6719 -1.35684C16.8482 0.106002 9.37752 3.93398 4.83182 7.48377C2.56411 9.25466 1.03932 10.9447 0.0716971 12.2134C-0.411881 12.8474 -0.755891 13.3757 -0.983827 13.7557C-1.0978 13.9456 -1.18277 14.0986 -1.24167 14.2091C-1.27113 14.2644 -1.29407 14.3091 -1.31087 14.3426C-1.31927 14.3593 -1.32614 14.3732 -1.33151 14.3843C-1.3342 14.3898 -1.33652 14.3946 -1.33846 14.3986C-1.33944 14.4007 -1.34032 14.4025 -1.34111 14.4042C-1.34151 14.405 -1.34204 14.4061 -1.34223 14.4065C-1.34274 14.4076 -1.34322 14.4086 0 15.044ZM28.8544 0.117822L29.0368 1.59248C32.0822 1.21571 35.4153 1.86346 38.773 3.13582C42.1213 4.40464 45.4044 6.26036 48.3111 8.19279C51.2133 10.1222 53.7081 12.1064 55.4783 13.6098C56.3624 14.3606 57.0632 14.9893 57.5409 15.4283C57.7797 15.6477 57.9626 15.8196 58.0846 15.9355C58.1456 15.9934 58.1913 16.0373 58.2212 16.0661C58.2362 16.0805 58.2471 16.0911 58.2541 16.0979C58.2575 16.1012 58.26 16.1036 58.2614 16.105C58.2621 16.1057 58.2626 16.1062 58.2628 16.1064C58.2629 16.1065 58.2629 16.1064 58.2629 16.1065C58.2628 16.1064 58.2626 16.1062 59.3017 15.044C60.3407 13.9817 60.3404 13.9814 60.34 13.9811C60.3398 13.9809 60.3394 13.9805 60.339 13.9801C60.3381 13.9792 60.337 13.9782 60.3357 13.9769C60.333 13.9742 60.3293 13.9706 60.3246 13.966C60.3151 13.9568 60.3015 13.9437 60.2839 13.9267C60.2488 13.8929 60.1976 13.8438 60.1311 13.7806C59.998 13.6541 59.8032 13.4711 59.5518 13.2401C59.049 12.7781 58.3191 12.1234 57.402 11.3446C55.57 9.78872 52.9808 7.72864 49.9564 5.71798C46.9366 3.71038 43.4505 1.73031 39.826 0.356851C36.2109 -1.01306 32.3676 -1.81407 28.6719 -1.35684L28.8544 0.117822Z" fill="#9747FF"/>
<path id="Arrow_to_content_4" transform="matrix(-0.934212 -0.356717 -0.356717 0.934212 651.6 217.201)" d="M19.8192 0.0494437L19.7072 -1.43223L19.8192 0.0494437ZM41.0954 7.75405C41.8912 7.55361 42.3738 6.746 42.1733 5.95022L38.9069 -7.01786C38.7065 -7.81365 37.8988 -8.29627 37.1031 -8.09582C36.3073 -7.89538 35.8247 -7.08777 36.0251 -6.29199L38.9286 5.2352L27.4014 8.13869C26.6056 8.33914 26.123 9.14674 26.3235 9.94253C26.5239 10.7383 27.3315 11.2209 28.1273 11.0205L41.0954 7.75405ZM0 6.31316C1.17493 7.2228 1.17412 7.22384 1.17333 7.22486C1.17308 7.22518 1.1723 7.22618 1.17181 7.22681C1.17083 7.22807 1.16991 7.22925 1.16904 7.23035C1.16731 7.23256 1.1658 7.23445 1.16453 7.23605C1.16199 7.23923 1.16039 7.24119 1.15975 7.24197C1.15848 7.24352 1.16108 7.2403 1.1678 7.2326C1.18124 7.21719 1.2112 7.18374 1.25968 7.13438C1.35654 7.03573 1.52791 6.87292 1.78976 6.66316C2.31288 6.24411 3.20195 5.63382 4.58684 4.97309C7.35725 3.65131 12.1263 2.12107 19.9312 1.53112L19.8192 0.0494437L19.7072 -1.43223C11.6118 -0.820316 6.47127 0.781302 3.30716 2.29091C1.72478 3.04587 0.640357 3.77616 -0.0682118 4.34377C-0.422197 4.62733 -0.681216 4.86937 -0.860781 5.05224C-0.950522 5.14363 -1.02028 5.2201 -1.07202 5.27943C-1.09788 5.30909 -1.11923 5.33445 -1.1363 5.35523C-1.14484 5.36562 -1.1523 5.37486 -1.15873 5.38292C-1.16195 5.38695 -1.1649 5.39068 -1.1676 5.39412C-1.16895 5.39583 -1.17023 5.39747 -1.17145 5.39904C-1.17206 5.39982 -1.17293 5.40094 -1.17324 5.40133C-1.17409 5.40243 -1.17493 5.40351 0 6.31316ZM19.8192 0.0494437L19.9312 1.53112C24.2085 1.2078 29.1739 2.66455 33.1893 4.29549C35.1726 5.10103 36.876 5.92889 38.0826 6.55495C38.6853 6.86763 39.1622 7.12907 39.4862 7.31097C39.6482 7.40189 39.7718 7.47287 39.8536 7.52035C39.8945 7.54409 39.925 7.56195 39.9445 7.57348C39.9543 7.57925 39.9614 7.58343 39.9657 7.58598C39.9678 7.58726 39.9693 7.58812 39.9701 7.58857C39.9704 7.58879 39.9706 7.58891 39.9707 7.58893C39.9707 7.58894 39.9706 7.58887 39.9706 7.58887C39.9704 7.58878 39.9702 7.58866 40.7324 6.31316C41.4947 5.03765 41.4944 5.03748 41.494 5.03728C41.4939 5.03718 41.4935 5.03695 41.4932 5.03675C41.4925 5.03634 41.4916 5.03582 41.4906 5.0352C41.4885 5.03397 41.4857 5.03231 41.4822 5.03024C41.4752 5.0261 41.4655 5.02031 41.4529 5.01292C41.4278 4.99814 41.3917 4.97699 41.345 4.94989C41.2516 4.89571 41.1158 4.81776 40.9411 4.71964C40.5916 4.52344 40.0858 4.24631 39.4513 3.91708C38.1836 3.25932 36.3951 2.39001 34.3076 1.54213C30.1815 -0.133787 24.6902 -1.8089 19.7072 -1.43223L19.8192 0.0494437Z" fill="#9747FF"/>
<path id="Arrow_to_content_1" transform="translate(231.687 123.493) rotate(25.3755)" d="M20.8651 15.9633L21.1416 14.5034V14.5034L20.8651 15.9633ZM58.7988 13.7118C59.2647 13.0363 59.0948 12.1109 58.4193 11.645L47.4108 4.05198C46.7352 3.58604 45.8099 3.75594 45.3439 4.43148C44.878 5.10702 45.0479 6.03237 45.7234 6.49831L55.5088 13.2477L48.7594 23.033C48.2935 23.7085 48.4634 24.6339 49.1389 25.0998C49.8145 25.5658 50.7398 25.3959 51.2058 24.7203L58.7988 13.7118ZM0 0C-1.24601 0.80955 -1.24576 0.809931 -1.24548 0.810363C-1.24534 0.810577 -1.24503 0.811063 -1.24475 0.81149C-1.24419 0.812346 -1.2435 0.81341 -1.24267 0.814682C-1.24101 0.817225 -1.2388 0.820596 -1.23606 0.824784C-1.23056 0.83316 -1.2229 0.844803 -1.21309 0.859617C-1.19348 0.889242 -1.16528 0.931557 -1.12867 0.985788C-1.05545 1.09424 -0.948549 1.25042 -0.809388 1.44815C-0.531146 1.84349 -0.12345 2.40562 0.402336 3.08495C1.45265 4.44199 2.98083 6.27531 4.8963 8.18408C8.69202 11.9665 14.1689 16.2071 20.5885 17.4233L20.8651 15.9633L21.1416 14.5034C15.5948 13.4526 10.6392 9.71149 6.994 6.07901C5.189 4.28032 3.7446 2.54787 2.75246 1.266C2.25702 0.625879 1.87601 0.100267 1.62086 -0.262264C1.49333 -0.443473 1.39736 -0.583764 1.33438 -0.677049C1.3029 -0.723686 1.27967 -0.758556 1.26488 -0.780898C1.25748 -0.792069 1.2522 -0.800105 1.24905 -0.804913C1.24747 -0.807317 1.24643 -0.808913 1.24592 -0.80969C1.24567 -0.810079 1.24555 -0.810262 1.24556 -0.810239C1.24557 -0.810228 1.24568 -0.810055 1.24568 -0.81005C1.24583 -0.809826 1.24601 -0.80955 0 0ZM20.8651 15.9633L20.5885 17.4233C23.2165 17.9212 26.8822 17.949 30.8008 17.7446C34.7507 17.5386 39.0736 17.0891 43.0709 16.5841C47.0711 16.0787 50.7619 15.5155 53.4518 15.0788C54.7972 14.8604 55.8934 14.6734 56.654 14.5409C57.0343 14.4747 57.3308 14.422 57.5327 14.3859C57.6337 14.3678 57.711 14.3538 57.7633 14.3443C57.7895 14.3396 57.8094 14.3359 57.8229 14.3335C57.8296 14.3322 57.8348 14.3313 57.8383 14.3307C57.84 14.3303 57.8414 14.3301 57.8423 14.3299C57.8428 14.3298 57.8432 14.3298 57.8435 14.3297C57.8438 14.3297 57.8439 14.3296 57.5756 12.8682C57.3073 11.4067 57.3072 11.4067 57.3071 11.4067C57.307 11.4067 57.3067 11.4068 57.3064 11.4068C57.3057 11.407 57.3046 11.4072 57.3031 11.4074C57.3001 11.408 57.2954 11.4088 57.2892 11.41C57.2767 11.4123 57.2579 11.4157 57.2327 11.4203C57.1825 11.4294 57.1074 11.4429 57.0086 11.4606C56.8112 11.496 56.5194 11.5478 56.144 11.6132C55.3932 11.744 54.3084 11.929 52.9756 12.1454C50.309 12.5783 46.6543 13.136 42.6984 13.6358C38.7394 14.1359 34.4954 14.576 30.646 14.7768C26.7653 14.9792 23.3993 14.9311 21.1416 14.5034L20.8651 15.9633Z" fill="#9747FF"/>
<path id="Arrow_to_content_3" transform="translate(618.126 120.561)" d="M-0.987042 42.7475C-1.60047 43.2926 -1.65583 44.2318 -1.1107 44.8452L7.77268 54.8416C8.31781 55.455 9.257 55.5103 9.87042 54.9652C10.4838 54.4201 10.5392 53.4809 9.99408 52.8675L2.09774 43.9819L10.9834 36.0855C11.5968 35.5404 11.6521 34.6012 11.107 33.9878C10.5619 33.3744 9.62269 33.319 9.00927 33.8641L-0.987042 42.7475ZM49.8685 28.5967L51.1524 29.3449L49.8685 28.5967ZM44.1906 2.76597L43.325 3.97374V3.97374L44.1906 2.76597ZM18.5766 9.5485L19.8518 10.3113L18.5766 9.5485ZM69.9394 34.4376L69.4991 33.0185L69.9394 34.4376ZM0 43.8582C-0.0874402 45.3415 -0.0869568 45.3416 -0.0863229 45.3416C-0.0859102 45.3416 -0.0851245 45.3417 -0.0842997 45.3417C-0.0826497 45.3418 -0.0803977 45.3419 -0.0775479 45.3421C-0.0718483 45.3424 -0.0637573 45.3429 -0.053308 45.3435C-0.0324095 45.3446 -0.0020763 45.3463 0.0374281 45.3483C0.116435 45.3524 0.232137 45.358 0.382423 45.3646C0.68298 45.3778 1.12197 45.3946 1.68251 45.4096C2.80339 45.4395 4.41145 45.4622 6.37145 45.4339C10.2878 45.3773 15.6271 45.1165 21.3014 44.2969C26.9666 43.4785 33.0231 42.095 38.3461 39.7663C43.6602 37.4415 48.371 34.1178 51.1524 29.3449L49.8685 28.5967L48.5847 27.8486C46.2389 31.874 42.1527 34.8572 37.155 37.0436C32.1664 39.2261 26.3966 40.5582 20.8765 41.3556C15.3654 42.1517 10.1603 42.407 6.32847 42.4624C4.41441 42.4901 2.84749 42.4678 1.7619 42.4388C1.21921 42.4243 0.797097 42.4081 0.512358 42.3957C0.369998 42.3894 0.262004 42.3841 0.190477 42.3804C0.154715 42.3786 0.128072 42.3772 0.110811 42.3762C0.10218 42.3757 0.0958954 42.3754 0.0919893 42.3751C0.0900362 42.375 0.0886779 42.375 0.0879183 42.3749C0.0875383 42.3749 0.0874193 42.3749 0.0872286 42.3749C0.0872591 42.3749 0.0874402 42.3749 0 43.8582ZM49.8685 28.5967L51.1524 29.3449C53.2274 25.784 54.9573 21.1624 54.5024 16.2118C54.041 11.1905 51.354 6.07168 45.0562 1.5582L44.1906 2.76597L43.325 3.97374C49.0313 8.06321 51.1721 12.4469 51.543 16.4838C51.9205 20.5914 50.4873 24.5837 48.5847 27.8486L49.8685 28.5967ZM44.1906 2.76597L45.0562 1.5582C38.0755 -3.44461 24.4004 -3.08236 17.3014 8.78574L18.5766 9.5485L19.8518 10.3113C25.9897 0.0498889 37.6459 -0.0963148 43.325 3.97374L44.1906 2.76597ZM18.5766 9.5485L17.3014 8.78574C13.1963 15.6487 13.079 21.4708 16.0505 26.1061C18.9191 30.581 24.4454 33.5712 30.7583 35.4564C43.4184 39.2369 60.4697 38.9309 70.3796 35.8568L69.9394 34.4376L69.4991 33.0185C60.1797 35.9094 43.7316 36.229 31.6086 32.6088C25.53 30.7936 20.8438 28.0768 18.5524 24.5023C16.3638 21.0882 16.1388 16.5185 19.8518 10.3113L18.5766 9.5485ZM69.9394 34.4376L70.3796 35.8568C79.3955 33.0601 84.1265 24.4583 86.6059 17.006C87.8611 13.2333 88.5802 9.63692 88.9862 6.98886C89.1895 5.66266 89.315 4.56888 89.39 3.8029C89.4275 3.41978 89.4524 3.1183 89.468 2.91033C89.4758 2.80634 89.4813 2.7257 89.485 2.66989C89.4868 2.64199 89.4881 2.62029 89.489 2.60498C89.4895 2.59732 89.4898 2.59127 89.4901 2.58683C89.4902 2.58461 89.4903 2.5828 89.4904 2.58139C89.4904 2.58069 89.4905 2.57994 89.4905 2.57959C89.4905 2.57895 89.4906 2.57841 88.0069 2.49683C86.5232 2.41525 86.5233 2.41491 86.5233 2.41468C86.5233 2.41473 86.5233 2.4146 86.5233 2.41471C86.5233 2.41493 86.5232 2.41556 86.5232 2.41659C86.523 2.41865 86.5228 2.42231 86.5225 2.42756C86.5219 2.43804 86.5209 2.45485 86.5194 2.4778C86.5164 2.5237 86.5116 2.59413 86.5046 2.68764C86.4905 2.87467 86.4675 3.15384 86.4324 3.5134C86.3619 4.23278 86.2428 5.27244 86.0487 6.53854C85.6598 9.07506 84.9735 12.4987 83.7861 16.0678C81.3803 23.299 77.0775 30.6676 69.4991 33.0185L69.9394 34.4376Z" fill="#9747FF"/>
</g>
<defs>
<clipPath id="clip0_8089_8396">
<rect width="896" height="360" fill="white"/>
</clipPath>
<clipPath id="clip1_8089_8396">
<rect width="355.131" height="177.365" fill="white"/>
</clipPath>
<clipPath id="clip2_8089_8396">
<rect width="307.582" height="129.816" fill="white"/>
</clipPath>
<clipPath id="clip3_8089_8396">
<rect width="307.582" height="124.816" fill="white"/>
</clipPath>
</defs>
</svg>
