<svg width="896" height="360" viewBox="0 0 896 360" fill="none" xmlns="http://www.w3.org/2000/svg">
<style>
@keyframes kf_How_to_use_slots_transform_0 {
  0% {
    transform: translateX(493px) translateY(49.807px) translateX(0px) translateY(56px);
  }
  8.92% {
    animation-timing-function: ease-out;
    transform: translateX(493px) translateY(49.807px) translateX(0px) translateY(56px);
  }
  21.34% {
    transform: translateX(493px) translateY(49.807px) translateX(0px) translateY(0px);
  }
  100% {
    transform: translateX(493px) translateY(49.807px) translateX(0px) translateY(0px);
  }
}
#How_to_use_slots {
  transform-origin: 0 0;
  animation: kf_How_to_use_slots_transform_0 5.55s linear infinite;
}
@keyframes kf_effectively_transform_0 {
  0% {
    animation-timing-function: ease-out;
    transform: translateX(493px) translateY(234.807px) translateX(0px) translateY(160px);
  }
  21.34% {
    transform: translateX(493px) translateY(234.807px) translateX(0px) translateY(0px);
  }
  100% {
    transform: translateX(493px) translateY(234.807px) translateX(0px) translateY(0px);
  }
}
@keyframes kf_effectively_opacity_0 {
  0% {
    animation-timing-function: linear;
    opacity: 0;
  }
  12.28% {
    animation-timing-function: ease-out;
    opacity: 0;
  }
  21.34% {
    animation-timing-function: linear;
    opacity: 1;
  }
  100% {
    opacity: 1;
  }
}
#effectively {
  transform-origin: 0 0;
  animation:
    kf_effectively_transform_0 5.55s linear infinite,
    kf_effectively_opacity_0 5.55s linear infinite;
}
</style>
<g id="_2607_blog_slots_header" clip-path="url(#clip0_8109_392)">
<rect width="896" height="360" id="_2607_blog_slots_header_bg_0" fill="#23233C">
</rect>
<path id="How_to_use_slots" transform="translate(493 49.8065)" d="M5.46875 62V17.7188H13.2188V36.25H31.7812V17.7188H39.5312V62H31.7812V42.5H13.2188V62H5.46875ZM63.5223 28.6875C68.7514 28.6875 72.7931 30.3854 75.6473 33.7812C78.2098 36.8229 79.491 40.7917 79.491 45.6875C79.491 51.0417 77.9806 55.2708 74.9598 58.375C72.1681 61.2708 68.3452 62.7188 63.491 62.7188C58.2618 62.7188 54.2202 61.0208 51.366 57.625C48.8035 54.5833 47.5223 50.5417 47.5223 45.5C47.5223 40.2708 49.0327 36.1042 52.0535 33C54.866 30.125 58.6889 28.6875 63.5223 28.6875ZM63.491 34.375C60.4493 34.375 58.1993 35.8021 56.741 38.6562C55.7618 40.5521 55.2723 42.8646 55.2723 45.5938C55.2723 49.1771 56.0014 51.9792 57.4598 54C58.9181 56.0208 60.9285 57.0312 63.491 57.0312C66.0743 57.0312 68.0952 56.0312 69.5535 54.0312C71.0118 52.0104 71.741 49.2292 71.741 45.6875C71.741 42.1667 71.0014 39.4062 69.5223 37.4062C68.0639 35.3854 66.0535 34.375 63.491 34.375ZM92.1383 62L82.732 29.375H90.1695L94.482 45.0938C95.2112 47.7396 95.9508 50.7917 96.7008 54.25C97.5549 50.6042 98.3674 47.4792 99.1383 44.875L103.701 29.375H111.732L116.513 44.75C117.263 47.2083 118.138 50.375 119.138 54.25L119.513 52.6875C120.159 49.875 120.815 47.2917 121.482 44.9375L125.92 29.375H132.732L123.107 62H115.17L110.232 46.2812C109.315 43.3229 108.399 40.0833 107.482 36.5625C106.711 39.7292 105.815 43.0208 104.795 46.4375L100.17 62H92.1383ZM156.558 35.0625H151.308V29.375H156.558V22.2812L164.027 20.8438V29.375H171.464V35.0625H164.027V50.2188C164.027 52.4271 164.245 53.9583 164.683 54.8125C165.329 56.0833 166.568 56.7188 168.402 56.7188C169.318 56.7188 170.495 56.4479 171.933 55.9062L172.589 61.625C170.297 62.3542 168.079 62.7188 165.933 62.7188C162.245 62.7188 159.652 61.5938 158.152 59.3438C157.089 57.7396 156.558 54.8333 156.558 50.625V35.0625ZM191.299 28.6875C196.528 28.6875 200.57 30.3854 203.424 33.7812C205.986 36.8229 207.268 40.7917 207.268 45.6875C207.268 51.0417 205.757 55.2708 202.736 58.375C199.945 61.2708 196.122 62.7188 191.268 62.7188C186.038 62.7188 181.997 61.0208 179.143 57.625C176.58 54.5833 175.299 50.5417 175.299 45.5C175.299 40.2708 176.809 36.1042 179.83 33C182.643 30.125 186.465 28.6875 191.299 28.6875ZM191.268 34.375C188.226 34.375 185.976 35.8021 184.518 38.6562C183.538 40.5521 183.049 42.8646 183.049 45.5938C183.049 49.1771 183.778 51.9792 185.236 54C186.695 56.0208 188.705 57.0312 191.268 57.0312C193.851 57.0312 195.872 56.0312 197.33 54.0312C198.788 52.0104 199.518 49.2292 199.518 45.6875C199.518 42.1667 198.778 39.4062 197.299 37.4062C195.84 35.3854 193.83 34.375 191.268 34.375ZM258.937 29.375V50.5312C258.937 54.4271 259.031 58.25 259.218 62H252.187L251.937 57.1875C250.041 59.1875 248.229 60.6146 246.499 61.4688C244.77 62.3021 242.791 62.7188 240.562 62.7188C236.333 62.7188 233.416 61.1875 231.812 58.125C230.874 56.3333 230.406 53.2917 230.406 49V29.375H237.874V48.625C237.874 51.2292 238.083 53.0729 238.499 54.1562C239.229 56.0312 240.739 56.9688 243.031 56.9688C245.989 56.9688 248.802 55.125 251.468 51.4375V29.375H258.937ZM266.709 60.1562L268.709 54.4375C270.501 55.4583 272.011 56.1667 273.241 56.5625C274.491 56.9375 275.845 57.125 277.303 57.125C279.011 57.125 280.334 56.7604 281.272 56.0312C282.23 55.2812 282.709 54.2604 282.709 52.9688C282.709 51.7396 282.282 50.8125 281.428 50.1875C280.761 49.7292 279.011 48.9896 276.178 47.9688C274.22 47.2812 272.782 46.7083 271.866 46.25C270.949 45.7708 270.116 45.1979 269.366 44.5312C267.72 43.0729 266.897 41.0729 266.897 38.5312C266.897 35.3854 268.074 32.9167 270.428 31.125C272.553 29.5 275.397 28.6875 278.959 28.6875C282.355 28.6875 285.886 29.4583 289.553 31L287.616 36.75C284.782 35.0833 281.991 34.25 279.241 34.25C277.72 34.25 276.511 34.5833 275.616 35.25C274.72 35.9167 274.272 36.8229 274.272 37.9688C274.272 39.1771 274.866 40.1146 276.053 40.7812C276.741 41.1562 278.449 41.8542 281.178 42.875C284.511 44.125 286.834 45.4271 288.147 46.7812C289.459 48.1562 290.116 49.9792 290.116 52.25C290.116 55.2917 289.011 57.7812 286.803 59.7188C284.532 61.7188 281.407 62.7188 277.428 62.7188C273.657 62.7188 270.084 61.8646 266.709 60.1562ZM303.294 48.0625C303.544 50.75 304.232 52.7812 305.357 54.1562C307.023 56.1354 309.482 57.125 312.732 57.125C315.94 57.125 319.169 56.0729 322.419 53.9688L325.075 59.4688C321.304 61.6354 317.127 62.7188 312.544 62.7188C306.794 62.7188 302.44 61.1042 299.482 57.875C296.794 54.9792 295.45 50.9479 295.45 45.7812C295.45 40.3229 296.971 36.0208 300.013 32.875C302.7 30.0833 306.388 28.6875 311.075 28.6875C317.971 28.6875 322.45 31.3542 324.513 36.6875C325.534 39.3333 326.065 43.125 326.107 48.0625H303.294ZM318.45 42.7812C318.388 40.8438 318.013 39.1875 317.325 37.8125C316.096 35.4167 314.013 34.2188 311.075 34.2188C308.804 34.2188 306.971 34.9792 305.575 36.5C304.2 38.0208 303.461 40.1146 303.357 42.7812H318.45ZM3.73242 160.58L6.35742 153.074C8.70898 154.414 10.6914 155.344 12.3047 155.863C13.9453 156.355 15.7227 156.602 17.6367 156.602C19.8789 156.602 21.6152 156.123 22.8457 155.166C24.1035 154.182 24.7324 152.842 24.7324 151.146C24.7324 149.533 24.1719 148.316 23.0508 147.496C22.1758 146.895 19.8789 145.924 16.1602 144.584C13.5898 143.682 11.7031 142.93 10.5 142.328C9.29688 141.699 8.20312 140.947 7.21875 140.072C5.05859 138.158 3.97852 135.533 3.97852 132.197C3.97852 128.068 5.52344 124.828 8.61328 122.477C11.4023 120.344 15.1348 119.277 19.8105 119.277C24.2676 119.277 28.9023 120.289 33.7148 122.312L31.1719 129.859C27.4531 127.672 23.7891 126.578 20.1797 126.578C18.1836 126.578 16.5977 127.016 15.4219 127.891C14.2461 128.766 13.6582 129.955 13.6582 131.459C13.6582 133.045 14.4375 134.275 15.9961 135.15C16.8984 135.643 19.1406 136.559 22.7227 137.898C27.0977 139.539 30.1465 141.248 31.8691 143.025C33.5918 144.83 34.4531 147.223 34.4531 150.203C34.4531 154.195 33.0039 157.463 30.1055 160.006C27.125 162.631 23.0234 163.943 17.8008 163.943C12.8516 163.943 8.16211 162.822 3.73242 160.58ZM44.6542 163V101.6H54.4569V163H44.6542ZM85.658 119.277C92.5213 119.277 97.826 121.506 101.572 125.963C104.935 129.955 106.617 135.164 106.617 141.59C106.617 148.617 104.635 154.168 100.67 158.242C97.0057 162.043 91.9881 163.943 85.617 163.943C78.7537 163.943 73.449 161.715 69.7029 157.258C66.3397 153.266 64.658 147.961 64.658 141.344C64.658 134.48 66.6404 129.012 70.6053 124.938C74.2967 121.164 79.3143 119.277 85.658 119.277ZM85.617 126.742C81.6248 126.742 78.6717 128.615 76.7576 132.361C75.4725 134.85 74.8299 137.885 74.8299 141.467C74.8299 146.17 75.7869 149.848 77.701 152.5C79.615 155.152 82.2537 156.479 85.617 156.479C89.0076 156.479 91.66 155.166 93.574 152.541C95.4881 149.889 96.4451 146.238 96.4451 141.59C96.4451 136.969 95.4744 133.346 93.533 130.721C91.619 128.068 88.9803 126.742 85.617 126.742ZM118.131 127.645H111.24V120.18H118.131V110.869L127.933 108.982V120.18H137.695V127.645H127.933V147.537C127.933 150.436 128.22 152.445 128.795 153.566C129.642 155.234 131.269 156.068 133.675 156.068C134.879 156.068 136.424 155.713 138.31 155.002L139.172 162.508C136.164 163.465 133.252 163.943 130.435 163.943C125.595 163.943 122.191 162.467 120.222 159.514C118.828 157.408 118.131 153.594 118.131 148.07V127.645ZM143.466 160.58L146.091 153.074C148.443 154.414 150.425 155.344 152.039 155.863C153.679 156.355 155.457 156.602 157.371 156.602C159.613 156.602 161.349 156.123 162.58 155.166C163.838 154.182 164.466 152.842 164.466 151.146C164.466 149.533 163.906 148.316 162.785 147.496C161.91 146.895 159.613 145.924 155.894 144.584C153.324 143.682 151.437 142.93 150.234 142.328C149.031 141.699 147.937 140.947 146.953 140.072C144.793 138.158 143.713 135.533 143.713 132.197C143.713 128.068 145.257 124.828 148.347 122.477C151.136 120.344 154.869 119.277 159.545 119.277C164.002 119.277 168.636 120.289 173.449 122.312L170.906 129.859C167.187 127.672 163.523 126.578 159.914 126.578C157.918 126.578 156.332 127.016 155.156 127.891C153.98 128.766 153.392 129.955 153.392 131.459C153.392 133.045 154.171 134.275 155.73 135.15C156.632 135.643 158.875 136.559 162.457 137.898C166.832 139.539 169.88 141.248 171.603 143.025C173.326 144.83 174.187 147.223 174.187 150.203C174.187 154.195 172.738 157.463 169.839 160.006C166.859 162.631 162.757 163.943 157.535 163.943C152.586 163.943 147.896 162.822 143.466 160.58Z" fill="#00FFB9"/>
<path id="effectively" transform="translate(493 234.807)" d="M10.6875 48.0625C10.9375 50.75 11.625 52.7812 12.75 54.1562C14.4167 56.1354 16.875 57.125 20.125 57.125C23.3333 57.125 26.5625 56.0729 29.8125 53.9688L32.4688 59.4688C28.6979 61.6354 24.5208 62.7188 19.9375 62.7188C14.1875 62.7188 9.83333 61.1042 6.875 57.875C4.1875 54.9792 2.84375 50.9479 2.84375 45.7812C2.84375 40.3229 4.36458 36.0208 7.40625 32.875C10.0938 30.0833 13.7812 28.6875 18.4688 28.6875C25.3646 28.6875 29.8438 31.3542 31.9062 36.6875C32.9271 39.3333 33.4583 43.125 33.5 48.0625H10.6875ZM25.8438 42.7812C25.7812 40.8438 25.4062 39.1875 24.7188 37.8125C23.4896 35.4167 21.4062 34.2188 18.4688 34.2188C16.1979 34.2188 14.3646 34.9792 12.9688 36.5C11.5938 38.0208 10.8542 40.1146 10.75 42.7812H25.8438ZM42.866 62V35.0625H37.6473V29.375H42.866V27.2188C42.866 23.3021 43.4598 20.3854 44.6473 18.4688C46.3139 15.8021 49.1577 14.4688 53.1785 14.4688C55.0327 14.4688 57.0118 14.7604 59.116 15.3438L58.5223 21.3125C57.1889 20.7083 55.9285 20.4062 54.741 20.4062C53.1577 20.4062 52.0223 20.9792 51.3348 22.125C50.6681 23.2708 50.3348 25.1979 50.3348 27.9062V29.375H57.8035V35.0625H50.3348V62H42.866ZM67.232 62V35.0625H62.0132V29.375H67.232V27.2188C67.232 23.3021 67.8257 20.3854 69.0132 18.4688C70.6799 15.8021 73.5237 14.4688 77.5445 14.4688C79.3987 14.4688 81.3778 14.7604 83.482 15.3438L82.8882 21.3125C81.5549 20.7083 80.2945 20.4062 79.107 20.4062C77.5237 20.4062 76.3882 20.9792 75.7007 22.125C75.0341 23.2708 74.7007 25.1979 74.7007 27.9062V29.375H82.1695V35.0625H74.7007V62H67.232ZM93.5355 48.0625C93.7855 50.75 94.473 52.7812 95.598 54.1562C97.2647 56.1354 99.723 57.125 102.973 57.125C106.181 57.125 109.41 56.0729 112.66 53.9688L115.317 59.4688C111.546 61.6354 107.369 62.7188 102.785 62.7188C97.0355 62.7188 92.6813 61.1042 89.723 57.875C87.0355 54.9792 85.6917 50.9479 85.6917 45.7812C85.6917 40.3229 87.2126 36.0208 90.2542 32.875C92.9417 30.0833 96.6292 28.6875 101.317 28.6875C108.213 28.6875 112.692 31.3542 114.754 36.6875C115.775 39.3333 116.306 43.125 116.348 48.0625H93.5355ZM108.692 42.7812C108.629 40.8438 108.254 39.1875 107.567 37.8125C106.338 35.4167 104.254 34.2188 101.317 34.2188C99.0459 34.2188 97.2126 34.9792 95.8167 36.5C94.4417 38.0208 93.7022 40.1146 93.598 42.7812H108.692ZM145.901 54.4375L148.308 59.9062C145.308 61.7812 141.776 62.7188 137.714 62.7188C132.61 62.7188 128.62 61.1771 125.745 58.0938C122.954 55.0729 121.558 50.9792 121.558 45.8125C121.558 40.2917 123.037 35.9688 125.995 32.8438C128.641 30.0521 132.318 28.6562 137.026 28.6562C140.672 28.6562 144.204 29.4792 147.62 31.125L145.37 36.7188C142.829 35.1146 140.318 34.3125 137.839 34.3125C134.922 34.3125 132.766 35.3646 131.37 37.4688C129.995 39.5104 129.308 42.2396 129.308 45.6562C129.308 49.1979 130.11 51.9896 131.714 54.0312C133.297 55.9896 135.537 56.9688 138.433 56.9688C140.995 56.9688 143.485 56.125 145.901 54.4375ZM156.174 35.0625H150.924V29.375H156.174V22.2812L163.643 20.8438V29.375H171.08V35.0625H163.643V50.2188C163.643 52.4271 163.861 53.9583 164.299 54.8125C164.945 56.0833 166.184 56.7188 168.018 56.7188C168.934 56.7188 170.111 56.4479 171.549 55.9062L172.205 61.625C169.913 62.3542 167.695 62.7188 165.549 62.7188C161.861 62.7188 159.268 61.5938 157.768 59.3438C156.705 57.7396 156.174 54.8333 156.174 50.625V35.0625ZM177.852 62V29.375H185.321V62H177.852ZM181.602 14.0938C182.956 14.0938 184.061 14.5312 184.915 15.4062C185.79 16.2812 186.227 17.4062 186.227 18.7812C186.227 20.1354 185.79 21.2604 184.915 22.1562C184.061 23.0312 182.967 23.4688 181.633 23.4688C180.258 23.4688 179.133 23.0312 178.258 22.1562C177.404 21.2604 176.977 20.1146 176.977 18.7188C176.977 17.3854 177.415 16.2812 178.29 15.4062C179.165 14.5312 180.269 14.0938 181.602 14.0938ZM203.281 62L190.937 29.375H198.687L205.437 47.4375C206.374 49.9583 207.187 52.3333 207.874 54.5625C208.541 52.3333 209.343 49.9375 210.281 47.375L216.843 29.375H223.968L211.749 62H203.281ZM233.99 48.0625C234.24 50.75 234.928 52.7812 236.053 54.1562C237.72 56.1354 240.178 57.125 243.428 57.125C246.636 57.125 249.865 56.0729 253.115 53.9688L255.772 59.4688C252.001 61.6354 247.824 62.7188 243.24 62.7188C237.49 62.7188 233.136 61.1042 230.178 57.875C227.49 54.9792 226.147 50.9479 226.147 45.7812C226.147 40.3229 227.668 36.0208 230.709 32.875C233.397 30.0833 237.084 28.6875 241.772 28.6875C248.668 28.6875 253.147 31.3542 255.209 36.6875C256.23 39.3333 256.761 43.125 256.803 48.0625H233.99ZM249.147 42.7812C249.084 40.8438 248.709 39.1875 248.022 37.8125C246.793 35.4167 244.709 34.2188 241.772 34.2188C239.501 34.2188 237.668 34.9792 236.272 36.5C234.897 38.0208 234.157 40.1146 234.053 42.7812H249.147ZM264.45 62V15.2188H271.919V62H264.45ZM290.316 61.5L277.191 29.375H285.16L291.691 45.9062C292.65 48.3229 293.566 50.8125 294.441 53.375C295.4 50.4792 296.316 47.875 297.191 45.5625L303.316 29.375H310.598L297.41 62.7188C295.431 67.6979 293.65 71.1458 292.066 73.0625C290.129 75.375 287.337 76.5312 283.691 76.5312C281.67 76.5312 279.483 76.1562 277.129 75.4062L278.41 69.5625C279.973 70.1875 281.327 70.5 282.473 70.5C284.202 70.5 285.639 69.8333 286.785 68.5C287.952 67.1875 289.129 64.8542 290.316 61.5Z" fill="#00CCCC"/>
<g id="main-card-blueprint" filter="url(#filter0_d_8109_392)" transform="translate(33 17.8065)">
<path d="M0 4.00001C0 1.79087 1.79086 0 4 0H356C358.209 0 360 1.79086 360 4V330C360 332.209 358.209 334 356 334H4.00001C1.79087 334 0 332.209 0 330V4.00001Z" id="main-card-blueprint_bg_0" fill="#000028" shape-rendering="crispEdges">
</path>
<g id="card-header">
<rect width="360" height="56" id="card-header_bg_0" fill="#23233C" fill-opacity="0.5">
</rect>
<g id="title-group" transform="translate(20 16)">
<path id="_ix-blind_label____Example____" d="M8.24 16.96L1.36 13.52V11.92L8.24 8.48V9.872L3.28 12.304C3.07733 12.4 2.88533 12.4853 2.704 12.56C2.53333 12.624 2.40533 12.6667 2.32 12.688C2.416 12.7093 2.55467 12.7573 2.736 12.832C2.91733 12.896 3.09867 12.976 3.28 13.072L8.24 15.52V16.96ZM10.9538 18V16.688H14.0738V10.512H11.3538V9.2H15.5138V16.688H18.4738V18H10.9538ZM14.6338 7.616C14.2818 7.616 14.0044 7.52533 13.8018 7.344C13.5991 7.16267 13.4978 6.91733 13.4978 6.608C13.4978 6.288 13.5991 6.03733 13.8018 5.856C14.0044 5.664 14.2818 5.568 14.6338 5.568C14.9858 5.568 15.2631 5.664 15.4658 5.856C15.6684 6.03733 15.7698 6.288 15.7698 6.608C15.7698 6.91733 15.6684 7.16267 15.4658 7.344C15.2631 7.52533 14.9858 7.616 14.6338 7.616ZM19.9875 18L23.1075 13.472L20.1795 9.2H21.8755L23.6195 11.92C23.6942 12.0373 23.7635 12.1653 23.8275 12.304C23.9022 12.4427 23.9608 12.5547 24.0035 12.64C24.0355 12.5547 24.0835 12.4427 24.1475 12.304C24.2222 12.1653 24.2968 12.0373 24.3715 11.92L26.1315 9.2H27.8115L24.8835 13.488L27.9875 18H26.2915L24.4035 15.12C24.3288 15.0027 24.2542 14.8693 24.1795 14.72C24.1155 14.56 24.0568 14.432 24.0035 14.336C23.9608 14.432 23.8968 14.56 23.8115 14.72C23.7368 14.8693 23.6568 15.0027 23.5715 15.12L21.6675 18H19.9875ZM31.0213 13.36V12.08H36.1413V13.36H31.0213ZM43.687 18.16C42.9617 18.16 42.3803 17.968 41.943 17.584C41.5057 17.1893 41.287 16.656 41.287 15.984L41.575 16.32H41.287V18H39.847V6.32H41.287V8.88L41.255 10.88H41.575L41.287 11.216C41.287 10.5547 41.5057 10.0267 41.943 9.632C42.391 9.23733 42.9723 9.04 43.687 9.04C44.5723 9.04 45.2817 9.33333 45.815 9.92C46.3483 10.5067 46.615 11.3067 46.615 12.32V14.896C46.615 15.8987 46.3483 16.6933 45.815 17.28C45.2817 17.8667 44.5723 18.16 43.687 18.16ZM43.207 16.912C43.815 16.912 44.295 16.7307 44.647 16.368C44.999 16.0053 45.175 15.4827 45.175 14.8V12.4C45.175 11.7173 44.999 11.1947 44.647 10.832C44.295 10.4693 43.815 10.288 43.207 10.288C42.6203 10.288 42.151 10.4747 41.799 10.848C41.4577 11.2213 41.287 11.7387 41.287 12.4V14.8C41.287 15.4613 41.4577 15.9787 41.799 16.352C42.151 16.7253 42.6203 16.912 43.207 16.912ZM53.9688 18C53.4568 18 53.0088 17.8987 52.6248 17.696C52.2408 17.4933 51.9421 17.2053 51.7288 16.832C51.5154 16.4587 51.4088 16.0213 51.4088 15.52V7.632H48.4488V6.32H52.8488V15.52C52.8488 15.8827 52.9501 16.1707 53.1528 16.384C53.3554 16.5867 53.6274 16.688 53.9688 16.688H56.7688V18H53.9688ZM58.9225 18V16.688H62.0425V10.512H59.3225V9.2H63.4825V16.688H66.4425V18H58.9225ZM62.6025 7.616C62.2505 7.616 61.9732 7.52533 61.7705 7.344C61.5678 7.16267 61.4665 6.91733 61.4665 6.608C61.4665 6.288 61.5678 6.03733 61.7705 5.856C61.9732 5.664 62.2505 5.568 62.6025 5.568C62.9545 5.568 63.2318 5.664 63.4345 5.856C63.6372 6.03733 63.7385 6.288 63.7385 6.608C63.7385 6.91733 63.6372 7.16267 63.4345 7.344C63.2318 7.52533 62.9545 7.616 62.6025 7.616ZM68.6283 18V9.2H70.0683V10.88H70.3723L70.0683 11.216C70.0683 10.5227 70.2763 9.98933 70.6923 9.616C71.1083 9.232 71.6843 9.04 72.4203 9.04C73.3056 9.04 74.0096 9.312 74.5323 9.856C75.0549 10.4 75.3163 11.1413 75.3163 12.08V18H73.8763V12.24C73.8763 11.6107 73.7056 11.1307 73.3643 10.8C73.0336 10.4587 72.5803 10.288 72.0043 10.288C71.4069 10.288 70.9323 10.4693 70.5803 10.832C70.2389 11.1947 70.0683 11.7173 70.0683 12.4V18H68.6283ZM81.038 18.16C80.1633 18.16 79.454 17.8667 78.91 17.28C78.3767 16.6933 78.11 15.8987 78.11 14.896V12.32C78.11 11.3067 78.3767 10.5067 78.91 9.92C79.4433 9.33333 80.1527 9.04 81.038 9.04C81.7633 9.04 82.3447 9.23733 82.782 9.632C83.2193 10.0267 83.438 10.5547 83.438 11.216L83.15 10.88H83.47L83.438 8.88V6.32H84.878V18H83.438V16.32H83.15L83.438 15.984C83.438 16.656 83.2193 17.1893 82.782 17.584C82.3447 17.968 81.7633 18.16 81.038 18.16ZM81.518 16.912C82.1153 16.912 82.5847 16.7253 82.926 16.352C83.2673 15.9787 83.438 15.4613 83.438 14.8V12.4C83.438 11.7387 83.2673 11.2213 82.926 10.848C82.5847 10.4747 82.1153 10.288 81.518 10.288C80.91 10.288 80.43 10.4693 80.078 10.832C79.726 11.1947 79.55 11.7173 79.55 12.4V14.8C79.55 15.4827 79.726 16.0053 80.078 16.368C80.43 16.7307 80.91 16.912 81.518 16.912ZM101.938 18C101.426 18 100.978 17.8987 100.594 17.696C100.21 17.4933 99.9108 17.2053 99.6975 16.832C99.4842 16.4587 99.3775 16.0213 99.3775 15.52V7.632H96.4175V6.32H100.818V15.52C100.818 15.8827 100.919 16.1707 101.122 16.384C101.324 16.5867 101.596 16.688 101.938 16.688H104.738V18H101.938ZM109.563 18.16C108.635 18.16 107.905 17.9253 107.371 17.456C106.838 16.976 106.571 16.3307 106.571 15.52C106.571 14.6987 106.838 14.0533 107.371 13.584C107.905 13.1147 108.625 12.88 109.531 12.88H112.251V12C112.251 11.456 112.086 11.04 111.755 10.752C111.435 10.4533 110.977 10.304 110.379 10.304C109.857 10.304 109.419 10.416 109.067 10.64C108.715 10.8533 108.513 11.1467 108.459 11.52H107.019C107.115 10.7627 107.473 10.16 108.091 9.712C108.71 9.264 109.483 9.04 110.411 9.04C111.425 9.04 112.225 9.30133 112.811 9.824C113.398 10.3467 113.691 11.056 113.691 11.952V18H112.283V16.32H112.043L112.283 16.08C112.283 16.72 112.033 17.2267 111.531 17.6C111.041 17.9733 110.385 18.16 109.563 18.16ZM109.915 17.024C110.598 17.024 111.158 16.8533 111.595 16.512C112.033 16.1707 112.251 15.7333 112.251 15.2V13.952H109.563C109.083 13.952 108.705 14.0853 108.427 14.352C108.15 14.6187 108.011 14.9813 108.011 15.44C108.011 15.9307 108.177 16.32 108.507 16.608C108.849 16.8853 109.318 17.024 109.915 17.024ZM120.437 18.16C119.712 18.16 119.13 17.968 118.693 17.584C118.256 17.1893 118.037 16.656 118.037 15.984L118.325 16.32H118.037V18H116.597V6.32H118.037V8.88L118.005 10.88H118.325L118.037 11.216C118.037 10.5547 118.256 10.0267 118.693 9.632C119.141 9.23733 119.722 9.04 120.437 9.04C121.322 9.04 122.032 9.33333 122.565 9.92C123.098 10.5067 123.365 11.3067 123.365 12.32V14.896C123.365 15.8987 123.098 16.6933 122.565 17.28C122.032 17.8667 121.322 18.16 120.437 18.16ZM119.957 16.912C120.565 16.912 121.045 16.7307 121.397 16.368C121.749 16.0053 121.925 15.4827 121.925 14.8V12.4C121.925 11.7173 121.749 11.1947 121.397 10.832C121.045 10.4693 120.565 10.288 119.957 10.288C119.37 10.288 118.901 10.4747 118.549 10.848C118.208 11.2213 118.037 11.7387 118.037 12.4V14.8C118.037 15.4613 118.208 15.9787 118.549 16.352C118.901 16.7253 119.37 16.912 119.957 16.912ZM129.519 18.16C128.825 18.16 128.217 18.0213 127.695 17.744C127.183 17.4667 126.783 17.0773 126.495 16.576C126.217 16.064 126.079 15.472 126.079 14.8V12.4C126.079 11.7173 126.217 11.1253 126.495 10.624C126.783 10.1227 127.183 9.73333 127.695 9.456C128.217 9.17867 128.825 9.04 129.519 9.04C130.212 9.04 130.815 9.17867 131.327 9.456C131.849 9.73333 132.249 10.1227 132.527 10.624C132.815 11.1253 132.959 11.7173 132.959 12.4V13.952H127.487V14.8C127.487 15.4933 127.663 16.0267 128.015 16.4C128.367 16.7627 128.868 16.944 129.519 16.944C130.073 16.944 130.521 16.848 130.863 16.656C131.204 16.4533 131.412 16.1547 131.487 15.76H132.927C132.831 16.496 132.468 17.0827 131.839 17.52C131.22 17.9467 130.447 18.16 129.519 18.16ZM131.551 12.992V12.4C131.551 11.7067 131.375 11.1733 131.023 10.8C130.681 10.4267 130.18 10.24 129.519 10.24C128.868 10.24 128.367 10.4267 128.015 10.8C127.663 11.1733 127.487 11.7067 127.487 12.4V12.864H131.663L131.551 12.992ZM140.313 18C139.801 18 139.353 17.8987 138.969 17.696C138.585 17.4933 138.286 17.2053 138.073 16.832C137.859 16.4587 137.753 16.0213 137.753 15.52V7.632H134.793V6.32H139.193V15.52C139.193 15.8827 139.294 16.1707 139.497 16.384C139.699 16.5867 139.971 16.688 140.313 16.688H143.113V18H140.313ZM145.266 11.44V10.16H152.146V11.44H145.266ZM145.266 15.28V14H152.146V15.28H145.266ZM158.54 10.56L159.82 5.584H161.9L159.82 10.56H158.54ZM154.86 10.56L156.14 5.584H158.22L156.14 10.56H154.86ZM164.694 18V6.32H171.414V7.632H166.118V11.248H170.854V12.544H166.118V16.688H171.414V18H164.694ZM173.488 18L176.608 13.472L173.68 9.2H175.376L177.12 11.92C177.194 12.0373 177.264 12.1653 177.328 12.304C177.402 12.4427 177.461 12.5547 177.504 12.64C177.536 12.5547 177.584 12.4427 177.648 12.304C177.722 12.1653 177.797 12.0373 177.872 11.92L179.632 9.2H181.312L178.384 13.488L181.488 18H179.792L177.904 15.12C177.829 15.0027 177.754 14.8693 177.68 14.72C177.616 14.56 177.557 14.432 177.504 14.336C177.461 14.432 177.397 14.56 177.312 14.72C177.237 14.8693 177.157 15.0027 177.072 15.12L175.168 18H173.488ZM186.313 18.16C185.385 18.16 184.655 17.9253 184.121 17.456C183.588 16.976 183.321 16.3307 183.321 15.52C183.321 14.6987 183.588 14.0533 184.121 13.584C184.655 13.1147 185.375 12.88 186.281 12.88H189.001V12C189.001 11.456 188.836 11.04 188.505 10.752C188.185 10.4533 187.727 10.304 187.129 10.304C186.607 10.304 186.169 10.416 185.817 10.64C185.465 10.8533 185.263 11.1467 185.209 11.52H183.769C183.865 10.7627 184.223 10.16 184.841 9.712C185.46 9.264 186.233 9.04 187.161 9.04C188.175 9.04 188.975 9.30133 189.561 9.824C190.148 10.3467 190.441 11.056 190.441 11.952V18H189.033V16.32H188.793L189.033 16.08C189.033 16.72 188.783 17.2267 188.281 17.6C187.791 17.9733 187.135 18.16 186.313 18.16ZM186.665 17.024C187.348 17.024 187.908 16.8533 188.345 16.512C188.783 16.1707 189.001 15.7333 189.001 15.2V13.952H186.313C185.833 13.952 185.455 14.0853 185.177 14.352C184.9 14.6187 184.761 14.9813 184.761 15.44C184.761 15.9307 184.927 16.32 185.257 16.608C185.599 16.8853 186.068 17.024 186.665 17.024ZM192.931 18V9.2H194.195V10.256H194.483L194.259 10.64C194.259 10.1493 194.387 9.76 194.643 9.472C194.91 9.184 195.267 9.04 195.715 9.04C196.206 9.04 196.584 9.22133 196.851 9.584C197.118 9.94667 197.251 10.4587 197.251 11.12L196.819 10.256H197.491L197.187 10.64C197.187 10.1493 197.32 9.76 197.587 9.472C197.864 9.184 198.227 9.04 198.675 9.04C199.23 9.04 199.656 9.248 199.955 9.664C200.264 10.08 200.419 10.6293 200.419 11.312V18H199.091V11.296C199.091 10.9333 199.011 10.6507 198.851 10.448C198.702 10.2453 198.478 10.144 198.179 10.144C197.891 10.144 197.662 10.2453 197.491 10.448C197.331 10.64 197.251 10.9173 197.251 11.28V18H196.099V11.296C196.099 10.9227 196.014 10.64 195.843 10.448C195.683 10.2453 195.454 10.144 195.155 10.144C194.856 10.144 194.632 10.2453 194.483 10.448C194.334 10.64 194.259 10.9173 194.259 11.28V18H192.931ZM202.941 20.88V9.2H204.381V10.88H204.669L204.381 11.216C204.381 10.544 204.599 10.016 205.037 9.632C205.485 9.23733 206.071 9.04 206.797 9.04C207.682 9.04 208.386 9.33333 208.909 9.92C209.442 10.496 209.709 11.2907 209.709 12.304V14.88C209.709 15.552 209.586 16.1333 209.341 16.624C209.106 17.1147 208.77 17.4933 208.333 17.76C207.906 18.0267 207.394 18.16 206.797 18.16C206.082 18.16 205.501 17.9627 205.053 17.568C204.605 17.1733 204.381 16.6453 204.381 15.984L204.669 16.32H204.349L204.381 18.32V20.88H202.941ZM206.317 16.912C206.925 16.912 207.399 16.7307 207.741 16.368C208.093 16.0053 208.269 15.4827 208.269 14.8V12.4C208.269 11.7173 208.093 11.1947 207.741 10.832C207.399 10.4693 206.925 10.288 206.317 10.288C205.73 10.288 205.261 10.4747 204.909 10.848C204.557 11.2213 204.381 11.7387 204.381 12.4V14.8C204.381 15.4613 204.557 15.9787 204.909 16.352C205.261 16.7253 205.73 16.912 206.317 16.912ZM217.063 18C216.551 18 216.103 17.8987 215.719 17.696C215.335 17.4933 215.036 17.2053 214.823 16.832C214.609 16.4587 214.503 16.0213 214.503 15.52V7.632H211.543V6.32H215.943V15.52C215.943 15.8827 216.044 16.1707 216.247 16.384C216.449 16.5867 216.721 16.688 217.063 16.688H219.863V18H217.063ZM225.456 18.16C224.763 18.16 224.155 18.0213 223.632 17.744C223.12 17.4667 222.72 17.0773 222.432 16.576C222.155 16.064 222.016 15.472 222.016 14.8V12.4C222.016 11.7173 222.155 11.1253 222.432 10.624C222.72 10.1227 223.12 9.73333 223.632 9.456C224.155 9.17867 224.763 9.04 225.456 9.04C226.15 9.04 226.752 9.17867 227.264 9.456C227.787 9.73333 228.187 10.1227 228.464 10.624C228.752 11.1253 228.896 11.7173 228.896 12.4V13.952H223.424V14.8C223.424 15.4933 223.6 16.0267 223.952 16.4C224.304 16.7627 224.806 16.944 225.456 16.944C226.011 16.944 226.459 16.848 226.8 16.656C227.142 16.4533 227.35 16.1547 227.424 15.76H228.864C228.768 16.496 228.406 17.0827 227.776 17.52C227.158 17.9467 226.384 18.16 225.456 18.16ZM227.488 12.992V12.4C227.488 11.7067 227.312 11.1733 226.96 10.8C226.619 10.4267 226.118 10.24 225.456 10.24C224.806 10.24 224.304 10.4267 223.952 10.8C223.6 11.1733 223.424 11.7067 223.424 12.4V12.864H227.6L227.488 12.992ZM235.29 10.56L236.57 5.584H238.65L236.57 10.56H235.29ZM231.61 10.56L232.89 5.584H234.97L232.89 10.56H231.61ZM241.204 16.96V15.568L246.164 13.136C246.366 13.04 246.553 12.96 246.724 12.896C246.905 12.8213 247.038 12.7733 247.124 12.752C247.028 12.7307 246.889 12.688 246.708 12.624C246.526 12.5493 246.345 12.464 246.164 12.368L241.204 9.92V8.48L248.084 11.92V13.52L241.204 16.96Z" fill="white"/>
</g>
</g>
<g id="card-body-blueprint" transform="translate(0 56)">
<g id="slot-_slot_name__header__" transform="translate(24 24)">
<rect x="0.5" y="0.5" width="311" height="79" rx="7.5" stroke="#9999A9" stroke-dasharray="6 4"/>
<path id="_slot_name__header-actions__" transform="translate(16 16)" d="M7.21 15.09L1.19 12.08V10.68L7.21 7.67V8.888L2.87 11.016C2.69267 11.1 2.52467 11.1747 2.366 11.24C2.21667 11.296 2.10467 11.3333 2.03 11.352C2.114 11.3707 2.23533 11.4127 2.394 11.478C2.55267 11.534 2.71133 11.604 2.87 11.688L7.21 13.83V15.09ZM12.3565 16.112C11.8339 16.112 11.3765 16.0327 10.9845 15.874C10.6019 15.706 10.2939 15.4727 10.0605 15.174C9.83653 14.8753 9.7012 14.5207 9.65453 14.11H10.9145C10.9705 14.3807 11.1199 14.5953 11.3625 14.754C11.6145 14.9127 11.9459 14.992 12.3565 14.992H12.9445C13.4392 14.992 13.8079 14.894 14.0505 14.698C14.2932 14.4927 14.4145 14.222 14.4145 13.886C14.4145 13.5593 14.3025 13.3027 14.0785 13.116C13.8639 12.92 13.5419 12.7893 13.1125 12.724L12.0765 12.556C11.3205 12.4253 10.7559 12.192 10.3825 11.856C10.0185 11.5107 9.83653 11.0113 9.83653 10.358C9.83653 9.66733 10.0559 9.13533 10.4945 8.762C10.9332 8.37933 11.5912 8.188 12.4685 8.188H13.0005C13.7379 8.188 14.3305 8.36067 14.7785 8.706C15.2265 9.05133 15.4972 9.518 15.5905 10.106H14.3305C14.2745 9.86333 14.1345 9.672 13.9105 9.532C13.6865 9.38267 13.3832 9.308 13.0005 9.308H12.4685C11.9925 9.308 11.6425 9.39667 11.4185 9.574C11.2039 9.75133 11.0965 10.0173 11.0965 10.372C11.0965 10.6893 11.1899 10.9227 11.3765 11.072C11.5632 11.2213 11.8572 11.3287 12.2585 11.394L13.2945 11.562C14.1252 11.6927 14.7272 11.9353 15.1005 12.29C15.4832 12.6447 15.6745 13.158 15.6745 13.83C15.6745 14.5393 15.4459 15.0993 14.9885 15.51C14.5405 15.9113 13.8592 16.112 12.9445 16.112H12.3565ZM22.0391 16C21.5911 16 21.1991 15.9113 20.8631 15.734C20.5271 15.5567 20.2657 15.3047 20.0791 14.978C19.8924 14.6513 19.7991 14.2687 19.7991 13.83V6.928H17.2091V5.78H21.0591V13.83C21.0591 14.1473 21.1477 14.3993 21.3251 14.586C21.5024 14.7633 21.7404 14.852 22.0391 14.852H24.4891V16H22.0391ZM29.3836 16.112C28.7676 16.112 28.2356 15.9953 27.7876 15.762C27.3396 15.5287 26.9896 15.1927 26.7376 14.754C26.4949 14.306 26.3736 13.7787 26.3736 13.172V11.128C26.3736 10.512 26.4949 9.98467 26.7376 9.546C26.9896 9.10733 27.3396 8.77133 27.7876 8.538C28.2356 8.30467 28.7676 8.188 29.3836 8.188C29.9996 8.188 30.5316 8.30467 30.9796 8.538C31.4276 8.77133 31.7729 9.10733 32.0156 9.546C32.2676 9.98467 32.3936 10.5073 32.3936 11.114V13.172C32.3936 13.7787 32.2676 14.306 32.0156 14.754C31.7729 15.1927 31.4276 15.5287 30.9796 15.762C30.5316 15.9953 29.9996 16.112 29.3836 16.112ZM29.3836 14.992C29.9343 14.992 30.3636 14.838 30.6716 14.53C30.9796 14.222 31.1336 13.7693 31.1336 13.172V11.128C31.1336 10.5307 30.9796 10.078 30.6716 9.77C30.3636 9.462 29.9343 9.308 29.3836 9.308C28.8423 9.308 28.4129 9.462 28.0956 9.77C27.7876 10.078 27.6336 10.5307 27.6336 11.128V13.172C27.6336 13.7693 27.7876 14.222 28.0956 14.53C28.4129 14.838 28.8423 14.992 29.3836 14.992ZM38.6181 16C37.9555 16 37.4375 15.8227 37.0641 15.468C36.7001 15.1133 36.5181 14.614 36.5181 13.97V9.448H34.3481V8.3H36.5181V6.13H37.7781V8.3H40.8581V9.448H37.7781V13.97C37.7781 14.558 38.0581 14.852 38.6181 14.852H40.7181V16H38.6181ZM51.6552 16V8.3H52.9152V9.77H53.1812L52.9152 10.064C52.9152 9.45733 53.0972 8.99067 53.4612 8.664C53.8252 8.328 54.3292 8.16 54.9732 8.16C55.7479 8.16 56.3639 8.398 56.8212 8.874C57.2785 9.35 57.5072 9.99867 57.5072 10.82V16H56.2472V10.96C56.2472 10.4093 56.0979 9.98933 55.7992 9.7C55.5099 9.40133 55.1132 9.252 54.6092 9.252C54.0865 9.252 53.6712 9.41067 53.3632 9.728C53.0645 10.0453 52.9152 10.5027 52.9152 11.1V16H51.6552ZM62.2897 16.14C61.4777 16.14 60.8384 15.9347 60.3717 15.524C59.9051 15.104 59.6717 14.5393 59.6717 13.83C59.6717 13.1113 59.9051 12.5467 60.3717 12.136C60.8384 11.7253 61.4684 11.52 62.2617 11.52H64.6417V10.75C64.6417 10.274 64.4971 9.91 64.2077 9.658C63.9277 9.39667 63.5264 9.266 63.0037 9.266C62.5464 9.266 62.1637 9.364 61.8557 9.56C61.5477 9.74667 61.3704 10.0033 61.3237 10.33H60.0637C60.1477 9.66733 60.4604 9.14 61.0017 8.748C61.5431 8.356 62.2197 8.16 63.0317 8.16C63.9184 8.16 64.6184 8.38867 65.1317 8.846C65.6451 9.30333 65.9017 9.924 65.9017 10.708V16H64.6697V14.53H64.4597L64.6697 14.32C64.6697 14.88 64.4504 15.3233 64.0117 15.65C63.5824 15.9767 63.0084 16.14 62.2897 16.14ZM62.5977 15.146C63.1951 15.146 63.6851 14.9967 64.0677 14.698C64.4504 14.3993 64.6417 14.0167 64.6417 13.55V12.458H62.2897C61.8697 12.458 61.5384 12.5747 61.2957 12.808C61.0531 13.0413 60.9317 13.3587 60.9317 13.76C60.9317 14.1893 61.0764 14.53 61.3657 14.782C61.6644 15.0247 62.0751 15.146 62.5977 15.146ZM68.0802 16V8.3H69.1863V9.224H69.4383L69.2423 9.56C69.2423 9.13067 69.3543 8.79 69.5783 8.538C69.8116 8.286 70.1243 8.16 70.5163 8.16C70.9456 8.16 71.2769 8.31867 71.5103 8.636C71.7436 8.95333 71.8603 9.40133 71.8603 9.98L71.4823 9.224H72.0703L71.8043 9.56C71.8043 9.13067 71.9209 8.79 72.1543 8.538C72.3969 8.286 72.7143 8.16 73.1063 8.16C73.5916 8.16 73.9649 8.342 74.2262 8.706C74.4969 9.07 74.6323 9.55067 74.6323 10.148V16H73.4703V10.134C73.4703 9.81667 73.4003 9.56933 73.2603 9.392C73.1296 9.21467 72.9336 9.126 72.6723 9.126C72.4203 9.126 72.2196 9.21467 72.0703 9.392C71.9303 9.56 71.8603 9.80267 71.8603 10.12V16H70.8522V10.134C70.8522 9.80733 70.7776 9.56 70.6283 9.392C70.4883 9.21467 70.2876 9.126 70.0263 9.126C69.7649 9.126 69.5689 9.21467 69.4383 9.392C69.3076 9.56 69.2423 9.80267 69.2423 10.12V16H68.0802ZM79.7508 16.14C79.1441 16.14 78.6121 16.0187 78.1548 15.776C77.7068 15.5333 77.3568 15.1927 77.1048 14.754C76.8621 14.306 76.7408 13.788 76.7408 13.2V11.1C76.7408 10.5027 76.8621 9.98467 77.1048 9.546C77.3568 9.10733 77.7068 8.76667 78.1548 8.524C78.6121 8.28133 79.1441 8.16 79.7508 8.16C80.3574 8.16 80.8848 8.28133 81.3328 8.524C81.7901 8.76667 82.1401 9.10733 82.3828 9.546C82.6348 9.98467 82.7608 10.5027 82.7608 11.1V12.458H77.9728V13.2C77.9728 13.8067 78.1268 14.2733 78.4348 14.6C78.7428 14.9173 79.1814 15.076 79.7508 15.076C80.2361 15.076 80.6281 14.992 80.9268 14.824C81.2254 14.6467 81.4074 14.3853 81.4728 14.04H82.7328C82.6488 14.684 82.3314 15.1973 81.7808 15.58C81.2394 15.9533 80.5628 16.14 79.7508 16.14ZM81.5288 11.618V11.1C81.5288 10.4933 81.3748 10.0267 81.0668 9.7C80.7681 9.37333 80.3294 9.21 79.7508 9.21C79.1814 9.21 78.7428 9.37333 78.4348 9.7C78.1268 10.0267 77.9728 10.4933 77.9728 11.1V11.506H81.6268L81.5288 11.618ZM85.1353 10.26V9.14H91.1553V10.26H85.1353ZM85.1353 13.62V12.5H91.1553V13.62H85.1353ZM97.4498 9.98L97.2818 7.04V5.78H98.6398V7.04L98.4858 9.98H97.4498ZM94.6078 9.98L94.4398 7.04V5.78H95.7978V7.04L95.6438 9.98H94.6078ZM102.022 16V5.78H103.282V8.3V9.77H103.548L103.282 10.064C103.282 9.45733 103.464 8.99067 103.828 8.664C104.192 8.328 104.696 8.16 105.34 8.16C106.115 8.16 106.731 8.398 107.188 8.874C107.646 9.35 107.874 9.99867 107.874 10.82V16H106.614V10.96C106.614 10.4093 106.465 9.98467 106.166 9.686C105.877 9.378 105.48 9.224 104.976 9.224C104.454 9.224 104.038 9.38733 103.73 9.714C103.432 10.0407 103.282 10.5027 103.282 11.1V16H102.022ZM113.329 16.14C112.722 16.14 112.19 16.0187 111.733 15.776C111.285 15.5333 110.935 15.1927 110.683 14.754C110.44 14.306 110.319 13.788 110.319 13.2V11.1C110.319 10.5027 110.44 9.98467 110.683 9.546C110.935 9.10733 111.285 8.76667 111.733 8.524C112.19 8.28133 112.722 8.16 113.329 8.16C113.936 8.16 114.463 8.28133 114.911 8.524C115.368 8.76667 115.718 9.10733 115.961 9.546C116.213 9.98467 116.339 10.5027 116.339 11.1V12.458H111.551V13.2C111.551 13.8067 111.705 14.2733 112.013 14.6C112.321 14.9173 112.76 15.076 113.329 15.076C113.814 15.076 114.206 14.992 114.505 14.824C114.804 14.6467 114.986 14.3853 115.051 14.04H116.311C116.227 14.684 115.91 15.1973 115.359 15.58C114.818 15.9533 114.141 16.14 113.329 16.14ZM115.107 11.618V11.1C115.107 10.4933 114.953 10.0267 114.645 9.7C114.346 9.37333 113.908 9.21 113.329 9.21C112.76 9.21 112.321 9.37333 112.013 9.7C111.705 10.0267 111.551 10.4933 111.551 11.1V11.506H115.205L115.107 11.618ZM121.051 16.14C120.239 16.14 119.6 15.9347 119.133 15.524C118.667 15.104 118.433 14.5393 118.433 13.83C118.433 13.1113 118.667 12.5467 119.133 12.136C119.6 11.7253 120.23 11.52 121.023 11.52H123.403V10.75C123.403 10.274 123.259 9.91 122.969 9.658C122.689 9.39667 122.288 9.266 121.765 9.266C121.308 9.266 120.925 9.364 120.617 9.56C120.309 9.74667 120.132 10.0033 120.085 10.33H118.825C118.909 9.66733 119.222 9.14 119.763 8.748C120.305 8.356 120.981 8.16 121.793 8.16C122.68 8.16 123.38 8.38867 123.893 8.846C124.407 9.30333 124.663 9.924 124.663 10.708V16H123.431V14.53H123.221L123.431 14.32C123.431 14.88 123.212 15.3233 122.773 15.65C122.344 15.9767 121.77 16.14 121.051 16.14ZM121.359 15.146C121.957 15.146 122.447 14.9967 122.829 14.698C123.212 14.3993 123.403 14.0167 123.403 13.55V12.458H121.051C120.631 12.458 120.3 12.5747 120.057 12.808C119.815 13.0413 119.693 13.3587 119.693 13.76C119.693 14.1893 119.838 14.53 120.127 14.782C120.426 15.0247 120.837 15.146 121.359 15.146ZM129.67 16.14C128.905 16.14 128.284 15.8833 127.808 15.37C127.341 14.8567 127.108 14.1613 127.108 13.284V11.03C127.108 10.1433 127.341 9.44333 127.808 8.93C128.275 8.41667 128.895 8.16 129.67 8.16C130.305 8.16 130.813 8.33267 131.196 8.678C131.579 9.02333 131.77 9.48533 131.77 10.064L131.518 9.77H131.798L131.77 8.02V5.78H133.03V16H131.77V14.53H131.518L131.77 14.236C131.77 14.824 131.579 15.2907 131.196 15.636C130.813 15.972 130.305 16.14 129.67 16.14ZM130.09 15.048C130.613 15.048 131.023 14.8847 131.322 14.558C131.621 14.2313 131.77 13.7787 131.77 13.2V11.1C131.77 10.5213 131.621 10.0687 131.322 9.742C131.023 9.41533 130.613 9.252 130.09 9.252C129.558 9.252 129.138 9.41067 128.83 9.728C128.522 10.0453 128.368 10.5027 128.368 11.1V13.2C128.368 13.7973 128.522 14.2547 128.83 14.572C129.138 14.8893 129.558 15.048 130.09 15.048ZM138.513 16.14C137.906 16.14 137.374 16.0187 136.917 15.776C136.469 15.5333 136.119 15.1927 135.867 14.754C135.624 14.306 135.503 13.788 135.503 13.2V11.1C135.503 10.5027 135.624 9.98467 135.867 9.546C136.119 9.10733 136.469 8.76667 136.917 8.524C137.374 8.28133 137.906 8.16 138.513 8.16C139.119 8.16 139.647 8.28133 140.095 8.524C140.552 8.76667 140.902 9.10733 141.145 9.546C141.397 9.98467 141.523 10.5027 141.523 11.1V12.458H136.735V13.2C136.735 13.8067 136.889 14.2733 137.197 14.6C137.505 14.9173 137.943 15.076 138.513 15.076C138.998 15.076 139.39 14.992 139.689 14.824C139.987 14.6467 140.169 14.3853 140.235 14.04H141.495C141.411 14.684 141.093 15.1973 140.543 15.58C140.001 15.9533 139.325 16.14 138.513 16.14ZM140.291 11.618V11.1C140.291 10.4933 140.137 10.0267 139.829 9.7C139.53 9.37333 139.091 9.21 138.513 9.21C137.943 9.21 137.505 9.37333 137.197 9.7C136.889 10.0267 136.735 10.4933 136.735 11.1V11.506H140.389L140.291 11.618ZM144.261 16V8.3H145.493V9.77H145.787L145.381 10.68C145.381 9.84933 145.558 9.224 145.913 8.804C146.277 8.37467 146.814 8.16 147.523 8.16C148.335 8.16 148.979 8.41667 149.455 8.93C149.94 9.434 150.183 10.12 150.183 10.988V11.45H148.923V11.1C148.923 10.4933 148.774 10.0313 148.475 9.714C148.186 9.38733 147.77 9.224 147.229 9.224C146.697 9.224 146.277 9.38733 145.969 9.714C145.67 10.0407 145.521 10.5027 145.521 11.1V16H144.261ZM153.062 11.94V10.82H157.542V11.94H153.062ZM163.024 16.14C162.212 16.14 161.573 15.9347 161.106 15.524C160.639 15.104 160.406 14.5393 160.406 13.83C160.406 13.1113 160.639 12.5467 161.106 12.136C161.573 11.7253 162.203 11.52 162.996 11.52H165.376V10.75C165.376 10.274 165.231 9.91 164.942 9.658C164.662 9.39667 164.261 9.266 163.738 9.266C163.281 9.266 162.898 9.364 162.59 9.56C162.282 9.74667 162.105 10.0033 162.058 10.33H160.798C160.882 9.66733 161.195 9.14 161.736 8.748C162.277 8.356 162.954 8.16 163.766 8.16C164.653 8.16 165.353 8.38867 165.866 8.846C166.379 9.30333 166.636 9.924 166.636 10.708V16H165.404V14.53H165.194L165.404 14.32C165.404 14.88 165.185 15.3233 164.746 15.65C164.317 15.9767 163.743 16.14 163.024 16.14ZM163.332 15.146C163.929 15.146 164.419 14.9967 164.802 14.698C165.185 14.3993 165.376 14.0167 165.376 13.55V12.458H163.024C162.604 12.458 162.273 12.5747 162.03 12.808C161.787 13.0413 161.666 13.3587 161.666 13.76C161.666 14.1893 161.811 14.53 162.1 14.782C162.399 15.0247 162.809 15.146 163.332 15.146ZM172.147 16.14C171.531 16.14 170.989 16.0233 170.523 15.79C170.065 15.5567 169.711 15.2207 169.459 14.782C169.207 14.334 169.081 13.8067 169.081 13.2V11.1C169.081 10.484 169.207 9.95667 169.459 9.518C169.711 9.07933 170.065 8.74333 170.523 8.51C170.989 8.27667 171.531 8.16 172.147 8.16C173.033 8.16 173.747 8.398 174.289 8.874C174.83 9.35 175.115 9.99867 175.143 10.82H173.883C173.855 10.3253 173.687 9.94733 173.379 9.686C173.08 9.41533 172.669 9.28 172.147 9.28C171.596 9.28 171.157 9.43867 170.831 9.756C170.504 10.064 170.341 10.5073 170.341 11.086V13.2C170.341 13.7787 170.504 14.2267 170.831 14.544C171.157 14.8613 171.596 15.02 172.147 15.02C172.669 15.02 173.08 14.8847 173.379 14.614C173.687 14.3433 173.855 13.9653 173.883 13.48H175.143C175.115 14.3013 174.83 14.95 174.289 15.426C173.747 15.902 173.033 16.14 172.147 16.14ZM181.325 16C180.662 16 180.144 15.8227 179.771 15.468C179.407 15.1133 179.225 14.614 179.225 13.97V9.448H177.055V8.3H179.225V6.13H180.485V8.3H183.565V9.448H180.485V13.97C180.485 14.558 180.765 14.852 181.325 14.852H183.425V16H181.325ZM185.87 16V14.852H188.6V9.448H186.22V8.3H189.86V14.852H192.45V16H185.87ZM189.09 6.914C188.782 6.914 188.539 6.83467 188.362 6.676C188.184 6.51733 188.096 6.30267 188.096 6.032C188.096 5.752 188.184 5.53267 188.362 5.374C188.539 5.206 188.782 5.122 189.09 5.122C189.398 5.122 189.64 5.206 189.818 5.374C189.995 5.53267 190.084 5.752 190.084 6.032C190.084 6.30267 189.995 6.51733 189.818 6.676C189.64 6.83467 189.398 6.914 189.09 6.914ZM197.274 16.112C196.658 16.112 196.126 15.9953 195.678 15.762C195.23 15.5287 194.88 15.1927 194.628 14.754C194.386 14.306 194.264 13.7787 194.264 13.172V11.128C194.264 10.512 194.386 9.98467 194.628 9.546C194.88 9.10733 195.23 8.77133 195.678 8.538C196.126 8.30467 196.658 8.188 197.274 8.188C197.89 8.188 198.422 8.30467 198.87 8.538C199.318 8.77133 199.664 9.10733 199.906 9.546C200.158 9.98467 200.284 10.5073 200.284 11.114V13.172C200.284 13.7787 200.158 14.306 199.906 14.754C199.664 15.1927 199.318 15.5287 198.87 15.762C198.422 15.9953 197.89 16.112 197.274 16.112ZM197.274 14.992C197.825 14.992 198.254 14.838 198.562 14.53C198.87 14.222 199.024 13.7693 199.024 13.172V11.128C199.024 10.5307 198.87 10.078 198.562 9.77C198.254 9.462 197.825 9.308 197.274 9.308C196.733 9.308 196.304 9.462 195.986 9.77C195.678 10.078 195.524 10.5307 195.524 11.128V13.172C195.524 13.7693 195.678 14.222 195.986 14.53C196.304 14.838 196.733 14.992 197.274 14.992ZM202.757 16V8.3H204.017V9.77H204.283L204.017 10.064C204.017 9.45733 204.199 8.99067 204.563 8.664C204.927 8.328 205.431 8.16 206.075 8.16C206.849 8.16 207.465 8.398 207.923 8.874C208.38 9.35 208.609 9.99867 208.609 10.82V16H207.349V10.96C207.349 10.4093 207.199 9.98933 206.901 9.7C206.611 9.40133 206.215 9.252 205.711 9.252C205.188 9.252 204.773 9.41067 204.465 9.728C204.166 10.0453 204.017 10.5027 204.017 11.1V16H202.757ZM213.825 16.112C213.303 16.112 212.845 16.0327 212.453 15.874C212.071 15.706 211.763 15.4727 211.529 15.174C211.305 14.8753 211.17 14.5207 211.123 14.11H212.383C212.439 14.3807 212.589 14.5953 212.831 14.754C213.083 14.9127 213.415 14.992 213.825 14.992H214.413C214.908 14.992 215.277 14.894 215.519 14.698C215.762 14.4927 215.883 14.222 215.883 13.886C215.883 13.5593 215.771 13.3027 215.547 13.116C215.333 12.92 215.011 12.7893 214.581 12.724L213.545 12.556C212.789 12.4253 212.225 12.192 211.851 11.856C211.487 11.5107 211.305 11.0113 211.305 10.358C211.305 9.66733 211.525 9.13533 211.963 8.762C212.402 8.37933 213.06 8.188 213.937 8.188H214.469C215.207 8.188 215.799 8.36067 216.247 8.706C216.695 9.05133 216.966 9.518 217.059 10.106H215.799C215.743 9.86333 215.603 9.672 215.379 9.532C215.155 9.38267 214.852 9.308 214.469 9.308H213.937C213.461 9.308 213.111 9.39667 212.887 9.574C212.673 9.75133 212.565 10.0173 212.565 10.372C212.565 10.6893 212.659 10.9227 212.845 11.072C213.032 11.2213 213.326 11.3287 213.727 11.394L214.763 11.562C215.594 11.6927 216.196 11.9353 216.569 12.29C216.952 12.6447 217.143 13.158 217.143 13.83C217.143 14.5393 216.915 15.0993 216.457 15.51C216.009 15.9113 215.328 16.112 214.413 16.112H213.825ZM223.368 9.98L223.2 7.04V5.78H224.558V7.04L224.404 9.98H223.368ZM220.526 9.98L220.358 7.04V5.78H221.716V7.04L221.562 9.98H220.526ZM227.842 15.09V13.872L232.182 11.744C232.36 11.66 232.523 11.59 232.672 11.534C232.831 11.4687 232.948 11.4267 233.022 11.408C232.938 11.3893 232.817 11.352 232.658 11.296C232.5 11.2307 232.341 11.156 232.182 11.072L227.842 8.93V7.67L233.862 10.68V12.08L227.842 15.09Z" fill="white"/>
</g>
<g id="slot-_slot_" transform="translate(24 128)">
<rect x="0.5" y="0.5" width="311" height="125" rx="7.5" stroke="#9999A9" stroke-dasharray="6 4"/>
<path id="_slot_" transform="translate(16 16)" d="M7.21 15.09L1.19 12.08V10.68L7.21 7.67V8.888L2.87 11.016C2.69267 11.1 2.52467 11.1747 2.366 11.24C2.21667 11.296 2.10467 11.3333 2.03 11.352C2.114 11.3707 2.23533 11.4127 2.394 11.478C2.55267 11.534 2.71133 11.604 2.87 11.688L7.21 13.83V15.09ZM12.3565 16.112C11.8339 16.112 11.3765 16.0327 10.9845 15.874C10.6019 15.706 10.2939 15.4727 10.0605 15.174C9.83653 14.8753 9.7012 14.5207 9.65453 14.11H10.9145C10.9705 14.3807 11.1199 14.5953 11.3625 14.754C11.6145 14.9127 11.9459 14.992 12.3565 14.992H12.9445C13.4392 14.992 13.8079 14.894 14.0505 14.698C14.2932 14.4927 14.4145 14.222 14.4145 13.886C14.4145 13.5593 14.3025 13.3027 14.0785 13.116C13.8639 12.92 13.5419 12.7893 13.1125 12.724L12.0765 12.556C11.3205 12.4253 10.7559 12.192 10.3825 11.856C10.0185 11.5107 9.83653 11.0113 9.83653 10.358C9.83653 9.66733 10.0559 9.13533 10.4945 8.762C10.9332 8.37933 11.5912 8.188 12.4685 8.188H13.0005C13.7379 8.188 14.3305 8.36067 14.7785 8.706C15.2265 9.05133 15.4972 9.518 15.5905 10.106H14.3305C14.2745 9.86333 14.1345 9.672 13.9105 9.532C13.6865 9.38267 13.3832 9.308 13.0005 9.308H12.4685C11.9925 9.308 11.6425 9.39667 11.4185 9.574C11.2039 9.75133 11.0965 10.0173 11.0965 10.372C11.0965 10.6893 11.1899 10.9227 11.3765 11.072C11.5632 11.2213 11.8572 11.3287 12.2585 11.394L13.2945 11.562C14.1252 11.6927 14.7272 11.9353 15.1005 12.29C15.4832 12.6447 15.6745 13.158 15.6745 13.83C15.6745 14.5393 15.4459 15.0993 14.9885 15.51C14.5405 15.9113 13.8592 16.112 12.9445 16.112H12.3565ZM22.0391 16C21.5911 16 21.1991 15.9113 20.8631 15.734C20.5271 15.5567 20.2657 15.3047 20.0791 14.978C19.8924 14.6513 19.7991 14.2687 19.7991 13.83V6.928H17.2091V5.78H21.0591V13.83C21.0591 14.1473 21.1477 14.3993 21.3251 14.586C21.5024 14.7633 21.7404 14.852 22.0391 14.852H24.4891V16H22.0391ZM29.3836 16.112C28.7676 16.112 28.2356 15.9953 27.7876 15.762C27.3396 15.5287 26.9896 15.1927 26.7376 14.754C26.4949 14.306 26.3736 13.7787 26.3736 13.172V11.128C26.3736 10.512 26.4949 9.98467 26.7376 9.546C26.9896 9.10733 27.3396 8.77133 27.7876 8.538C28.2356 8.30467 28.7676 8.188 29.3836 8.188C29.9996 8.188 30.5316 8.30467 30.9796 8.538C31.4276 8.77133 31.7729 9.10733 32.0156 9.546C32.2676 9.98467 32.3936 10.5073 32.3936 11.114V13.172C32.3936 13.7787 32.2676 14.306 32.0156 14.754C31.7729 15.1927 31.4276 15.5287 30.9796 15.762C30.5316 15.9953 29.9996 16.112 29.3836 16.112ZM29.3836 14.992C29.9343 14.992 30.3636 14.838 30.6716 14.53C30.9796 14.222 31.1336 13.7693 31.1336 13.172V11.128C31.1336 10.5307 30.9796 10.078 30.6716 9.77C30.3636 9.462 29.9343 9.308 29.3836 9.308C28.8423 9.308 28.4129 9.462 28.0956 9.77C27.7876 10.078 27.6336 10.5307 27.6336 11.128V13.172C27.6336 13.7693 27.7876 14.222 28.0956 14.53C28.4129 14.838 28.8423 14.992 29.3836 14.992ZM38.6181 16C37.9555 16 37.4375 15.8227 37.0641 15.468C36.7001 15.1133 36.5181 14.614 36.5181 13.97V9.448H34.3481V8.3H36.5181V6.13H37.7781V8.3H40.8581V9.448H37.7781V13.97C37.7781 14.558 38.0581 14.852 38.6181 14.852H40.7181V16H38.6181ZM43.1627 15.09V13.872L47.5027 11.744C47.68 11.66 47.8433 11.59 47.9927 11.534C48.1513 11.4687 48.268 11.4267 48.3427 11.408C48.2587 11.3893 48.1373 11.352 47.9787 11.296C47.82 11.2307 47.6613 11.156 47.5027 11.072L43.1627 8.93V7.67L49.1827 10.68V12.08L43.1627 15.09Z" fill="white"/>
</g>
</g>
<g id="action-button" transform="translate(248 127)">
<rect width="159" height="40" rx="3" id="action-button_bg_0" fill="#00CCCC">
</rect>
<rect id="Rectangle" transform="translate(16 15)" width="127" height="10" rx="5" fill="white"/>
</g>
<g id="floating-body-content" filter="url(#filter1_d_8109_392)" transform="translate(-15 230)">
<rect width="320" height="94" rx="12" id="floating-body-content_bg_0" fill="#37374D" shape-rendering="crispEdges">
</rect>
<rect id="Rectangle_2" transform="translate(20 20)" width="140" height="10" rx="5" fill="white"/>
<rect id="Rectangle_3" opacity="0.6" transform="translate(20 42)" width="200" height="10" rx="5" fill="white"/>
<rect id="Rectangle_4" opacity="0.5" transform="translate(20 64)" width="180" height="10" rx="5" fill="white"/>
</g>
</g>
</g>
<defs>
<filter id="filter0_d_8109_392" x="-39" y="-12" width="470" height="382" filterUnits="userSpaceOnUse" color-interpolation-filters="sRGB">
<feFlood flood-opacity="0" result="BackgroundImageFix"/>
<feColorMatrix in="SourceAlpha" type="matrix" values="0 0 0 0 0 0 0 0 0 0 0 0 0 0 0 0 0 0 127 0" result="hardAlpha"/>
<feOffset dy="12"/>
<feGaussianBlur stdDeviation="12"/>
<feComposite in2="hardAlpha" operator="out"/>
<feColorMatrix type="matrix" values="0 0 0 0 0 0 0 0 0 0 0 0 0 0 0 0 0 0 0.101961 0"/>
<feBlend mode="normal" in2="BackgroundImageFix" result="effect1_dropShadow_8109_392"/>
<feBlend mode="normal" in="SourceGraphic" in2="effect1_dropShadow_8109_392" result="shape"/>
</filter>
<filter id="filter1_d_8109_392" x="-24" y="-12" width="368" height="142" filterUnits="userSpaceOnUse" color-interpolation-filters="sRGB">
<feFlood flood-opacity="0" result="BackgroundImageFix"/>
<feColorMatrix in="SourceAlpha" type="matrix" values="0 0 0 0 0 0 0 0 0 0 0 0 0 0 0 0 0 0 127 0" result="hardAlpha"/>
<feOffset dy="12"/>
<feGaussianBlur stdDeviation="12"/>
<feComposite in2="hardAlpha" operator="out"/>
<feColorMatrix type="matrix" values="0 0 0 0 0 0 0 0 0 0 0 0 0 0 0 0 0 0 0.101961 0"/>
<feBlend mode="normal" in2="BackgroundImageFix" result="effect1_dropShadow_8109_392"/>
<feBlend mode="normal" in="SourceGraphic" in2="effect1_dropShadow_8109_392" result="shape"/>
</filter>
<clipPath id="clip0_8109_392">
<rect width="896" height="360" fill="white"/>
</clipPath>
</defs>
</svg>
