<!--
SPDX-FileCopyrightText: 2024 Siemens AG

SPDX-License-Identifier: MIT

This source code is licensed under the MIT license found in the
LICENSE file in the root directory of this source tree.
-->
<svg role="img" viewBox="0 0 24 24" xmlns="http://www.w3.org/2000/svg">
<path d="M21.0596 17.2398L18.4199 21.8736L14.7266 16.4732L17.1094 12.3902L21.0596 17.2398ZM23.9297 11.9996L21.3311 16.4605L17.709 11.9996L21.3301 7.53961L23.9297 11.9996ZM21.0186 6.74957L17.1133 11.6197L14.7305 7.53961L18.3896 2.11969L21.0186 6.74957Z" fill="currentColor" fill-opacity="0.6"/>
<path d="M6.13965 11.9961L11.7168 21.8799H5.63965L0.0595703 11.9961L5.63965 2.12109H11.7197L6.13965 11.9961ZM18.4248 21.8711H12.1641L9.54004 17.2373H21.0635L18.4248 21.8711ZM23.7021 12.3906L21.3311 16.4629H14.7275L17.1133 12.3906H23.7021ZM23.7021 11.6162H17.1133L14.7275 7.54492H21.3311L23.7021 11.6162ZM21.0186 6.75391H9.55566L12.1787 2.12012H18.3945L21.0186 6.75391Z" fill="currentColor"/>
</svg>
