<svg width="896" height="360" viewBox="0 0 896 360" fill="none" xmlns="http://www.w3.org/2000/svg">
<rect width="896" height="360" fill="#23233C"/>
<rect y="193" width="896" height="167" fill="#000028"/>
<path d="M64.4688 123V78.7188H75.75L85.625 106.812C86.1667 108.312 86.9688 110.896 88.0312 114.562C89.0104 111.104 89.8021 108.521 90.4062 106.812L100.188 78.7188H111.281V123H103.719V86.6875C102.844 89.8125 101.833 93.0417 100.688 96.375L91.5 123H84.125L74.9688 96.9375C73.9062 93.9375 72.8125 90.5208 71.6875 86.6875V123H64.4688ZM127.116 109.062C127.366 111.75 128.054 113.781 129.179 115.156C130.845 117.135 133.304 118.125 136.554 118.125C139.762 118.125 142.991 117.073 146.241 114.969L148.897 120.469C145.126 122.635 140.949 123.719 136.366 123.719C130.616 123.719 126.262 122.104 123.304 118.875C120.616 115.979 119.272 111.948 119.272 106.781C119.272 101.323 120.793 97.0208 123.835 93.875C126.522 91.0833 130.21 89.6875 134.897 89.6875C141.793 89.6875 146.272 92.3542 148.335 97.6875C149.356 100.333 149.887 104.125 149.929 109.062H127.116ZM142.272 103.781C142.21 101.844 141.835 100.188 141.147 98.8125C139.918 96.4167 137.835 95.2188 134.897 95.2188C132.626 95.2188 130.793 95.9792 129.397 97.5C128.022 99.0208 127.283 101.115 127.179 103.781H142.272ZM155.138 121.156L157.138 115.438C158.93 116.458 160.44 117.167 161.67 117.562C162.92 117.938 164.274 118.125 165.732 118.125C167.44 118.125 168.763 117.76 169.701 117.031C170.659 116.281 171.138 115.26 171.138 113.969C171.138 112.74 170.711 111.812 169.857 111.188C169.19 110.729 167.44 109.99 164.607 108.969C162.649 108.281 161.211 107.708 160.295 107.25C159.378 106.771 158.545 106.198 157.795 105.531C156.149 104.073 155.326 102.073 155.326 99.5312C155.326 96.3854 156.503 93.9167 158.857 92.125C160.982 90.5 163.826 89.6875 167.388 89.6875C170.784 89.6875 174.315 90.4583 177.982 92L176.045 97.75C173.211 96.0833 170.42 95.25 167.67 95.25C166.149 95.25 164.94 95.5833 164.045 96.25C163.149 96.9167 162.701 97.8229 162.701 98.9688C162.701 100.177 163.295 101.115 164.482 101.781C165.17 102.156 166.878 102.854 169.607 103.875C172.94 105.125 175.263 106.427 176.576 107.781C177.888 109.156 178.545 110.979 178.545 113.25C178.545 116.292 177.44 118.781 175.232 120.719C172.961 122.719 169.836 123.719 165.857 123.719C162.086 123.719 158.513 122.865 155.138 121.156ZM183.254 121.156L185.254 115.438C187.046 116.458 188.556 117.167 189.785 117.562C191.035 117.938 192.39 118.125 193.848 118.125C195.556 118.125 196.879 117.76 197.817 117.031C198.775 116.281 199.254 115.26 199.254 113.969C199.254 112.74 198.827 111.812 197.973 111.188C197.306 110.729 195.556 109.99 192.723 108.969C190.765 108.281 189.327 107.708 188.41 107.25C187.494 106.771 186.66 106.198 185.91 105.531C184.265 104.073 183.442 102.073 183.442 99.5312C183.442 96.3854 184.619 93.9167 186.973 92.125C189.098 90.5 191.942 89.6875 195.504 89.6875C198.9 89.6875 202.431 90.4583 206.098 92L204.16 97.75C201.327 96.0833 198.535 95.25 195.785 95.25C194.265 95.25 193.056 95.5833 192.16 96.25C191.265 96.9167 190.817 97.8229 190.817 98.9688C190.817 100.177 191.41 101.115 192.598 101.781C193.285 102.156 194.994 102.854 197.723 103.875C201.056 105.125 203.379 106.427 204.692 107.781C206.004 109.156 206.66 110.979 206.66 113.25C206.66 116.292 205.556 118.781 203.348 120.719C201.077 122.719 197.952 123.719 193.973 123.719C190.202 123.719 186.629 122.865 183.254 121.156ZM232.214 119.281C230.693 120.906 229.162 122.052 227.62 122.719C226.099 123.385 224.277 123.719 222.152 123.719C218.777 123.719 216.183 122.823 214.37 121.031C212.537 119.26 211.62 116.865 211.62 113.844C211.62 109.76 213.277 106.76 216.589 104.844C218.672 103.635 221.964 103.031 226.464 103.031C227.652 103.031 229.433 103.094 231.808 103.219V102.625C231.808 97.6875 229.402 95.2188 224.589 95.2188C221.86 95.2188 218.922 96.125 215.777 97.9375L213.777 92.5625C217.568 90.6458 221.495 89.6875 225.558 89.6875C230.829 89.6875 234.599 91.1042 236.87 93.9375C237.787 95.1042 238.412 96.4583 238.745 98C239.099 99.5417 239.277 101.854 239.277 104.938V114.688C239.277 118.146 239.381 120.917 239.589 123H232.495L232.214 119.281ZM231.808 107.906C230.579 107.802 229.454 107.75 228.433 107.75C225.412 107.75 223.235 108.167 221.902 109C220.214 110.062 219.37 111.625 219.37 113.688C219.37 115.167 219.829 116.365 220.745 117.281C221.662 118.177 222.891 118.625 224.433 118.625C227.287 118.625 229.745 117.104 231.808 114.062V107.906ZM270.518 90.375H277.705L277.611 92.5938C277.445 97.0521 277.361 100.594 277.361 103.219V119.281C277.361 123.01 277.163 125.76 276.768 127.531C276.393 129.323 275.653 130.927 274.549 132.344C271.84 135.781 267.372 137.5 261.143 137.5C256.58 137.5 252.361 136.531 248.486 134.594L250.861 129C253.986 130.875 257.226 131.812 260.58 131.812C264.601 131.812 267.32 130.438 268.736 127.688C269.507 126.167 269.893 123.542 269.893 119.812V117.469C267.143 120.656 263.913 122.25 260.205 122.25C256.268 122.25 253.07 120.75 250.611 117.75C248.278 114.917 247.111 111.031 247.111 106.094C247.111 101.219 248.32 97.2396 250.736 94.1562C253.09 91.1771 256.257 89.6875 260.236 89.6875C264.507 89.6875 267.861 91.4271 270.299 94.9062L270.518 90.375ZM269.893 101.406C269.268 99.9896 268.497 98.8333 267.58 97.9375C265.893 96.2708 264.028 95.4375 261.986 95.4375C259.57 95.4375 257.736 96.5729 256.486 98.8438C255.403 100.802 254.861 103.24 254.861 106.156C254.861 109.031 255.434 111.406 256.58 113.281C257.872 115.427 259.736 116.5 262.174 116.5C263.695 116.5 265.132 116.01 266.486 115.031C267.861 114.052 268.997 112.688 269.893 110.938V101.406ZM292.696 109.062C292.946 111.75 293.633 113.781 294.758 115.156C296.425 117.135 298.883 118.125 302.133 118.125C305.342 118.125 308.571 117.073 311.821 114.969L314.477 120.469C310.706 122.635 306.529 123.719 301.946 123.719C296.196 123.719 291.842 122.104 288.883 118.875C286.196 115.979 284.852 111.948 284.852 106.781C284.852 101.323 286.373 97.0208 289.415 93.875C292.102 91.0833 295.79 89.6875 300.477 89.6875C307.373 89.6875 311.852 92.3542 313.915 97.6875C314.936 100.333 315.467 104.125 315.508 109.062H292.696ZM307.852 103.781C307.79 101.844 307.415 100.188 306.727 98.8125C305.498 96.4167 303.415 95.2188 300.477 95.2188C298.206 95.2188 296.373 95.9792 294.977 97.5C293.602 99.0208 292.863 101.115 292.758 103.781H307.852ZM345.522 123H338.366C338.553 119.604 338.647 115.781 338.647 111.531V76.2188H346.116V94.5C348.636 91.2917 351.813 89.6875 355.647 89.6875C359.855 89.6875 363.126 91.3542 365.459 94.6875C367.688 97.8333 368.803 101.823 368.803 106.656C368.803 111.99 367.511 116.25 364.928 119.438C362.616 122.292 359.522 123.719 355.647 123.719C353.501 123.719 351.668 123.312 350.147 122.5C348.647 121.667 347.188 120.281 345.772 118.344L345.522 123ZM346.116 112.344C348.386 116.094 350.97 117.969 353.866 117.969C356.241 117.969 358.053 116.823 359.303 114.531C360.47 112.365 361.053 109.708 361.053 106.562C361.053 103.333 360.418 100.667 359.147 98.5625C357.876 96.4792 356.053 95.4375 353.678 95.4375C350.72 95.4375 348.199 97.2396 346.116 100.844V112.344ZM394.357 119.281C392.836 120.906 391.304 122.052 389.763 122.719C388.242 123.385 386.419 123.719 384.294 123.719C380.919 123.719 378.325 122.823 376.513 121.031C374.679 119.26 373.763 116.865 373.763 113.844C373.763 109.76 375.419 106.76 378.732 104.844C380.815 103.635 384.107 103.031 388.607 103.031C389.794 103.031 391.575 103.094 393.95 103.219V102.625C393.95 97.6875 391.544 95.2188 386.732 95.2188C384.002 95.2188 381.065 96.125 377.919 97.9375L375.919 92.5625C379.711 90.6458 383.638 89.6875 387.7 89.6875C392.971 89.6875 396.742 91.1042 399.013 93.9375C399.929 95.1042 400.554 96.4583 400.888 98C401.242 99.5417 401.419 101.854 401.419 104.938V114.688C401.419 118.146 401.523 120.917 401.732 123H394.638L394.357 119.281ZM393.95 107.906C392.721 107.802 391.596 107.75 390.575 107.75C387.554 107.75 385.377 108.167 384.044 109C382.357 110.062 381.513 111.625 381.513 113.688C381.513 115.167 381.971 116.365 382.888 117.281C383.804 118.177 385.034 118.625 386.575 118.625C389.429 118.625 391.888 117.104 393.95 114.062V107.906ZM411.754 123V102.656C411.754 98.5521 411.66 94.4583 411.473 90.375H418.504L418.754 96.5C420.691 92.0625 423.566 89.8438 427.379 89.8438C428.275 89.8438 429.223 89.9688 430.223 90.2188L429.785 96.8438C428.827 96.6354 427.993 96.5312 427.285 96.5312C425.41 96.5312 423.764 97.1875 422.348 98.5C420.952 99.7917 419.9 101.635 419.191 104.031V123H411.754Z" fill="#00FFB9"/>
<rect x="5" y="198" width="886" height="54" rx="3" stroke="#00BEDC" stroke-width="2"/>
<path fill-rule="evenodd" clip-rule="evenodd" d="M32 215C26.4772 215 22 219.477 22 225C22 230.523 26.4772 235 32 235C37.5229 235 42 230.523 42 225C42 219.477 37.5229 215 32 215ZM32 233C27.5888 233 24 229.411 24 225C24 220.589 27.5888 217 32 217C36.4113 217 40 220.589 40 225C40 229.411 36.4113 233 32 233ZM33.2522 221C33.2522 221.725 32.7243 222.25 32.0102 222.25C31.2671 222.25 30.7522 221.725 30.7522 220.986C30.7522 220.276 31.2811 219.75 32.0102 219.75C32.7243 219.75 33.2522 220.276 33.2522 221ZM31.0022 224H33.0022V230H31.0022V224Z" fill="#00BEDC"/>
<path d="M60.8545 229.706L60.998 228.729C61.8822 229.052 62.6683 229.214 63.3564 229.214C63.9762 229.214 64.4661 229.05 64.8262 228.722C65.168 228.412 65.3389 228.002 65.3389 227.491C65.3389 227.013 65.1953 226.641 64.9082 226.377C64.6712 226.149 64.1562 225.86 63.3633 225.509C62.7982 225.258 62.3926 225.067 62.1465 224.935C61.9049 224.798 61.6885 224.65 61.4971 224.49C61.0049 224.071 60.7588 223.506 60.7588 222.795C60.7588 222.157 60.9342 221.617 61.2852 221.175C61.5449 220.851 61.9163 220.598 62.3994 220.416C62.8324 220.257 63.2949 220.177 63.7871 220.177C64.4388 220.177 65.2021 220.32 66.0771 220.607L65.8516 221.612C65.1361 221.271 64.4456 221.1 63.7803 221.1C63.2699 221.1 62.8392 221.232 62.4883 221.496C62.1283 221.765 61.9482 222.13 61.9482 222.59C61.9482 222.986 62.0827 223.319 62.3516 223.588C62.6204 223.852 63.1081 224.132 63.8145 224.429C64.3522 224.652 64.7578 224.841 65.0312 224.996C65.3092 225.151 65.5531 225.326 65.7627 225.522C66.2731 226.001 66.5283 226.625 66.5283 227.396C66.5283 228.257 66.2253 228.936 65.6191 229.433C65.0404 229.902 64.2747 230.137 63.3223 230.137C62.5794 230.137 61.7568 229.993 60.8545 229.706ZM70.4151 230.103L67.6192 222.904H68.7608L70.3809 227.149C70.5541 227.614 70.7478 228.154 70.9619 228.77C71.167 228.168 71.3653 227.612 71.5567 227.102L73.1289 222.904H74.127L71.2422 230.602C70.8868 231.554 70.5176 232.217 70.1348 232.591C69.7565 232.965 69.2598 233.151 68.6446 233.151C68.3119 233.151 67.9632 233.106 67.5987 233.015L67.7832 232.146C68.0658 232.247 68.3301 232.297 68.5762 232.297C68.8724 232.297 69.1254 232.224 69.335 232.078C69.5446 231.937 69.7338 231.704 69.9024 231.381C70.1029 230.998 70.2738 230.572 70.4151 230.103ZM75.1426 229.651L75.4639 228.811C76.1156 229.125 76.6898 229.282 77.1866 229.282C77.5922 229.282 77.9203 229.173 78.171 228.954C78.4216 228.731 78.5469 228.441 78.5469 228.086C78.5469 227.776 78.4603 227.546 78.2872 227.396C78.1186 227.241 77.7312 227.047 77.1251 226.814C76.7331 226.66 76.4392 226.53 76.2432 226.425C76.0518 226.32 75.8741 226.19 75.71 226.035C75.35 225.702 75.17 225.274 75.17 224.75C75.17 224.126 75.4138 223.624 75.9014 223.246C76.3161 222.927 76.8493 222.768 77.501 222.768C78.1664 222.768 78.8409 222.943 79.5245 223.294L79.2032 224.135C78.6928 223.793 78.1573 223.622 77.5967 223.622C77.1866 223.622 76.8653 223.715 76.6329 223.902C76.405 224.085 76.2911 224.338 76.2911 224.661C76.2911 224.948 76.3845 225.176 76.5714 225.345C76.7582 225.509 77.1478 225.709 77.7403 225.946C78.196 226.133 78.5287 226.288 78.7383 226.411C78.9525 226.534 79.1325 226.682 79.2784 226.855C79.5381 227.152 79.668 227.537 79.668 228.011C79.668 228.694 79.4105 229.23 78.8956 229.617C78.4353 229.964 77.8611 230.137 77.1729 230.137C76.503 230.137 75.8262 229.975 75.1426 229.651ZM82.1602 223.759H81.0118V222.904H82.1602V221.353L83.2267 221.127V222.904H84.9015V223.759H83.2267V227.635C83.2267 228.223 83.2768 228.624 83.377 228.838C83.5229 229.134 83.7918 229.282 84.1837 229.282C84.4207 229.282 84.6918 229.212 84.9972 229.07L85.0929 229.918C84.6827 230.064 84.2999 230.137 83.9444 230.137C83.2927 230.137 82.8325 229.964 82.5636 229.617C82.2947 229.271 82.1602 228.681 82.1602 227.847V223.759ZM87.1408 226.739C87.2182 227.532 87.4005 228.122 87.6876 228.51C88.0796 229.025 88.6583 229.282 89.424 229.282C90.0756 229.282 90.7228 229.059 91.3654 228.612L91.7755 229.439C91.0372 229.904 90.2465 230.137 89.4034 230.137C88.2824 230.137 87.4187 229.77 86.8126 229.036C86.284 228.394 86.0197 227.532 86.0197 226.452C86.0197 225.144 86.3728 224.162 87.0792 223.506C87.6079 223.014 88.2846 222.768 89.1095 222.768C90.3719 222.768 91.2195 223.285 91.6525 224.319C91.894 224.903 92.0239 225.709 92.0421 226.739H87.1408ZM90.9074 225.885C90.8937 225.361 90.8025 224.923 90.6339 224.572C90.3286 223.939 89.809 223.622 89.0753 223.622C88.5102 223.622 88.0568 223.825 87.715 224.23C87.3732 224.632 87.1909 225.183 87.1681 225.885H90.9074ZM94.09 230V225.215C94.09 224.135 94.0718 223.365 94.0353 222.904H95.088L95.1291 224.025C95.3843 223.757 95.6213 223.538 95.84 223.369C96.355 222.968 96.9155 222.768 97.5216 222.768C98.0093 222.768 98.4126 222.888 98.7316 223.13C99.0506 223.367 99.2671 223.713 99.381 224.169C99.8367 223.654 100.249 223.292 100.618 223.082C100.987 222.872 101.404 222.768 101.869 222.768C102.717 222.768 103.298 223.096 103.612 223.752C103.713 223.966 103.783 224.237 103.824 224.565C103.87 224.894 103.893 225.338 103.893 225.898V230H102.826V225.878C102.826 225.167 102.781 224.668 102.69 224.381C102.526 223.875 102.152 223.622 101.569 223.622C100.867 223.622 100.185 224.064 99.5246 224.948V230H98.4582V225.755C98.4582 225.094 98.408 224.629 98.3078 224.36C98.1209 223.868 97.7632 223.622 97.2345 223.622C96.5282 223.622 95.8354 224.064 95.1564 224.948V230H94.09ZM110.108 230V225.215C110.108 224.135 110.089 223.365 110.053 222.904H111.106L111.147 224.025C111.402 223.757 111.639 223.538 111.858 223.369C112.373 222.968 112.933 222.768 113.539 222.768C114.027 222.768 114.43 222.888 114.749 223.13C115.068 223.367 115.285 223.713 115.399 224.169C115.854 223.654 116.267 223.292 116.636 223.082C117.005 222.872 117.422 222.768 117.887 222.768C118.735 222.768 119.316 223.096 119.63 223.752C119.73 223.966 119.801 224.237 119.842 224.565C119.888 224.894 119.91 225.338 119.91 225.898V230H118.844V225.878C118.844 225.167 118.798 224.668 118.707 224.381C118.543 223.875 118.169 223.622 117.586 223.622C116.884 223.622 116.203 224.064 115.542 224.948V230H114.476V225.755C114.476 225.094 114.426 224.629 114.325 224.36C114.139 223.868 113.781 223.622 113.252 223.622C112.546 223.622 111.853 224.064 111.174 224.948V230H110.108ZM126.217 229.173C125.898 229.519 125.574 229.768 125.246 229.918C124.923 230.064 124.54 230.137 124.098 230.137C123.355 230.137 122.788 229.927 122.396 229.508C122.049 229.139 121.876 228.651 121.876 228.045C121.876 227.111 122.27 226.445 123.059 226.049C123.524 225.816 124.21 225.7 125.116 225.7C125.258 225.7 125.597 225.709 126.135 225.728V225.536C126.135 225.021 126.069 224.629 125.937 224.36C125.7 223.868 125.23 223.622 124.529 223.622C123.954 223.622 123.344 223.827 122.697 224.237L122.232 223.472C122.975 223.002 123.779 222.768 124.645 222.768C125.72 222.768 126.456 223.089 126.853 223.731C126.99 223.959 127.081 224.221 127.126 224.518C127.176 224.809 127.201 225.274 127.201 225.912V228.229C127.201 228.959 127.22 229.549 127.256 230H126.265L126.217 229.173ZM126.135 226.541C125.884 226.523 125.62 226.514 125.342 226.514C124.581 226.514 124.027 226.614 123.681 226.814C123.225 227.074 122.997 227.475 122.997 228.018C122.997 228.4 123.111 228.706 123.339 228.934C123.576 229.166 123.893 229.282 124.289 229.282C125.032 229.282 125.647 228.92 126.135 228.195V226.541ZM129.817 230V222.904H130.883V230H129.817ZM130.343 219.63C130.566 219.63 130.749 219.701 130.89 219.842C131.031 219.983 131.102 220.163 131.102 220.382C131.102 220.605 131.031 220.787 130.89 220.929C130.749 221.07 130.569 221.141 130.35 221.141C130.127 221.141 129.944 221.07 129.803 220.929C129.662 220.787 129.591 220.603 129.591 220.375C129.591 220.161 129.662 219.983 129.803 219.842C129.949 219.701 130.129 219.63 130.343 219.63ZM133.485 230V225.215C133.485 224.135 133.466 223.365 133.43 222.904H134.483L134.524 224.039C134.961 223.579 135.376 223.253 135.768 223.062C136.164 222.866 136.609 222.768 137.101 222.768C137.999 222.768 138.614 223.096 138.947 223.752C139.051 223.966 139.127 224.237 139.172 224.565C139.218 224.889 139.241 225.333 139.241 225.898V230H138.174V225.878C138.174 225.167 138.124 224.668 138.024 224.381C137.846 223.875 137.438 223.622 136.8 223.622C136.03 223.622 135.28 224.064 134.551 224.948V230H133.485ZM142.17 223.759H141.022V222.904H142.17V221.353L143.237 221.127V222.904H144.911V223.759H143.237V227.635C143.237 228.223 143.287 228.624 143.387 228.838C143.533 229.134 143.802 229.282 144.194 229.282C144.431 229.282 144.702 229.212 145.007 229.07L145.103 229.918C144.693 230.064 144.31 230.137 143.954 230.137C143.303 230.137 142.842 229.964 142.574 229.617C142.305 229.271 142.17 228.681 142.17 227.847V223.759ZM147.151 226.739C147.228 227.532 147.411 228.122 147.698 228.51C148.09 229.025 148.668 229.282 149.434 229.282C150.086 229.282 150.733 229.059 151.375 228.612L151.786 229.439C151.047 229.904 150.257 230.137 149.413 230.137C148.292 230.137 147.429 229.77 146.823 229.036C146.294 228.394 146.03 227.532 146.03 226.452C146.03 225.144 146.383 224.162 147.089 223.506C147.618 223.014 148.295 222.768 149.12 222.768C150.382 222.768 151.23 223.285 151.662 224.319C151.904 224.903 152.034 225.709 152.052 226.739H147.151ZM150.917 225.885C150.904 225.361 150.813 224.923 150.644 224.572C150.339 223.939 149.819 223.622 149.085 223.622C148.52 223.622 148.067 223.825 147.725 224.23C147.383 224.632 147.201 225.183 147.178 225.885H150.917ZM154.1 230V225.215C154.1 224.135 154.082 223.365 154.045 222.904H155.098L155.139 224.039C155.577 223.579 155.991 223.253 156.383 223.062C156.78 222.866 157.224 222.768 157.716 222.768C158.614 222.768 159.229 223.096 159.562 223.752C159.667 223.966 159.742 224.237 159.788 224.565C159.833 224.889 159.856 225.333 159.856 225.898V230H158.789V225.878C158.789 225.167 158.739 224.668 158.639 224.381C158.461 223.875 158.053 223.622 157.415 223.622C156.645 223.622 155.896 224.064 155.166 224.948V230H154.1ZM166.163 229.173C165.844 229.519 165.52 229.768 165.192 229.918C164.868 230.064 164.485 230.137 164.043 230.137C163.301 230.137 162.733 229.927 162.341 229.508C161.995 229.139 161.822 228.651 161.822 228.045C161.822 227.111 162.216 226.445 163.004 226.049C163.469 225.816 164.155 225.7 165.062 225.7C165.203 225.7 165.543 225.709 166.081 225.728V225.536C166.081 225.021 166.014 224.629 165.882 224.36C165.645 223.868 165.176 223.622 164.474 223.622C163.9 223.622 163.289 223.827 162.642 224.237L162.177 223.472C162.92 223.002 163.724 222.768 164.59 222.768C165.666 222.768 166.402 223.089 166.798 223.731C166.935 223.959 167.026 224.221 167.072 224.518C167.122 224.809 167.147 225.274 167.147 225.912V228.229C167.147 228.959 167.165 229.549 167.202 230H166.21L166.163 229.173ZM166.081 226.541C165.83 226.523 165.566 226.514 165.288 226.514C164.526 226.514 163.973 226.614 163.626 226.814C163.171 227.074 162.943 227.475 162.943 228.018C162.943 228.4 163.057 228.706 163.285 228.934C163.522 229.166 163.838 229.282 164.235 229.282C164.978 229.282 165.593 228.92 166.081 228.195V226.541ZM169.762 230V225.215C169.762 224.135 169.744 223.365 169.707 222.904H170.76L170.801 224.039C171.239 223.579 171.653 223.253 172.045 223.062C172.442 222.866 172.886 222.768 173.378 222.768C174.276 222.768 174.891 223.096 175.224 223.752C175.329 223.966 175.404 224.237 175.45 224.565C175.495 224.889 175.518 225.333 175.518 225.898V230H174.452V225.878C174.452 225.167 174.402 224.668 174.301 224.381C174.124 223.875 173.716 223.622 173.078 223.622C172.307 223.622 171.558 224.064 170.829 224.948V230H169.762ZM182.584 228.653L182.994 229.48C182.351 229.918 181.633 230.137 180.84 230.137C179.82 230.137 179.02 229.825 178.441 229.2C177.835 228.544 177.532 227.648 177.532 226.514C177.532 225.27 177.853 224.312 178.496 223.643C179.056 223.055 179.806 222.761 180.745 222.761C181.474 222.761 182.18 222.952 182.864 223.335L182.46 224.176C181.886 223.802 181.312 223.615 180.738 223.615C180.05 223.615 179.528 223.868 179.172 224.374C178.826 224.866 178.653 225.536 178.653 226.384C178.653 227.291 178.858 228.013 179.268 228.551C179.646 229.038 180.175 229.282 180.854 229.282C181.456 229.282 182.032 229.073 182.584 228.653ZM185.274 226.739C185.351 227.532 185.534 228.122 185.821 228.51C186.213 229.025 186.792 229.282 187.557 229.282C188.209 229.282 188.856 229.059 189.499 228.612L189.909 229.439C189.17 229.904 188.38 230.137 187.537 230.137C186.416 230.137 185.552 229.77 184.946 229.036C184.417 228.394 184.153 227.532 184.153 226.452C184.153 225.144 184.506 224.162 185.212 223.506C185.741 223.014 186.418 222.768 187.243 222.768C188.505 222.768 189.353 223.285 189.786 224.319C190.027 224.903 190.157 225.709 190.175 226.739H185.274ZM189.041 225.885C189.027 225.361 188.936 224.923 188.767 224.572C188.462 223.939 187.942 223.622 187.209 223.622C186.643 223.622 186.19 223.825 185.848 224.23C185.506 224.632 185.324 225.183 185.301 225.885H189.041ZM195.358 229.651L195.679 228.811C196.331 229.125 196.905 229.282 197.402 229.282C197.808 229.282 198.136 229.173 198.386 228.954C198.637 228.731 198.762 228.441 198.762 228.086C198.762 227.776 198.676 227.546 198.503 227.396C198.334 227.241 197.947 227.047 197.34 226.814C196.949 226.66 196.655 226.53 196.459 226.425C196.267 226.32 196.089 226.19 195.925 226.035C195.565 225.702 195.385 225.274 195.385 224.75C195.385 224.126 195.629 223.624 196.117 223.246C196.532 222.927 197.065 222.768 197.716 222.768C198.382 222.768 199.056 222.943 199.74 223.294L199.419 224.135C198.908 223.793 198.373 223.622 197.812 223.622C197.402 223.622 197.081 223.715 196.848 223.902C196.62 224.085 196.506 224.338 196.506 224.661C196.506 224.948 196.6 225.176 196.787 225.345C196.974 225.509 197.363 225.709 197.956 225.946C198.411 226.133 198.744 226.288 198.954 226.411C199.168 226.534 199.348 226.682 199.494 226.855C199.754 227.152 199.883 227.537 199.883 228.011C199.883 228.694 199.626 229.23 199.111 229.617C198.651 229.964 198.076 230.137 197.388 230.137C196.718 230.137 196.042 229.975 195.358 229.651ZM206.47 228.653L206.881 229.48C206.238 229.918 205.52 230.137 204.727 230.137C203.706 230.137 202.907 229.825 202.328 229.2C201.722 228.544 201.419 227.648 201.419 226.514C201.419 225.27 201.74 224.312 202.382 223.643C202.943 223.055 203.693 222.761 204.631 222.761C205.361 222.761 206.067 222.952 206.751 223.335L206.347 224.176C205.773 223.802 205.199 223.615 204.625 223.615C203.936 223.615 203.415 223.868 203.059 224.374C202.713 224.866 202.54 225.536 202.54 226.384C202.54 227.291 202.745 228.013 203.155 228.551C203.533 229.038 204.062 229.282 204.741 229.282C205.342 229.282 205.919 229.073 206.47 228.653ZM208.477 230V219.767H209.544V224.005C210.323 223.18 211.173 222.768 212.093 222.768C212.987 222.768 213.602 223.096 213.939 223.752C214.044 223.966 214.119 224.235 214.165 224.559C214.21 224.882 214.233 225.329 214.233 225.898V230H213.167V225.878C213.167 225.167 213.117 224.668 213.016 224.381C212.843 223.875 212.435 223.622 211.793 223.622C211.018 223.622 210.268 224.064 209.544 224.948V230H208.477ZM217.368 226.739C217.445 227.532 217.628 228.122 217.915 228.51C218.307 229.025 218.885 229.282 219.651 229.282C220.303 229.282 220.95 229.059 221.592 228.612L222.003 229.439C221.264 229.904 220.474 230.137 219.631 230.137C218.509 230.137 217.646 229.77 217.04 229.036C216.511 228.394 216.247 227.532 216.247 226.452C216.247 225.144 216.6 224.162 217.306 223.506C217.835 223.014 218.512 222.768 219.337 222.768C220.599 222.768 221.447 223.285 221.88 224.319C222.121 224.903 222.251 225.709 222.269 226.739H217.368ZM221.134 225.885C221.121 225.361 221.03 224.923 220.861 224.572C220.556 223.939 220.036 223.622 219.302 223.622C218.737 223.622 218.284 223.825 217.942 224.23C217.6 224.632 217.418 225.183 217.395 225.885H221.134ZM228.665 219.767H229.731V227.416C229.731 228.077 229.747 228.854 229.779 229.747L229.786 230H228.781L228.747 228.92C228.387 229.389 228.054 229.711 227.749 229.884C227.448 230.057 227.074 230.144 226.628 230.144C225.766 230.144 225.074 229.788 224.55 229.077C224.035 228.384 223.777 227.493 223.777 226.404C223.777 225.265 224.069 224.356 224.652 223.677C225.176 223.071 225.816 222.768 226.573 222.768C227.416 222.768 228.113 223.139 228.665 223.882V219.767ZM228.665 224.948C228.209 224.064 227.582 223.622 226.785 223.622C226.183 223.622 225.723 223.873 225.404 224.374C225.067 224.907 224.898 225.593 224.898 226.432C224.898 227.211 225.042 227.863 225.329 228.387C225.657 228.988 226.147 229.289 226.799 229.289C227.168 229.289 227.496 229.187 227.783 228.981C228.07 228.776 228.364 228.435 228.665 227.956V224.948ZM237.959 222.904V227.689C237.959 228.792 237.977 229.562 238.013 230H236.961L236.92 228.865C236.51 229.307 236.102 229.631 235.696 229.836C235.295 230.036 234.862 230.137 234.397 230.137C233.518 230.137 232.914 229.809 232.586 229.152C232.476 228.938 232.399 228.669 232.353 228.346C232.312 228.022 232.292 227.576 232.292 227.006V222.904H233.358V227.026C233.358 227.742 233.408 228.241 233.509 228.523C233.682 229.029 234.076 229.282 234.691 229.282C235.443 229.282 236.177 228.84 236.892 227.956V222.904H237.959ZM240.567 230V219.767H241.634V230H240.567ZM244.823 226.739C244.901 227.532 245.083 228.122 245.37 228.51C245.762 229.025 246.341 229.282 247.106 229.282C247.758 229.282 248.405 229.059 249.048 228.612L249.458 229.439C248.72 229.904 247.929 230.137 247.086 230.137C245.965 230.137 245.101 229.77 244.495 229.036C243.966 228.394 243.702 227.532 243.702 226.452C243.702 225.144 244.055 224.162 244.762 223.506C245.29 223.014 245.967 222.768 246.792 222.768C248.054 222.768 248.902 223.285 249.335 224.319C249.576 224.903 249.706 225.709 249.724 226.739H244.823ZM248.59 225.885C248.576 225.361 248.485 224.923 248.316 224.572C248.011 223.939 247.491 223.622 246.758 223.622C246.193 223.622 245.739 223.825 245.397 224.23C245.055 224.632 244.873 225.183 244.85 225.885H248.59ZM256.12 219.767H257.186V227.416C257.186 228.077 257.202 228.854 257.234 229.747L257.241 230H256.236L256.202 228.92C255.842 229.389 255.509 229.711 255.204 229.884C254.903 230.057 254.529 230.144 254.083 230.144C253.222 230.144 252.529 229.788 252.005 229.077C251.49 228.384 251.232 227.493 251.232 226.404C251.232 225.265 251.524 224.356 252.107 223.677C252.631 223.071 253.272 222.768 254.028 222.768C254.871 222.768 255.569 223.139 256.12 223.882V219.767ZM256.12 224.948C255.664 224.064 255.038 223.622 254.24 223.622C253.639 223.622 253.178 223.873 252.859 224.374C252.522 224.907 252.353 225.593 252.353 226.432C252.353 227.211 252.497 227.863 252.784 228.387C253.112 228.988 253.602 229.289 254.254 229.289C254.623 229.289 254.951 229.187 255.238 228.981C255.525 228.776 255.819 228.435 256.12 227.956V224.948ZM263.852 230V223.759H262.704V222.904H263.852V222.228C263.852 221.394 263.969 220.787 264.201 220.409C264.52 219.89 265.06 219.63 265.821 219.63C266.131 219.63 266.464 219.675 266.819 219.767L266.724 220.689C266.473 220.553 266.202 220.484 265.91 220.484C265.541 220.484 265.283 220.621 265.138 220.895C264.992 221.163 264.919 221.637 264.919 222.316V222.904H266.594V223.759H264.919V230H263.852ZM270.788 222.768C271.823 222.768 272.65 223.157 273.269 223.937C273.794 224.593 274.056 225.431 274.056 226.452C274.056 227.55 273.753 228.437 273.146 229.111C272.531 229.795 271.745 230.137 270.788 230.137C269.754 230.137 268.926 229.747 268.307 228.968C267.783 228.307 267.52 227.452 267.52 226.404C267.52 225.329 267.824 224.456 268.43 223.786C269.04 223.107 269.826 222.768 270.788 222.768ZM270.788 223.622C270.018 223.622 269.439 223.968 269.052 224.661C268.778 225.149 268.642 225.737 268.642 226.425C268.642 227.222 268.806 227.874 269.134 228.38C269.526 228.981 270.077 229.282 270.788 229.282C271.558 229.282 272.137 228.934 272.524 228.236C272.798 227.753 272.935 227.159 272.935 226.452C272.935 225.668 272.77 225.026 272.442 224.524C272.05 223.923 271.499 223.622 270.788 223.622ZM276.151 230V225.953C276.151 225.064 276.138 224.158 276.11 223.232L276.104 222.904H277.095L277.136 224.21C277.414 223.695 277.708 223.326 278.018 223.103C278.327 222.875 278.697 222.761 279.125 222.761C279.271 222.761 279.437 222.779 279.624 222.815L279.528 223.772C279.396 223.741 279.271 223.725 279.152 223.725C278.628 223.725 278.166 223.989 277.765 224.518C277.537 224.814 277.354 225.144 277.218 225.509V230H276.151ZM284.574 230V229.022C286.055 227.692 287.135 226.644 287.815 225.878C288.402 225.213 288.826 224.636 289.086 224.148C289.346 223.656 289.476 223.187 289.476 222.74C289.476 222.253 289.296 221.861 288.936 221.564C288.539 221.236 288.024 221.072 287.391 221.072C286.657 221.072 285.905 221.312 285.135 221.79L284.855 220.833C285.748 220.396 286.636 220.177 287.521 220.177C288.386 220.177 289.097 220.368 289.653 220.751C290.291 221.188 290.61 221.829 290.61 222.672C290.61 223.283 290.44 223.893 290.098 224.504C289.756 225.115 289.163 225.867 288.32 226.76C287.55 227.58 286.75 228.353 285.921 229.077H290.692V230H284.574ZM292.809 230V229.022C294.29 227.692 295.37 226.644 296.049 225.878C296.637 225.213 297.061 224.636 297.32 224.148C297.58 223.656 297.71 223.187 297.71 222.74C297.71 222.253 297.53 221.861 297.17 221.564C296.774 221.236 296.259 221.072 295.625 221.072C294.891 221.072 294.139 221.312 293.369 221.79L293.089 220.833C293.982 220.396 294.871 220.177 295.755 220.177C296.621 220.177 297.332 220.368 297.888 220.751C298.526 221.188 298.845 221.829 298.845 222.672C298.845 223.283 298.674 223.893 298.332 224.504C297.99 225.115 297.398 225.867 296.555 226.76C295.785 227.58 294.985 228.353 294.155 229.077H298.927V230H292.809ZM309.947 226.609H306.338L305.149 230H304.014L307.459 220.313H308.874L312.347 230H311.137L309.947 226.609ZM309.612 225.687L308.751 223.137C308.532 222.49 308.334 221.868 308.156 221.271C307.992 221.822 307.792 222.446 307.555 223.144L306.673 225.687H309.612ZM319.412 222.904V227.689C319.412 228.792 319.431 229.562 319.467 230H318.414L318.373 228.865C317.963 229.307 317.555 229.631 317.15 229.836C316.749 230.036 316.316 230.137 315.851 230.137C314.971 230.137 314.367 229.809 314.039 229.152C313.93 228.938 313.852 228.669 313.807 228.346C313.766 228.022 313.745 227.576 313.745 227.006V222.904H314.812V227.026C314.812 227.742 314.862 228.241 314.962 228.523C315.135 229.029 315.529 229.282 316.145 229.282C316.897 229.282 317.63 228.84 318.346 227.956V222.904H319.412ZM326.478 222.904H327.517C327.48 224.053 327.462 224.985 327.462 225.7V229.248C327.462 230.014 327.421 230.588 327.339 230.971C327.262 231.358 327.111 231.704 326.888 232.01C326.332 232.771 325.505 233.151 324.406 233.151C323.463 233.151 322.57 232.894 321.727 232.379L322.185 231.559C322.909 232.051 323.643 232.297 324.386 232.297C325.22 232.297 325.799 231.96 326.122 231.285C326.305 230.907 326.396 230.26 326.396 229.344V228.756C325.735 229.503 325.013 229.877 324.229 229.877C323.436 229.877 322.777 229.558 322.253 228.92C321.738 228.296 321.481 227.448 321.481 226.377C321.481 225.219 321.766 224.303 322.335 223.629C322.823 223.055 323.461 222.768 324.249 222.768C325.183 222.768 325.913 223.178 326.437 223.998L326.478 222.904ZM326.396 224.989C326.204 224.625 325.99 224.34 325.753 224.135C325.357 223.793 324.931 223.622 324.475 223.622C323.841 223.622 323.361 223.909 323.032 224.483C322.745 224.989 322.602 225.616 322.602 226.363C322.602 227.088 322.752 227.696 323.053 228.188C323.399 228.744 323.887 229.022 324.516 229.022C325.277 229.022 325.904 228.608 326.396 227.778V224.989ZM335.69 222.904V227.689C335.69 228.792 335.708 229.562 335.744 230H334.692L334.651 228.865C334.24 229.307 333.833 229.631 333.427 229.836C333.026 230.036 332.593 230.137 332.128 230.137C331.249 230.137 330.645 229.809 330.317 229.152C330.207 228.938 330.13 228.669 330.084 228.346C330.043 228.022 330.023 227.576 330.023 227.006V222.904H331.089V227.026C331.089 227.742 331.139 228.241 331.24 228.523C331.413 229.029 331.807 229.282 332.422 229.282C333.174 229.282 333.908 228.84 334.623 227.956V222.904H335.69ZM337.765 229.651L338.086 228.811C338.738 229.125 339.312 229.282 339.809 229.282C340.214 229.282 340.543 229.173 340.793 228.954C341.044 228.731 341.169 228.441 341.169 228.086C341.169 227.776 341.083 227.546 340.909 227.396C340.741 227.241 340.353 227.047 339.747 226.814C339.355 226.66 339.061 226.53 338.866 226.425C338.674 226.32 338.496 226.19 338.332 226.035C337.972 225.702 337.792 225.274 337.792 224.75C337.792 224.126 338.036 223.624 338.524 223.246C338.938 222.927 339.472 222.768 340.123 222.768C340.789 222.768 341.463 222.943 342.147 223.294L341.825 224.135C341.315 223.793 340.78 223.622 340.219 223.622C339.809 223.622 339.488 223.715 339.255 223.902C339.027 224.085 338.913 224.338 338.913 224.661C338.913 224.948 339.007 225.176 339.194 225.345C339.38 225.509 339.77 225.709 340.363 225.946C340.818 226.133 341.151 226.288 341.361 226.411C341.575 226.534 341.755 226.682 341.901 226.855C342.16 227.152 342.29 227.537 342.29 228.011C342.29 228.694 342.033 229.23 341.518 229.617C341.058 229.964 340.483 230.137 339.795 230.137C339.125 230.137 338.449 229.975 337.765 229.651ZM344.783 223.759H343.634V222.904H344.783V221.353L345.849 221.127V222.904H347.524V223.759H345.849V227.635C345.849 228.223 345.899 228.624 345.999 228.838C346.145 229.134 346.414 229.282 346.806 229.282C347.043 229.282 347.314 229.212 347.619 229.07L347.715 229.918C347.305 230.064 346.922 230.137 346.567 230.137C345.915 230.137 345.455 229.964 345.186 229.617C344.917 229.271 344.783 228.681 344.783 227.847V223.759ZM349.756 228.571H351.11L349.9 231.709H348.799L349.756 228.571ZM360.066 220.177C361.187 220.177 362.021 220.587 362.568 221.407C363.119 222.228 363.395 223.479 363.395 225.16C363.395 226.641 363.185 227.781 362.766 228.578C362.215 229.617 361.312 230.137 360.059 230.137C358.933 230.137 358.097 229.724 357.55 228.899C357.003 228.075 356.73 226.812 356.73 225.112C356.73 221.822 357.842 220.177 360.066 220.177ZM360.066 221.1C359.209 221.1 358.603 221.53 358.247 222.392C357.992 222.998 357.865 223.905 357.865 225.112C357.865 226.502 358.022 227.505 358.336 228.12C358.705 228.849 359.28 229.214 360.059 229.214C360.911 229.214 361.517 228.783 361.877 227.922C362.133 227.32 362.26 226.4 362.26 225.16C362.26 223.793 362.103 222.804 361.788 222.193C361.419 221.464 360.845 221.1 360.066 221.1ZM365.163 230V229.022C366.644 227.692 367.724 226.644 368.403 225.878C368.991 225.213 369.414 224.636 369.674 224.148C369.934 223.656 370.064 223.187 370.064 222.74C370.064 222.253 369.884 221.861 369.524 221.564C369.127 221.236 368.612 221.072 367.979 221.072C367.245 221.072 366.493 221.312 365.723 221.79L365.443 220.833C366.336 220.396 367.225 220.177 368.109 220.177C368.975 220.177 369.686 220.368 370.242 220.751C370.88 221.188 371.199 221.829 371.199 222.672C371.199 223.283 371.028 223.893 370.686 224.504C370.344 225.115 369.752 225.867 368.909 226.76C368.138 227.58 367.339 228.353 366.509 229.077H371.281V230H365.163ZM374.812 228.482C375.049 228.482 375.245 228.562 375.4 228.722C375.559 228.877 375.639 229.073 375.639 229.31C375.639 229.547 375.559 229.745 375.4 229.904C375.245 230.059 375.049 230.137 374.812 230.137C374.575 230.137 374.377 230.059 374.217 229.904C374.062 229.745 373.985 229.542 373.985 229.296C373.985 229.068 374.065 228.877 374.224 228.722C374.384 228.562 374.58 228.482 374.812 228.482ZM374.812 223.28C375.049 223.28 375.245 223.36 375.4 223.52C375.559 223.674 375.639 223.87 375.639 224.107C375.639 224.344 375.559 224.543 375.4 224.702C375.245 224.857 375.049 224.935 374.812 224.935C374.575 224.935 374.377 224.857 374.217 224.702C374.062 224.543 373.985 224.34 373.985 224.094C373.985 223.866 374.065 223.674 374.224 223.52C374.384 223.36 374.58 223.28 374.812 223.28ZM380.736 220.177C381.857 220.177 382.691 220.587 383.238 221.407C383.789 222.228 384.065 223.479 384.065 225.16C384.065 226.641 383.855 227.781 383.436 228.578C382.885 229.617 381.982 230.137 380.729 230.137C379.603 230.137 378.767 229.724 378.22 228.899C377.673 228.075 377.4 226.812 377.4 225.112C377.4 221.822 378.512 220.177 380.736 220.177ZM380.736 221.1C379.879 221.1 379.273 221.53 378.917 222.392C378.662 222.998 378.535 223.905 378.535 225.112C378.535 226.502 378.692 227.505 379.006 228.12C379.375 228.849 379.95 229.214 380.729 229.214C381.581 229.214 382.187 228.783 382.547 227.922C382.803 227.32 382.93 226.4 382.93 225.16C382.93 223.793 382.773 222.804 382.458 222.193C382.089 221.464 381.515 221.1 380.736 221.1ZM388.97 220.177C390.091 220.177 390.925 220.587 391.472 221.407C392.024 222.228 392.299 223.479 392.299 225.16C392.299 226.641 392.09 227.781 391.67 228.578C391.119 229.617 390.217 230.137 388.963 230.137C387.838 230.137 387.001 229.724 386.455 228.899C385.908 228.075 385.634 226.812 385.634 225.112C385.634 221.822 386.746 220.177 388.97 220.177ZM388.97 221.1C388.113 221.1 387.507 221.53 387.152 222.392C386.897 222.998 386.769 223.905 386.769 225.112C386.769 226.502 386.926 227.505 387.241 228.12C387.61 228.849 388.184 229.214 388.963 229.214C389.816 229.214 390.422 228.783 390.782 227.922C391.037 227.32 391.165 226.4 391.165 225.16C391.165 223.793 391.007 222.804 390.693 222.193C390.324 221.464 389.75 221.1 388.97 221.1ZM393.732 226.514V225.659H396.965V226.514H393.732ZM401.734 220.177C402.855 220.177 403.689 220.587 404.236 221.407C404.787 222.228 405.063 223.479 405.063 225.16C405.063 226.641 404.853 227.781 404.434 228.578C403.883 229.617 402.98 230.137 401.727 230.137C400.601 230.137 399.765 229.724 399.218 228.899C398.671 228.075 398.398 226.812 398.398 225.112C398.398 221.822 399.51 220.177 401.734 220.177ZM401.734 221.1C400.877 221.1 400.271 221.53 399.916 222.392C399.66 222.998 399.533 223.905 399.533 225.112C399.533 226.502 399.69 227.505 400.004 228.12C400.374 228.849 400.948 229.214 401.727 229.214C402.579 229.214 403.185 228.783 403.546 227.922C403.801 227.32 403.928 226.4 403.928 225.16C403.928 223.793 403.771 222.804 403.457 222.193C403.087 221.464 402.513 221.1 401.734 221.1ZM410.782 230V227.211H406.414V226.151L410.584 220.313H411.848V226.288H413.345V227.211H411.848V230H410.782ZM410.782 226.288V221.558L407.439 226.288H410.782ZM416.48 228.482C416.717 228.482 416.913 228.562 417.068 228.722C417.228 228.877 417.307 229.073 417.307 229.31C417.307 229.547 417.228 229.745 417.068 229.904C416.913 230.059 416.717 230.137 416.48 230.137C416.243 230.137 416.045 230.059 415.885 229.904C415.73 229.745 415.653 229.542 415.653 229.296C415.653 229.068 415.733 228.877 415.892 228.722C416.052 228.562 416.248 228.482 416.48 228.482ZM416.48 223.28C416.717 223.28 416.913 223.36 417.068 223.52C417.228 223.674 417.307 223.87 417.307 224.107C417.307 224.344 417.228 224.543 417.068 224.702C416.913 224.857 416.717 224.935 416.48 224.935C416.243 224.935 416.045 224.857 415.885 224.702C415.73 224.543 415.653 224.34 415.653 224.094C415.653 223.866 415.733 223.674 415.892 223.52C416.052 223.36 416.248 223.28 416.48 223.28ZM422.404 220.177C423.525 220.177 424.359 220.587 424.906 221.407C425.457 222.228 425.733 223.479 425.733 225.16C425.733 226.641 425.523 227.781 425.104 228.578C424.553 229.617 423.65 230.137 422.397 230.137C421.272 230.137 420.435 229.724 419.888 228.899C419.341 228.075 419.068 226.812 419.068 225.112C419.068 221.822 420.18 220.177 422.404 220.177ZM422.404 221.1C421.547 221.1 420.941 221.53 420.586 222.392C420.33 222.998 420.203 223.905 420.203 225.112C420.203 226.502 420.36 227.505 420.674 228.12C421.044 228.849 421.618 229.214 422.397 229.214C423.249 229.214 423.855 228.783 424.216 227.922C424.471 227.32 424.598 226.4 424.598 225.16C424.598 223.793 424.441 222.804 424.127 222.193C423.758 221.464 423.183 221.1 422.404 221.1ZM430.638 220.177C431.759 220.177 432.593 220.587 433.14 221.407C433.692 222.228 433.967 223.479 433.967 225.16C433.967 226.641 433.758 227.781 433.339 228.578C432.787 229.617 431.885 230.137 430.632 230.137C429.506 230.137 428.67 229.724 428.123 228.899C427.576 228.075 427.302 226.812 427.302 225.112C427.302 221.822 428.414 220.177 430.638 220.177ZM430.638 221.1C429.782 221.1 429.176 221.53 428.82 222.392C428.565 222.998 428.437 223.905 428.437 225.112C428.437 226.502 428.594 227.505 428.909 228.12C429.278 228.849 429.852 229.214 430.632 229.214C431.484 229.214 432.09 228.783 432.45 227.922C432.705 227.32 432.833 226.4 432.833 225.16C432.833 223.793 432.676 222.804 432.361 222.193C431.992 221.464 431.418 221.1 430.638 221.1ZM446.109 228.701L446.389 229.597C445.464 229.957 444.596 230.137 443.785 230.137C442.454 230.137 441.383 229.708 440.572 228.852C439.702 227.931 439.266 226.723 439.266 225.229C439.266 224.194 439.471 223.278 439.882 222.48C440.337 221.601 440.969 220.97 441.775 220.587C442.359 220.313 443.01 220.177 443.73 220.177C444.573 220.177 445.442 220.377 446.335 220.778L445.972 221.674C445.17 221.291 444.43 221.1 443.751 221.1C442.684 221.1 441.869 221.503 441.303 222.31C440.738 223.121 440.456 224.096 440.456 225.235C440.456 226.019 440.602 226.732 440.893 227.375C441.167 227.977 441.55 228.435 442.042 228.749C442.534 229.059 443.117 229.214 443.792 229.214C444.553 229.214 445.325 229.043 446.109 228.701ZM448.15 230V220.313H453.263V221.236H449.271V224.627H453.065V225.55H449.271V229.077H453.469V230H448.15ZM455.325 229.706L455.469 228.729C456.353 229.052 457.139 229.214 457.827 229.214C458.447 229.214 458.937 229.05 459.297 228.722C459.639 228.412 459.809 228.002 459.809 227.491C459.809 227.013 459.666 226.641 459.379 226.377C459.142 226.149 458.627 225.86 457.834 225.509C457.269 225.258 456.863 225.067 456.617 224.935C456.375 224.798 456.159 224.65 455.968 224.49C455.475 224.071 455.229 223.506 455.229 222.795C455.229 222.157 455.405 221.617 455.756 221.175C456.015 220.851 456.387 220.598 456.87 220.416C457.303 220.257 457.765 220.177 458.258 220.177C458.909 220.177 459.673 220.32 460.548 220.607L460.322 221.612C459.607 221.271 458.916 221.1 458.251 221.1C457.74 221.1 457.31 221.232 456.959 221.496C456.599 221.765 456.419 222.13 456.419 222.59C456.419 222.986 456.553 223.319 456.822 223.588C457.091 223.852 457.579 224.132 458.285 224.429C458.823 224.652 459.228 224.841 459.502 224.996C459.78 225.151 460.024 225.326 460.233 225.522C460.744 226.001 460.999 226.625 460.999 227.396C460.999 228.257 460.696 228.936 460.09 229.433C459.511 229.902 458.745 230.137 457.793 230.137C457.05 230.137 456.227 229.993 455.325 229.706ZM464.981 230V221.236H462.151V220.313H468.967V221.236H466.102V230H464.981Z" fill="white"/>
<path d="M871.707 218.707L865.414 225L871.707 231.293L870.293 232.707L864 226.414L857.707 232.707L856.293 231.293L862.586 225L856.293 218.707L857.707 217.293L864 223.586L870.293 217.293L871.707 218.707Z" fill="white" fill-opacity="0.6"/>
<g clip-path="url(#clip0_7490_11623)">
<rect width="896" height="103" transform="translate(0 257)" fill="#000028"/>
<mask id="path-9-inside-1_7490_11623" fill="white">
<path d="M52 305H896V361H52V305Z"/>
</mask>
<path d="M896 361V360H52V361V362H896V361Z" fill="#EBF0F5" fill-opacity="0.4" mask="url(#path-9-inside-1_7490_11623)"/>
<path d="M102 329.537V336.466L96 339.93L90 336.466V329.537L96 326.073L102 329.537ZM91.333 335.695L95.333 338.004V333.309L91.333 331V335.695ZM96.667 333.309V338.004L100.667 335.695V331L96.667 333.309ZM92.0664 329.884L96 332.154L99.9326 329.884L96 327.613L92.0664 329.884Z" fill="#00CCCC"/>
<path d="M109.196 338V328.313H112.04C112.614 328.313 113.084 328.352 113.448 328.43C113.817 328.507 114.134 328.635 114.398 328.812C115.091 329.273 115.438 329.963 115.438 330.884C115.438 331.517 115.271 332.046 114.938 332.47C114.61 332.889 114.136 333.176 113.517 333.331C113.84 333.45 114.082 333.614 114.241 333.823C114.401 334.028 114.631 334.482 114.932 335.184L116.142 338H114.33L113.435 335.895C113.22 335.389 113.056 335.035 112.942 334.835C112.833 334.63 112.708 334.457 112.566 334.315C112.298 334.051 111.881 333.919 111.315 333.919H110.892V338H109.196ZM110.864 332.593H111.514C112.156 332.593 112.644 332.511 112.977 332.347C113.464 332.105 113.708 331.686 113.708 331.089C113.708 330.533 113.512 330.141 113.12 329.913C112.81 329.731 112.3 329.64 111.589 329.64H110.864V332.593ZM120.548 330.713C121.692 330.713 122.576 331.084 123.2 331.827C123.761 332.493 124.041 333.361 124.041 334.432C124.041 335.603 123.711 336.528 123.05 337.207C122.439 337.84 121.603 338.157 120.541 338.157C119.397 338.157 118.513 337.786 117.889 337.043C117.328 336.378 117.048 335.493 117.048 334.391C117.048 333.247 117.378 332.335 118.039 331.656C118.654 331.027 119.491 330.713 120.548 330.713ZM120.541 331.957C119.876 331.957 119.383 332.269 119.064 332.894C118.85 333.308 118.743 333.814 118.743 334.411C118.743 335.195 118.903 335.808 119.222 336.25C119.541 336.692 119.981 336.913 120.541 336.913C121.106 336.913 121.548 336.694 121.867 336.257C122.186 335.815 122.346 335.206 122.346 334.432C122.346 333.661 122.184 333.058 121.86 332.62C121.541 332.178 121.102 331.957 120.541 331.957ZM128.96 330.713C130.104 330.713 130.988 331.084 131.612 331.827C132.173 332.493 132.453 333.361 132.453 334.432C132.453 335.603 132.123 336.528 131.462 337.207C130.851 337.84 130.015 338.157 128.953 338.157C127.809 338.157 126.925 337.786 126.301 337.043C125.74 336.378 125.46 335.493 125.46 334.391C125.46 333.247 125.79 332.335 126.451 331.656C127.066 331.027 127.903 330.713 128.96 330.713ZM128.953 331.957C128.288 331.957 127.796 332.269 127.477 332.894C127.262 333.308 127.155 333.814 127.155 334.411C127.155 335.195 127.315 335.808 127.634 336.25C127.953 336.692 128.393 336.913 128.953 336.913C129.518 336.913 129.96 336.694 130.279 336.257C130.598 335.815 130.758 335.206 130.758 334.432C130.758 333.661 130.596 333.058 130.273 332.62C129.954 332.178 129.514 331.957 128.953 331.957ZM134.61 332.107H133.462V330.863H134.61V329.312L136.244 328.997V330.863H137.871V332.107H136.244V335.423C136.244 335.906 136.292 336.241 136.388 336.428C136.529 336.706 136.8 336.845 137.201 336.845C137.402 336.845 137.659 336.785 137.974 336.667L138.117 337.918C137.616 338.077 137.131 338.157 136.661 338.157C135.855 338.157 135.287 337.911 134.959 337.419C134.727 337.068 134.61 336.432 134.61 335.512V332.107ZM143.286 338V327.767H144.92V338H143.286ZM148.588 334.951C148.643 335.539 148.793 335.983 149.039 336.284C149.404 336.717 149.942 336.934 150.653 336.934C151.354 336.934 152.061 336.703 152.772 336.243L153.353 337.446C152.528 337.92 151.614 338.157 150.612 338.157C149.354 338.157 148.401 337.804 147.754 337.098C147.166 336.464 146.872 335.582 146.872 334.452C146.872 333.258 147.205 332.317 147.87 331.629C148.458 331.018 149.265 330.713 150.29 330.713C151.799 330.713 152.779 331.296 153.23 332.463C153.453 333.042 153.569 333.871 153.578 334.951H148.588ZM151.904 333.796C151.89 333.372 151.808 333.01 151.657 332.709C151.389 332.185 150.933 331.923 150.29 331.923C149.793 331.923 149.392 332.089 149.087 332.422C148.786 332.755 148.625 333.213 148.602 333.796H151.904ZM156.993 338L154.293 330.863H155.988L157.465 334.814C157.67 335.366 157.848 335.885 157.998 336.373C158.144 335.885 158.32 335.361 158.525 334.801L159.96 330.863H161.519L158.846 338H156.993ZM163.949 334.951C164.004 335.539 164.155 335.983 164.401 336.284C164.765 336.717 165.303 336.934 166.014 336.934C166.716 336.934 167.422 336.703 168.133 336.243L168.714 337.446C167.889 337.92 166.976 338.157 165.973 338.157C164.715 338.157 163.763 337.804 163.115 337.098C162.528 336.464 162.234 335.582 162.234 334.452C162.234 333.258 162.566 332.317 163.232 331.629C163.82 331.018 164.626 330.713 165.652 330.713C167.16 330.713 168.14 331.296 168.591 332.463C168.814 333.042 168.931 333.871 168.94 334.951H163.949ZM167.265 333.796C167.251 333.372 167.169 333.01 167.019 332.709C166.75 332.185 166.294 331.923 165.652 331.923C165.155 331.923 164.754 332.089 164.448 332.422C164.148 332.755 163.986 333.213 163.963 333.796H167.265ZM170.865 338V327.767H172.498V338H170.865Z" fill="#00CCCC"/>
<path fill-rule="evenodd" clip-rule="evenodd" d="M188.807 336.807L187.86 335.86L190.727 333L187.86 330.14L188.807 329.193L192.607 333L188.807 336.807V336.807Z" fill="white" fill-opacity="0.6"/>
<path d="M207.196 338V328.313H208.892V336.633H213.068V338H207.196ZM215.574 334.951C215.629 335.539 215.779 335.983 216.025 336.284C216.39 336.717 216.928 336.934 217.639 336.934C218.341 336.934 219.047 336.703 219.758 336.243L220.339 337.446C219.514 337.92 218.6 338.157 217.598 338.157C216.34 338.157 215.387 337.804 214.74 337.098C214.152 336.464 213.858 335.582 213.858 334.452C213.858 333.258 214.191 332.317 214.856 331.629C215.444 331.018 216.251 330.713 217.276 330.713C218.785 330.713 219.765 331.296 220.216 332.463C220.439 333.042 220.555 333.871 220.564 334.951H215.574ZM218.89 333.796C218.876 333.372 218.794 333.01 218.644 332.709C218.375 332.185 217.919 331.923 217.276 331.923C216.78 331.923 216.379 332.089 216.073 332.422C215.772 332.755 215.611 333.213 215.588 333.796H218.89ZM223.98 338L221.279 330.863H222.975L224.451 334.814C224.656 335.366 224.834 335.885 224.984 336.373C225.13 335.885 225.306 335.361 225.511 334.801L226.946 330.863H228.505L225.832 338H223.98ZM230.936 334.951C230.99 335.539 231.141 335.983 231.387 336.284C231.751 336.717 232.289 336.934 233 336.934C233.702 336.934 234.408 336.703 235.119 336.243L235.7 337.446C234.875 337.92 233.962 338.157 232.959 338.157C231.701 338.157 230.749 337.804 230.102 337.098C229.514 336.464 229.22 335.582 229.22 334.452C229.22 333.258 229.553 332.317 230.218 331.629C230.806 331.018 231.612 330.713 232.638 330.713C234.146 330.713 235.126 331.296 235.577 332.463C235.801 333.042 235.917 333.871 235.926 334.951H230.936ZM234.251 333.796C234.237 333.372 234.155 333.01 234.005 332.709C233.736 332.185 233.28 331.923 232.638 331.923C232.141 331.923 231.74 332.089 231.435 332.422C231.134 332.755 230.972 333.213 230.949 333.796H234.251ZM237.851 338V327.767H239.485V338H237.851ZM248.133 338V330.193L246.362 331.383L245.638 330.05L248.318 328.313H249.78V338H248.133Z" fill="#00CCCC"/>
<path fill-rule="evenodd" clip-rule="evenodd" d="M267.807 336.807L266.86 335.86L269.727 333L266.86 330.14L267.807 329.193L271.607 333L267.807 336.807V336.807Z" fill="white" fill-opacity="0.6"/>
<path d="M292.827 336.147L293.299 337.515C292.752 337.756 292.271 337.923 291.856 338.014C291.446 338.109 290.972 338.157 290.435 338.157C288.985 338.157 287.848 337.74 287.023 336.906C286.139 336.013 285.697 334.787 285.697 333.229C285.697 331.474 286.233 330.125 287.304 329.182C288.088 328.498 289.102 328.156 290.346 328.156C291.285 328.156 292.235 328.375 293.196 328.812L292.636 330.132C291.843 329.726 291.107 329.523 290.428 329.523C289.475 329.523 288.746 329.863 288.24 330.542C287.725 331.244 287.468 332.126 287.468 333.188C287.468 334.299 287.739 335.179 288.281 335.826C288.828 336.469 289.571 336.79 290.51 336.79C290.915 336.79 291.285 336.744 291.617 336.653C291.954 336.558 292.358 336.389 292.827 336.147ZM301.068 330.863V335.491C301.068 336.343 301.089 337.18 301.13 338H299.592L299.537 336.947C299.122 337.385 298.726 337.697 298.348 337.884C297.969 338.066 297.536 338.157 297.049 338.157C296.124 338.157 295.486 337.822 295.135 337.152C294.93 336.76 294.827 336.095 294.827 335.156V330.863H296.461V335.074C296.461 335.644 296.507 336.047 296.598 336.284C296.757 336.694 297.088 336.899 297.589 336.899C298.236 336.899 298.851 336.496 299.435 335.689V330.863H301.068ZM303.567 338V333.55C303.567 332.652 303.547 331.757 303.506 330.863H305.044L305.099 332.203C305.523 331.232 306.151 330.747 306.985 330.747C307.181 330.747 307.389 330.774 307.607 330.829L307.512 332.278C307.302 332.233 307.12 332.21 306.965 332.21C306.555 332.21 306.195 332.354 305.885 332.641C305.579 332.923 305.349 333.326 305.194 333.851V338H303.567ZM309.081 338V333.55C309.081 332.652 309.061 331.757 309.02 330.863H310.558L310.612 332.203C311.036 331.232 311.665 330.747 312.499 330.747C312.695 330.747 312.902 330.774 313.121 330.829L313.025 332.278C312.816 332.233 312.634 332.21 312.479 332.21C312.068 332.21 311.708 332.354 311.399 332.641C311.093 332.923 310.863 333.326 310.708 333.851V338H309.081ZM315.723 334.951C315.777 335.539 315.928 335.983 316.174 336.284C316.539 336.717 317.076 336.934 317.787 336.934C318.489 336.934 319.195 336.703 319.906 336.243L320.487 337.446C319.663 337.92 318.749 338.157 317.746 338.157C316.488 338.157 315.536 337.804 314.889 337.098C314.301 336.464 314.007 335.582 314.007 334.452C314.007 333.258 314.34 332.317 315.005 331.629C315.593 331.018 316.4 330.713 317.425 330.713C318.933 330.713 319.913 331.296 320.364 332.463C320.588 333.042 320.704 333.871 320.713 334.951H315.723ZM319.038 333.796C319.025 333.372 318.943 333.01 318.792 332.709C318.523 332.185 318.068 331.923 317.425 331.923C316.928 331.923 316.527 332.089 316.222 332.422C315.921 332.755 315.759 333.213 315.736 333.796H319.038ZM322.645 338V333.365C322.645 332.654 322.631 331.973 322.604 331.321L322.583 330.863H324.121L324.176 331.916C324.6 331.474 325.001 331.162 325.379 330.979C325.762 330.797 326.204 330.706 326.705 330.706C327.644 330.706 328.291 331.041 328.647 331.711C328.856 332.098 328.961 332.764 328.961 333.707V338H327.327V333.789C327.327 333.219 327.282 332.816 327.191 332.579C327.027 332.169 326.685 331.964 326.165 331.964C325.5 331.964 324.871 332.367 324.278 333.174V338H322.645ZM331.775 332.107H330.626V330.863H331.775V329.312L333.408 328.997V330.863H335.035V332.107H333.408V335.423C333.408 335.906 333.456 336.241 333.552 336.428C333.693 336.706 333.964 336.845 334.365 336.845C334.566 336.845 334.823 336.785 335.138 336.667L335.281 337.918C334.78 338.077 334.295 338.157 333.825 338.157C333.019 338.157 332.451 337.911 332.123 337.419C331.891 337.068 331.775 336.432 331.775 335.512V332.107ZM340.423 341.008V333.728C340.423 332.575 340.403 331.62 340.362 330.863H341.927L341.982 331.848C342.305 331.442 342.636 331.15 342.973 330.973C343.31 330.795 343.702 330.706 344.149 330.706C345.065 330.706 345.778 331.071 346.288 331.8C346.776 332.488 347.02 333.361 347.02 334.418C347.02 335.585 346.737 336.519 346.172 337.221C345.666 337.845 344.987 338.157 344.135 338.157C343.287 338.157 342.595 337.802 342.057 337.091V341.008H340.423ZM342.057 335.669C342.563 336.489 343.128 336.899 343.752 336.899C344.272 336.899 344.668 336.646 344.942 336.141C345.197 335.667 345.324 335.086 345.324 334.397C345.324 333.691 345.185 333.108 344.907 332.647C344.629 332.192 344.231 331.964 343.711 331.964C343.096 331.964 342.545 332.356 342.057 333.14V335.669ZM352.862 337.187C352.529 337.542 352.194 337.793 351.857 337.938C351.524 338.084 351.125 338.157 350.66 338.157C349.922 338.157 349.355 337.961 348.958 337.569C348.557 337.182 348.357 336.658 348.357 335.997C348.357 335.104 348.719 334.448 349.444 334.028C349.899 333.764 350.619 333.632 351.604 333.632C351.864 333.632 352.253 333.646 352.773 333.673V333.543C352.773 332.463 352.246 331.923 351.194 331.923C350.597 331.923 349.954 332.121 349.266 332.518L348.828 331.342C349.658 330.923 350.517 330.713 351.406 330.713C352.559 330.713 353.383 331.023 353.88 331.643C354.081 331.898 354.217 332.194 354.29 332.531C354.368 332.868 354.407 333.374 354.407 334.049V336.182C354.407 336.938 354.429 337.544 354.475 338H352.923L352.862 337.187ZM352.773 334.698C352.504 334.675 352.258 334.664 352.034 334.664C351.374 334.664 350.897 334.755 350.606 334.938C350.237 335.17 350.052 335.512 350.052 335.963C350.052 336.286 350.152 336.549 350.353 336.749C350.553 336.945 350.822 337.043 351.159 337.043C351.784 337.043 352.322 336.71 352.773 336.045V334.698ZM361.493 330.863H363.065L363.044 331.349C363.008 332.324 362.99 333.099 362.99 333.673V337.187C362.99 338.002 362.946 338.604 362.86 338.991C362.778 339.383 362.616 339.734 362.374 340.044C361.782 340.796 360.804 341.172 359.442 341.172C358.444 341.172 357.521 340.96 356.673 340.536L357.193 339.312C357.876 339.723 358.585 339.928 359.319 339.928C360.198 339.928 360.793 339.627 361.103 339.025C361.271 338.693 361.356 338.118 361.356 337.303V336.79C360.754 337.487 360.048 337.836 359.237 337.836C358.375 337.836 357.676 337.508 357.138 336.852C356.628 336.232 356.372 335.382 356.372 334.302C356.372 333.235 356.637 332.365 357.165 331.69C357.68 331.039 358.373 330.713 359.243 330.713C360.178 330.713 360.911 331.093 361.445 331.854L361.493 330.863ZM361.356 333.276C361.219 332.966 361.05 332.714 360.85 332.518C360.481 332.153 360.073 331.971 359.626 331.971C359.098 331.971 358.697 332.219 358.423 332.716C358.186 333.144 358.068 333.677 358.068 334.315C358.068 334.944 358.193 335.464 358.444 335.874C358.726 336.343 359.134 336.578 359.667 336.578C360 336.578 360.314 336.471 360.611 336.257C360.911 336.043 361.16 335.744 361.356 335.361V333.276ZM366.596 334.951C366.651 335.539 366.801 335.983 367.047 336.284C367.412 336.717 367.95 336.934 368.66 336.934C369.362 336.934 370.069 336.703 370.78 336.243L371.361 337.446C370.536 337.92 369.622 338.157 368.619 338.157C367.362 338.157 366.409 337.804 365.762 337.098C365.174 336.464 364.88 335.582 364.88 334.452C364.88 333.258 365.213 332.317 365.878 331.629C366.466 331.018 367.273 330.713 368.298 330.713C369.807 330.713 370.786 331.296 371.238 332.463C371.461 333.042 371.577 333.871 371.586 334.951H366.596ZM369.911 333.796C369.898 333.372 369.816 333.01 369.665 332.709C369.397 332.185 368.941 331.923 368.298 331.923C367.801 331.923 367.4 332.089 367.095 332.422C366.794 332.755 366.633 333.213 366.61 333.796H369.911Z" fill="white" fill-opacity="0.6"/>
<rect width="52" height="55" transform="translate(0 305)" fill="#23233C"/>
<path fill-rule="evenodd" clip-rule="evenodd" d="M27.21 327.29L32.91 333L27.21 338.71L25.79 337.29L30.09 333L25.79 328.71L27.21 327.29ZM21.21 327.29L26.91 333L21.21 338.71L19.79 337.29L24.09 333L19.79 328.71L21.21 327.29Z" fill="white"/>
<mask id="path-18-inside-2_7490_11623" fill="white">
<path d="M0 257H896V305H0V257Z"/>
</mask>
<path d="M0 257H896V305H0V257Z" fill="#23233C"/>
<path d="M896 305V304H0V305V306H896V305Z" fill="#E8E8E3" fill-opacity="0.15" mask="url(#path-18-inside-2_7490_11623)"/>
<path fill-rule="evenodd" clip-rule="evenodd" d="M16.3105 288.344V285.317C18.0332 285.859 19.5575 286.131 20.8835 286.131C22.7143 286.131 23.6298 285.647 23.6298 284.679C23.6298 284.319 23.4966 284.016 23.2295 283.771C22.9564 283.51 22.2569 283.15 21.1329 282.687C19.1161 281.858 17.801 281.151 17.1892 280.566C16.3964 279.794 16 278.82 16 277.644C16 276.128 16.5776 274.973 17.732 274.18C18.8737 273.393 20.3603 273 22.1941 273C23.2045 273 24.667 273.186 26.5798 273.558V276.47C25.1565 275.901 23.8354 275.618 22.6147 275.618C20.8959 275.618 20.0365 276.09 20.0365 277.036C20.0365 277.389 20.2096 277.678 20.5563 277.901C20.8446 278.082 21.6389 278.464 22.9377 279.049C24.8076 279.879 26.0525 280.601 26.6728 281.215C27.4088 281.944 27.7775 282.886 27.7775 284.042C27.7775 285.702 27.0553 286.969 25.6119 287.841C24.4425 288.549 22.9261 288.901 21.0636 288.901C19.4908 288.901 17.9061 288.716 16.3105 288.344ZM30.1953 273.266H34.4761V288.592H30.1953V273.266ZM38.4016 273.266V288.592H49.5573V285.664H42.5274V282.027H48.4928V279.499H42.5274V276.038H49.3807V273.266H38.4016ZM52.3516 288.592V273.266H57.9018L61.7578 283.059L65.7105 273.266H70.9823V288.592H66.9235V277.741L62.429 288.747H59.7756L55.3676 277.741V288.592H52.3516ZM74.9094 273.266V288.592H86.066V285.664H79.0356V282.027H85.0008V279.499H79.0356V276.038H85.8883V273.266H74.9094ZM88.8828 288.592V273.266H93.8442L99.1079 283.526V273.266H102.123V288.592H97.3026L91.8993 278.195V288.592H88.8828ZM105.162 285.317V288.344C106.757 288.716 108.342 288.902 109.916 288.901C111.779 288.901 113.299 288.549 114.475 287.841C115.911 286.969 116.629 285.702 116.629 284.042C116.629 282.886 116.261 281.944 115.524 281.215C114.899 280.601 113.656 279.879 111.8 279.049C110.48 278.458 109.682 278.075 109.408 277.901C109.062 277.678 108.89 277.389 108.89 277.036C108.89 276.09 109.744 275.618 111.456 275.618C112.683 275.618 114.008 275.901 115.432 276.47V273.558L115.053 273.493C113.415 273.164 112.078 273 111.047 273C109.213 273 107.725 273.393 106.585 274.18C105.429 274.973 104.853 276.124 104.853 277.633C104.853 278.823 105.249 279.801 106.041 280.566C106.659 281.158 107.975 281.865 109.986 282.688C111.117 283.15 111.819 283.51 112.093 283.771C112.352 284.016 112.481 284.319 112.481 284.68C112.481 285.647 111.567 286.131 109.736 286.131C108.394 286.131 106.87 285.86 105.162 285.317Z" fill="white"/>
<path d="M152.008 283.125H147.883L146.523 287H145.227L149.164 275.93H150.781L154.75 287H153.367L152.008 283.125ZM151.625 282.07L150.641 279.156C150.391 278.417 150.164 277.706 149.961 277.023C149.773 277.654 149.544 278.367 149.273 279.164L148.266 282.07H151.625ZM156.551 290.438V282.164C156.551 281.268 156.536 280.323 156.505 279.328L156.489 278.891H157.63L157.676 280.125C157.947 279.755 158.208 279.479 158.458 279.297C158.963 278.922 159.531 278.734 160.161 278.734C161.103 278.734 161.88 279.135 162.489 279.938C163.067 280.698 163.356 281.682 163.356 282.891C163.356 284.234 163.018 285.312 162.34 286.125C161.757 286.818 161.01 287.164 160.098 287.164C159.609 287.164 159.192 287.07 158.848 286.883C158.505 286.695 158.145 286.365 157.77 285.891V290.438H156.551ZM157.77 284.672C158.005 285.026 158.213 285.302 158.395 285.5C158.827 285.958 159.33 286.188 159.903 286.188C160.648 286.188 161.208 285.844 161.583 285.156C161.911 284.557 162.075 283.812 162.075 282.922C162.075 281.964 161.882 281.18 161.497 280.57C161.132 279.997 160.606 279.711 159.919 279.711C159.07 279.711 158.353 280.206 157.77 281.195V284.672ZM165.728 290.438V282.164C165.728 281.268 165.712 280.323 165.681 279.328L165.665 278.891H166.806L166.853 280.125C167.124 279.755 167.384 279.479 167.634 279.297C168.139 278.922 168.707 278.734 169.337 278.734C170.28 278.734 171.056 279.135 171.665 279.938C172.243 280.698 172.532 281.682 172.532 282.891C172.532 284.234 172.194 285.312 171.517 286.125C170.933 286.818 170.186 287.164 169.275 287.164C168.785 287.164 168.368 287.07 168.025 286.883C167.681 286.695 167.322 286.365 166.947 285.891V290.438H165.728ZM166.947 284.672C167.181 285.026 167.389 285.302 167.572 285.5C168.004 285.958 168.506 286.188 169.079 286.188C169.824 286.188 170.384 285.844 170.759 285.156C171.087 284.557 171.251 283.812 171.251 282.922C171.251 281.964 171.058 281.18 170.673 280.57C170.308 279.997 169.782 279.711 169.095 279.711C168.246 279.711 167.53 280.206 166.947 281.195V284.672ZM174.904 287V275.305H176.123V287H174.904ZM179.096 287V278.891H180.315V287H179.096ZM179.698 275.148C179.953 275.148 180.161 275.229 180.323 275.391C180.484 275.552 180.565 275.758 180.565 276.008C180.565 276.263 180.484 276.471 180.323 276.633C180.161 276.794 179.956 276.875 179.706 276.875C179.45 276.875 179.242 276.794 179.081 276.633C178.919 276.471 178.838 276.26 178.838 276C178.838 275.755 178.919 275.552 179.081 275.391C179.247 275.229 179.453 275.148 179.698 275.148ZM188.452 285.461L188.921 286.406C188.187 286.906 187.366 287.156 186.46 287.156C185.293 287.156 184.379 286.799 183.718 286.086C183.025 285.336 182.679 284.312 182.679 283.016C182.679 281.594 183.046 280.5 183.78 279.734C184.421 279.062 185.278 278.727 186.351 278.727C187.184 278.727 187.991 278.945 188.772 279.383L188.312 280.344C187.655 279.917 186.999 279.703 186.343 279.703C185.556 279.703 184.96 279.992 184.554 280.57C184.158 281.133 183.96 281.898 183.96 282.867C183.96 283.904 184.194 284.729 184.663 285.344C185.095 285.901 185.7 286.18 186.476 286.18C187.163 286.18 187.822 285.94 188.452 285.461ZM195.152 286.055C194.787 286.451 194.418 286.734 194.043 286.906C193.673 287.073 193.235 287.156 192.73 287.156C191.881 287.156 191.233 286.917 190.785 286.438C190.389 286.016 190.191 285.458 190.191 284.766C190.191 283.698 190.642 282.938 191.543 282.484C192.074 282.219 192.858 282.086 193.894 282.086C194.056 282.086 194.444 282.096 195.058 282.117V281.898C195.058 281.31 194.983 280.862 194.832 280.555C194.561 279.992 194.024 279.711 193.222 279.711C192.566 279.711 191.868 279.945 191.129 280.414L190.597 279.539C191.446 279.003 192.366 278.734 193.355 278.734C194.584 278.734 195.425 279.102 195.879 279.836C196.035 280.096 196.139 280.396 196.191 280.734C196.248 281.068 196.277 281.599 196.277 282.328V284.977C196.277 285.81 196.298 286.484 196.34 287H195.207L195.152 286.055ZM195.058 283.047C194.772 283.026 194.47 283.016 194.152 283.016C193.282 283.016 192.649 283.13 192.254 283.359C191.733 283.656 191.472 284.115 191.472 284.734C191.472 285.172 191.603 285.521 191.863 285.781C192.134 286.047 192.496 286.18 192.949 286.18C193.798 286.18 194.501 285.766 195.058 284.938V283.047ZM199.703 279.867H198.391V278.891H199.703V277.117L200.922 276.859V278.891H202.836V279.867H200.922V284.297C200.922 284.969 200.979 285.427 201.094 285.672C201.261 286.01 201.568 286.18 202.016 286.18C202.287 286.18 202.597 286.099 202.946 285.938L203.055 286.906C202.586 287.073 202.149 287.156 201.742 287.156C200.998 287.156 200.472 286.958 200.164 286.562C199.857 286.167 199.703 285.492 199.703 284.539V279.867ZM204.958 287V278.891H206.177V287H204.958ZM205.559 275.148C205.815 275.148 206.023 275.229 206.184 275.391C206.346 275.552 206.427 275.758 206.427 276.008C206.427 276.263 206.346 276.471 206.184 276.633C206.023 276.794 205.817 276.875 205.567 276.875C205.312 276.875 205.104 276.794 204.942 276.633C204.781 276.471 204.7 276.26 204.7 276C204.7 275.755 204.781 275.552 204.942 275.391C205.109 275.229 205.315 275.148 205.559 275.148ZM212.275 278.734C213.457 278.734 214.402 279.18 215.111 280.07C215.71 280.82 216.009 281.779 216.009 282.945C216.009 284.201 215.663 285.214 214.97 285.984C214.267 286.766 213.369 287.156 212.275 287.156C211.093 287.156 210.147 286.711 209.439 285.82C208.84 285.065 208.541 284.089 208.541 282.891C208.541 281.661 208.887 280.664 209.58 279.898C210.277 279.122 211.176 278.734 212.275 278.734ZM212.275 279.711C211.395 279.711 210.733 280.107 210.291 280.898C209.978 281.456 209.822 282.128 209.822 282.914C209.822 283.826 210.009 284.57 210.384 285.148C210.832 285.836 211.462 286.18 212.275 286.18C213.155 286.18 213.817 285.781 214.259 284.984C214.572 284.432 214.728 283.753 214.728 282.945C214.728 282.049 214.541 281.315 214.166 280.742C213.718 280.055 213.087 279.711 212.275 279.711ZM218.389 287V281.531C218.389 280.297 218.368 279.417 218.326 278.891H219.529L219.576 280.188C220.076 279.661 220.55 279.289 220.998 279.07C221.451 278.846 221.959 278.734 222.522 278.734C223.548 278.734 224.251 279.109 224.631 279.859C224.751 280.104 224.837 280.414 224.889 280.789C224.941 281.159 224.967 281.667 224.967 282.312V287H223.748V282.289C223.748 281.477 223.691 280.906 223.576 280.578C223.373 280 222.907 279.711 222.178 279.711C221.298 279.711 220.441 280.216 219.607 281.227V287H218.389ZM232.07 287V281.531C232.07 280.297 232.049 279.417 232.007 278.891H233.21L233.257 280.188C233.757 279.661 234.231 279.289 234.679 279.07C235.132 278.846 235.64 278.734 236.202 278.734C237.228 278.734 237.932 279.109 238.312 279.859C238.432 280.104 238.518 280.414 238.57 280.789C238.622 281.159 238.648 281.667 238.648 282.312V287H237.429V282.289C237.429 281.477 237.372 280.906 237.257 280.578C237.054 280 236.588 279.711 235.859 279.711C234.978 279.711 234.122 280.216 233.288 281.227V287H232.07ZM245.855 286.055C245.491 286.451 245.121 286.734 244.746 286.906C244.376 287.073 243.939 287.156 243.434 287.156C242.585 287.156 241.936 286.917 241.488 286.438C241.092 286.016 240.894 285.458 240.894 284.766C240.894 283.698 241.345 282.938 242.246 282.484C242.777 282.219 243.561 282.086 244.598 282.086C244.759 282.086 245.147 282.096 245.762 282.117V281.898C245.762 281.31 245.686 280.862 245.535 280.555C245.264 279.992 244.728 279.711 243.926 279.711C243.269 279.711 242.572 279.945 241.832 280.414L241.301 279.539C242.15 279.003 243.069 278.734 244.059 278.734C245.288 278.734 246.129 279.102 246.582 279.836C246.738 280.096 246.842 280.396 246.894 280.734C246.952 281.068 246.98 281.599 246.98 282.328V284.977C246.98 285.81 247.001 286.484 247.043 287H245.91L245.855 286.055ZM245.762 283.047C245.475 283.026 245.173 283.016 244.855 283.016C243.986 283.016 243.353 283.13 242.957 283.359C242.436 283.656 242.176 284.115 242.176 284.734C242.176 285.172 242.306 285.521 242.566 285.781C242.837 286.047 243.199 286.18 243.652 286.18C244.501 286.18 245.204 285.766 245.762 284.938V283.047ZM249.969 287V281.531C249.969 280.297 249.948 279.417 249.907 278.891H251.11L251.157 280.172C251.448 279.865 251.719 279.615 251.969 279.422C252.558 278.964 253.198 278.734 253.891 278.734C254.448 278.734 254.909 278.872 255.274 279.148C255.639 279.419 255.886 279.815 256.016 280.336C256.537 279.747 257.008 279.333 257.43 279.094C257.852 278.854 258.329 278.734 258.86 278.734C259.829 278.734 260.493 279.109 260.852 279.859C260.967 280.104 261.047 280.414 261.094 280.789C261.146 281.164 261.172 281.672 261.172 282.312V287H259.954V282.289C259.954 281.477 259.902 280.906 259.797 280.578C259.61 280 259.183 279.711 258.516 279.711C257.714 279.711 256.935 280.216 256.18 281.227V287H254.961V282.148C254.961 281.393 254.904 280.862 254.79 280.555C254.576 279.992 254.167 279.711 253.563 279.711C252.756 279.711 251.964 280.216 251.188 281.227V287H249.969ZM264.755 283.273C264.844 284.18 265.052 284.854 265.38 285.297C265.828 285.885 266.489 286.18 267.364 286.18C268.109 286.18 268.849 285.924 269.583 285.414L270.052 286.359C269.208 286.891 268.304 287.156 267.341 287.156C266.06 287.156 265.073 286.737 264.38 285.898C263.776 285.164 263.474 284.18 263.474 282.945C263.474 281.451 263.877 280.328 264.685 279.578C265.289 279.016 266.062 278.734 267.005 278.734C268.448 278.734 269.416 279.326 269.911 280.508C270.187 281.174 270.336 282.096 270.357 283.273H264.755ZM269.06 282.297C269.044 281.698 268.94 281.198 268.747 280.797C268.398 280.073 267.804 279.711 266.966 279.711C266.32 279.711 265.802 279.943 265.411 280.406C265.021 280.865 264.812 281.495 264.786 282.297H269.06Z" fill="white"/>
<rect x="860" y="269.5" width="24" height="23" rx="11.5" fill="white" fill-opacity="0.3"/>
<path d="M868.732 276.697H869.693V282.287C869.693 282.861 869.665 283.301 869.61 283.605C869.556 283.906 869.458 284.156 869.318 284.355C868.97 284.863 868.394 285.117 867.589 285.117C867.136 285.117 866.7 285.039 866.282 284.883L866.364 284.086C866.72 284.246 867.097 284.326 867.495 284.326C868.073 284.326 868.435 284.131 868.579 283.74C868.681 283.471 868.732 282.848 868.732 281.871V276.697ZM871.85 285V276.697H873.708C874.352 276.697 874.888 276.734 875.313 276.809C876.239 276.977 876.929 277.443 877.382 278.209C877.792 278.904 877.997 279.768 877.997 280.799C877.997 281.799 877.806 282.641 877.423 283.324C876.95 284.164 876.233 284.68 875.272 284.871C874.831 284.957 874.266 285 873.579 285H871.85ZM872.811 284.209H873.649C874.634 284.209 875.368 284.031 875.852 283.676C876.212 283.414 876.489 283.039 876.684 282.551C876.88 282.059 876.977 281.496 876.977 280.863C876.977 279.953 876.796 279.193 876.432 278.584C876.097 278.018 875.589 277.678 874.909 277.564C874.612 277.514 874.145 277.488 873.509 277.488H872.811V284.209Z" fill="white"/>
</g>
<defs>
<clipPath id="clip0_7490_11623">
<rect width="896" height="103" fill="white" transform="translate(0 257)"/>
</clipPath>
</defs>
</svg>
