<svg width="896" height="360" viewBox="0 0 896 360" fill="none" xmlns="http://www.w3.org/2000/svg">
<rect width="896" height="360" fill="#23233C"/>
<path d="M568.469 107V62.7188H579.75L589.625 90.8125C590.167 92.3125 590.969 94.8958 592.031 98.5625C593.01 95.1042 593.802 92.5208 594.406 90.8125L604.188 62.7188H615.281V107H607.719V70.6875C606.844 73.8125 605.833 77.0417 604.688 80.375L595.5 107H588.125L578.969 80.9375C577.906 77.9375 576.812 74.5208 575.688 70.6875V107H568.469ZM639.272 73.6875C644.501 73.6875 648.543 75.3854 651.397 78.7812C653.96 81.8229 655.241 85.7917 655.241 90.6875C655.241 96.0417 653.731 100.271 650.71 103.375C647.918 106.271 644.095 107.719 639.241 107.719C634.012 107.719 629.97 106.021 627.116 102.625C624.554 99.5833 623.272 95.5417 623.272 90.5C623.272 85.2708 624.783 81.1042 627.804 78C630.616 75.125 634.439 73.6875 639.272 73.6875ZM639.241 79.375C636.199 79.375 633.949 80.8021 632.491 83.6562C631.512 85.5521 631.022 87.8646 631.022 90.5938C631.022 94.1771 631.751 96.9792 633.21 99C634.668 101.021 636.679 102.031 639.241 102.031C641.824 102.031 643.845 101.031 645.304 99.0312C646.762 97.0104 647.491 94.2292 647.491 90.6875C647.491 87.1667 646.751 84.4062 645.272 82.4062C643.814 80.3854 641.804 79.375 639.241 79.375ZM683.263 60.2188H690.732V95.5312C690.732 100.323 690.826 104.146 691.013 107H683.857L683.607 102.344C682.17 104.302 680.701 105.688 679.201 106.5C677.701 107.312 675.878 107.719 673.732 107.719C669.503 107.719 666.211 106.031 663.857 102.656C661.67 99.5312 660.576 95.5312 660.576 90.6562C660.576 85.3646 661.867 81.125 664.451 77.9375C666.763 75.1042 669.857 73.6875 673.732 73.6875C677.565 73.6875 680.742 75.2917 683.263 78.5V60.2188ZM683.263 84.8438C681.201 81.2396 678.68 79.4375 675.701 79.4375C673.326 79.4375 671.503 80.4792 670.232 82.5625C668.961 84.6667 668.326 87.3333 668.326 90.5625C668.326 93.7083 668.909 96.3646 670.076 98.5312C671.326 100.823 673.138 101.969 675.513 101.969C678.409 101.969 680.992 100.094 683.263 96.3438V84.8438ZM718.598 103.281C717.077 104.906 715.546 106.052 714.004 106.719C712.483 107.385 710.661 107.719 708.536 107.719C705.161 107.719 702.567 106.823 700.754 105.031C698.921 103.26 698.004 100.865 698.004 97.8438C698.004 93.7604 699.661 90.7604 702.973 88.8438C705.056 87.6354 708.348 87.0312 712.848 87.0312C714.036 87.0312 715.817 87.0938 718.192 87.2188V86.625C718.192 81.6875 715.786 79.2188 710.973 79.2188C708.244 79.2188 705.306 80.125 702.161 81.9375L700.161 76.5625C703.952 74.6458 707.879 73.6875 711.942 73.6875C717.213 73.6875 720.983 75.1042 723.254 77.9375C724.171 79.1042 724.796 80.4583 725.129 82C725.483 83.5417 725.661 85.8542 725.661 88.9375V98.6875C725.661 102.146 725.765 104.917 725.973 107H718.879L718.598 103.281ZM718.192 91.9062C716.963 91.8021 715.838 91.75 714.817 91.75C711.796 91.75 709.619 92.1667 708.286 93C706.598 94.0625 705.754 95.625 705.754 97.6875C705.754 99.1667 706.213 100.365 707.129 101.281C708.046 102.177 709.275 102.625 710.817 102.625C713.671 102.625 716.129 101.104 718.192 98.0625V91.9062ZM735.933 107V60.2188H743.402V107H735.933ZM568.312 184V162.812C568.312 159.562 568.25 156.49 568.125 153.594L568.031 151.375H575.062L575.312 156.188C577.083 154.208 578.802 152.792 580.469 151.938C582.135 151.083 584.021 150.656 586.125 150.656C590.625 150.656 593.573 152.646 594.969 156.625C596.844 154.438 598.615 152.896 600.281 152C601.948 151.104 603.865 150.656 606.031 150.656C610.094 150.656 612.896 152.188 614.438 155.25C615.354 157.062 615.812 160.104 615.812 164.375V184H608.344V164.75C608.344 162.125 608.156 160.281 607.781 159.219C607.094 157.344 605.688 156.406 603.562 156.406C600.812 156.406 598.219 158.25 595.781 161.938V184H588.312V164C588.312 161.667 588.062 159.958 587.562 158.875C586.833 157.229 585.552 156.406 583.719 156.406C580.948 156.406 578.302 158.25 575.781 161.938V184H568.312ZM631.179 170.062C631.429 172.75 632.116 174.781 633.241 176.156C634.908 178.135 637.366 179.125 640.616 179.125C643.824 179.125 647.054 178.073 650.304 175.969L652.96 181.469C649.189 183.635 645.012 184.719 640.429 184.719C634.679 184.719 630.324 183.104 627.366 179.875C624.679 176.979 623.335 172.948 623.335 167.781C623.335 162.323 624.856 158.021 627.897 154.875C630.585 152.083 634.272 150.688 638.96 150.688C645.856 150.688 650.335 153.354 652.397 158.688C653.418 161.333 653.949 165.125 653.991 170.062H631.179ZM646.335 164.781C646.272 162.844 645.897 161.188 645.21 159.812C643.981 157.417 641.897 156.219 638.96 156.219C636.689 156.219 634.856 156.979 633.46 158.5C632.085 160.021 631.345 162.115 631.241 164.781H646.335ZM659.201 182.156L661.201 176.438C662.992 177.458 664.503 178.167 665.732 178.562C666.982 178.938 668.336 179.125 669.795 179.125C671.503 179.125 672.826 178.76 673.763 178.031C674.722 177.281 675.201 176.26 675.201 174.969C675.201 173.74 674.774 172.812 673.92 172.188C673.253 171.729 671.503 170.99 668.67 169.969C666.711 169.281 665.274 168.708 664.357 168.25C663.44 167.771 662.607 167.198 661.857 166.531C660.211 165.073 659.388 163.073 659.388 160.531C659.388 157.385 660.565 154.917 662.92 153.125C665.045 151.5 667.888 150.688 671.451 150.688C674.847 150.688 678.378 151.458 682.045 153L680.107 158.75C677.274 157.083 674.482 156.25 671.732 156.25C670.211 156.25 669.003 156.583 668.107 157.25C667.211 157.917 666.763 158.823 666.763 159.969C666.763 161.177 667.357 162.115 668.545 162.781C669.232 163.156 670.94 163.854 673.67 164.875C677.003 166.125 679.326 167.427 680.638 168.781C681.951 170.156 682.607 171.979 682.607 174.25C682.607 177.292 681.503 179.781 679.295 181.719C677.024 183.719 673.899 184.719 669.92 184.719C666.149 184.719 662.576 183.865 659.201 182.156ZM687.317 182.156L689.317 176.438C691.108 177.458 692.619 178.167 693.848 178.562C695.098 178.938 696.452 179.125 697.91 179.125C699.619 179.125 700.942 178.76 701.879 178.031C702.838 177.281 703.317 176.26 703.317 174.969C703.317 173.74 702.89 172.812 702.035 172.188C701.369 171.729 699.619 170.99 696.785 169.969C694.827 169.281 693.39 168.708 692.473 168.25C691.556 167.771 690.723 167.198 689.973 166.531C688.327 165.073 687.504 163.073 687.504 160.531C687.504 157.385 688.681 154.917 691.035 153.125C693.16 151.5 696.004 150.688 699.567 150.688C702.963 150.688 706.494 151.458 710.16 153L708.223 158.75C705.39 157.083 702.598 156.25 699.848 156.25C698.327 156.25 697.119 156.583 696.223 157.25C695.327 157.917 694.879 158.823 694.879 159.969C694.879 161.177 695.473 162.115 696.66 162.781C697.348 163.156 699.056 163.854 701.785 164.875C705.119 166.125 707.442 167.427 708.754 168.781C710.067 170.156 710.723 171.979 710.723 174.25C710.723 177.292 709.619 179.781 707.41 181.719C705.14 183.719 702.015 184.719 698.035 184.719C694.265 184.719 690.692 183.865 687.317 182.156ZM736.277 180.281C734.756 181.906 733.224 183.052 731.683 183.719C730.162 184.385 728.339 184.719 726.214 184.719C722.839 184.719 720.245 183.823 718.433 182.031C716.599 180.26 715.683 177.865 715.683 174.844C715.683 170.76 717.339 167.76 720.652 165.844C722.735 164.635 726.027 164.031 730.527 164.031C731.714 164.031 733.495 164.094 735.87 164.219V163.625C735.87 158.688 733.464 156.219 728.652 156.219C725.922 156.219 722.985 157.125 719.839 158.938L717.839 153.562C721.631 151.646 725.558 150.688 729.62 150.688C734.891 150.688 738.662 152.104 740.933 154.938C741.849 156.104 742.474 157.458 742.808 159C743.162 160.542 743.339 162.854 743.339 165.938V175.688C743.339 179.146 743.443 181.917 743.652 184H736.558L736.277 180.281ZM735.87 168.906C734.641 168.802 733.516 168.75 732.495 168.75C729.474 168.75 727.297 169.167 725.964 170C724.277 171.062 723.433 172.625 723.433 174.688C723.433 176.167 723.891 177.365 724.808 178.281C725.724 179.177 726.954 179.625 728.495 179.625C731.349 179.625 733.808 178.104 735.87 175.062V168.906ZM774.58 151.375H781.768L781.674 153.594C781.507 158.052 781.424 161.594 781.424 164.219V180.281C781.424 184.01 781.226 186.76 780.83 188.531C780.455 190.323 779.715 191.927 778.611 193.344C775.903 196.781 771.434 198.5 765.205 198.5C760.643 198.5 756.424 197.531 752.549 195.594L754.924 190C758.049 191.875 761.288 192.812 764.643 192.812C768.663 192.812 771.382 191.438 772.799 188.688C773.57 187.167 773.955 184.542 773.955 180.812V178.469C771.205 181.656 767.976 183.25 764.268 183.25C760.33 183.25 757.132 181.75 754.674 178.75C752.34 175.917 751.174 172.031 751.174 167.094C751.174 162.219 752.382 158.24 754.799 155.156C757.153 152.177 760.32 150.688 764.299 150.688C768.57 150.688 771.924 152.427 774.361 155.906L774.58 151.375ZM773.955 162.406C773.33 160.99 772.559 159.833 771.643 158.938C769.955 157.271 768.09 156.438 766.049 156.438C763.632 156.438 761.799 157.573 760.549 159.844C759.465 161.802 758.924 164.24 758.924 167.156C758.924 170.031 759.497 172.406 760.643 174.281C761.934 176.427 763.799 177.5 766.236 177.5C767.757 177.5 769.195 177.01 770.549 176.031C771.924 175.052 773.059 173.688 773.955 171.938V162.406ZM796.758 170.062C797.008 172.75 797.696 174.781 798.821 176.156C800.488 178.135 802.946 179.125 806.196 179.125C809.404 179.125 812.633 178.073 815.883 175.969L818.54 181.469C814.769 183.635 810.592 184.719 806.008 184.719C800.258 184.719 795.904 183.104 792.946 179.875C790.258 176.979 788.915 172.948 788.915 167.781C788.915 162.323 790.436 158.021 793.477 154.875C796.165 152.083 799.852 150.688 804.54 150.688C811.436 150.688 815.915 153.354 817.977 158.688C818.998 161.333 819.529 165.125 819.571 170.062H796.758ZM811.915 164.781C811.852 162.844 811.477 161.188 810.79 159.812C809.561 157.417 807.477 156.219 804.54 156.219C802.269 156.219 800.436 156.979 799.04 158.5C797.665 160.021 796.925 162.115 796.821 164.781H811.915Z" fill="#00FFB9"/>
<rect width="537" height="360" fill="#000028" fill-opacity="0.65"/>
<g filter="url(#filter0_ddd_7490_366)">
<rect x="29" y="96" width="480" height="176" rx="4" fill="#23233C"/>
<path d="M66.7559 124.011C67.4866 122.732 69.1159 122.288 70.3945 123.018C70.8078 123.255 71.1505 123.597 71.3867 124.011L82.792 143.97C83.5225 145.248 83.0784 146.878 81.7998 147.608C81.3969 147.838 80.9406 147.959 80.4766 147.959H57.667C56.1944 147.959 55.0002 146.765 55 145.293C55 144.829 55.1213 144.373 55.3516 143.97L66.7559 124.011ZM57.667 145.293H80.4766L69.0713 125.334L57.667 145.293ZM69 139.667C69.9524 139.667 70.667 140.371 70.667 141.331C70.667 142.291 69.9524 142.995 69 142.995C68.026 142.995 67.333 142.291 67.333 141.309C67.3331 140.371 68.0476 139.667 69 139.667ZM70.333 129.334V137.334H67.667V129.334H70.333Z" fill="#FFD732"/>
<path d="M103.953 141V132.681H101.137V131.313H108.506V132.681H105.648V141H103.953ZM110.205 137.951C110.26 138.539 110.41 138.983 110.656 139.284C111.021 139.717 111.559 139.934 112.27 139.934C112.971 139.934 113.678 139.703 114.389 139.243L114.97 140.446C114.145 140.92 113.231 141.157 112.229 141.157C110.971 141.157 110.018 140.804 109.371 140.098C108.783 139.464 108.489 138.582 108.489 137.452C108.489 136.258 108.822 135.317 109.487 134.629C110.075 134.018 110.882 133.713 111.907 133.713C113.416 133.713 114.396 134.296 114.847 135.463C115.07 136.042 115.186 136.871 115.195 137.951H110.205ZM113.521 136.796C113.507 136.372 113.425 136.01 113.274 135.709C113.006 135.185 112.55 134.923 111.907 134.923C111.411 134.923 111.009 135.089 110.704 135.422C110.403 135.755 110.242 136.213 110.219 136.796H113.521ZM117.127 141V136.365C117.127 135.654 117.113 134.982 117.086 134.349L117.065 133.863H118.604L118.658 134.916C119.046 134.483 119.422 134.173 119.786 133.986C120.151 133.799 120.563 133.706 121.024 133.706C122.008 133.706 122.653 134.141 122.958 135.012C123.368 134.533 123.756 134.196 124.12 134C124.485 133.804 124.904 133.706 125.378 133.706C126.267 133.706 126.88 134.041 127.217 134.711C127.417 135.107 127.518 135.773 127.518 136.707V141H125.884V136.789C125.884 136.215 125.843 135.812 125.761 135.579C125.61 135.169 125.303 134.964 124.838 134.964C124.236 134.964 123.669 135.367 123.136 136.174V141H121.502V136.625C121.502 136.115 121.447 135.741 121.338 135.504C121.178 135.144 120.898 134.964 120.497 134.964C119.891 134.964 119.312 135.367 118.761 136.174V141H117.127ZM129.798 144.008V136.728C129.798 135.575 129.777 134.62 129.736 133.863H131.302L131.357 134.848C131.68 134.442 132.011 134.15 132.348 133.973C132.685 133.795 133.077 133.706 133.524 133.706C134.44 133.706 135.153 134.071 135.663 134.8C136.151 135.488 136.395 136.361 136.395 137.418C136.395 138.585 136.112 139.519 135.547 140.221C135.041 140.845 134.362 141.157 133.51 141.157C132.662 141.157 131.969 140.802 131.432 140.091V144.008H129.798ZM131.432 138.669C131.938 139.489 132.503 139.899 133.127 139.899C133.647 139.899 134.043 139.646 134.316 139.141C134.572 138.667 134.699 138.086 134.699 137.397C134.699 136.691 134.56 136.108 134.282 135.647C134.004 135.192 133.606 134.964 133.086 134.964C132.471 134.964 131.919 135.356 131.432 136.14V138.669ZM139.529 137.951C139.584 138.539 139.735 138.983 139.981 139.284C140.345 139.717 140.883 139.934 141.594 139.934C142.296 139.934 143.002 139.703 143.713 139.243L144.294 140.446C143.469 140.92 142.555 141.157 141.553 141.157C140.295 141.157 139.343 140.804 138.695 140.098C138.108 139.464 137.814 138.582 137.814 137.452C137.814 136.258 138.146 135.317 138.812 134.629C139.4 134.018 140.206 133.713 141.232 133.713C142.74 133.713 143.72 134.296 144.171 135.463C144.394 136.042 144.511 136.871 144.52 137.951H139.529ZM142.845 136.796C142.831 136.372 142.749 136.01 142.599 135.709C142.33 135.185 141.874 134.923 141.232 134.923C140.735 134.923 140.334 135.089 140.028 135.422C139.728 135.755 139.566 136.213 139.543 136.796H142.845ZM146.458 141V136.55C146.458 135.652 146.438 134.757 146.397 133.863H147.935L147.989 135.203C148.413 134.232 149.042 133.747 149.876 133.747C150.072 133.747 150.279 133.774 150.498 133.829L150.403 135.278C150.193 135.233 150.011 135.21 149.856 135.21C149.445 135.21 149.085 135.354 148.776 135.641C148.47 135.923 148.24 136.326 148.085 136.851V141H146.458ZM155.875 140.187C155.543 140.542 155.208 140.793 154.87 140.938C154.538 141.084 154.139 141.157 153.674 141.157C152.936 141.157 152.368 140.961 151.972 140.569C151.571 140.182 151.37 139.658 151.37 138.997C151.37 138.104 151.733 137.448 152.457 137.028C152.913 136.764 153.633 136.632 154.617 136.632C154.877 136.632 155.267 136.646 155.786 136.673V136.543C155.786 135.463 155.26 134.923 154.207 134.923C153.61 134.923 152.968 135.121 152.279 135.518L151.842 134.342C152.671 133.923 153.53 133.713 154.419 133.713C155.572 133.713 156.397 134.023 156.894 134.643C157.094 134.898 157.231 135.194 157.304 135.531C157.381 135.868 157.42 136.374 157.42 137.049V139.182C157.42 139.938 157.443 140.544 157.488 141H155.937L155.875 140.187ZM155.786 137.698C155.517 137.675 155.271 137.664 155.048 137.664C154.387 137.664 153.911 137.755 153.619 137.938C153.25 138.17 153.066 138.512 153.066 138.963C153.066 139.286 153.166 139.549 153.366 139.749C153.567 139.945 153.836 140.043 154.173 140.043C154.797 140.043 155.335 139.71 155.786 139.045V137.698ZM160.302 135.107H159.154V133.863H160.302V132.312L161.936 131.997V133.863H163.563V135.107H161.936V138.423C161.936 138.906 161.984 139.241 162.079 139.428C162.221 139.706 162.492 139.845 162.893 139.845C163.093 139.845 163.351 139.785 163.665 139.667L163.809 140.918C163.308 141.077 162.822 141.157 162.353 141.157C161.546 141.157 160.979 140.911 160.651 140.419C160.418 140.068 160.302 139.432 160.302 138.512V135.107ZM171.496 133.863V138.491C171.496 139.343 171.517 140.18 171.558 141H170.02L169.965 139.947C169.55 140.385 169.154 140.697 168.776 140.884C168.397 141.066 167.964 141.157 167.477 141.157C166.552 141.157 165.914 140.822 165.563 140.152C165.358 139.76 165.255 139.095 165.255 138.156V133.863H166.889V138.074C166.889 138.644 166.934 139.047 167.026 139.284C167.185 139.694 167.516 139.899 168.017 139.899C168.664 139.899 169.279 139.496 169.863 138.689V133.863H171.496ZM173.995 141V136.55C173.995 135.652 173.975 134.757 173.934 133.863H175.472L175.527 135.203C175.95 134.232 176.579 133.747 177.413 133.747C177.609 133.747 177.817 133.774 178.035 133.829L177.94 135.278C177.73 135.233 177.548 135.21 177.393 135.21C176.983 135.21 176.623 135.354 176.313 135.641C176.007 135.923 175.777 136.326 175.622 136.851V141H173.995ZM180.637 137.951C180.692 138.539 180.842 138.983 181.088 139.284C181.453 139.717 181.991 139.934 182.701 139.934C183.403 139.934 184.11 139.703 184.821 139.243L185.402 140.446C184.577 140.92 183.663 141.157 182.66 141.157C181.403 141.157 180.45 140.804 179.803 140.098C179.215 139.464 178.921 138.582 178.921 137.452C178.921 136.258 179.254 135.317 179.919 134.629C180.507 134.018 181.314 133.713 182.339 133.713C183.848 133.713 184.827 134.296 185.279 135.463C185.502 136.042 185.618 136.871 185.627 137.951H180.637ZM183.952 136.796C183.939 136.372 183.857 136.01 183.706 135.709C183.437 135.185 182.982 134.923 182.339 134.923C181.842 134.923 181.441 135.089 181.136 135.422C180.835 135.755 180.673 136.213 180.651 136.796H183.952ZM195.11 140.187C194.777 140.542 194.442 140.793 194.105 140.938C193.772 141.084 193.373 141.157 192.909 141.157C192.17 141.157 191.603 140.961 191.206 140.569C190.805 140.182 190.605 139.658 190.605 138.997C190.605 138.104 190.967 137.448 191.692 137.028C192.148 136.764 192.868 136.632 193.852 136.632C194.112 136.632 194.501 136.646 195.021 136.673V136.543C195.021 135.463 194.495 134.923 193.442 134.923C192.845 134.923 192.202 135.121 191.514 135.518L191.077 134.342C191.906 133.923 192.765 133.713 193.654 133.713C194.807 133.713 195.632 134.023 196.128 134.643C196.329 134.898 196.466 135.194 196.538 135.531C196.616 135.868 196.655 136.374 196.655 137.049V139.182C196.655 139.938 196.677 140.544 196.723 141H195.171L195.11 140.187ZM195.021 137.698C194.752 137.675 194.506 137.664 194.283 137.664C193.622 137.664 193.146 137.755 192.854 137.938C192.485 138.17 192.3 138.512 192.3 138.963C192.3 139.286 192.4 139.549 192.601 139.749C192.801 139.945 193.07 140.043 193.408 140.043C194.032 140.043 194.57 139.71 195.021 139.045V137.698ZM199.126 144.008V136.728C199.126 135.575 199.106 134.62 199.065 133.863H200.63L200.685 134.848C201.009 134.442 201.339 134.15 201.676 133.973C202.013 133.795 202.405 133.706 202.852 133.706C203.768 133.706 204.481 134.071 204.992 134.8C205.479 135.488 205.723 136.361 205.723 137.418C205.723 138.585 205.441 139.519 204.875 140.221C204.37 140.845 203.691 141.157 202.838 141.157C201.991 141.157 201.298 140.802 200.76 140.091V144.008H199.126ZM200.76 138.669C201.266 139.489 201.831 139.899 202.455 139.899C202.975 139.899 203.371 139.646 203.645 139.141C203.9 138.667 204.028 138.086 204.028 137.397C204.028 136.691 203.889 136.108 203.611 135.647C203.333 135.192 202.934 134.964 202.414 134.964C201.799 134.964 201.248 135.356 200.76 136.14V138.669ZM207.648 144.008V136.728C207.648 135.575 207.627 134.62 207.586 133.863H209.152L209.206 134.848C209.53 134.442 209.86 134.15 210.198 133.973C210.535 133.795 210.927 133.706 211.373 133.706C212.289 133.706 213.003 134.071 213.513 134.8C214.001 135.488 214.245 136.361 214.245 137.418C214.245 138.585 213.962 139.519 213.397 140.221C212.891 140.845 212.212 141.157 211.36 141.157C210.512 141.157 209.819 140.802 209.282 140.091V144.008H207.648ZM209.282 138.669C209.788 139.489 210.353 139.899 210.977 139.899C211.497 139.899 211.893 139.646 212.166 139.141C212.422 138.667 212.549 138.086 212.549 137.397C212.549 136.691 212.41 136.108 212.132 135.647C211.854 135.192 211.456 134.964 210.936 134.964C210.321 134.964 209.769 135.356 209.282 136.14V138.669ZM216.21 141V136.55C216.21 135.652 216.19 134.757 216.149 133.863H217.687L217.742 135.203C218.166 134.232 218.794 133.747 219.628 133.747C219.824 133.747 220.032 133.774 220.25 133.829L220.155 135.278C219.945 135.233 219.763 135.21 219.608 135.21C219.198 135.21 218.838 135.354 218.528 135.641C218.222 135.923 217.992 136.326 217.837 136.851V141H216.21ZM224.623 133.713C225.766 133.713 226.651 134.084 227.275 134.827C227.835 135.493 228.116 136.361 228.116 137.432C228.116 138.603 227.785 139.528 227.125 140.207C226.514 140.84 225.678 141.157 224.616 141.157C223.472 141.157 222.588 140.786 221.963 140.043C221.403 139.378 221.123 138.493 221.123 137.391C221.123 136.247 221.453 135.335 222.114 134.656C222.729 134.027 223.565 133.713 224.623 133.713ZM224.616 134.957C223.95 134.957 223.458 135.269 223.139 135.894C222.925 136.308 222.818 136.814 222.818 137.411C222.818 138.195 222.977 138.808 223.296 139.25C223.615 139.692 224.055 139.913 224.616 139.913C225.181 139.913 225.623 139.694 225.942 139.257C226.261 138.815 226.42 138.206 226.42 137.432C226.42 136.661 226.259 136.058 225.935 135.62C225.616 135.178 225.176 134.957 224.616 134.957ZM233.958 140.187C233.625 140.542 233.29 140.793 232.953 140.938C232.62 141.084 232.221 141.157 231.756 141.157C231.018 141.157 230.451 140.961 230.054 140.569C229.653 140.182 229.453 139.658 229.453 138.997C229.453 138.104 229.815 137.448 230.54 137.028C230.995 136.764 231.715 136.632 232.7 136.632C232.96 136.632 233.349 136.646 233.869 136.673V136.543C233.869 135.463 233.342 134.923 232.29 134.923C231.693 134.923 231.05 135.121 230.362 135.518L229.924 134.342C230.754 133.923 231.613 133.713 232.502 133.713C233.655 133.713 234.479 134.023 234.976 134.643C235.177 134.898 235.313 135.194 235.386 135.531C235.464 135.868 235.502 136.374 235.502 137.049V139.182C235.502 139.938 235.525 140.544 235.571 141H234.019L233.958 140.187ZM233.869 137.698C233.6 137.675 233.354 137.664 233.13 137.664C232.47 137.664 231.993 137.755 231.702 137.938C231.333 138.17 231.148 138.512 231.148 138.963C231.148 139.286 231.248 139.549 231.449 139.749C231.649 139.945 231.918 140.043 232.255 140.043C232.88 140.043 233.418 139.71 233.869 139.045V137.698ZM242.794 139.346L243.32 140.542C242.664 140.952 241.891 141.157 241.003 141.157C239.886 141.157 239.013 140.82 238.384 140.146C237.774 139.485 237.468 138.589 237.468 137.459C237.468 136.251 237.792 135.306 238.439 134.622C239.018 134.011 239.822 133.706 240.852 133.706C241.65 133.706 242.422 133.886 243.17 134.246L242.677 135.47C242.121 135.119 241.572 134.943 241.03 134.943C240.392 134.943 239.92 135.174 239.615 135.634C239.314 136.08 239.164 136.677 239.164 137.425C239.164 138.2 239.339 138.81 239.69 139.257C240.036 139.685 240.526 139.899 241.16 139.899C241.72 139.899 242.265 139.715 242.794 139.346ZM244.814 141V130.767H246.448V134.82C247.163 134.082 247.975 133.713 248.881 133.713C249.82 133.713 250.467 134.048 250.823 134.718C251.032 135.105 251.137 135.768 251.137 136.707V141H249.504V136.796C249.504 136.222 249.458 135.818 249.367 135.586C249.203 135.176 248.861 134.971 248.341 134.971C247.676 134.971 247.047 135.372 246.455 136.174V141H244.814ZM253.554 141V133.863H255.188V141H253.554ZM254.375 130.521C254.671 130.521 254.912 130.616 255.099 130.808C255.291 130.999 255.386 131.245 255.386 131.546C255.386 131.842 255.291 132.088 255.099 132.284C254.912 132.476 254.673 132.571 254.381 132.571C254.081 132.571 253.835 132.476 253.643 132.284C253.456 132.088 253.363 131.838 253.363 131.532C253.363 131.241 253.459 130.999 253.65 130.808C253.841 130.616 254.083 130.521 254.375 130.521ZM257.667 141V136.365C257.667 135.654 257.653 134.973 257.626 134.321L257.605 133.863H259.143L259.198 134.916C259.622 134.474 260.023 134.162 260.401 133.979C260.784 133.797 261.226 133.706 261.727 133.706C262.666 133.706 263.313 134.041 263.669 134.711C263.878 135.098 263.983 135.764 263.983 136.707V141H262.349V136.789C262.349 136.219 262.304 135.816 262.213 135.579C262.049 135.169 261.707 134.964 261.187 134.964C260.522 134.964 259.893 135.367 259.3 136.174V141H257.667ZM271.001 133.863H272.573L272.552 134.349C272.516 135.324 272.498 136.099 272.498 136.673V140.187C272.498 141.002 272.454 141.604 272.368 141.991C272.286 142.383 272.124 142.734 271.883 143.044C271.29 143.796 270.313 144.172 268.95 144.172C267.952 144.172 267.029 143.96 266.181 143.536L266.701 142.312C267.384 142.723 268.093 142.928 268.827 142.928C269.706 142.928 270.301 142.627 270.611 142.025C270.78 141.693 270.864 141.118 270.864 140.303V139.79C270.262 140.487 269.556 140.836 268.745 140.836C267.883 140.836 267.184 140.508 266.646 139.852C266.136 139.232 265.881 138.382 265.881 137.302C265.881 136.235 266.145 135.365 266.674 134.69C267.189 134.039 267.881 133.713 268.752 133.713C269.686 133.713 270.42 134.093 270.953 134.854L271.001 133.863ZM270.864 136.276C270.727 135.966 270.559 135.714 270.358 135.518C269.989 135.153 269.581 134.971 269.134 134.971C268.606 134.971 268.205 135.219 267.931 135.716C267.694 136.144 267.576 136.677 267.576 137.315C267.576 137.944 267.701 138.464 267.952 138.874C268.234 139.343 268.642 139.578 269.175 139.578C269.508 139.578 269.823 139.471 270.119 139.257C270.42 139.043 270.668 138.744 270.864 138.361V136.276ZM279.054 135.107H277.906V133.863H279.054V132.312L280.688 131.997V133.863H282.315V135.107H280.688V138.423C280.688 138.906 280.736 139.241 280.832 139.428C280.973 139.706 281.244 139.845 281.645 139.845C281.846 139.845 282.103 139.785 282.418 139.667L282.561 140.918C282.06 141.077 281.575 141.157 281.105 141.157C280.299 141.157 279.731 140.911 279.403 140.419C279.171 140.068 279.054 139.432 279.054 138.512V135.107ZM284.021 141V130.767H285.655V134.82C286.371 134.082 287.182 133.713 288.089 133.713C289.027 133.713 289.675 134.048 290.03 134.718C290.24 135.105 290.345 135.768 290.345 136.707V141H288.711V136.796C288.711 136.222 288.665 135.818 288.574 135.586C288.41 135.176 288.068 134.971 287.549 134.971C286.883 134.971 286.254 135.372 285.662 136.174V141H284.021ZM292.789 141V136.55C292.789 135.652 292.768 134.757 292.727 133.863H294.265L294.32 135.203C294.744 134.232 295.373 133.747 296.207 133.747C296.403 133.747 296.61 133.774 296.829 133.829L296.733 135.278C296.524 135.233 296.341 135.21 296.186 135.21C295.776 135.21 295.416 135.354 295.106 135.641C294.801 135.923 294.571 136.326 294.416 136.851V141H292.789ZM299.431 137.951C299.485 138.539 299.636 138.983 299.882 139.284C300.246 139.717 300.784 139.934 301.495 139.934C302.197 139.934 302.903 139.703 303.614 139.243L304.195 140.446C303.37 140.92 302.457 141.157 301.454 141.157C300.196 141.157 299.244 140.804 298.597 140.098C298.009 139.464 297.715 138.582 297.715 137.452C297.715 136.258 298.047 135.317 298.713 134.629C299.301 134.018 300.107 133.713 301.133 133.713C302.641 133.713 303.621 134.296 304.072 135.463C304.295 136.042 304.412 136.871 304.421 137.951H299.431ZM302.746 136.796C302.732 136.372 302.65 136.01 302.5 135.709C302.231 135.185 301.775 134.923 301.133 134.923C300.636 134.923 300.235 135.089 299.93 135.422C299.629 135.755 299.467 136.213 299.444 136.796H302.746ZM305.812 140.597L306.25 139.346C306.642 139.569 306.972 139.724 307.241 139.811C307.515 139.893 307.811 139.934 308.13 139.934C308.503 139.934 308.793 139.854 308.998 139.694C309.208 139.53 309.312 139.307 309.312 139.024C309.312 138.756 309.219 138.553 309.032 138.416C308.886 138.316 308.503 138.154 307.884 137.931C307.455 137.78 307.141 137.655 306.94 137.555C306.74 137.45 306.558 137.325 306.393 137.179C306.033 136.86 305.853 136.422 305.853 135.866C305.853 135.178 306.111 134.638 306.626 134.246C307.091 133.891 307.713 133.713 308.492 133.713C309.235 133.713 310.007 133.882 310.809 134.219L310.386 135.477C309.766 135.112 309.155 134.93 308.554 134.93C308.221 134.93 307.957 135.003 307.761 135.148C307.565 135.294 307.467 135.493 307.467 135.743C307.467 136.007 307.597 136.213 307.856 136.358C308.007 136.44 308.38 136.593 308.977 136.816C309.707 137.09 310.215 137.375 310.502 137.671C310.789 137.972 310.933 138.37 310.933 138.867C310.933 139.533 310.691 140.077 310.208 140.501C309.711 140.938 309.028 141.157 308.157 141.157C307.332 141.157 306.551 140.97 305.812 140.597ZM312.885 141V130.767H314.518V134.82C315.234 134.082 316.045 133.713 316.952 133.713C317.891 133.713 318.538 134.048 318.893 134.718C319.103 135.105 319.208 135.768 319.208 136.707V141H317.574V136.796C317.574 136.222 317.529 135.818 317.437 135.586C317.273 135.176 316.932 134.971 316.412 134.971C315.747 134.971 315.118 135.372 314.525 136.174V141H312.885ZM324.605 133.713C325.749 133.713 326.633 134.084 327.258 134.827C327.818 135.493 328.099 136.361 328.099 137.432C328.099 138.603 327.768 139.528 327.107 140.207C326.497 140.84 325.66 141.157 324.599 141.157C323.455 141.157 322.571 140.786 321.946 140.043C321.386 139.378 321.105 138.493 321.105 137.391C321.105 136.247 321.436 135.335 322.097 134.656C322.712 134.027 323.548 133.713 324.605 133.713ZM324.599 134.957C323.933 134.957 323.441 135.269 323.122 135.894C322.908 136.308 322.801 136.814 322.801 137.411C322.801 138.195 322.96 138.808 323.279 139.25C323.598 139.692 324.038 139.913 324.599 139.913C325.164 139.913 325.606 139.694 325.925 139.257C326.244 138.815 326.403 138.206 326.403 137.432C326.403 136.661 326.241 136.058 325.918 135.62C325.599 135.178 325.159 134.957 324.599 134.957ZM330.051 141V130.767H331.685V141H330.051ZM338.6 130.767H340.233V138.491C340.233 139.539 340.254 140.376 340.295 141H338.73L338.675 139.981C338.36 140.41 338.039 140.713 337.711 140.891C337.383 141.068 336.984 141.157 336.515 141.157C335.59 141.157 334.869 140.788 334.355 140.05C333.876 139.366 333.637 138.491 333.637 137.425C333.637 136.267 333.919 135.34 334.484 134.643C334.99 134.023 335.667 133.713 336.515 133.713C337.353 133.713 338.048 134.064 338.6 134.766V130.767ZM338.6 136.153C338.148 135.365 337.597 134.971 336.945 134.971C336.426 134.971 336.027 135.199 335.749 135.654C335.471 136.115 335.332 136.698 335.332 137.404C335.332 138.092 335.46 138.674 335.715 139.147C335.988 139.649 336.385 139.899 336.904 139.899C337.538 139.899 338.103 139.489 338.6 138.669V136.153Z" fill="white"/>
<path d="M484.707 129.707L478.414 136L484.707 142.293L483.293 143.707L477 137.414L470.707 143.707L469.293 142.293L475.586 136L469.293 129.707L470.707 128.293L477 134.586L483.293 128.293L484.707 129.707Z" fill="white" fill-opacity="0.6"/>
<path d="M104.028 175V166.236H101.198V165.313H108.014V166.236H105.149V175H104.028ZM109.248 171.739C109.326 172.532 109.508 173.122 109.795 173.51C110.187 174.025 110.766 174.282 111.531 174.282C112.183 174.282 112.83 174.059 113.473 173.612L113.883 174.439C113.145 174.904 112.354 175.137 111.511 175.137C110.39 175.137 109.526 174.77 108.92 174.036C108.391 173.394 108.127 172.532 108.127 171.452C108.127 170.144 108.48 169.162 109.187 168.506C109.715 168.014 110.392 167.768 111.217 167.768C112.479 167.768 113.327 168.285 113.76 169.319C114.001 169.903 114.131 170.709 114.149 171.739H109.248ZM113.015 170.885C113.001 170.361 112.91 169.923 112.741 169.572C112.436 168.939 111.916 168.622 111.183 168.622C110.618 168.622 110.164 168.825 109.822 169.23C109.481 169.632 109.298 170.183 109.275 170.885H113.015ZM116.197 175V170.215C116.197 169.135 116.179 168.365 116.143 167.904H117.195L117.236 169.025C117.492 168.757 117.729 168.538 117.947 168.369C118.462 167.968 119.023 167.768 119.629 167.768C120.117 167.768 120.52 167.888 120.839 168.13C121.158 168.367 121.374 168.713 121.488 169.169C121.944 168.654 122.357 168.292 122.726 168.082C123.095 167.872 123.512 167.768 123.977 167.768C124.824 167.768 125.405 168.096 125.72 168.752C125.82 168.966 125.891 169.237 125.932 169.565C125.977 169.894 126 170.338 126 170.898V175H124.934V170.878C124.934 170.167 124.888 169.668 124.797 169.381C124.633 168.875 124.259 168.622 123.676 168.622C122.974 168.622 122.293 169.064 121.632 169.948V175H120.565V170.755C120.565 170.094 120.515 169.629 120.415 169.36C120.228 168.868 119.871 168.622 119.342 168.622C118.635 168.622 117.943 169.064 117.264 169.948V175H116.197ZM128.424 178.008V170.769C128.424 169.985 128.41 169.158 128.383 168.287L128.369 167.904H129.367L129.408 168.984C129.645 168.661 129.873 168.419 130.092 168.26C130.534 167.932 131.031 167.768 131.582 167.768C132.407 167.768 133.086 168.118 133.619 168.82C134.125 169.486 134.378 170.347 134.378 171.404C134.378 172.58 134.082 173.523 133.489 174.234C132.979 174.84 132.325 175.144 131.527 175.144C131.099 175.144 130.734 175.062 130.434 174.897C130.133 174.733 129.818 174.444 129.49 174.029V178.008H128.424ZM129.49 172.963C129.695 173.273 129.878 173.514 130.037 173.688C130.415 174.089 130.855 174.289 131.357 174.289C132.008 174.289 132.498 173.988 132.826 173.387C133.113 172.863 133.257 172.211 133.257 171.432C133.257 170.593 133.088 169.907 132.751 169.374C132.432 168.873 131.972 168.622 131.37 168.622C130.627 168.622 130.001 169.055 129.49 169.921V172.963ZM137.041 171.739C137.119 172.532 137.301 173.122 137.588 173.51C137.98 174.025 138.559 174.282 139.324 174.282C139.976 174.282 140.623 174.059 141.266 173.612L141.676 174.439C140.938 174.904 140.147 175.137 139.304 175.137C138.183 175.137 137.319 174.77 136.713 174.036C136.184 173.394 135.92 172.532 135.92 171.452C135.92 170.144 136.273 169.162 136.98 168.506C137.508 168.014 138.185 167.768 139.01 167.768C140.272 167.768 141.12 168.285 141.553 169.319C141.794 169.903 141.924 170.709 141.943 171.739H137.041ZM140.808 170.885C140.794 170.361 140.703 169.923 140.534 169.572C140.229 168.939 139.709 168.622 138.976 168.622C138.411 168.622 137.957 168.825 137.615 169.23C137.274 169.632 137.091 170.183 137.068 170.885H140.808ZM144.004 175V170.953C144.004 170.064 143.99 169.158 143.963 168.232L143.956 167.904H144.947L144.988 169.21C145.266 168.695 145.56 168.326 145.87 168.103C146.18 167.875 146.549 167.761 146.978 167.761C147.124 167.761 147.29 167.779 147.477 167.815L147.381 168.772C147.249 168.741 147.124 168.725 147.005 168.725C146.481 168.725 146.018 168.989 145.617 169.518C145.389 169.814 145.207 170.144 145.07 170.509V175H144.004ZM152.895 174.173C152.576 174.519 152.252 174.768 151.924 174.918C151.6 175.064 151.218 175.137 150.776 175.137C150.033 175.137 149.465 174.927 149.073 174.508C148.727 174.139 148.554 173.651 148.554 173.045C148.554 172.111 148.948 171.445 149.737 171.049C150.201 170.816 150.887 170.7 151.794 170.7C151.935 170.7 152.275 170.709 152.813 170.728V170.536C152.813 170.021 152.747 169.629 152.614 169.36C152.377 168.868 151.908 168.622 151.206 168.622C150.632 168.622 150.021 168.827 149.374 169.237L148.909 168.472C149.652 168.002 150.457 167.768 151.322 167.768C152.398 167.768 153.134 168.089 153.53 168.731C153.667 168.959 153.758 169.221 153.804 169.518C153.854 169.809 153.879 170.274 153.879 170.912V173.229C153.879 173.959 153.897 174.549 153.934 175H152.943L152.895 174.173ZM152.813 171.541C152.562 171.523 152.298 171.514 152.02 171.514C151.259 171.514 150.705 171.614 150.359 171.814C149.903 172.074 149.675 172.475 149.675 173.018C149.675 173.4 149.789 173.706 150.017 173.934C150.254 174.166 150.57 174.282 150.967 174.282C151.71 174.282 152.325 173.92 152.813 173.195V171.541ZM156.877 168.759H155.729V167.904H156.877V166.353L157.944 166.127V167.904H159.618V168.759H157.944V172.635C157.944 173.223 157.994 173.624 158.094 173.838C158.24 174.134 158.509 174.282 158.901 174.282C159.138 174.282 159.409 174.212 159.714 174.07L159.81 174.918C159.4 175.064 159.017 175.137 158.661 175.137C158.01 175.137 157.549 174.964 157.28 174.617C157.012 174.271 156.877 173.681 156.877 172.847V168.759ZM167.087 167.904V172.689C167.087 173.792 167.105 174.562 167.142 175H166.089L166.048 173.865C165.638 174.307 165.23 174.631 164.824 174.836C164.423 175.036 163.99 175.137 163.526 175.137C162.646 175.137 162.042 174.809 161.714 174.152C161.605 173.938 161.527 173.669 161.482 173.346C161.441 173.022 161.42 172.576 161.42 172.006V167.904H162.487V172.026C162.487 172.742 162.537 173.241 162.637 173.523C162.81 174.029 163.204 174.282 163.82 174.282C164.572 174.282 165.305 173.84 166.021 172.956V167.904H167.087ZM169.709 175V170.953C169.709 170.064 169.696 169.158 169.668 168.232L169.661 167.904H170.653L170.694 169.21C170.972 168.695 171.266 168.326 171.575 168.103C171.885 167.875 172.255 167.761 172.683 167.761C172.829 167.761 172.995 167.779 173.182 167.815L173.086 168.772C172.954 168.741 172.829 168.725 172.71 168.725C172.186 168.725 171.724 168.989 171.323 169.518C171.095 169.814 170.912 170.144 170.776 170.509V175H169.709ZM175.168 171.739C175.246 172.532 175.428 173.122 175.715 173.51C176.107 174.025 176.686 174.282 177.451 174.282C178.103 174.282 178.75 174.059 179.393 173.612L179.803 174.439C179.065 174.904 178.274 175.137 177.431 175.137C176.31 175.137 175.446 174.77 174.84 174.036C174.312 173.394 174.047 172.532 174.047 171.452C174.047 170.144 174.4 169.162 175.107 168.506C175.635 168.014 176.312 167.768 177.137 167.768C178.399 167.768 179.247 168.285 179.68 169.319C179.922 169.903 180.051 170.709 180.07 171.739H175.168ZM178.935 170.885C178.921 170.361 178.83 169.923 178.661 169.572C178.356 168.939 177.837 168.622 177.103 168.622C176.538 168.622 176.084 168.825 175.743 169.23C175.401 169.632 175.218 170.183 175.196 170.885H178.935ZM185.786 175V167.904H186.852V175H185.786ZM186.312 164.63C186.535 164.63 186.717 164.701 186.859 164.842C187 164.983 187.071 165.163 187.071 165.382C187.071 165.605 187 165.787 186.859 165.929C186.717 166.07 186.537 166.141 186.319 166.141C186.095 166.141 185.913 166.07 185.772 165.929C185.631 165.787 185.56 165.603 185.56 165.375C185.56 165.161 185.631 164.983 185.772 164.842C185.918 164.701 186.098 164.63 186.312 164.63ZM189.454 175V170.215C189.454 169.135 189.435 168.365 189.399 167.904H190.452L190.493 169.039C190.93 168.579 191.345 168.253 191.737 168.062C192.133 167.866 192.578 167.768 193.07 167.768C193.968 167.768 194.583 168.096 194.915 168.752C195.02 168.966 195.095 169.237 195.141 169.565C195.187 169.889 195.209 170.333 195.209 170.898V175H194.143V170.878C194.143 170.167 194.093 169.668 193.993 169.381C193.815 168.875 193.407 168.622 192.769 168.622C191.999 168.622 191.249 169.064 190.52 169.948V175H189.454ZM200.754 175V174.077L205.827 166.236H200.918V165.313H207.105V166.236L202.053 174.077H207.249V175H200.754ZM211.956 167.768C212.99 167.768 213.817 168.157 214.437 168.937C214.961 169.593 215.223 170.431 215.223 171.452C215.223 172.55 214.92 173.437 214.314 174.111C213.699 174.795 212.913 175.137 211.956 175.137C210.921 175.137 210.094 174.747 209.474 173.968C208.95 173.307 208.688 172.452 208.688 171.404C208.688 170.329 208.991 169.456 209.597 168.786C210.208 168.107 210.994 167.768 211.956 167.768ZM211.956 168.622C211.185 168.622 210.607 168.968 210.219 169.661C209.946 170.149 209.809 170.737 209.809 171.425C209.809 172.222 209.973 172.874 210.301 173.38C210.693 173.981 211.245 174.282 211.956 174.282C212.726 174.282 213.305 173.934 213.692 173.236C213.965 172.753 214.102 172.159 214.102 171.452C214.102 170.668 213.938 170.026 213.61 169.524C213.218 168.923 212.667 168.622 211.956 168.622ZM217.305 175V170.215C217.305 169.135 217.287 168.365 217.251 167.904H218.303L218.344 169.039C218.782 168.579 219.196 168.253 219.588 168.062C219.985 167.866 220.429 167.768 220.921 167.768C221.819 167.768 222.434 168.096 222.767 168.752C222.872 168.966 222.947 169.237 222.993 169.565C223.038 169.889 223.061 170.333 223.061 170.898V175H221.995V170.878C221.995 170.167 221.945 169.668 221.844 169.381C221.667 168.875 221.259 168.622 220.621 168.622C219.85 168.622 219.101 169.064 218.372 169.948V175H217.305ZM226.196 171.739C226.273 172.532 226.456 173.122 226.743 173.51C227.135 174.025 227.713 174.282 228.479 174.282C229.131 174.282 229.778 174.059 230.42 173.612L230.831 174.439C230.092 174.904 229.302 175.137 228.459 175.137C227.337 175.137 226.474 174.77 225.868 174.036C225.339 173.394 225.075 172.532 225.075 171.452C225.075 170.144 225.428 169.162 226.134 168.506C226.663 168.014 227.34 167.768 228.165 167.768C229.427 167.768 230.275 168.285 230.708 169.319C230.949 169.903 231.079 170.709 231.097 171.739H226.196ZM229.962 170.885C229.949 170.361 229.858 169.923 229.689 169.572C229.384 168.939 228.864 168.622 228.13 168.622C227.565 168.622 227.112 168.825 226.77 169.23C226.428 169.632 226.246 170.183 226.223 170.885H229.962ZM236.458 174.699L236.711 173.797C237.531 174.098 238.285 174.248 238.973 174.248C239.73 174.248 240.315 174.05 240.73 173.653C241.127 173.28 241.325 172.803 241.325 172.225C241.325 171.605 241.065 171.133 240.546 170.81C240.026 170.486 239.27 170.324 238.276 170.324C238.089 170.324 237.907 170.333 237.729 170.352V169.429C237.921 169.447 238.114 169.456 238.31 169.456C239.112 169.456 239.757 169.322 240.245 169.053C240.883 168.702 241.202 168.214 241.202 167.59C241.202 167.13 241.029 166.763 240.682 166.489C240.322 166.211 239.83 166.072 239.206 166.072C238.54 166.072 237.802 166.227 236.991 166.537L236.779 165.635C237.631 165.329 238.477 165.177 239.315 165.177C240.272 165.177 241.026 165.402 241.578 165.854C242.084 166.264 242.337 166.808 242.337 167.487C242.337 168.116 242.15 168.636 241.776 169.046C241.402 169.456 240.862 169.734 240.156 169.88C240.808 169.939 241.318 170.128 241.687 170.447C242.202 170.885 242.46 171.489 242.46 172.259C242.46 173.17 242.113 173.895 241.421 174.433C240.81 174.907 240.015 175.144 239.035 175.144C238.196 175.144 237.337 174.995 236.458 174.699ZM252.475 174.173C252.156 174.519 251.833 174.768 251.505 174.918C251.181 175.064 250.798 175.137 250.356 175.137C249.613 175.137 249.046 174.927 248.654 174.508C248.308 174.139 248.134 173.651 248.134 173.045C248.134 172.111 248.529 171.445 249.317 171.049C249.782 170.816 250.468 170.7 251.375 170.7C251.516 170.7 251.856 170.709 252.393 170.728V170.536C252.393 170.021 252.327 169.629 252.195 169.36C251.958 168.868 251.489 168.622 250.787 168.622C250.213 168.622 249.602 168.827 248.955 169.237L248.49 168.472C249.233 168.002 250.037 167.768 250.903 167.768C251.979 167.768 252.715 168.089 253.111 168.731C253.248 168.959 253.339 169.221 253.384 169.518C253.435 169.809 253.46 170.274 253.46 170.912V173.229C253.46 173.959 253.478 174.549 253.514 175H252.523L252.475 174.173ZM252.393 171.541C252.143 171.523 251.878 171.514 251.6 171.514C250.839 171.514 250.286 171.614 249.939 171.814C249.483 172.074 249.256 172.475 249.256 173.018C249.256 173.4 249.37 173.706 249.597 173.934C249.834 174.166 250.151 174.282 250.548 174.282C251.29 174.282 251.906 173.92 252.393 173.195V171.541ZM256.075 178.008V170.769C256.075 169.985 256.061 169.158 256.034 168.287L256.02 167.904H257.018L257.059 168.984C257.296 168.661 257.524 168.419 257.743 168.26C258.185 167.932 258.682 167.768 259.233 167.768C260.058 167.768 260.737 168.118 261.27 168.82C261.776 169.486 262.029 170.347 262.029 171.404C262.029 172.58 261.733 173.523 261.14 174.234C260.63 174.84 259.976 175.144 259.178 175.144C258.75 175.144 258.385 175.062 258.085 174.897C257.784 174.733 257.469 174.444 257.141 174.029V178.008H256.075ZM257.141 172.963C257.346 173.273 257.529 173.514 257.688 173.688C258.066 174.089 258.506 174.289 259.008 174.289C259.659 174.289 260.149 173.988 260.477 173.387C260.764 172.863 260.908 172.211 260.908 171.432C260.908 170.593 260.739 169.907 260.402 169.374C260.083 168.873 259.623 168.622 259.021 168.622C258.278 168.622 257.652 169.055 257.141 169.921V172.963ZM264.104 178.008V170.769C264.104 169.985 264.091 169.158 264.063 168.287L264.05 167.904H265.048L265.089 168.984C265.326 168.661 265.553 168.419 265.772 168.26C266.214 167.932 266.711 167.768 267.262 167.768C268.087 167.768 268.766 168.118 269.3 168.82C269.805 169.486 270.058 170.347 270.058 171.404C270.058 172.58 269.762 173.523 269.17 174.234C268.659 174.84 268.005 175.144 267.208 175.144C266.779 175.144 266.415 175.062 266.114 174.897C265.813 174.733 265.499 174.444 265.171 174.029V178.008H264.104ZM265.171 172.963C265.376 173.273 265.558 173.514 265.718 173.688C266.096 174.089 266.536 174.289 267.037 174.289C267.689 174.289 268.178 173.988 268.507 173.387C268.794 172.863 268.937 172.211 268.937 171.432C268.937 170.593 268.769 169.907 268.431 169.374C268.112 168.873 267.652 168.622 267.051 168.622C266.308 168.622 265.681 169.055 265.171 169.921V172.963ZM272.147 175V170.953C272.147 170.064 272.134 169.158 272.106 168.232L272.099 167.904H273.091L273.132 169.21C273.41 168.695 273.704 168.326 274.013 168.103C274.323 167.875 274.693 167.761 275.121 167.761C275.267 167.761 275.433 167.779 275.62 167.815L275.524 168.772C275.392 168.741 275.267 168.725 275.148 168.725C274.624 168.725 274.162 168.989 273.761 169.518C273.533 169.814 273.35 170.144 273.214 170.509V175H272.147ZM279.712 167.768C280.746 167.768 281.573 168.157 282.193 168.937C282.717 169.593 282.979 170.431 282.979 171.452C282.979 172.55 282.676 173.437 282.07 174.111C281.455 174.795 280.669 175.137 279.712 175.137C278.677 175.137 277.85 174.747 277.23 173.968C276.706 173.307 276.444 172.452 276.444 171.404C276.444 170.329 276.747 169.456 277.353 168.786C277.964 168.107 278.75 167.768 279.712 167.768ZM279.712 168.622C278.942 168.622 278.363 168.968 277.975 169.661C277.702 170.149 277.565 170.737 277.565 171.425C277.565 172.222 277.729 172.874 278.057 173.38C278.449 173.981 279.001 174.282 279.712 174.282C280.482 174.282 281.061 173.934 281.448 173.236C281.722 172.753 281.858 172.159 281.858 171.452C281.858 170.668 281.694 170.026 281.366 169.524C280.974 168.923 280.423 168.622 279.712 168.622ZM288.821 174.173C288.502 174.519 288.179 174.768 287.85 174.918C287.527 175.064 287.144 175.137 286.702 175.137C285.959 175.137 285.392 174.927 285 174.508C284.654 174.139 284.48 173.651 284.48 173.045C284.48 172.111 284.875 171.445 285.663 171.049C286.128 170.816 286.814 170.7 287.721 170.7C287.862 170.7 288.201 170.709 288.739 170.728V170.536C288.739 170.021 288.673 169.629 288.541 169.36C288.304 168.868 287.834 168.622 287.133 168.622C286.558 168.622 285.948 168.827 285.301 169.237L284.836 168.472C285.579 168.002 286.383 167.768 287.249 167.768C288.324 167.768 289.06 168.089 289.457 168.731C289.594 168.959 289.685 169.221 289.73 169.518C289.78 169.809 289.806 170.274 289.806 170.912V173.229C289.806 173.959 289.824 174.549 289.86 175H288.869L288.821 174.173ZM288.739 171.541C288.488 171.523 288.224 171.514 287.946 171.514C287.185 171.514 286.631 171.614 286.285 171.814C285.829 172.074 285.601 172.475 285.601 173.018C285.601 173.4 285.715 173.706 285.943 173.934C286.18 174.166 286.497 174.282 286.893 174.282C287.636 174.282 288.251 173.92 288.739 173.195V171.541ZM296.939 173.653L297.35 174.48C296.707 174.918 295.989 175.137 295.196 175.137C294.175 175.137 293.376 174.825 292.797 174.2C292.191 173.544 291.888 172.648 291.888 171.514C291.888 170.27 292.209 169.312 292.851 168.643C293.412 168.055 294.162 167.761 295.1 167.761C295.83 167.761 296.536 167.952 297.22 168.335L296.816 169.176C296.242 168.802 295.668 168.615 295.094 168.615C294.405 168.615 293.884 168.868 293.528 169.374C293.182 169.866 293.009 170.536 293.009 171.384C293.009 172.291 293.214 173.013 293.624 173.551C294.002 174.038 294.531 174.282 295.21 174.282C295.811 174.282 296.388 174.073 296.939 173.653ZM298.946 175V164.767H300.013V169.005C300.792 168.18 301.642 167.768 302.562 167.768C303.456 167.768 304.071 168.096 304.408 168.752C304.513 168.966 304.588 169.235 304.634 169.559C304.679 169.882 304.702 170.329 304.702 170.898V175H303.636V170.878C303.636 170.167 303.586 169.668 303.485 169.381C303.312 168.875 302.904 168.622 302.262 168.622C301.487 168.622 300.737 169.064 300.013 169.948V175H298.946ZM307.249 175V167.904H308.315V175H307.249ZM307.775 164.63C307.999 164.63 308.181 164.701 308.322 164.842C308.463 164.983 308.534 165.163 308.534 165.382C308.534 165.605 308.463 165.787 308.322 165.929C308.181 166.07 308.001 166.141 307.782 166.141C307.559 166.141 307.377 166.07 307.235 165.929C307.094 165.787 307.023 165.603 307.023 165.375C307.023 165.161 307.094 164.983 307.235 164.842C307.381 164.701 307.561 164.63 307.775 164.63ZM310.917 175V170.215C310.917 169.135 310.899 168.365 310.862 167.904H311.915L311.956 169.039C312.394 168.579 312.808 168.253 313.2 168.062C313.597 167.866 314.041 167.768 314.533 167.768C315.431 167.768 316.046 168.096 316.379 168.752C316.484 168.966 316.559 169.237 316.604 169.565C316.65 169.889 316.673 170.333 316.673 170.898V175H315.606V170.878C315.606 170.167 315.556 169.668 315.456 169.381C315.278 168.875 314.87 168.622 314.232 168.622C313.462 168.622 312.713 169.064 311.983 169.948V175H310.917ZM323.677 167.904H324.716C324.679 169.053 324.661 169.985 324.661 170.7V174.248C324.661 175.014 324.62 175.588 324.538 175.971C324.461 176.358 324.31 176.704 324.087 177.01C323.531 177.771 322.704 178.151 321.605 178.151C320.662 178.151 319.769 177.894 318.926 177.379L319.384 176.559C320.108 177.051 320.842 177.297 321.585 177.297C322.419 177.297 322.998 176.96 323.321 176.285C323.504 175.907 323.595 175.26 323.595 174.344V173.756C322.934 174.503 322.212 174.877 321.428 174.877C320.635 174.877 319.976 174.558 319.452 173.92C318.937 173.296 318.68 172.448 318.68 171.377C318.68 170.219 318.965 169.303 319.534 168.629C320.022 168.055 320.66 167.768 321.448 167.768C322.383 167.768 323.112 168.178 323.636 168.998L323.677 167.904ZM323.595 169.989C323.403 169.625 323.189 169.34 322.952 169.135C322.556 168.793 322.13 168.622 321.674 168.622C321.04 168.622 320.56 168.909 320.231 169.483C319.944 169.989 319.801 170.616 319.801 171.363C319.801 172.088 319.951 172.696 320.252 173.188C320.598 173.744 321.086 174.022 321.715 174.022C322.476 174.022 323.103 173.608 323.595 172.778V169.989ZM330.589 174.699L330.842 173.797C331.662 174.098 332.416 174.248 333.105 174.248C333.861 174.248 334.447 174.05 334.861 173.653C335.258 173.28 335.456 172.803 335.456 172.225C335.456 171.605 335.196 171.133 334.677 170.81C334.157 170.486 333.401 170.324 332.407 170.324C332.22 170.324 332.038 170.333 331.86 170.352V169.429C332.052 169.447 332.246 169.456 332.441 169.456C333.244 169.456 333.888 169.322 334.376 169.053C335.014 168.702 335.333 168.214 335.333 167.59C335.333 167.13 335.16 166.763 334.814 166.489C334.454 166.211 333.961 166.072 333.337 166.072C332.672 166.072 331.933 166.227 331.122 166.537L330.91 165.635C331.762 165.329 332.608 165.177 333.446 165.177C334.403 165.177 335.158 165.402 335.709 165.854C336.215 166.264 336.468 166.808 336.468 167.487C336.468 168.116 336.281 168.636 335.907 169.046C335.534 169.456 334.994 169.734 334.287 169.88C334.939 169.939 335.449 170.128 335.818 170.447C336.333 170.885 336.591 171.489 336.591 172.259C336.591 173.17 336.245 173.895 335.552 174.433C334.941 174.907 334.146 175.144 333.166 175.144C332.328 175.144 331.469 174.995 330.589 174.699ZM341.995 165.177C343.116 165.177 343.95 165.587 344.497 166.407C345.049 167.228 345.324 168.479 345.324 170.16C345.324 171.641 345.115 172.781 344.695 173.578C344.144 174.617 343.242 175.137 341.988 175.137C340.863 175.137 340.026 174.724 339.48 173.899C338.933 173.075 338.659 171.812 338.659 170.112C338.659 166.822 339.771 165.177 341.995 165.177ZM341.995 166.1C341.138 166.1 340.532 166.53 340.177 167.392C339.922 167.998 339.794 168.905 339.794 170.112C339.794 171.502 339.951 172.505 340.266 173.12C340.635 173.849 341.209 174.214 341.988 174.214C342.841 174.214 343.447 173.783 343.807 172.922C344.062 172.32 344.19 171.4 344.19 170.16C344.19 168.793 344.032 167.804 343.718 167.193C343.349 166.464 342.775 166.1 341.995 166.1ZM349.192 169.162C348.744 169.162 348.352 169.073 348.016 168.896C347.69 168.709 347.433 168.457 347.246 168.14C347.06 167.813 346.966 167.44 346.966 167.02C346.966 166.591 347.055 166.217 347.232 165.9C347.419 165.573 347.676 165.321 348.002 165.144C348.338 164.957 348.735 164.864 349.192 164.864C349.631 164.864 350.018 164.957 350.354 165.144C350.69 165.321 350.952 165.573 351.138 165.9C351.325 166.217 351.418 166.591 351.418 167.02C351.418 167.44 351.325 167.813 351.138 168.14C350.952 168.457 350.69 168.709 350.354 168.896C350.018 169.073 349.631 169.162 349.192 169.162ZM349.206 168.336C349.654 168.336 349.981 168.215 350.186 167.972C350.401 167.729 350.508 167.412 350.508 167.02C350.508 166.749 350.457 166.516 350.354 166.32C350.261 166.115 350.116 165.956 349.92 165.844C349.734 165.732 349.496 165.676 349.206 165.676C348.749 165.676 348.413 165.797 348.198 166.04C347.984 166.283 347.876 166.609 347.876 167.02C347.876 167.412 347.984 167.729 348.198 167.972C348.413 168.215 348.749 168.336 349.206 168.336ZM357.018 165.97C356.486 165.97 356.006 166.063 355.576 166.25C355.147 166.427 354.783 166.693 354.484 167.048C354.186 167.393 353.957 167.818 353.798 168.322C353.64 168.817 353.56 169.377 353.56 170.002C353.56 170.823 353.686 171.537 353.938 172.144C354.2 172.751 354.582 173.217 355.086 173.544C355.6 173.871 356.239 174.034 357.004 174.034C357.443 174.034 357.858 173.997 358.25 173.922C358.642 173.847 359.025 173.754 359.398 173.642V174.734C359.025 174.874 358.638 174.977 358.236 175.042C357.844 175.107 357.373 175.14 356.822 175.14C355.805 175.14 354.956 174.93 354.274 174.51C353.593 174.09 353.08 173.493 352.734 172.718C352.398 171.943 352.23 171.033 352.23 169.988C352.23 169.232 352.333 168.541 352.538 167.916C352.753 167.291 353.061 166.749 353.462 166.292C353.873 165.835 354.377 165.485 354.974 165.242C355.572 164.99 356.258 164.864 357.032 164.864C357.546 164.864 358.04 164.915 358.516 165.018C358.992 165.121 359.417 165.265 359.79 165.452L359.286 166.516C358.978 166.376 358.633 166.25 358.25 166.138C357.877 166.026 357.466 165.97 357.018 165.97ZM365.564 168.759H364.415V167.904H365.564V166.353L366.63 166.127V167.904H368.305V168.759H366.63V172.635C366.63 173.223 366.68 173.624 366.78 173.838C366.926 174.134 367.195 174.282 367.587 174.282C367.824 174.282 368.095 174.212 368.401 174.07L368.496 174.918C368.086 175.064 367.703 175.137 367.348 175.137C366.696 175.137 366.236 174.964 365.967 174.617C365.698 174.271 365.564 173.681 365.564 172.847V168.759ZM370.093 175V164.767H371.159V169.005C371.939 168.18 372.789 167.768 373.709 167.768C374.602 167.768 375.218 168.096 375.555 168.752C375.66 168.966 375.735 169.235 375.781 169.559C375.826 169.882 375.849 170.329 375.849 170.898V175H374.782V170.878C374.782 170.167 374.732 169.668 374.632 169.381C374.459 168.875 374.051 168.622 373.408 168.622C372.634 168.622 371.884 169.064 371.159 169.948V175H370.093ZM378.409 175V170.953C378.409 170.064 378.396 169.158 378.368 168.232L378.362 167.904H379.353L379.394 169.21C379.672 168.695 379.966 168.326 380.276 168.103C380.586 167.875 380.955 167.761 381.383 167.761C381.529 167.761 381.695 167.779 381.882 167.815L381.786 168.772C381.654 168.741 381.529 168.725 381.41 168.725C380.886 168.725 380.424 168.989 380.023 169.518C379.795 169.814 379.613 170.144 379.476 170.509V175H378.409ZM383.868 171.739C383.946 172.532 384.128 173.122 384.415 173.51C384.807 174.025 385.386 174.282 386.152 174.282C386.803 174.282 387.451 174.059 388.093 173.612L388.503 174.439C387.765 174.904 386.974 175.137 386.131 175.137C385.01 175.137 384.146 174.77 383.54 174.036C383.012 173.394 382.747 172.532 382.747 171.452C382.747 170.144 383.101 169.162 383.807 168.506C384.336 168.014 385.012 167.768 385.837 167.768C387.1 167.768 387.947 168.285 388.38 169.319C388.622 169.903 388.752 170.709 388.77 171.739H383.868ZM387.635 170.885C387.621 170.361 387.53 169.923 387.362 169.572C387.056 168.939 386.537 168.622 385.803 168.622C385.238 168.622 384.784 168.825 384.443 169.23C384.101 169.632 383.919 170.183 383.896 170.885H387.635ZM390.285 174.651L390.606 173.811C391.257 174.125 391.832 174.282 392.328 174.282C392.734 174.282 393.062 174.173 393.313 173.954C393.563 173.731 393.689 173.441 393.689 173.086C393.689 172.776 393.602 172.546 393.429 172.396C393.26 172.241 392.873 172.047 392.267 171.814C391.875 171.66 391.581 171.53 391.385 171.425C391.194 171.32 391.016 171.19 390.852 171.035C390.492 170.702 390.312 170.274 390.312 169.75C390.312 169.126 390.556 168.624 391.043 168.246C391.458 167.927 391.991 167.768 392.643 167.768C393.308 167.768 393.983 167.943 394.666 168.294L394.345 169.135C393.835 168.793 393.299 168.622 392.739 168.622C392.328 168.622 392.007 168.715 391.775 168.902C391.547 169.085 391.433 169.338 391.433 169.661C391.433 169.948 391.526 170.176 391.713 170.345C391.9 170.509 392.29 170.709 392.882 170.946C393.338 171.133 393.671 171.288 393.88 171.411C394.094 171.534 394.274 171.682 394.42 171.855C394.68 172.152 394.81 172.537 394.81 173.011C394.81 173.694 394.552 174.23 394.037 174.617C393.577 174.964 393.003 175.137 392.315 175.137C391.645 175.137 390.968 174.975 390.285 174.651ZM396.878 175V164.767H397.945V169.005C398.724 168.18 399.574 167.768 400.495 167.768C401.388 167.768 402.003 168.096 402.34 168.752C402.445 168.966 402.52 169.235 402.566 169.559C402.611 169.882 402.634 170.329 402.634 170.898V175H401.568V170.878C401.568 170.167 401.518 169.668 401.417 169.381C401.244 168.875 400.836 168.622 400.194 168.622C399.419 168.622 398.669 169.064 397.945 169.948V175H396.878ZM407.915 167.768C408.95 167.768 409.777 168.157 410.397 168.937C410.921 169.593 411.183 170.431 411.183 171.452C411.183 172.55 410.88 173.437 410.274 174.111C409.659 174.795 408.872 175.137 407.915 175.137C406.881 175.137 406.054 174.747 405.434 173.968C404.91 173.307 404.648 172.452 404.648 171.404C404.648 170.329 404.951 169.456 405.557 168.786C406.168 168.107 406.954 167.768 407.915 167.768ZM407.915 168.622C407.145 168.622 406.566 168.968 406.179 169.661C405.906 170.149 405.769 170.737 405.769 171.425C405.769 172.222 405.933 172.874 406.261 173.38C406.653 173.981 407.204 174.282 407.915 174.282C408.686 174.282 409.264 173.934 409.652 173.236C409.925 172.753 410.062 172.159 410.062 171.452C410.062 170.668 409.898 170.026 409.57 169.524C409.178 168.923 408.626 168.622 407.915 168.622ZM413.265 175V164.767H414.331V175H413.265ZM421.281 164.767H422.347V172.416C422.347 173.077 422.363 173.854 422.395 174.747L422.402 175H421.397L421.363 173.92C421.003 174.389 420.67 174.711 420.365 174.884C420.064 175.057 419.69 175.144 419.244 175.144C418.382 175.144 417.69 174.788 417.165 174.077C416.651 173.384 416.393 172.493 416.393 171.404C416.393 170.265 416.685 169.356 417.268 168.677C417.792 168.071 418.432 167.768 419.189 167.768C420.032 167.768 420.729 168.139 421.281 168.882V164.767ZM421.281 169.948C420.825 169.064 420.198 168.622 419.401 168.622C418.799 168.622 418.339 168.873 418.02 169.374C417.683 169.907 417.514 170.593 417.514 171.432C417.514 172.211 417.658 172.863 417.945 173.387C418.273 173.988 418.763 174.289 419.415 174.289C419.784 174.289 420.112 174.187 420.399 173.981C420.686 173.776 420.98 173.435 421.281 172.956V169.948ZM425.762 173.482C425.999 173.482 426.195 173.562 426.35 173.722C426.51 173.877 426.589 174.073 426.589 174.31C426.589 174.547 426.51 174.745 426.35 174.904C426.195 175.059 425.999 175.137 425.762 175.137C425.525 175.137 425.327 175.059 425.167 174.904C425.013 174.745 424.935 174.542 424.935 174.296C424.935 174.068 425.015 173.877 425.174 173.722C425.334 173.562 425.53 173.482 425.762 173.482ZM108.602 193.701L108.882 194.597C107.957 194.957 107.089 195.137 106.277 195.137C104.947 195.137 103.876 194.708 103.064 193.852C102.194 192.931 101.759 191.723 101.759 190.229C101.759 189.194 101.964 188.278 102.374 187.48C102.83 186.601 103.461 185.97 104.268 185.587C104.851 185.313 105.503 185.177 106.223 185.177C107.066 185.177 107.934 185.377 108.827 185.778L108.465 186.674C107.663 186.291 106.922 186.1 106.243 186.1C105.177 186.1 104.361 186.503 103.796 187.31C103.231 188.121 102.948 189.096 102.948 190.235C102.948 191.019 103.094 191.732 103.386 192.375C103.659 192.977 104.042 193.435 104.534 193.749C105.026 194.059 105.61 194.214 106.284 194.214C107.045 194.214 107.818 194.043 108.602 193.701ZM110.602 195V184.767H111.668V189.005C112.447 188.18 113.297 187.768 114.218 187.768C115.111 187.768 115.726 188.096 116.064 188.752C116.168 188.966 116.244 189.235 116.289 189.559C116.335 189.882 116.357 190.329 116.357 190.898V195H115.291V190.878C115.291 190.167 115.241 189.668 115.141 189.381C114.967 188.875 114.56 188.622 113.917 188.622C113.142 188.622 112.393 189.064 111.668 189.948V195H110.602ZM119.492 191.739C119.57 192.532 119.752 193.122 120.039 193.51C120.431 194.025 121.01 194.282 121.775 194.282C122.427 194.282 123.074 194.059 123.717 193.612L124.127 194.439C123.389 194.904 122.598 195.137 121.755 195.137C120.634 195.137 119.77 194.77 119.164 194.036C118.635 193.394 118.371 192.532 118.371 191.452C118.371 190.144 118.724 189.162 119.431 188.506C119.959 188.014 120.636 187.768 121.461 187.768C122.723 187.768 123.571 188.285 124.004 189.319C124.246 189.903 124.375 190.709 124.394 191.739H119.492ZM123.259 190.885C123.245 190.361 123.154 189.923 122.985 189.572C122.68 188.939 122.161 188.622 121.427 188.622C120.862 188.622 120.408 188.825 120.066 189.23C119.725 189.632 119.542 190.183 119.52 190.885H123.259ZM130.96 193.653L131.37 194.48C130.728 194.918 130.01 195.137 129.217 195.137C128.196 195.137 127.396 194.825 126.817 194.2C126.211 193.544 125.908 192.648 125.908 191.514C125.908 190.27 126.23 189.312 126.872 188.643C127.433 188.055 128.182 187.761 129.121 187.761C129.85 187.761 130.557 187.952 131.24 188.335L130.837 189.176C130.263 188.802 129.689 188.615 129.114 188.615C128.426 188.615 127.904 188.868 127.549 189.374C127.203 189.866 127.029 190.536 127.029 191.384C127.029 192.291 127.234 193.013 127.645 193.551C128.023 194.038 128.552 194.282 129.231 194.282C129.832 194.282 130.409 194.073 130.96 193.653ZM132.967 195V184.767H134.033V190.912L136.918 187.904H138.251L135.154 191.056L138.456 195H137.089L134.033 191.336V195H132.967ZM142.901 195V194.2L146.756 188.759H143.085V187.904H148.028V188.759L144.193 194.146H148.137V195H142.901ZM152.762 187.768C153.796 187.768 154.624 188.157 155.243 188.937C155.767 189.593 156.03 190.431 156.03 191.452C156.03 192.55 155.726 193.437 155.12 194.111C154.505 194.795 153.719 195.137 152.762 195.137C151.727 195.137 150.9 194.747 150.28 193.968C149.756 193.307 149.494 192.452 149.494 191.404C149.494 190.329 149.797 189.456 150.404 188.786C151.014 188.107 151.8 187.768 152.762 187.768ZM152.762 188.622C151.992 188.622 151.413 188.968 151.026 189.661C150.752 190.149 150.615 190.737 150.615 191.425C150.615 192.222 150.78 192.874 151.108 193.38C151.5 193.981 152.051 194.282 152.762 194.282C153.532 194.282 154.111 193.934 154.498 193.236C154.772 192.753 154.908 192.159 154.908 191.452C154.908 190.668 154.744 190.026 154.416 189.524C154.024 188.923 153.473 188.622 152.762 188.622ZM158.112 195V190.215C158.112 189.135 158.093 188.365 158.057 187.904H159.11L159.151 189.039C159.588 188.579 160.003 188.253 160.395 188.062C160.791 187.866 161.236 187.768 161.728 187.768C162.626 187.768 163.241 188.096 163.573 188.752C163.678 188.966 163.754 189.237 163.799 189.565C163.845 189.889 163.867 190.333 163.867 190.898V195H162.801V190.878C162.801 190.167 162.751 189.668 162.651 189.381C162.473 188.875 162.065 188.622 161.427 188.622C160.657 188.622 159.907 189.064 159.178 189.948V195H158.112ZM167.002 191.739C167.08 192.532 167.262 193.122 167.549 193.51C167.941 194.025 168.52 194.282 169.285 194.282C169.937 194.282 170.584 194.059 171.227 193.612L171.637 194.439C170.899 194.904 170.108 195.137 169.265 195.137C168.144 195.137 167.28 194.77 166.674 194.036C166.145 193.394 165.881 192.532 165.881 191.452C165.881 190.144 166.234 189.162 166.941 188.506C167.469 188.014 168.146 187.768 168.971 187.768C170.233 187.768 171.081 188.285 171.514 189.319C171.755 189.903 171.885 190.709 171.904 191.739H167.002ZM170.769 190.885C170.755 190.361 170.664 189.923 170.495 189.572C170.19 188.939 169.671 188.622 168.937 188.622C168.372 188.622 167.918 188.825 167.576 189.23C167.235 189.632 167.052 190.183 167.03 190.885H170.769ZM174.751 193.482C174.988 193.482 175.184 193.562 175.339 193.722C175.499 193.877 175.578 194.073 175.578 194.31C175.578 194.547 175.499 194.745 175.339 194.904C175.184 195.059 174.988 195.137 174.751 195.137C174.514 195.137 174.316 195.059 174.157 194.904C174.002 194.745 173.924 194.542 173.924 194.296C173.924 194.068 174.004 193.877 174.163 193.722C174.323 193.562 174.519 193.482 174.751 193.482Z" fill="white"/>
<path d="M319 216.5H395C395.828 216.5 396.5 217.172 396.5 218V246C396.5 246.828 395.828 247.5 395 247.5H319C318.172 247.5 317.5 246.828 317.5 246V218C317.5 217.172 318.172 216.5 319 216.5Z" stroke="#00CCCC"/>
<path d="M342.642 235.147L343.113 236.515C342.566 236.756 342.086 236.923 341.671 237.014C341.261 237.109 340.787 237.157 340.249 237.157C338.8 237.157 337.663 236.74 336.838 235.906C335.954 235.013 335.512 233.787 335.512 232.229C335.512 230.474 336.047 229.125 337.118 228.182C337.902 227.498 338.916 227.156 340.16 227.156C341.099 227.156 342.049 227.375 343.011 227.812L342.45 229.132C341.657 228.726 340.921 228.523 340.242 228.523C339.29 228.523 338.56 228.863 338.055 229.542C337.54 230.244 337.282 231.126 337.282 232.188C337.282 233.299 337.553 234.179 338.096 234.826C338.642 235.469 339.385 235.79 340.324 235.79C340.73 235.79 341.099 235.744 341.432 235.653C341.769 235.558 342.172 235.389 342.642 235.147ZM348.586 236.187C348.253 236.542 347.918 236.793 347.581 236.938C347.248 237.084 346.85 237.157 346.385 237.157C345.646 237.157 345.079 236.961 344.683 236.569C344.282 236.182 344.081 235.658 344.081 234.997C344.081 234.104 344.443 233.448 345.168 233.028C345.624 232.764 346.344 232.632 347.328 232.632C347.588 232.632 347.977 232.646 348.497 232.673V232.543C348.497 231.463 347.971 230.923 346.918 230.923C346.321 230.923 345.678 231.121 344.99 231.518L344.553 230.342C345.382 229.923 346.241 229.713 347.13 229.713C348.283 229.713 349.108 230.023 349.604 230.643C349.805 230.898 349.942 231.194 350.015 231.531C350.092 231.868 350.131 232.374 350.131 233.049V235.182C350.131 235.938 350.154 236.544 350.199 237H348.647L348.586 236.187ZM348.497 233.698C348.228 233.675 347.982 233.664 347.759 233.664C347.098 233.664 346.622 233.755 346.33 233.938C345.961 234.17 345.776 234.512 345.776 234.963C345.776 235.286 345.877 235.549 346.077 235.749C346.278 235.945 346.547 236.043 346.884 236.043C347.508 236.043 348.046 235.71 348.497 235.045V233.698ZM352.637 237V232.365C352.637 231.654 352.623 230.973 352.596 230.321L352.575 229.863H354.113L354.168 230.916C354.592 230.474 354.993 230.162 355.371 229.979C355.754 229.797 356.196 229.706 356.697 229.706C357.636 229.706 358.283 230.041 358.639 230.711C358.848 231.098 358.953 231.764 358.953 232.707V237H357.319V232.789C357.319 232.219 357.274 231.816 357.183 231.579C357.019 231.169 356.677 230.964 356.157 230.964C355.492 230.964 354.863 231.367 354.27 232.174V237H352.637ZM366.176 235.346L366.702 236.542C366.046 236.952 365.273 237.157 364.385 237.157C363.268 237.157 362.396 236.82 361.767 236.146C361.156 235.485 360.851 234.589 360.851 233.459C360.851 232.251 361.174 231.306 361.821 230.622C362.4 230.011 363.204 229.706 364.234 229.706C365.032 229.706 365.804 229.886 366.552 230.246L366.06 231.47C365.504 231.119 364.954 230.943 364.412 230.943C363.774 230.943 363.302 231.174 362.997 231.634C362.696 232.08 362.546 232.677 362.546 233.425C362.546 234.2 362.721 234.81 363.072 235.257C363.419 235.685 363.909 235.899 364.542 235.899C365.103 235.899 365.647 235.715 366.176 235.346ZM369.475 233.951C369.529 234.539 369.68 234.983 369.926 235.284C370.29 235.717 370.828 235.934 371.539 235.934C372.241 235.934 372.947 235.703 373.658 235.243L374.239 236.446C373.414 236.92 372.501 237.157 371.498 237.157C370.24 237.157 369.288 236.804 368.641 236.098C368.053 235.464 367.759 234.582 367.759 233.452C367.759 232.258 368.092 231.317 368.757 230.629C369.345 230.018 370.151 229.713 371.177 229.713C372.685 229.713 373.665 230.296 374.116 231.463C374.34 232.042 374.456 232.871 374.465 233.951H369.475ZM372.79 232.796C372.776 232.372 372.694 232.01 372.544 231.709C372.275 231.185 371.819 230.923 371.177 230.923C370.68 230.923 370.279 231.089 369.974 231.422C369.673 231.755 369.511 232.213 369.488 232.796H372.79ZM376.39 237V226.767H378.024V237H376.39Z" fill="#00CCCC"/>
<path d="M405 218C405 216.895 405.895 216 407 216H483C484.105 216 485 216.895 485 218V246C485 247.105 484.105 248 483 248H407C405.895 248 405 247.105 405 246V218Z" fill="#00CCCC"/>
<path d="M440.466 227.156C441.924 227.156 443.045 227.644 443.829 228.619C444.586 229.567 444.964 230.747 444.964 232.16C444.964 233.71 444.517 234.965 443.624 235.927C442.858 236.747 441.806 237.157 440.466 237.157C439.012 237.157 437.893 236.67 437.109 235.694C436.353 234.751 435.975 233.552 435.975 232.099C435.975 231.205 436.145 230.387 436.487 229.645C437.244 227.986 438.57 227.156 440.466 227.156ZM440.466 228.523C439.582 228.523 438.896 228.883 438.408 229.604C437.966 230.251 437.745 231.089 437.745 232.119C437.745 233.304 438.007 234.222 438.531 234.874C439.023 235.485 439.668 235.79 440.466 235.79C441.345 235.79 442.034 235.43 442.53 234.71C442.972 234.067 443.193 233.217 443.193 232.16C443.193 230.993 442.931 230.087 442.407 229.439C441.92 228.829 441.272 228.523 440.466 228.523ZM447.019 237V227.313H448.714V231.873L452.528 227.313H454.49L450.642 231.853L454.647 237H452.576L448.714 231.969V237H447.019Z" fill="#000028"/>
</g>
<defs>
<filter id="filter0_ddd_7490_366" x="11" y="90" width="516" height="212" filterUnits="userSpaceOnUse" color-interpolation-filters="sRGB">
<feFlood flood-opacity="0" result="BackgroundImageFix"/>
<feColorMatrix in="SourceAlpha" type="matrix" values="0 0 0 0 0 0 0 0 0 0 0 0 0 0 0 0 0 0 127 0" result="hardAlpha"/>
<feOffset dy="12"/>
<feGaussianBlur stdDeviation="9"/>
<feComposite in2="hardAlpha" operator="out"/>
<feColorMatrix type="matrix" values="0 0 0 0 0 0 0 0 0 0 0 0 0 0 0 0 0 0 0.6 0"/>
<feBlend mode="normal" in2="BackgroundImageFix" result="effect1_dropShadow_7490_366"/>
<feColorMatrix in="SourceAlpha" type="matrix" values="0 0 0 0 0 0 0 0 0 0 0 0 0 0 0 0 0 0 127 0" result="hardAlpha"/>
<feOffset dy="4"/>
<feGaussianBlur stdDeviation="4"/>
<feComposite in2="hardAlpha" operator="out"/>
<feColorMatrix type="matrix" values="0 0 0 0 0 0 0 0 0 0 0 0 0 0 0 0 0 0 0.6 0"/>
<feBlend mode="normal" in2="effect1_dropShadow_7490_366" result="effect2_dropShadow_7490_366"/>
<feColorMatrix in="SourceAlpha" type="matrix" values="0 0 0 0 0 0 0 0 0 0 0 0 0 0 0 0 0 0 127 0" result="hardAlpha"/>
<feOffset/>
<feGaussianBlur stdDeviation="1"/>
<feComposite in2="hardAlpha" operator="out"/>
<feColorMatrix type="matrix" values="0 0 0 0 0 0 0 0 0 0 0 0 0 0 0 0 0 0 1 0"/>
<feBlend mode="normal" in2="effect2_dropShadow_7490_366" result="effect3_dropShadow_7490_366"/>
<feBlend mode="normal" in="SourceGraphic" in2="effect3_dropShadow_7490_366" result="shape"/>
</filter>
</defs>
</svg>
