<svg width="896" height="360" viewBox="0 0 896 360" fill="none" xmlns="http://www.w3.org/2000/svg">
<rect width="896" height="360" fill="#23233C"/>
<path d="M56.4688 103V58.7188H64.2188V103H56.4688ZM74.6785 103V81.8125C74.6785 78.5625 74.616 75.4479 74.491 72.4688L74.3972 70.375H81.4285L81.6785 75.1875C83.616 73.1667 85.4493 71.7396 87.1785 70.9062C88.9285 70.0729 90.9493 69.6562 93.241 69.6562C97.5327 69.6562 100.491 71.1875 102.116 74.25C103.074 76.0208 103.553 79.0625 103.553 83.375V103H96.0847V83.75C96.0847 81.1458 95.8764 79.3021 95.4597 78.2188C94.7097 76.3438 93.1472 75.4062 90.7722 75.4062C87.7306 75.4062 84.8556 77.25 82.1472 80.9375V103H74.6785ZM112.888 116.75V83.4688C112.888 78.1979 112.794 73.8333 112.607 70.375H119.763L120.013 74.875C121.492 73.0208 123.003 71.6875 124.544 70.875C126.086 70.0625 127.878 69.6562 129.919 69.6562C134.107 69.6562 137.367 71.3229 139.701 74.6562C141.93 77.8021 143.044 81.7917 143.044 86.625C143.044 91.9583 141.753 96.2292 139.169 99.4375C136.857 102.292 133.753 103.719 129.857 103.719C125.982 103.719 122.815 102.094 120.357 98.8438V116.75H112.888ZM120.357 92.3438C122.669 96.0938 125.253 97.9688 128.107 97.9688C130.482 97.9688 132.294 96.8125 133.544 94.5C134.711 92.3333 135.294 89.6771 135.294 86.5312C135.294 83.3021 134.659 80.6354 133.388 78.5312C132.117 76.4479 130.294 75.4062 127.919 75.4062C125.107 75.4062 122.586 77.1979 120.357 80.7812V92.3438ZM179.098 70.375V91.5312C179.098 95.4271 179.192 99.25 179.379 103H172.348L172.098 98.1875C170.202 100.188 168.39 101.615 166.66 102.469C164.931 103.302 162.952 103.719 160.723 103.719C156.494 103.719 153.577 102.188 151.973 99.125C151.035 97.3333 150.567 94.2917 150.567 90V70.375H158.035V89.625C158.035 92.2292 158.244 94.0729 158.66 95.1562C159.39 97.0312 160.9 97.9688 163.192 97.9688C166.15 97.9688 168.963 96.125 171.629 92.4375V70.375H179.098ZM191.058 76.0625H185.808V70.375H191.058V63.2812L198.527 61.8438V70.375H205.964V76.0625H198.527V91.2188C198.527 93.4271 198.745 94.9583 199.183 95.8125C199.829 97.0833 201.068 97.7188 202.902 97.7188C203.818 97.7188 204.995 97.4479 206.433 96.9062L207.089 102.625C204.797 103.354 202.579 103.719 200.433 103.719C196.745 103.719 194.152 102.594 192.652 100.344C191.589 98.7396 191.058 95.8333 191.058 91.625V76.0625ZM230.133 103V76.0625H224.915V70.375H230.133V68.2188C230.133 64.3021 230.727 61.3854 231.915 59.4688C233.581 56.8021 236.425 55.4688 240.446 55.4688C242.3 55.4688 244.279 55.7604 246.383 56.3438L245.79 62.3125C244.456 61.7083 243.196 61.4062 242.008 61.4062C240.425 61.4062 239.29 61.9792 238.602 63.125C237.936 64.2708 237.602 66.1979 237.602 68.9062V70.375H245.071V76.0625H237.602V103H230.133ZM251.906 103V70.375H259.374V103H251.906ZM255.656 55.0938C257.01 55.0938 258.114 55.5312 258.968 56.4062C259.843 57.2812 260.281 58.4062 260.281 59.7812C260.281 61.1354 259.843 62.2604 258.968 63.1562C258.114 64.0312 257.02 64.4688 255.687 64.4688C254.312 64.4688 253.187 64.0312 252.312 63.1562C251.458 62.2604 251.031 61.1146 251.031 59.7188C251.031 58.3854 251.468 57.2812 252.343 56.4062C253.218 55.5312 254.322 55.0938 255.656 55.0938ZM274.928 89.0625C275.178 91.75 275.865 93.7812 276.99 95.1562C278.657 97.1354 281.115 98.125 284.365 98.125C287.574 98.125 290.803 97.0729 294.053 94.9688L296.709 100.469C292.938 102.635 288.761 103.719 284.178 103.719C278.428 103.719 274.074 102.104 271.115 98.875C268.428 95.9792 267.084 91.9479 267.084 86.7812C267.084 81.3229 268.605 77.0208 271.647 73.875C274.334 71.0833 278.022 69.6875 282.709 69.6875C289.605 69.6875 294.084 72.3542 296.147 77.6875C297.168 80.3333 297.699 84.125 297.74 89.0625H274.928ZM290.084 83.7812C290.022 81.8438 289.647 80.1875 288.959 78.8125C287.73 76.4167 285.647 75.2188 282.709 75.2188C280.438 75.2188 278.605 75.9792 277.209 77.5C275.834 79.0208 275.095 81.1146 274.99 83.7812H290.084ZM305.388 103V56.2188H312.857V103H305.388ZM343.316 56.2188H350.785V91.5312C350.785 96.3229 350.879 100.146 351.066 103H343.91L343.66 98.3438C342.223 100.302 340.754 101.688 339.254 102.5C337.754 103.312 335.931 103.719 333.785 103.719C329.556 103.719 326.264 102.031 323.91 98.6562C321.723 95.5312 320.629 91.5312 320.629 86.6562C320.629 81.3646 321.92 77.125 324.504 73.9375C326.816 71.1042 329.91 69.6875 333.785 69.6875C337.618 69.6875 340.795 71.2917 343.316 74.5V56.2188ZM343.316 80.8438C341.254 77.2396 338.733 75.4375 335.754 75.4375C333.379 75.4375 331.556 76.4792 330.285 78.5625C329.014 80.6667 328.379 83.3333 328.379 86.5625C328.379 89.7083 328.962 92.3646 330.129 94.5312C331.379 96.8229 333.191 97.9688 335.566 97.9688C338.462 97.9688 341.045 96.0938 343.316 92.3438V80.8438ZM58 180V153.062H52.7812V147.375H58V145.219C58 141.302 58.5938 138.385 59.7812 136.469C61.4479 133.802 64.2917 132.469 68.3125 132.469C70.1667 132.469 72.1458 132.76 74.25 133.344L73.6562 139.312C72.3229 138.708 71.0625 138.406 69.875 138.406C68.2917 138.406 67.1562 138.979 66.4688 140.125C65.8021 141.271 65.4688 143.198 65.4688 145.906V147.375H72.9375V153.062H65.4688V180H58ZM84.241 166.062C84.491 168.75 85.1785 170.781 86.3035 172.156C87.9702 174.135 90.4285 175.125 93.6785 175.125C96.8868 175.125 100.116 174.073 103.366 171.969L106.022 177.469C102.251 179.635 98.0743 180.719 93.491 180.719C87.741 180.719 83.3868 179.104 80.4285 175.875C77.741 172.979 76.3972 168.948 76.3972 163.781C76.3972 158.323 77.9181 154.021 80.9597 150.875C83.6472 148.083 87.3347 146.688 92.0222 146.688C98.9181 146.688 103.397 149.354 105.46 154.688C106.481 157.333 107.012 161.125 107.053 166.062H84.241ZM99.3972 160.781C99.3347 158.844 98.9597 157.188 98.2722 155.812C97.0431 153.417 94.9597 152.219 92.0222 152.219C89.7514 152.219 87.9181 152.979 86.5222 154.5C85.1472 156.021 84.4077 158.115 84.3035 160.781H99.3972ZM120.107 166.062C120.357 168.75 121.044 170.781 122.169 172.156C123.836 174.135 126.294 175.125 129.544 175.125C132.753 175.125 135.982 174.073 139.232 171.969L141.888 177.469C138.117 179.635 133.94 180.719 129.357 180.719C123.607 180.719 119.253 179.104 116.294 175.875C113.607 172.979 112.263 168.948 112.263 163.781C112.263 158.323 113.784 154.021 116.826 150.875C119.513 148.083 123.201 146.688 127.888 146.688C134.784 146.688 139.263 149.354 141.326 154.688C142.347 157.333 142.878 161.125 142.919 166.062H120.107ZM135.263 160.781C135.201 158.844 134.826 157.188 134.138 155.812C132.909 153.417 130.826 152.219 127.888 152.219C125.617 152.219 123.784 152.979 122.388 154.5C121.013 156.021 120.274 158.115 120.169 160.781H135.263ZM170.817 133.219H178.285V168.531C178.285 173.323 178.379 177.146 178.567 180H171.41L171.16 175.344C169.723 177.302 168.254 178.688 166.754 179.5C165.254 180.312 163.431 180.719 161.285 180.719C157.056 180.719 153.765 179.031 151.41 175.656C149.223 172.531 148.129 168.531 148.129 163.656C148.129 158.365 149.421 154.125 152.004 150.938C154.317 148.104 157.41 146.688 161.285 146.688C165.119 146.688 168.296 148.292 170.817 151.5V133.219ZM170.817 157.844C168.754 154.24 166.233 152.438 163.254 152.438C160.879 152.438 159.056 153.479 157.785 155.562C156.515 157.667 155.879 160.333 155.879 163.562C155.879 166.708 156.463 169.365 157.629 171.531C158.879 173.823 160.692 174.969 163.067 174.969C165.963 174.969 168.546 173.094 170.817 169.344V157.844ZM195.12 180H187.964C188.152 176.604 188.245 172.781 188.245 168.531V133.219H195.714V151.5C198.235 148.292 201.412 146.688 205.245 146.688C209.454 146.688 212.724 148.354 215.058 151.688C217.287 154.833 218.402 158.823 218.402 163.656C218.402 168.99 217.11 173.25 214.527 176.438C212.214 179.292 209.12 180.719 205.245 180.719C203.099 180.719 201.266 180.312 199.745 179.5C198.245 178.667 196.787 177.281 195.37 175.344L195.12 180ZM195.714 169.344C197.985 173.094 200.568 174.969 203.464 174.969C205.839 174.969 207.652 173.823 208.902 171.531C210.068 169.365 210.652 166.708 210.652 163.562C210.652 160.333 210.016 157.667 208.745 155.562C207.474 153.479 205.652 152.438 203.277 152.438C200.318 152.438 197.797 154.24 195.714 157.844V169.344ZM243.955 176.281C242.434 177.906 240.903 179.052 239.361 179.719C237.84 180.385 236.018 180.719 233.893 180.719C230.518 180.719 227.924 179.823 226.111 178.031C224.278 176.26 223.361 173.865 223.361 170.844C223.361 166.76 225.018 163.76 228.33 161.844C230.413 160.635 233.705 160.031 238.205 160.031C239.393 160.031 241.174 160.094 243.549 160.219V159.625C243.549 154.688 241.143 152.219 236.33 152.219C233.601 152.219 230.663 153.125 227.518 154.938L225.518 149.562C229.309 147.646 233.236 146.688 237.299 146.688C242.57 146.688 246.34 148.104 248.611 150.938C249.528 152.104 250.153 153.458 250.486 155C250.84 156.542 251.018 158.854 251.018 161.938V171.688C251.018 175.146 251.122 177.917 251.33 180H244.236L243.955 176.281ZM243.549 164.906C242.32 164.802 241.195 164.75 240.174 164.75C237.153 164.75 234.976 165.167 233.643 166C231.955 167.062 231.111 168.625 231.111 170.688C231.111 172.167 231.57 173.365 232.486 174.281C233.403 175.177 234.632 175.625 236.174 175.625C239.028 175.625 241.486 174.104 243.549 171.062V164.906ZM283.196 172.438L285.602 177.906C282.602 179.781 279.071 180.719 275.008 180.719C269.904 180.719 265.915 179.177 263.04 176.094C260.248 173.073 258.852 168.979 258.852 163.812C258.852 158.292 260.331 153.969 263.29 150.844C265.936 148.052 269.613 146.656 274.321 146.656C277.967 146.656 281.498 147.479 284.915 149.125L282.665 154.719C280.123 153.115 277.613 152.312 275.133 152.312C272.217 152.312 270.061 153.365 268.665 155.469C267.29 157.51 266.602 160.24 266.602 163.656C266.602 167.198 267.404 169.99 269.008 172.031C270.592 173.99 272.831 174.969 275.727 174.969C278.29 174.969 280.779 174.125 283.196 172.438ZM291.281 180V133.219H298.749V161.125L310.312 147.375H318.968L306.374 161.688L320.218 180H311.124L298.749 163.25V180H291.281Z" fill="#00FFB9"/>
<path d="M501.258 171V161.313H503.425C504.177 161.313 504.801 161.357 505.298 161.443C506.378 161.639 507.182 162.184 507.711 163.077C508.189 163.888 508.429 164.896 508.429 166.099C508.429 167.265 508.205 168.247 507.759 169.045C507.207 170.025 506.371 170.626 505.25 170.85C504.735 170.95 504.076 171 503.274 171H501.258ZM502.379 170.077H503.356C504.505 170.077 505.362 169.87 505.927 169.455C506.346 169.15 506.67 168.712 506.897 168.143C507.125 167.568 507.239 166.912 507.239 166.174C507.239 165.112 507.027 164.226 506.604 163.515C506.212 162.854 505.619 162.457 504.826 162.325C504.48 162.266 503.935 162.236 503.192 162.236H502.379V170.077ZM514.332 170.173C514.013 170.519 513.689 170.768 513.361 170.918C513.038 171.064 512.655 171.137 512.213 171.137C511.47 171.137 510.903 170.927 510.511 170.508C510.164 170.139 509.991 169.651 509.991 169.045C509.991 168.111 510.385 167.445 511.174 167.049C511.639 166.816 512.325 166.7 513.231 166.7C513.373 166.7 513.712 166.709 514.25 166.728V166.536C514.25 166.021 514.184 165.629 514.052 165.36C513.815 164.868 513.345 164.622 512.644 164.622C512.069 164.622 511.459 164.827 510.812 165.237L510.347 164.472C511.09 164.002 511.894 163.768 512.76 163.768C513.835 163.768 514.571 164.089 514.968 164.731C515.105 164.959 515.196 165.221 515.241 165.518C515.291 165.809 515.316 166.274 515.316 166.912V169.229C515.316 169.959 515.335 170.549 515.371 171H514.38L514.332 170.173ZM514.25 167.541C513.999 167.523 513.735 167.514 513.457 167.514C512.696 167.514 512.142 167.614 511.796 167.814C511.34 168.074 511.112 168.475 511.112 169.018C511.112 169.4 511.226 169.706 511.454 169.934C511.691 170.166 512.008 170.282 512.404 170.282C513.147 170.282 513.762 169.92 514.25 169.195V167.541ZM518.315 164.759H517.166V163.904H518.315V162.353L519.381 162.127V163.904H521.056V164.759H519.381V168.635C519.381 169.223 519.431 169.624 519.531 169.838C519.677 170.134 519.946 170.282 520.338 170.282C520.575 170.282 520.846 170.212 521.151 170.07L521.247 170.918C520.837 171.064 520.454 171.137 520.099 171.137C519.447 171.137 518.987 170.964 518.718 170.617C518.449 170.271 518.315 169.681 518.315 168.847V164.759ZM523.295 167.739C523.372 168.532 523.555 169.122 523.842 169.51C524.234 170.025 524.813 170.282 525.578 170.282C526.23 170.282 526.877 170.059 527.52 169.612L527.93 170.439C527.191 170.904 526.401 171.137 525.558 171.137C524.437 171.137 523.573 170.77 522.967 170.036C522.438 169.394 522.174 168.532 522.174 167.452C522.174 166.144 522.527 165.162 523.233 164.506C523.762 164.014 524.439 163.768 525.264 163.768C526.526 163.768 527.374 164.285 527.807 165.319C528.048 165.903 528.178 166.709 528.196 167.739H523.295ZM527.062 166.885C527.048 166.361 526.957 165.923 526.788 165.572C526.483 164.939 525.963 164.622 525.23 164.622C524.664 164.622 524.211 164.825 523.869 165.23C523.527 165.632 523.345 166.183 523.322 166.885H527.062ZM536.647 163.768C537.681 163.768 538.508 164.157 539.128 164.937C539.652 165.593 539.914 166.431 539.914 167.452C539.914 168.55 539.611 169.437 539.005 170.111C538.39 170.795 537.604 171.137 536.647 171.137C535.612 171.137 534.785 170.747 534.165 169.968C533.641 169.307 533.379 168.452 533.379 167.404C533.379 166.329 533.682 165.456 534.288 164.786C534.899 164.107 535.685 163.768 536.647 163.768ZM536.647 164.622C535.876 164.622 535.298 164.968 534.91 165.661C534.637 166.149 534.5 166.737 534.5 167.425C534.5 168.222 534.664 168.874 534.992 169.38C535.384 169.981 535.936 170.282 536.647 170.282C537.417 170.282 537.996 169.934 538.383 169.236C538.656 168.753 538.793 168.159 538.793 167.452C538.793 166.668 538.629 166.026 538.301 165.524C537.909 164.923 537.358 164.622 536.647 164.622ZM542.379 171V164.759H541.231V163.904H542.379V163.228C542.379 162.394 542.495 161.787 542.728 161.409C543.047 160.89 543.587 160.63 544.348 160.63C544.658 160.63 544.99 160.675 545.346 160.767L545.25 161.689C545 161.553 544.728 161.484 544.437 161.484C544.068 161.484 543.81 161.621 543.664 161.895C543.518 162.163 543.445 162.637 543.445 163.316V163.904H545.12V164.759H543.445V171H542.379ZM551.499 171H550.494L550.501 170.747C550.533 169.854 550.549 169.077 550.549 168.416V160.767H551.615V164.882C552.167 164.139 552.864 163.768 553.707 163.768C554.532 163.768 555.211 164.118 555.744 164.82C556.25 165.486 556.503 166.347 556.503 167.404C556.503 168.58 556.207 169.523 555.615 170.234C555.104 170.84 554.45 171.144 553.653 171.144C553.206 171.144 552.83 171.057 552.525 170.884C552.224 170.711 551.893 170.389 551.533 169.92L551.499 171ZM551.615 168.956C551.916 169.435 552.21 169.776 552.497 169.981C552.784 170.187 553.113 170.289 553.482 170.289C554.133 170.289 554.623 169.988 554.951 169.387C555.239 168.863 555.382 168.211 555.382 167.432C555.382 166.593 555.213 165.907 554.876 165.374C554.557 164.873 554.097 164.622 553.495 164.622C552.698 164.622 552.071 165.064 551.615 165.948V168.956ZM558.578 171V163.904H559.645V171H558.578ZM559.105 160.63C559.328 160.63 559.51 160.701 559.652 160.842C559.793 160.983 559.864 161.163 559.864 161.382C559.864 161.605 559.793 161.787 559.652 161.929C559.51 162.07 559.33 162.141 559.112 162.141C558.888 162.141 558.706 162.07 558.565 161.929C558.423 161.787 558.353 161.603 558.353 161.375C558.353 161.161 558.423 160.983 558.565 160.842C558.711 160.701 558.891 160.63 559.105 160.63ZM562.26 171V166.953C562.26 166.064 562.246 165.158 562.219 164.232L562.212 163.904H563.203L563.244 165.21C563.522 164.695 563.816 164.326 564.126 164.103C564.436 163.875 564.805 163.761 565.234 163.761C565.38 163.761 565.546 163.779 565.733 163.815L565.637 164.772C565.505 164.741 565.38 164.725 565.261 164.725C564.737 164.725 564.274 164.989 563.873 165.518C563.645 165.814 563.463 166.144 563.326 166.509V171H562.26ZM568.075 164.759H566.926V163.904H568.075V162.353L569.141 162.127V163.904H570.816V164.759H569.141V168.635C569.141 169.223 569.191 169.624 569.291 169.838C569.437 170.134 569.706 170.282 570.098 170.282C570.335 170.282 570.606 170.212 570.911 170.07L571.007 170.918C570.597 171.064 570.214 171.137 569.859 171.137C569.207 171.137 568.747 170.964 568.478 170.617C568.209 170.271 568.075 169.681 568.075 168.847V164.759ZM572.604 171V160.767H573.67V165.005C574.45 164.18 575.3 163.768 576.22 163.768C577.113 163.768 577.729 164.096 578.066 164.752C578.171 164.966 578.246 165.235 578.291 165.559C578.337 165.882 578.36 166.329 578.36 166.898V171H577.293V166.878C577.293 166.167 577.243 165.668 577.143 165.381C576.97 164.875 576.562 164.622 575.919 164.622C575.145 164.622 574.395 165.064 573.67 165.948V171H572.604Z" fill="#FF7687"/>
<g filter="url(#filter0_i_7490_24809)">
<g clip-path="url(#clip0_7490_24809)">
<rect x="500" y="178" width="320" height="32" rx="2" fill="#331131"/>
<path d="M509.258 199V189.313H510.816L513.558 196.642C513.699 197.02 513.856 197.471 514.029 197.995C514.166 197.562 514.321 197.111 514.494 196.642L517.167 189.313H518.664V199H517.543V190.934C517.201 192.027 516.928 192.852 516.723 193.408L514.631 199H513.332L511.199 193.47C510.967 192.868 510.675 192.023 510.324 190.934V199H509.258ZM525.08 198.173C524.761 198.519 524.438 198.768 524.109 198.918C523.786 199.064 523.403 199.137 522.961 199.137C522.218 199.137 521.651 198.927 521.259 198.508C520.912 198.139 520.739 197.651 520.739 197.045C520.739 196.111 521.133 195.445 521.922 195.049C522.387 194.816 523.073 194.7 523.98 194.7C524.121 194.7 524.46 194.709 524.998 194.728V194.536C524.998 194.021 524.932 193.629 524.8 193.36C524.563 192.868 524.093 192.622 523.392 192.622C522.817 192.622 522.207 192.827 521.56 193.237L521.095 192.472C521.838 192.002 522.642 191.768 523.508 191.768C524.583 191.768 525.319 192.089 525.716 192.731C525.853 192.959 525.944 193.221 525.989 193.518C526.039 193.809 526.064 194.274 526.064 194.912V197.229C526.064 197.959 526.083 198.549 526.119 199H525.128L525.08 198.173ZM524.998 195.541C524.747 195.523 524.483 195.514 524.205 195.514C523.444 195.514 522.89 195.614 522.544 195.814C522.088 196.074 521.86 196.475 521.86 197.018C521.86 197.4 521.974 197.706 522.202 197.934C522.439 198.166 522.756 198.282 523.152 198.282C523.895 198.282 524.51 197.92 524.998 197.195V195.541ZM530.149 199.103L527.354 191.904H528.495L530.115 196.149C530.288 196.614 530.482 197.154 530.696 197.77C530.901 197.168 531.1 196.612 531.291 196.102L532.863 191.904H533.861L530.977 199.602C530.621 200.554 530.252 201.217 529.869 201.591C529.491 201.965 528.994 202.151 528.379 202.151C528.046 202.151 527.698 202.106 527.333 202.015L527.518 201.146C527.8 201.247 528.065 201.297 528.311 201.297C528.607 201.297 528.86 201.224 529.069 201.078C529.279 200.937 529.468 200.704 529.637 200.381C529.837 199.998 530.008 199.572 530.149 199.103ZM534.932 195.514V194.659H538.165V195.514H534.932ZM539.796 199V198.022C541.277 196.692 542.357 195.644 543.036 194.878C543.624 194.213 544.048 193.636 544.308 193.148C544.568 192.656 544.697 192.187 544.697 191.74C544.697 191.253 544.517 190.861 544.157 190.564C543.761 190.236 543.246 190.072 542.612 190.072C541.879 190.072 541.127 190.312 540.357 190.79L540.076 189.833C540.97 189.396 541.858 189.177 542.742 189.177C543.608 189.177 544.319 189.368 544.875 189.751C545.513 190.188 545.832 190.829 545.832 191.672C545.832 192.283 545.661 192.893 545.319 193.504C544.978 194.115 544.385 194.867 543.542 195.76C542.772 196.58 541.972 197.353 541.143 198.077H545.914V199H539.796ZM548.03 199V198.022C549.512 196.692 550.592 195.644 551.271 194.878C551.859 194.213 552.282 193.636 552.542 193.148C552.802 192.656 552.932 192.187 552.932 191.74C552.932 191.253 552.752 190.861 552.392 190.564C551.995 190.236 551.48 190.072 550.847 190.072C550.113 190.072 549.361 190.312 548.591 190.79L548.311 189.833C549.204 189.396 550.093 189.177 550.977 189.177C551.843 189.177 552.554 189.368 553.11 189.751C553.748 190.188 554.067 190.829 554.067 191.672C554.067 192.283 553.896 192.893 553.554 193.504C553.212 194.115 552.62 194.867 551.777 195.76C551.006 196.58 550.207 197.353 549.377 198.077H554.149V199H548.03ZM555.93 195.514V194.659H559.163V195.514H555.93ZM560.794 199V198.022C562.275 196.692 563.355 195.644 564.034 194.878C564.622 194.213 565.046 193.636 565.306 193.148C565.566 192.656 565.696 192.187 565.696 191.74C565.696 191.253 565.516 190.861 565.155 190.564C564.759 190.236 564.244 190.072 563.611 190.072C562.877 190.072 562.125 190.312 561.355 190.79L561.074 189.833C561.968 189.396 562.856 189.177 563.74 189.177C564.606 189.177 565.317 189.368 565.873 189.751C566.511 190.188 566.83 190.829 566.83 191.672C566.83 192.283 566.659 192.893 566.318 193.504C565.976 194.115 565.383 194.867 564.54 195.76C563.77 196.58 562.97 197.353 562.141 198.077H566.912V199H560.794ZM572.166 189.177C573.287 189.177 574.121 189.587 574.668 190.407C575.22 191.228 575.495 192.479 575.495 194.16C575.495 195.641 575.286 196.781 574.866 197.578C574.315 198.617 573.413 199.137 572.159 199.137C571.034 199.137 570.198 198.724 569.651 197.899C569.104 197.075 568.83 195.812 568.83 194.112C568.83 190.822 569.942 189.177 572.166 189.177ZM572.166 190.1C571.309 190.1 570.703 190.53 570.348 191.392C570.093 191.998 569.965 192.905 569.965 194.112C569.965 195.502 570.122 196.505 570.437 197.12C570.806 197.849 571.38 198.214 572.159 198.214C573.012 198.214 573.618 197.783 573.978 196.922C574.233 196.32 574.361 195.4 574.361 194.16C574.361 192.793 574.203 191.804 573.889 191.193C573.52 190.464 572.946 190.1 572.166 190.1ZM577.263 199V198.022C578.744 196.692 579.824 195.644 580.503 194.878C581.091 194.213 581.515 193.636 581.775 193.148C582.034 192.656 582.164 192.187 582.164 191.74C582.164 191.253 581.984 190.861 581.624 190.564C581.228 190.236 580.713 190.072 580.079 190.072C579.346 190.072 578.594 190.312 577.824 190.79L577.543 189.833C578.436 189.396 579.325 189.177 580.209 189.177C581.075 189.177 581.786 189.368 582.342 189.751C582.98 190.188 583.299 190.829 583.299 191.672C583.299 192.283 583.128 192.893 582.786 193.504C582.445 194.115 581.852 194.867 581.009 195.76C580.239 196.58 579.439 197.353 578.61 198.077H583.381V199H577.263ZM585.497 199V198.022C586.979 196.692 588.059 195.644 588.738 194.878C589.326 194.213 589.749 193.636 590.009 193.148C590.269 192.656 590.399 192.187 590.399 191.74C590.399 191.253 590.219 190.861 589.859 190.564C589.462 190.236 588.947 190.072 588.314 190.072C587.58 190.072 586.828 190.312 586.058 190.79L585.778 189.833C586.671 189.396 587.56 189.177 588.444 189.177C589.31 189.177 590.02 189.368 590.576 189.751C591.215 190.188 591.534 190.829 591.534 191.672C591.534 192.283 591.363 192.893 591.021 193.504C590.679 194.115 590.087 194.867 589.243 195.76C588.473 196.58 587.673 197.353 586.844 198.077H591.616V199H585.497Z" fill="white"/>
<path d="M813 203H795V185H813V203ZM797 201H811V191H797V201ZM801 199H799V197H801V199ZM805 199H803V197H805V199ZM809 199H807V197H809V199ZM801 195H799V193H801V195ZM805 195H803V193H805V195ZM809 195H807V193H809V195ZM797 189H811V187H797V189Z" fill="white"/>
</g>
<rect x="500.5" y="178.5" width="319" height="31" rx="1.5" stroke="#FF2640"/>
</g>
<path d="M508 217.333C511.682 217.334 514.666 220.319 514.666 224C514.666 227.681 511.681 230.666 508 230.666C504.319 230.666 501.334 227.682 501.333 224C501.333 220.319 504.319 217.333 508 217.333ZM508 218.666C505.06 218.666 502.666 221.06 502.666 224C502.667 226.941 505.06 229.333 508 229.333C510.941 229.333 513.333 226.941 513.333 224C513.333 221.06 510.941 218.667 508 218.666ZM510.471 222.471L508.943 224L510.471 225.529L509.529 226.471L508 224.943L506.471 226.471L505.529 225.529L507.057 224L505.529 222.471L506.471 221.529L508 223.057L509.529 221.529L510.471 222.471Z" fill="#FF2640"/>
<path d="M521.258 229V219.313H522.816L525.558 226.642C525.699 227.02 525.856 227.471 526.029 227.995C526.166 227.562 526.321 227.111 526.494 226.642L529.167 219.313H530.664V229H529.543V220.934C529.201 222.027 528.928 222.852 528.723 223.408L526.631 229H525.332L523.199 223.47C522.967 222.868 522.675 222.023 522.324 220.934V229H521.258ZM533.32 229V221.904H534.387V229H533.32ZM533.847 218.63C534.07 218.63 534.252 218.701 534.394 218.842C534.535 218.983 534.606 219.163 534.606 219.382C534.606 219.605 534.535 219.787 534.394 219.929C534.252 220.07 534.072 220.141 533.854 220.141C533.63 220.141 533.448 220.07 533.307 219.929C533.165 219.787 533.095 219.603 533.095 219.375C533.095 219.161 533.165 218.983 533.307 218.842C533.453 218.701 533.633 218.63 533.847 218.63ZM536.988 229V224.215C536.988 223.135 536.97 222.365 536.934 221.904H537.986L538.027 223.039C538.465 222.579 538.88 222.253 539.272 222.062C539.668 221.866 540.112 221.768 540.605 221.768C541.502 221.768 542.118 222.096 542.45 222.752C542.555 222.966 542.63 223.237 542.676 223.565C542.721 223.889 542.744 224.333 542.744 224.898V229H541.678V224.878C541.678 224.167 541.628 223.668 541.527 223.381C541.35 222.875 540.942 222.622 540.304 222.622C539.534 222.622 538.784 223.064 538.055 223.948V229H536.988ZM545.291 229V221.904H546.358V229H545.291ZM545.817 218.63C546.041 218.63 546.223 218.701 546.364 218.842C546.506 218.983 546.576 219.163 546.576 219.382C546.576 219.605 546.506 219.787 546.364 219.929C546.223 220.07 546.043 220.141 545.824 220.141C545.601 220.141 545.419 220.07 545.277 219.929C545.136 219.787 545.066 219.603 545.066 219.375C545.066 219.161 545.136 218.983 545.277 218.842C545.423 218.701 545.603 218.63 545.817 218.63ZM548.959 229V224.215C548.959 223.135 548.941 222.365 548.904 221.904H549.957L549.998 223.025C550.253 222.757 550.49 222.538 550.709 222.369C551.224 221.968 551.785 221.768 552.391 221.768C552.878 221.768 553.282 221.888 553.601 222.13C553.92 222.367 554.136 222.713 554.25 223.169C554.706 222.654 555.118 222.292 555.487 222.082C555.857 221.872 556.274 221.768 556.738 221.768C557.586 221.768 558.167 222.096 558.482 222.752C558.582 222.966 558.652 223.237 558.693 223.565C558.739 223.894 558.762 224.338 558.762 224.898V229H557.695V224.878C557.695 224.167 557.65 223.668 557.559 223.381C557.395 222.875 557.021 222.622 556.438 222.622C555.736 222.622 555.054 223.064 554.394 223.948V229H553.327V224.755C553.327 224.094 553.277 223.629 553.177 223.36C552.99 222.868 552.632 222.622 552.104 222.622C551.397 222.622 550.705 223.064 550.026 223.948V229H548.959ZM566.921 221.904V226.689C566.921 227.792 566.939 228.562 566.976 229H565.923L565.882 227.865C565.472 228.307 565.064 228.631 564.658 228.836C564.257 229.036 563.824 229.137 563.36 229.137C562.48 229.137 561.876 228.809 561.548 228.152C561.439 227.938 561.361 227.669 561.316 227.346C561.275 227.022 561.254 226.576 561.254 226.006V221.904H562.32V226.026C562.32 226.742 562.371 227.241 562.471 227.523C562.644 228.029 563.038 228.282 563.653 228.282C564.405 228.282 565.139 227.84 565.855 226.956V221.904H566.921ZM569.529 229V224.215C569.529 223.135 569.511 222.365 569.475 221.904H570.528L570.569 223.025C570.824 222.757 571.061 222.538 571.279 222.369C571.794 221.968 572.355 221.768 572.961 221.768C573.449 221.768 573.852 221.888 574.171 222.13C574.49 222.367 574.707 222.713 574.82 223.169C575.276 222.654 575.689 222.292 576.058 222.082C576.427 221.872 576.844 221.768 577.309 221.768C578.156 221.768 578.737 222.096 579.052 222.752C579.152 222.966 579.223 223.237 579.264 223.565C579.309 223.894 579.332 224.338 579.332 224.898V229H578.266V224.878C578.266 224.167 578.22 223.668 578.129 223.381C577.965 222.875 577.591 222.622 577.008 222.622C576.306 222.622 575.625 223.064 574.964 223.948V229H573.898V224.755C573.898 224.094 573.848 223.629 573.747 223.36C573.56 222.868 573.203 222.622 572.674 222.622C571.968 222.622 571.275 223.064 570.596 223.948V229H569.529ZM589.307 228.173C588.988 228.519 588.664 228.768 588.336 228.918C588.013 229.064 587.63 229.137 587.188 229.137C586.445 229.137 585.878 228.927 585.486 228.508C585.139 228.139 584.966 227.651 584.966 227.045C584.966 226.111 585.36 225.445 586.149 225.049C586.614 224.816 587.299 224.7 588.206 224.7C588.348 224.7 588.687 224.709 589.225 224.728V224.536C589.225 224.021 589.159 223.629 589.027 223.36C588.79 222.868 588.32 222.622 587.618 222.622C587.044 222.622 586.434 222.827 585.786 223.237L585.322 222.472C586.064 222.002 586.869 221.768 587.735 221.768C588.81 221.768 589.546 222.089 589.943 222.731C590.079 222.959 590.17 223.221 590.216 223.518C590.266 223.809 590.291 224.274 590.291 224.912V227.229C590.291 227.959 590.309 228.549 590.346 229H589.355L589.307 228.173ZM589.225 225.541C588.974 225.523 588.71 225.514 588.432 225.514C587.671 225.514 587.117 225.614 586.771 225.814C586.315 226.074 586.087 226.475 586.087 227.018C586.087 227.4 586.201 227.706 586.429 227.934C586.666 228.166 586.983 228.282 587.379 228.282C588.122 228.282 588.737 227.92 589.225 227.195V225.541ZM597.364 221.904H598.403C598.366 223.053 598.348 223.985 598.348 224.7V228.248C598.348 229.014 598.307 229.588 598.225 229.971C598.147 230.358 597.997 230.704 597.774 231.01C597.218 231.771 596.391 232.151 595.292 232.151C594.349 232.151 593.456 231.894 592.613 231.379L593.071 230.559C593.795 231.051 594.529 231.297 595.272 231.297C596.106 231.297 596.685 230.96 597.008 230.285C597.19 229.907 597.282 229.26 597.282 228.344V227.756C596.621 228.503 595.898 228.877 595.115 228.877C594.322 228.877 593.663 228.558 593.139 227.92C592.624 227.296 592.366 226.448 592.366 225.377C592.366 224.219 592.651 223.303 593.221 222.629C593.709 222.055 594.347 221.768 595.135 221.768C596.069 221.768 596.798 222.178 597.323 222.998L597.364 221.904ZM597.282 223.989C597.09 223.625 596.876 223.34 596.639 223.135C596.242 222.793 595.816 222.622 595.361 222.622C594.727 222.622 594.246 222.909 593.918 223.483C593.631 223.989 593.488 224.616 593.488 225.363C593.488 226.088 593.638 226.696 593.939 227.188C594.285 227.744 594.773 228.022 595.402 228.022C596.163 228.022 596.789 227.608 597.282 226.778V223.989ZM601.496 225.739C601.574 226.532 601.756 227.122 602.043 227.51C602.435 228.025 603.014 228.282 603.78 228.282C604.431 228.282 605.078 228.059 605.721 227.612L606.131 228.439C605.393 228.904 604.602 229.137 603.759 229.137C602.638 229.137 601.774 228.77 601.168 228.036C600.64 227.394 600.375 226.532 600.375 225.452C600.375 224.144 600.729 223.162 601.435 222.506C601.964 222.014 602.64 221.768 603.465 221.768C604.728 221.768 605.575 222.285 606.008 223.319C606.25 223.903 606.38 224.709 606.398 225.739H601.496ZM605.263 224.885C605.249 224.361 605.158 223.923 604.99 223.572C604.684 222.939 604.165 222.622 603.431 222.622C602.866 222.622 602.412 222.825 602.071 223.23C601.729 223.632 601.547 224.183 601.524 224.885H605.263ZM612.127 229V224.953C612.127 224.064 612.114 223.158 612.086 222.232L612.079 221.904H613.071L613.112 223.21C613.39 222.695 613.684 222.326 613.994 222.103C614.303 221.875 614.673 221.761 615.101 221.761C615.247 221.761 615.413 221.779 615.6 221.815L615.504 222.772C615.372 222.741 615.247 222.725 615.128 222.725C614.604 222.725 614.142 222.989 613.741 223.518C613.513 223.814 613.33 224.144 613.194 224.509V229H612.127ZM617.586 225.739C617.664 226.532 617.846 227.122 618.133 227.51C618.525 228.025 619.104 228.282 619.87 228.282C620.521 228.282 621.168 228.059 621.811 227.612L622.221 228.439C621.483 228.904 620.692 229.137 619.849 229.137C618.728 229.137 617.864 228.77 617.258 228.036C616.73 227.394 616.465 226.532 616.465 225.452C616.465 224.144 616.818 223.162 617.525 222.506C618.053 222.014 618.73 221.768 619.555 221.768C620.817 221.768 621.665 222.285 622.098 223.319C622.34 223.903 622.469 224.709 622.488 225.739H617.586ZM621.353 224.885C621.339 224.361 621.248 223.923 621.08 223.572C620.774 222.939 620.255 222.622 619.521 222.622C618.956 222.622 618.502 222.825 618.161 223.23C617.819 223.632 617.636 224.183 617.614 224.885H621.353ZM629.006 221.904H630.004L629.991 222.287C629.963 223.158 629.95 223.985 629.95 224.769V232.008H628.883V228.029C628.555 228.444 628.241 228.733 627.94 228.897C627.639 229.062 627.275 229.144 626.846 229.144C625.985 229.144 625.292 228.788 624.768 228.077C624.253 227.384 623.996 226.493 623.996 225.404C623.996 224.265 624.287 223.356 624.871 222.677C625.395 222.071 626.035 221.768 626.791 221.768C627.238 221.768 627.632 221.866 627.974 222.062C628.32 222.253 628.651 222.561 628.965 222.984L629.006 221.904ZM628.883 223.921C628.373 223.055 627.746 222.622 627.003 222.622C626.402 222.622 625.942 222.873 625.623 223.374C625.285 223.907 625.117 224.593 625.117 225.432C625.117 226.211 625.26 226.863 625.547 227.387C625.875 227.988 626.365 228.289 627.017 228.289C627.386 228.289 627.71 228.191 627.988 227.995C628.266 227.795 628.564 227.451 628.883 226.963V223.921ZM638.054 221.904V226.689C638.054 227.792 638.072 228.562 638.109 229H637.056L637.015 227.865C636.605 228.307 636.197 228.631 635.791 228.836C635.39 229.036 634.957 229.137 634.493 229.137C633.613 229.137 633.009 228.809 632.681 228.152C632.572 227.938 632.494 227.669 632.449 227.346C632.408 227.022 632.387 226.576 632.387 226.006V221.904H633.454V226.026C633.454 226.742 633.504 227.241 633.604 227.523C633.777 228.029 634.171 228.282 634.787 228.282C635.539 228.282 636.272 227.84 636.988 226.956V221.904H638.054ZM640.663 229V221.904H641.729V229H640.663ZM641.189 218.63C641.412 218.63 641.595 218.701 641.736 218.842C641.877 218.983 641.948 219.163 641.948 219.382C641.948 219.605 641.877 219.787 641.736 219.929C641.595 220.07 641.415 220.141 641.196 220.141C640.973 220.141 640.79 220.07 640.649 219.929C640.508 219.787 640.437 219.603 640.437 219.375C640.437 219.161 640.508 218.983 640.649 218.842C640.795 218.701 640.975 218.63 641.189 218.63ZM644.344 229V224.953C644.344 224.064 644.331 223.158 644.303 222.232L644.296 221.904H645.288L645.329 223.21C645.607 222.695 645.901 222.326 646.21 222.103C646.52 221.875 646.89 221.761 647.318 221.761C647.464 221.761 647.63 221.779 647.817 221.815L647.721 222.772C647.589 222.741 647.464 222.725 647.345 222.725C646.821 222.725 646.359 222.989 645.958 223.518C645.73 223.814 645.547 224.144 645.411 224.509V229H644.344ZM649.803 225.739C649.881 226.532 650.063 227.122 650.35 227.51C650.742 228.025 651.321 228.282 652.087 228.282C652.738 228.282 653.385 228.059 654.028 227.612L654.438 228.439C653.7 228.904 652.909 229.137 652.066 229.137C650.945 229.137 650.081 228.77 649.475 228.036C648.947 227.394 648.682 226.532 648.682 225.452C648.682 224.144 649.035 223.162 649.742 222.506C650.27 222.014 650.947 221.768 651.772 221.768C653.034 221.768 653.882 222.285 654.315 223.319C654.557 223.903 654.686 224.709 654.705 225.739H649.803ZM653.57 224.885C653.556 224.361 653.465 223.923 653.296 223.572C652.991 222.939 652.472 222.622 651.738 222.622C651.173 222.622 650.719 222.825 650.378 223.23C650.036 223.632 649.853 224.183 649.831 224.885H653.57ZM656.753 229V224.215C656.753 223.135 656.734 222.365 656.698 221.904H657.751L657.792 223.025C658.047 222.757 658.284 222.538 658.503 222.369C659.018 221.968 659.578 221.768 660.184 221.768C660.672 221.768 661.075 221.888 661.394 222.13C661.713 222.367 661.93 222.713 662.044 223.169C662.499 222.654 662.912 222.292 663.281 222.082C663.65 221.872 664.067 221.768 664.532 221.768C665.38 221.768 665.961 222.096 666.275 222.752C666.375 222.966 666.446 223.237 666.487 223.565C666.532 223.894 666.555 224.338 666.555 224.898V229H665.489V224.878C665.489 224.167 665.443 223.668 665.352 223.381C665.188 222.875 664.814 222.622 664.231 222.622C663.529 222.622 662.848 223.064 662.187 223.948V229H661.121V224.755C661.121 224.094 661.071 223.629 660.97 223.36C660.783 222.868 660.426 222.622 659.897 222.622C659.191 222.622 658.498 223.064 657.819 223.948V229H656.753ZM669.69 225.739C669.768 226.532 669.95 227.122 670.237 227.51C670.629 228.025 671.208 228.282 671.973 228.282C672.625 228.282 673.272 228.059 673.915 227.612L674.325 228.439C673.587 228.904 672.796 229.137 671.953 229.137C670.832 229.137 669.968 228.77 669.362 228.036C668.833 227.394 668.569 226.532 668.569 225.452C668.569 224.144 668.922 223.162 669.629 222.506C670.157 222.014 670.834 221.768 671.659 221.768C672.921 221.768 673.769 222.285 674.202 223.319C674.443 223.903 674.573 224.709 674.591 225.739H669.69ZM673.457 224.885C673.443 224.361 673.352 223.923 673.183 223.572C672.878 222.939 672.358 222.622 671.625 222.622C671.06 222.622 670.606 222.825 670.264 223.23C669.923 223.632 669.74 224.183 669.717 224.885H673.457ZM676.639 229V224.215C676.639 223.135 676.621 222.365 676.585 221.904H677.637L677.678 223.039C678.116 222.579 678.531 222.253 678.923 222.062C679.319 221.866 679.763 221.768 680.256 221.768C681.153 221.768 681.769 222.096 682.101 222.752C682.206 222.966 682.281 223.237 682.327 223.565C682.372 223.889 682.395 224.333 682.395 224.898V229H681.329V224.878C681.329 224.167 681.279 223.668 681.178 223.381C681.001 222.875 680.593 222.622 679.955 222.622C679.185 222.622 678.435 223.064 677.706 223.948V229H676.639ZM685.325 222.759H684.176V221.904H685.325V220.353L686.391 220.127V221.904H688.066V222.759H686.391V226.635C686.391 227.223 686.441 227.624 686.542 227.838C686.688 228.134 686.956 228.282 687.348 228.282C687.585 228.282 687.856 228.212 688.162 228.07L688.258 228.918C687.847 229.064 687.465 229.137 687.109 229.137C686.457 229.137 685.997 228.964 685.728 228.617C685.459 228.271 685.325 227.681 685.325 226.847V222.759ZM693.591 229V221.904H694.657V229H693.591ZM694.117 218.63C694.34 218.63 694.523 218.701 694.664 218.842C694.805 218.983 694.876 219.163 694.876 219.382C694.876 219.605 694.805 219.787 694.664 219.929C694.523 220.07 694.343 220.141 694.124 220.141C693.9 220.141 693.718 220.07 693.577 219.929C693.436 219.787 693.365 219.603 693.365 219.375C693.365 219.161 693.436 218.983 693.577 218.842C693.723 218.701 693.903 218.63 694.117 218.63ZM696.725 228.651L697.047 227.811C697.698 228.125 698.273 228.282 698.769 228.282C699.175 228.282 699.503 228.173 699.754 227.954C700.004 227.731 700.13 227.441 700.13 227.086C700.13 226.776 700.043 226.546 699.87 226.396C699.701 226.241 699.314 226.047 698.708 225.814C698.316 225.66 698.022 225.53 697.826 225.425C697.635 225.32 697.457 225.19 697.293 225.035C696.933 224.702 696.753 224.274 696.753 223.75C696.753 223.126 696.997 222.624 697.484 222.246C697.899 221.927 698.432 221.768 699.084 221.768C699.749 221.768 700.424 221.943 701.107 222.294L700.786 223.135C700.276 222.793 699.74 222.622 699.179 222.622C698.769 222.622 698.448 222.715 698.216 222.902C697.988 223.085 697.874 223.338 697.874 223.661C697.874 223.948 697.967 224.176 698.154 224.345C698.341 224.509 698.731 224.709 699.323 224.946C699.779 225.133 700.111 225.288 700.321 225.411C700.535 225.534 700.715 225.682 700.861 225.855C701.121 226.152 701.251 226.537 701.251 227.011C701.251 227.694 700.993 228.23 700.478 228.617C700.018 228.964 699.444 229.137 698.756 229.137C698.086 229.137 697.409 228.975 696.725 228.651ZM709.701 229V220.53L707.725 221.788L707.254 220.934L709.81 219.313H710.781V229H709.701ZM716.978 223.976C716.4 223.716 715.974 223.451 715.7 223.183C715.29 222.768 715.085 222.239 715.085 221.597C715.085 220.836 715.365 220.241 715.926 219.812C716.473 219.389 717.181 219.177 718.052 219.177C718.936 219.177 719.658 219.391 720.219 219.819C720.756 220.234 721.025 220.822 721.025 221.583C721.025 222.103 720.898 222.524 720.642 222.848C720.392 223.171 719.925 223.504 719.241 223.846C719.797 224.078 720.235 224.336 720.554 224.618C721.05 225.06 721.299 225.648 721.299 226.382C721.299 227.252 720.996 227.931 720.39 228.419C719.802 228.897 719.016 229.137 718.031 229.137C717.074 229.137 716.297 228.907 715.7 228.446C715.085 227.977 714.777 227.332 714.777 226.512C714.777 225.249 715.511 224.404 716.978 223.976ZM718.366 223.483L718.489 223.422C718.981 223.18 719.339 222.916 719.562 222.629C719.79 222.342 719.904 222.005 719.904 221.617C719.904 221.125 719.738 220.749 719.405 220.489C719.054 220.211 718.601 220.072 718.045 220.072C717.475 220.072 717.026 220.209 716.698 220.482C716.37 220.751 716.206 221.12 716.206 221.59C716.206 221.886 716.274 222.137 716.411 222.342C716.548 222.547 716.78 222.743 717.108 222.93C717.427 223.107 717.847 223.292 718.366 223.483ZM717.963 224.365C716.596 224.766 715.912 225.466 715.912 226.464C715.912 227.015 716.113 227.448 716.514 227.763C716.919 228.082 717.43 228.241 718.045 228.241C718.665 228.241 719.175 228.075 719.576 227.742C719.968 227.423 720.164 227.011 720.164 226.505C720.164 226.035 720.002 225.646 719.679 225.336C719.36 225.026 718.788 224.702 717.963 224.365ZM728.867 229.103L726.071 221.904H727.213L728.833 226.149C729.006 226.614 729.2 227.154 729.414 227.77C729.619 227.168 729.817 226.612 730.009 226.102L731.581 221.904H732.579L729.694 229.602C729.339 230.554 728.97 231.217 728.587 231.591C728.209 231.965 727.712 232.151 727.097 232.151C726.764 232.151 726.415 232.106 726.051 232.015L726.235 231.146C726.518 231.247 726.782 231.297 727.028 231.297C727.324 231.297 727.577 231.224 727.787 231.078C727.997 230.937 728.186 230.704 728.354 230.381C728.555 229.998 728.726 229.572 728.867 229.103ZM734.524 225.739C734.602 226.532 734.784 227.122 735.071 227.51C735.463 228.025 736.042 228.282 736.808 228.282C737.459 228.282 738.106 228.059 738.749 227.612L739.159 228.439C738.421 228.904 737.63 229.137 736.787 229.137C735.666 229.137 734.802 228.77 734.196 228.036C733.668 227.394 733.403 226.532 733.403 225.452C733.403 224.144 733.757 223.162 734.463 222.506C734.992 222.014 735.668 221.768 736.493 221.768C737.756 221.768 738.603 222.285 739.036 223.319C739.278 223.903 739.408 224.709 739.426 225.739H734.524ZM738.291 224.885C738.277 224.361 738.186 223.923 738.018 223.572C737.712 222.939 737.193 222.622 736.459 222.622C735.894 222.622 735.44 222.825 735.099 223.23C734.757 223.632 734.575 224.183 734.552 224.885H738.291ZM745.233 228.173C744.914 228.519 744.591 228.768 744.263 228.918C743.939 229.064 743.556 229.137 743.114 229.137C742.371 229.137 741.804 228.927 741.412 228.508C741.066 228.139 740.893 227.651 740.893 227.045C740.893 226.111 741.287 225.445 742.075 225.049C742.54 224.816 743.226 224.7 744.133 224.7C744.274 224.7 744.614 224.709 745.151 224.728V224.536C745.151 224.021 745.085 223.629 744.953 223.36C744.716 222.868 744.247 222.622 743.545 222.622C742.971 222.622 742.36 222.827 741.713 223.237L741.248 222.472C741.991 222.002 742.795 221.768 743.661 221.768C744.737 221.768 745.473 222.089 745.869 222.731C746.006 222.959 746.097 223.221 746.143 223.518C746.193 223.809 746.218 224.274 746.218 224.912V227.229C746.218 227.959 746.236 228.549 746.272 229H745.281L745.233 228.173ZM745.151 225.541C744.901 225.523 744.636 225.514 744.358 225.514C743.597 225.514 743.044 225.614 742.697 225.814C742.242 226.074 742.014 226.475 742.014 227.018C742.014 227.4 742.128 227.706 742.355 227.934C742.592 228.166 742.909 228.282 743.306 228.282C744.049 228.282 744.664 227.92 745.151 227.195V225.541ZM748.847 229V224.953C748.847 224.064 748.833 223.158 748.806 222.232L748.799 221.904H749.79L749.831 223.21C750.109 222.695 750.403 222.326 750.713 222.103C751.023 221.875 751.392 221.761 751.82 221.761C751.966 221.761 752.133 221.779 752.319 221.815L752.224 222.772C752.092 222.741 751.966 222.725 751.848 222.725C751.324 222.725 750.861 222.989 750.46 223.518C750.232 223.814 750.05 224.144 749.913 224.509V229H748.847ZM753.444 228.651L753.766 227.811C754.417 228.125 754.992 228.282 755.488 228.282C755.894 228.282 756.222 228.173 756.473 227.954C756.723 227.731 756.849 227.441 756.849 227.086C756.849 226.776 756.762 226.546 756.589 226.396C756.42 226.241 756.033 226.047 755.427 225.814C755.035 225.66 754.741 225.53 754.545 225.425C754.354 225.32 754.176 225.19 754.012 225.035C753.652 224.702 753.472 224.274 753.472 223.75C753.472 223.126 753.716 222.624 754.203 222.246C754.618 221.927 755.151 221.768 755.803 221.768C756.468 221.768 757.143 221.943 757.826 222.294L757.505 223.135C756.995 222.793 756.459 222.622 755.899 222.622C755.488 222.622 755.167 222.715 754.935 222.902C754.707 223.085 754.593 223.338 754.593 223.661C754.593 223.948 754.686 224.176 754.873 224.345C755.06 224.509 755.45 224.709 756.042 224.946C756.498 225.133 756.83 225.288 757.04 225.411C757.254 225.534 757.434 225.682 757.58 225.855C757.84 226.152 757.97 226.537 757.97 227.011C757.97 227.694 757.712 228.23 757.197 228.617C756.737 228.964 756.163 229.137 755.475 229.137C754.805 229.137 754.128 228.975 753.444 228.651ZM760.838 227.482C761.075 227.482 761.271 227.562 761.426 227.722C761.585 227.877 761.665 228.073 761.665 228.31C761.665 228.547 761.585 228.745 761.426 228.904C761.271 229.059 761.075 229.137 760.838 229.137C760.601 229.137 760.403 229.059 760.243 228.904C760.088 228.745 760.011 228.542 760.011 228.296C760.011 228.068 760.091 227.877 760.25 227.722C760.41 227.562 760.606 227.482 760.838 227.482Z" fill="#FF7687"/>
<defs>
<filter id="filter0_i_7490_24809" x="500" y="178" width="320" height="34" filterUnits="userSpaceOnUse" color-interpolation-filters="sRGB">
<feFlood flood-opacity="0" result="BackgroundImageFix"/>
<feBlend mode="normal" in="SourceGraphic" in2="BackgroundImageFix" result="shape"/>
<feColorMatrix in="SourceAlpha" type="matrix" values="0 0 0 0 0 0 0 0 0 0 0 0 0 0 0 0 0 0 127 0" result="hardAlpha"/>
<feOffset dy="2"/>
<feGaussianBlur stdDeviation="2"/>
<feComposite in2="hardAlpha" operator="arithmetic" k2="-1" k3="1"/>
<feColorMatrix type="matrix" values="0 0 0 0 0 0 0 0 0 0 0 0 0 0 0 0 0 0 0.6 0"/>
<feBlend mode="normal" in2="shape" result="effect1_innerShadow_7490_24809"/>
</filter>
<clipPath id="clip0_7490_24809">
<rect x="500" y="178" width="320" height="32" rx="2" fill="white"/>
</clipPath>
</defs>
</svg>
