<svg width="896" height="360" viewBox="0 0 896 360" fill="none" xmlns="http://www.w3.org/2000/svg">
<g clip-path="url(#clip0_7490_360)">
<rect width="896" height="360" fill="#B95CC9"/>
<path d="M301.152 148V98.1836H314.477C317.945 98.1836 320.617 98.3477 322.492 98.6758C324.367 99.0039 326.078 99.6016 327.625 100.469C329.359 101.453 330.719 102.918 331.703 104.863C332.711 106.785 333.215 108.941 333.215 111.332C333.215 117.309 330.32 121.047 324.531 122.547C331.023 123.906 334.27 127.797 334.27 134.219C334.27 139.352 332.371 143.125 328.574 145.539C327.121 146.453 325.48 147.098 323.652 147.473C321.848 147.824 319.316 148 316.059 148H301.152ZM309.73 119.664H313.738C317.535 119.664 320.137 119.219 321.543 118.328C323.441 117.156 324.391 115.176 324.391 112.387C324.391 109.48 323.477 107.441 321.648 106.27C320.758 105.684 319.738 105.297 318.59 105.109C317.441 104.898 315.719 104.793 313.422 104.793H309.73V119.664ZM309.73 141.391H313.809C316.223 141.391 317.98 141.32 319.082 141.18C320.207 141.016 321.203 140.699 322.07 140.23C324.227 139.082 325.305 136.902 325.305 133.691C325.305 130.574 324.086 128.371 321.648 127.082C320.008 126.215 317.43 125.781 313.914 125.781H309.73V141.391ZM375.216 111.297V135.098C375.216 139.48 375.322 143.781 375.533 148H367.623L367.341 142.586C365.209 144.836 363.17 146.441 361.224 147.402C359.279 148.34 357.052 148.809 354.545 148.809C349.787 148.809 346.506 147.086 344.701 143.641C343.646 141.625 343.119 138.203 343.119 133.375V111.297H351.521V132.953C351.521 135.883 351.756 137.957 352.224 139.176C353.045 141.285 354.744 142.34 357.322 142.34C360.65 142.34 363.814 140.266 366.814 136.117V111.297H375.216ZM386.773 148V125.113C386.773 120.496 386.667 115.891 386.456 111.297H394.366L394.648 118.188C396.827 113.195 400.062 110.699 404.351 110.699C405.359 110.699 406.425 110.84 407.55 111.121L407.058 118.574C405.98 118.34 405.042 118.223 404.245 118.223C402.136 118.223 400.284 118.961 398.691 120.438C397.12 121.891 395.937 123.965 395.14 126.66V148H386.773ZM413.798 148V124.164C413.798 120.508 413.727 117.004 413.587 113.652L413.481 111.297H421.392L421.673 116.711C423.852 114.438 425.915 112.832 427.86 111.895C429.829 110.957 432.102 110.488 434.681 110.488C439.509 110.488 442.837 112.211 444.665 115.656C445.743 117.648 446.282 121.07 446.282 125.922V148H437.88V126.344C437.88 123.414 437.645 121.34 437.177 120.121C436.333 118.012 434.575 116.957 431.903 116.957C428.481 116.957 425.247 119.031 422.2 123.18V148H413.798ZM463.569 132.32C463.85 135.344 464.624 137.629 465.889 139.176C467.764 141.402 470.53 142.516 474.186 142.516C477.795 142.516 481.428 141.332 485.085 138.965L488.073 145.152C483.831 147.59 479.131 148.809 473.975 148.809C467.506 148.809 462.608 146.992 459.28 143.359C456.256 140.102 454.745 135.566 454.745 129.754C454.745 123.613 456.456 118.773 459.877 115.234C462.901 112.094 467.049 110.523 472.323 110.523C480.081 110.523 485.12 113.523 487.44 119.523C488.588 122.5 489.186 126.766 489.233 132.32H463.569ZM480.62 126.379C480.549 124.199 480.127 122.336 479.354 120.789C477.971 118.094 475.627 116.746 472.323 116.746C469.768 116.746 467.706 117.602 466.135 119.312C464.588 121.023 463.756 123.379 463.639 126.379H480.62ZM520.617 95.3711H529.02V135.098C529.02 140.488 529.125 144.789 529.336 148H521.285L521.004 142.762C519.387 144.965 517.735 146.523 516.047 147.438C514.36 148.352 512.309 148.809 509.895 148.809C505.137 148.809 501.434 146.91 498.785 143.113C496.324 139.598 495.094 135.098 495.094 129.613C495.094 123.66 496.547 118.891 499.453 115.305C502.055 112.117 505.535 110.523 509.895 110.523C514.207 110.523 517.781 112.328 520.617 115.938V95.3711ZM520.617 123.074C518.297 119.02 515.461 116.992 512.11 116.992C509.438 116.992 507.387 118.164 505.957 120.508C504.527 122.875 503.813 125.875 503.813 129.508C503.813 133.047 504.469 136.035 505.781 138.473C507.188 141.051 509.227 142.34 511.899 142.34C515.156 142.34 518.063 140.23 520.617 136.012V123.074ZM559.902 117.695H553.996V111.297H559.902V103.316L568.304 101.699V111.297H576.671V117.695H568.304V134.746C568.304 137.23 568.55 138.953 569.042 139.914C569.769 141.344 571.164 142.059 573.226 142.059C574.257 142.059 575.581 141.754 577.199 141.145L577.937 147.578C575.359 148.398 572.863 148.809 570.449 148.809C566.3 148.809 563.382 147.543 561.695 145.012C560.499 143.207 559.902 139.938 559.902 135.203V117.695ZM598.985 110.523C604.868 110.523 609.415 112.434 612.626 116.254C615.509 119.676 616.95 124.141 616.95 129.648C616.95 135.672 615.251 140.43 611.853 143.922C608.712 147.18 604.411 148.809 598.95 148.809C593.067 148.809 588.521 146.898 585.31 143.078C582.427 139.656 580.985 135.109 580.985 129.438C580.985 123.555 582.685 118.867 586.083 115.375C589.247 112.141 593.548 110.523 598.985 110.523ZM598.95 116.922C595.528 116.922 592.997 118.527 591.357 121.738C590.255 123.871 589.704 126.473 589.704 129.543C589.704 133.574 590.524 136.727 592.165 139C593.806 141.273 596.067 142.41 598.95 142.41C601.857 142.41 604.13 141.285 605.771 139.035C607.411 136.762 608.232 133.633 608.232 129.648C608.232 125.688 607.399 122.582 605.735 120.332C604.095 118.059 601.833 116.922 598.95 116.922ZM645.698 143.816C643.987 145.645 642.264 146.934 640.53 147.684C638.819 148.434 636.768 148.809 634.378 148.809C630.581 148.809 627.663 147.801 625.624 145.785C623.561 143.793 622.53 141.098 622.53 137.699C622.53 133.105 624.393 129.73 628.12 127.574C630.464 126.215 634.167 125.535 639.229 125.535C640.565 125.535 642.569 125.605 645.241 125.746V125.078C645.241 119.523 642.534 116.746 637.12 116.746C634.049 116.746 630.745 117.766 627.206 119.805L624.956 113.758C629.221 111.602 633.639 110.523 638.21 110.523C644.139 110.523 648.382 112.117 650.936 115.305C651.967 116.617 652.671 118.141 653.046 119.875C653.444 121.609 653.643 124.211 653.643 127.68V138.648C653.643 142.539 653.76 145.656 653.995 148H646.014L645.698 143.816ZM645.241 131.02C643.858 130.902 642.592 130.844 641.444 130.844C638.046 130.844 635.596 131.312 634.096 132.25C632.198 133.445 631.249 135.203 631.249 137.523C631.249 139.188 631.764 140.535 632.796 141.566C633.827 142.574 635.21 143.078 636.944 143.078C640.155 143.078 642.921 141.367 645.241 137.945V131.02ZM662.457 145.926L664.707 139.492C666.723 140.641 668.422 141.438 669.805 141.883C671.211 142.305 672.735 142.516 674.375 142.516C676.297 142.516 677.785 142.105 678.84 141.285C679.918 140.441 680.457 139.293 680.457 137.84C680.457 136.457 679.977 135.414 679.016 134.711C678.266 134.195 676.297 133.363 673.11 132.215C670.907 131.441 669.289 130.797 668.258 130.281C667.227 129.742 666.289 129.098 665.446 128.348C663.594 126.707 662.668 124.457 662.668 121.598C662.668 118.059 663.992 115.281 666.641 113.266C669.032 111.438 672.231 110.523 676.239 110.523C680.059 110.523 684.032 111.391 688.157 113.125L685.977 119.594C682.789 117.719 679.649 116.781 676.555 116.781C674.844 116.781 673.485 117.156 672.477 117.906C671.469 118.656 670.965 119.676 670.965 120.965C670.965 122.324 671.633 123.379 672.969 124.129C673.742 124.551 675.664 125.336 678.735 126.484C682.485 127.891 685.098 129.355 686.575 130.879C688.051 132.426 688.789 134.477 688.789 137.031C688.789 140.453 687.547 143.254 685.063 145.434C682.508 147.684 678.992 148.809 674.516 148.809C670.274 148.809 666.254 147.848 662.457 145.926ZM699.713 117.695H693.807V111.297H699.713V103.316L708.115 101.699V111.297H716.482V117.695H708.115V134.746C708.115 137.23 708.361 138.953 708.853 139.914C709.58 141.344 710.975 142.059 713.037 142.059C714.068 142.059 715.393 141.754 717.01 141.145L717.748 147.578C715.17 148.398 712.674 148.809 710.26 148.809C706.111 148.809 703.193 147.543 701.506 145.012C700.31 143.207 699.713 139.938 699.713 135.203V117.695ZM721.429 145.926L723.679 139.492C725.695 140.641 727.394 141.438 728.777 141.883C730.183 142.305 731.707 142.516 733.347 142.516C735.269 142.516 736.757 142.105 737.812 141.285C738.89 140.441 739.429 139.293 739.429 137.84C739.429 136.457 738.949 135.414 737.988 134.711C737.238 134.195 735.269 133.363 732.082 132.215C729.879 131.441 728.261 130.797 727.23 130.281C726.199 129.742 725.261 129.098 724.418 128.348C722.566 126.707 721.64 124.457 721.64 121.598C721.64 118.059 722.964 115.281 725.613 113.266C728.004 111.438 731.203 110.523 735.211 110.523C739.031 110.523 743.004 111.391 747.129 113.125L744.949 119.594C741.761 117.719 738.621 116.781 735.527 116.781C733.816 116.781 732.457 117.156 731.449 117.906C730.441 118.656 729.937 119.676 729.937 120.965C729.937 122.324 730.605 123.379 731.941 124.129C732.714 124.551 734.636 125.336 737.707 126.484C741.457 127.891 744.07 129.355 745.546 130.879C747.023 132.426 747.761 134.477 747.761 137.031C747.761 140.453 746.519 143.254 744.035 145.434C741.48 147.684 737.964 148.809 733.488 148.809C729.246 148.809 725.226 147.848 721.429 145.926Z" fill="#000028"/>
<path d="M298.076 217V192.092H312.648V195.607H302.436V202.604H312.139V206.119H302.436V213.484H313.176V217H298.076ZM318.901 217V201.848H315.966V198.648H318.901V197.436C318.901 195.232 319.235 193.592 319.903 192.514C320.841 191.014 322.44 190.264 324.702 190.264C325.745 190.264 326.858 190.428 328.042 190.756L327.708 194.113C326.958 193.773 326.249 193.604 325.581 193.604C324.69 193.604 324.052 193.926 323.665 194.57C323.29 195.215 323.102 196.299 323.102 197.822V198.648H327.304V201.848H323.102V217H318.901ZM332.607 217V201.848H329.672V198.648H332.607V197.436C332.607 195.232 332.941 193.592 333.609 192.514C334.547 191.014 336.146 190.264 338.408 190.264C339.451 190.264 340.564 190.428 341.748 190.756L341.414 194.113C340.664 193.773 339.955 193.604 339.287 193.604C338.396 193.604 337.757 193.926 337.371 194.57C336.996 195.215 336.808 196.299 336.808 197.822V198.648H341.009V201.848H336.808V217H332.607ZM347.368 209.16C347.508 210.672 347.895 211.814 348.528 212.588C349.465 213.701 350.848 214.258 352.676 214.258C354.481 214.258 356.297 213.666 358.125 212.482L359.62 215.576C357.498 216.795 355.149 217.404 352.571 217.404C349.336 217.404 346.887 216.496 345.223 214.68C343.711 213.051 342.956 210.783 342.956 207.877C342.956 204.807 343.811 202.387 345.522 200.617C347.034 199.047 349.108 198.262 351.745 198.262C355.623 198.262 358.143 199.762 359.303 202.762C359.877 204.25 360.176 206.383 360.2 209.16H347.368ZM355.893 206.189C355.858 205.1 355.647 204.168 355.26 203.395C354.569 202.047 353.397 201.373 351.745 201.373C350.467 201.373 349.436 201.801 348.651 202.656C347.877 203.512 347.461 204.689 347.403 206.189H355.893ZM376.824 212.746L378.177 215.822C376.49 216.877 374.503 217.404 372.218 217.404C369.347 217.404 367.103 216.537 365.486 214.803C363.915 213.104 363.13 210.801 363.13 207.895C363.13 204.789 363.962 202.357 365.626 200.6C367.115 199.029 369.183 198.244 371.831 198.244C373.882 198.244 375.868 198.707 377.79 199.633L376.525 202.779C375.095 201.877 373.683 201.426 372.288 201.426C370.648 201.426 369.435 202.018 368.65 203.201C367.876 204.35 367.49 205.885 367.49 207.807C367.49 209.799 367.941 211.369 368.843 212.518C369.734 213.619 370.993 214.17 372.622 214.17C374.064 214.17 375.464 213.695 376.824 212.746ZM382.602 201.848H379.649V198.648H382.602V194.658L386.803 193.85V198.648H390.986V201.848H386.803V210.373C386.803 211.615 386.926 212.477 387.172 212.957C387.535 213.672 388.232 214.029 389.264 214.029C389.779 214.029 390.441 213.877 391.25 213.572L391.619 216.789C390.33 217.199 389.082 217.404 387.875 217.404C385.801 217.404 384.342 216.771 383.498 215.506C382.9 214.604 382.602 212.969 382.602 210.602V201.848ZM394.796 217V198.648H398.997V217H394.796ZM396.905 190.053C397.667 190.053 398.288 190.299 398.768 190.791C399.261 191.283 399.507 191.916 399.507 192.689C399.507 193.451 399.261 194.084 398.768 194.588C398.288 195.08 397.673 195.326 396.923 195.326C396.149 195.326 395.517 195.08 395.024 194.588C394.544 194.084 394.304 193.439 394.304 192.654C394.304 191.904 394.55 191.283 395.042 190.791C395.534 190.299 396.155 190.053 396.905 190.053ZM409.099 217L402.156 198.648H406.515L410.312 208.809C410.84 210.227 411.297 211.562 411.683 212.816C412.058 211.562 412.509 210.215 413.037 208.773L416.728 198.648H420.736L413.863 217H409.099ZM426.338 209.16C426.479 210.672 426.866 211.814 427.499 212.588C428.436 213.701 429.819 214.258 431.647 214.258C433.452 214.258 435.268 213.666 437.096 212.482L438.59 215.576C436.469 216.795 434.12 217.404 431.542 217.404C428.307 217.404 425.858 216.496 424.194 214.68C422.682 213.051 421.926 210.783 421.926 207.877C421.926 204.807 422.782 202.387 424.493 200.617C426.004 199.047 428.079 198.262 430.715 198.262C434.594 198.262 437.114 199.762 438.274 202.762C438.848 204.25 439.147 206.383 439.17 209.16H426.338ZM434.864 206.189C434.829 205.1 434.618 204.168 434.231 203.395C433.54 202.047 432.368 201.373 430.715 201.373C429.438 201.373 428.407 201.801 427.622 202.656C426.848 203.512 426.432 204.689 426.374 206.189H434.864ZM452.274 217V205.082C452.274 203.254 452.238 201.525 452.168 199.896L452.115 198.648H456.07L456.211 201.355C457.207 200.242 458.174 199.445 459.111 198.965C460.049 198.484 461.11 198.244 462.293 198.244C464.824 198.244 466.483 199.363 467.268 201.602C468.322 200.371 469.319 199.504 470.256 199C471.194 198.496 472.272 198.244 473.49 198.244C475.776 198.244 477.352 199.105 478.219 200.828C478.735 201.848 478.992 203.559 478.992 205.961V217H474.791V206.172C474.791 204.695 474.686 203.658 474.475 203.061C474.088 202.006 473.297 201.479 472.102 201.479C470.555 201.479 469.096 202.516 467.725 204.59V217H463.524V205.75C463.524 204.438 463.383 203.477 463.102 202.867C462.692 201.941 461.971 201.479 460.94 201.479C459.381 201.479 457.893 202.516 456.475 204.59V217H452.274ZM487.636 209.16C487.776 210.672 488.163 211.814 488.796 212.588C489.733 213.701 491.116 214.258 492.944 214.258C494.749 214.258 496.565 213.666 498.394 212.482L499.888 215.576C497.767 216.795 495.417 217.404 492.839 217.404C489.604 217.404 487.155 216.496 485.491 214.68C483.979 213.051 483.224 210.783 483.224 207.877C483.224 204.807 484.079 202.387 485.79 200.617C487.302 199.047 489.376 198.262 492.013 198.262C495.892 198.262 498.411 199.762 499.571 202.762C500.145 204.25 500.444 206.383 500.468 209.16H487.636ZM496.161 206.189C496.126 205.1 495.915 204.168 495.528 203.395C494.837 202.047 493.665 201.373 492.013 201.373C490.735 201.373 489.704 201.801 488.919 202.656C488.145 203.512 487.729 204.689 487.671 206.189H496.161ZM503.398 215.963L504.523 212.746C505.531 213.32 506.381 213.719 507.072 213.941C507.775 214.152 508.537 214.258 509.357 214.258C510.318 214.258 511.062 214.053 511.59 213.643C512.129 213.221 512.398 212.646 512.398 211.92C512.398 211.229 512.158 210.707 511.678 210.355C511.303 210.098 510.318 209.682 508.724 209.107C507.623 208.721 506.814 208.398 506.299 208.141C505.783 207.871 505.314 207.549 504.892 207.174C503.967 206.354 503.504 205.229 503.504 203.799C503.504 202.029 504.166 200.641 505.49 199.633C506.685 198.719 508.285 198.262 510.289 198.262C512.199 198.262 514.185 198.695 516.248 199.562L515.158 202.797C513.564 201.859 511.994 201.391 510.447 201.391C509.592 201.391 508.912 201.578 508.408 201.953C507.904 202.328 507.652 202.838 507.652 203.482C507.652 204.162 507.986 204.689 508.654 205.064C509.041 205.275 510.002 205.668 511.537 206.242C513.412 206.945 514.719 207.678 515.457 208.439C516.195 209.213 516.564 210.238 516.564 211.516C516.564 213.227 515.943 214.627 514.701 215.717C513.424 216.842 511.666 217.404 509.428 217.404C507.306 217.404 505.297 216.924 503.398 215.963ZM519.213 215.963L520.338 212.746C521.346 213.32 522.196 213.719 522.887 213.941C523.59 214.152 524.352 214.258 525.172 214.258C526.133 214.258 526.878 214.053 527.405 213.643C527.944 213.221 528.213 212.646 528.213 211.92C528.213 211.229 527.973 210.707 527.493 210.355C527.118 210.098 526.133 209.682 524.54 209.107C523.438 208.721 522.63 208.398 522.114 208.141C521.598 207.871 521.13 207.549 520.708 207.174C519.782 206.354 519.319 205.229 519.319 203.799C519.319 202.029 519.981 200.641 521.305 199.633C522.501 198.719 524.1 198.262 526.104 198.262C528.014 198.262 530.001 198.695 532.063 199.562L530.973 202.797C529.38 201.859 527.809 201.391 526.262 201.391C525.407 201.391 524.727 201.578 524.223 201.953C523.719 202.328 523.467 202.838 523.467 203.482C523.467 204.162 523.801 204.689 524.469 205.064C524.856 205.275 525.817 205.668 527.352 206.242C529.227 206.945 530.534 207.678 531.272 208.439C532.01 209.213 532.38 210.238 532.38 211.516C532.38 213.227 531.758 214.627 530.516 215.717C529.239 216.842 527.481 217.404 525.243 217.404C523.122 217.404 521.112 216.924 519.213 215.963ZM546.753 214.908C545.898 215.822 545.037 216.467 544.169 216.842C543.314 217.217 542.288 217.404 541.093 217.404C539.195 217.404 537.736 216.9 536.716 215.893C535.685 214.896 535.169 213.549 535.169 211.85C535.169 209.553 536.101 207.865 537.964 206.787C539.136 206.107 540.988 205.768 543.519 205.768C544.187 205.768 545.189 205.803 546.525 205.873V205.539C546.525 202.762 545.171 201.373 542.464 201.373C540.929 201.373 539.277 201.883 537.507 202.902L536.382 199.879C538.515 198.801 540.724 198.262 543.009 198.262C545.974 198.262 548.095 199.059 549.372 200.652C549.888 201.309 550.24 202.07 550.427 202.938C550.626 203.805 550.726 205.105 550.726 206.84V212.324C550.726 214.27 550.785 215.828 550.902 217H546.912L546.753 214.908ZM546.525 208.51C545.833 208.451 545.201 208.422 544.626 208.422C542.927 208.422 541.703 208.656 540.953 209.125C540.003 209.723 539.529 210.602 539.529 211.762C539.529 212.594 539.787 213.268 540.302 213.783C540.818 214.287 541.509 214.539 542.376 214.539C543.982 214.539 545.365 213.684 546.525 211.973V208.51ZM568.299 198.648H572.342L572.289 199.896C572.196 202.404 572.149 204.396 572.149 205.873V214.908C572.149 217.006 572.037 218.553 571.815 219.549C571.604 220.557 571.188 221.459 570.567 222.256C569.043 224.189 566.53 225.156 563.026 225.156C560.459 225.156 558.086 224.611 555.906 223.521L557.242 220.375C559 221.43 560.823 221.957 562.709 221.957C564.971 221.957 566.5 221.184 567.297 219.637C567.731 218.781 567.948 217.305 567.948 215.207V213.889C566.401 215.682 564.584 216.578 562.498 216.578C560.283 216.578 558.485 215.734 557.102 214.047C555.789 212.453 555.133 210.268 555.133 207.49C555.133 204.748 555.813 202.51 557.172 200.775C558.496 199.1 560.278 198.262 562.516 198.262C564.918 198.262 566.805 199.24 568.176 201.197L568.299 198.648ZM567.948 204.854C567.596 204.057 567.162 203.406 566.647 202.902C565.698 201.965 564.649 201.496 563.5 201.496C562.141 201.496 561.11 202.135 560.406 203.412C559.797 204.514 559.492 205.885 559.492 207.525C559.492 209.143 559.815 210.479 560.459 211.533C561.186 212.74 562.235 213.344 563.606 213.344C564.461 213.344 565.27 213.068 566.031 212.518C566.805 211.967 567.444 211.199 567.948 210.215V204.854ZM577.909 217V198.648H582.11V217H577.909ZM580.019 190.053C580.78 190.053 581.401 190.299 581.882 190.791C582.374 191.283 582.62 191.916 582.62 192.689C582.62 193.451 582.374 194.084 581.882 194.588C581.401 195.08 580.786 195.326 580.036 195.326C579.263 195.326 578.63 195.08 578.138 194.588C577.657 194.084 577.417 193.439 577.417 192.654C577.417 191.904 577.663 191.283 578.155 190.791C578.648 190.299 579.269 190.053 580.019 190.053ZM587.836 217V205.082C587.836 203.254 587.801 201.502 587.73 199.826L587.678 198.648H591.633L591.773 201.355C592.863 200.219 593.894 199.416 594.867 198.947C595.851 198.479 596.988 198.244 598.277 198.244C600.691 198.244 602.355 199.105 603.269 200.828C603.808 201.824 604.078 203.535 604.078 205.961V217H599.877V206.172C599.877 204.707 599.76 203.67 599.525 203.061C599.103 202.006 598.224 201.479 596.889 201.479C595.178 201.479 593.56 202.516 592.037 204.59V217H587.836ZM621.475 198.648H625.518L625.466 199.896C625.372 202.404 625.325 204.396 625.325 205.873V214.908C625.325 217.006 625.214 218.553 624.991 219.549C624.78 220.557 624.364 221.459 623.743 222.256C622.219 224.189 619.706 225.156 616.202 225.156C613.635 225.156 611.262 224.611 609.083 223.521L610.419 220.375C612.176 221.43 613.999 221.957 615.885 221.957C618.147 221.957 619.676 221.184 620.473 219.637C620.907 218.781 621.124 217.305 621.124 215.207V213.889C619.577 215.682 617.76 216.578 615.674 216.578C613.46 216.578 611.661 215.734 610.278 214.047C608.966 212.453 608.309 210.268 608.309 207.49C608.309 204.748 608.989 202.51 610.348 200.775C611.673 199.1 613.454 198.262 615.692 198.262C618.094 198.262 619.981 199.24 621.352 201.197L621.475 198.648ZM621.124 204.854C620.772 204.057 620.339 203.406 619.823 202.902C618.874 201.965 617.825 201.496 616.676 201.496C615.317 201.496 614.286 202.135 613.583 203.412C612.973 204.514 612.669 205.885 612.669 207.525C612.669 209.143 612.991 210.479 613.635 211.533C614.362 212.74 615.411 213.344 616.782 213.344C617.637 213.344 618.446 213.068 619.208 212.518C619.981 211.967 620.62 211.199 621.124 210.215V204.854ZM649.907 214.908C649.051 215.822 648.19 216.467 647.323 216.842C646.467 217.217 645.442 217.404 644.246 217.404C642.348 217.404 640.889 216.9 639.869 215.893C638.838 214.896 638.323 213.549 638.323 211.85C638.323 209.553 639.254 207.865 641.117 206.787C642.289 206.107 644.141 205.768 646.672 205.768C647.34 205.768 648.342 205.803 649.678 205.873V205.539C649.678 202.762 648.325 201.373 645.617 201.373C644.082 201.373 642.43 201.883 640.66 202.902L639.535 199.879C641.668 198.801 643.877 198.262 646.162 198.262C649.127 198.262 651.248 199.059 652.526 200.652C653.041 201.309 653.393 202.07 653.58 202.938C653.78 203.805 653.879 205.105 653.879 206.84V212.324C653.879 214.27 653.938 215.828 654.055 217H650.065L649.907 214.908ZM649.678 208.51C648.987 208.451 648.354 208.422 647.78 208.422C646.08 208.422 644.856 208.656 644.106 209.125C643.157 209.723 642.682 210.602 642.682 211.762C642.682 212.594 642.94 213.268 643.455 213.783C643.971 214.287 644.662 214.539 645.53 214.539C647.135 214.539 648.518 213.684 649.678 211.973V208.51ZM659.587 224.734V206.014C659.587 203.049 659.534 200.594 659.429 198.648H663.454L663.595 201.18C664.427 200.137 665.276 199.387 666.144 198.93C667.011 198.473 668.019 198.244 669.167 198.244C671.523 198.244 673.357 199.182 674.669 201.057C675.923 202.826 676.55 205.07 676.55 207.789C676.55 210.789 675.823 213.191 674.37 214.996C673.069 216.602 671.323 217.404 669.132 217.404C666.952 217.404 665.171 216.49 663.788 214.662V224.734H659.587ZM663.788 211.006C665.089 213.115 666.542 214.17 668.148 214.17C669.484 214.17 670.503 213.52 671.206 212.219C671.862 211 672.191 209.506 672.191 207.736C672.191 205.92 671.833 204.42 671.118 203.236C670.403 202.064 669.378 201.479 668.042 201.479C666.46 201.479 665.042 202.486 663.788 204.502V211.006ZM680.852 224.734V206.014C680.852 203.049 680.799 200.594 680.693 198.648H684.719L684.859 201.18C685.691 200.137 686.541 199.387 687.408 198.93C688.275 198.473 689.283 198.244 690.432 198.244C692.787 198.244 694.621 199.182 695.934 201.057C697.187 202.826 697.814 205.07 697.814 207.789C697.814 210.789 697.088 213.191 695.635 214.996C694.334 216.602 692.588 217.404 690.396 217.404C688.217 217.404 686.435 216.49 685.053 214.662V224.734H680.852ZM685.053 211.006C686.353 213.115 687.807 214.17 689.412 214.17C690.748 214.17 691.768 213.52 692.471 212.219C693.127 211 693.455 209.506 693.455 207.736C693.455 205.92 693.098 204.42 692.383 203.236C691.668 202.064 690.643 201.479 689.307 201.479C687.725 201.479 686.307 202.486 685.053 204.502V211.006ZM702.221 217V205.557C702.221 203.248 702.169 200.945 702.063 198.648H706.018L706.159 202.094C707.249 199.598 708.866 198.35 711.011 198.35C711.514 198.35 712.048 198.42 712.61 198.561L712.364 202.287C711.825 202.17 711.356 202.111 710.958 202.111C709.903 202.111 708.977 202.48 708.18 203.219C707.395 203.945 706.803 204.982 706.405 206.33V217H702.221ZM723.205 198.262C726.146 198.262 728.42 199.217 730.025 201.127C731.466 202.838 732.187 205.07 732.187 207.824C732.187 210.836 731.337 213.215 729.638 214.961C728.068 216.59 725.918 217.404 723.187 217.404C720.246 217.404 717.972 216.449 716.367 214.539C714.925 212.828 714.205 210.555 714.205 207.719C714.205 204.777 715.054 202.434 716.754 200.688C718.336 199.07 720.486 198.262 723.205 198.262ZM723.187 201.461C721.476 201.461 720.211 202.264 719.39 203.869C718.839 204.936 718.564 206.236 718.564 207.771C718.564 209.787 718.974 211.363 719.795 212.5C720.615 213.637 721.746 214.205 723.187 214.205C724.64 214.205 725.777 213.643 726.597 212.518C727.418 211.381 727.828 209.816 727.828 207.824C727.828 205.844 727.412 204.291 726.58 203.166C725.759 202.029 724.629 201.461 723.187 201.461ZM746.561 214.908C745.705 215.822 744.844 216.467 743.977 216.842C743.121 217.217 742.096 217.404 740.901 217.404C739.002 217.404 737.543 216.9 736.524 215.893C735.493 214.896 734.977 213.549 734.977 211.85C734.977 209.553 735.909 207.865 737.772 206.787C738.944 206.107 740.795 205.768 743.327 205.768C743.995 205.768 744.996 205.803 746.332 205.873V205.539C746.332 202.762 744.979 201.373 742.272 201.373C740.737 201.373 739.084 201.883 737.315 202.902L736.19 199.879C738.323 198.801 740.532 198.262 742.817 198.262C745.782 198.262 747.903 199.059 749.18 200.652C749.696 201.309 750.047 202.07 750.235 202.938C750.434 203.805 750.534 205.105 750.534 206.84V212.324C750.534 214.27 750.592 215.828 750.709 217H746.719L746.561 214.908ZM746.332 208.51C745.641 208.451 745.008 208.422 744.434 208.422C742.735 208.422 741.51 208.656 740.76 209.125C739.811 209.723 739.336 210.602 739.336 211.762C739.336 212.594 739.594 213.268 740.11 213.783C740.625 214.287 741.317 214.539 742.184 214.539C743.789 214.539 745.172 213.684 746.332 211.973V208.51ZM768.634 212.746L769.988 215.822C768.3 216.877 766.314 217.404 764.029 217.404C761.157 217.404 758.913 216.537 757.296 214.803C755.726 213.104 754.941 210.801 754.941 207.895C754.941 204.789 755.773 202.357 757.437 200.6C758.925 199.029 760.993 198.244 763.642 198.244C765.693 198.244 767.679 198.707 769.601 199.633L768.335 202.779C766.905 201.877 765.493 201.426 764.099 201.426C762.458 201.426 761.245 202.018 760.46 203.201C759.687 204.35 759.3 205.885 759.3 207.807C759.3 209.799 759.751 211.369 760.654 212.518C761.544 213.619 762.804 214.17 764.433 214.17C765.874 214.17 767.275 213.695 768.634 212.746ZM773.182 217V190.686H777.383V201.109C779.223 199.211 781.309 198.262 783.641 198.262C786.055 198.262 787.719 199.123 788.633 200.846C789.172 201.842 789.441 203.547 789.441 205.961V217H785.24V206.189C785.24 204.713 785.123 203.676 784.889 203.078C784.467 202.023 783.588 201.496 782.252 201.496C780.541 201.496 778.924 202.527 777.4 204.59V217H773.182ZM798.085 209.16C798.225 210.672 798.612 211.814 799.245 212.588C800.182 213.701 801.565 214.258 803.393 214.258C805.198 214.258 807.014 213.666 808.843 212.482L810.337 215.576C808.216 216.795 805.866 217.404 803.288 217.404C800.054 217.404 797.604 216.496 795.94 214.68C794.429 213.051 793.673 210.783 793.673 207.877C793.673 204.807 794.528 202.387 796.239 200.617C797.751 199.047 799.825 198.262 802.462 198.262C806.341 198.262 808.86 199.762 810.02 202.762C810.595 204.25 810.893 206.383 810.917 209.16H798.085ZM806.61 206.189C806.575 205.1 806.364 204.168 805.977 203.395C805.286 202.047 804.114 201.373 802.462 201.373C801.184 201.373 800.153 201.801 799.368 202.656C798.595 203.512 798.179 204.689 798.12 206.189H806.61ZM813.847 215.963L814.972 212.746C815.98 213.32 816.83 213.719 817.521 213.941C818.224 214.152 818.986 214.258 819.806 214.258C820.767 214.258 821.511 214.053 822.039 213.643C822.578 213.221 822.847 212.646 822.847 211.92C822.847 211.229 822.607 210.707 822.127 210.355C821.752 210.098 820.767 209.682 819.174 209.107C818.072 208.721 817.263 208.398 816.748 208.141C816.232 207.871 815.763 207.549 815.341 207.174C814.416 206.354 813.953 205.229 813.953 203.799C813.953 202.029 814.615 200.641 815.939 199.633C817.134 198.719 818.734 198.262 820.738 198.262C822.648 198.262 824.634 198.695 826.697 199.562L825.607 202.797C824.013 201.859 822.443 201.391 820.896 201.391C820.041 201.391 819.361 201.578 818.857 201.953C818.353 202.328 818.101 202.838 818.101 203.482C818.101 204.162 818.435 204.689 819.103 205.064C819.49 205.275 820.451 205.668 821.986 206.242C823.861 206.945 825.168 207.678 825.906 208.439C826.644 209.213 827.013 210.238 827.013 211.516C827.013 213.227 826.392 214.627 825.15 215.717C823.873 216.842 822.115 217.404 819.877 217.404C817.756 217.404 815.746 216.924 813.847 215.963Z" fill="#000028"/>
<path fill-rule="evenodd" clip-rule="evenodd" d="M247.625 155.167V320.25H188.667V367.417L106.125 320.25H35.375V155.167H247.625ZM224.042 178.75H58.9583V296.667H112.388L165.083 326.771V296.667H224.042V178.75Z" fill="#000028"/>
</g>
<defs>
<clipPath id="clip0_7490_360">
<rect width="896" height="360" fill="white"/>
</clipPath>
</defs>
</svg>
