<svg width="896" height="360" viewBox="0 0 896 360" fill="none" xmlns="http://www.w3.org/2000/svg">
<rect width="896" height="360" fill="#23233C"/>
<path d="M56.4688 103V58.7188H64.2188V103H56.4688ZM74.6785 103V81.8125C74.6785 78.5625 74.616 75.4479 74.491 72.4688L74.3972 70.375H81.4285L81.6785 75.1875C83.616 73.1667 85.4493 71.7396 87.1785 70.9062C88.9285 70.0729 90.9493 69.6562 93.241 69.6562C97.5327 69.6562 100.491 71.1875 102.116 74.25C103.074 76.0208 103.553 79.0625 103.553 83.375V103H96.0847V83.75C96.0847 81.1458 95.8764 79.3021 95.4597 78.2188C94.7097 76.3438 93.1472 75.4062 90.7722 75.4062C87.7306 75.4062 84.8556 77.25 82.1472 80.9375V103H74.6785ZM112.888 116.75V83.4688C112.888 78.1979 112.794 73.8333 112.607 70.375H119.763L120.013 74.875C121.492 73.0208 123.003 71.6875 124.544 70.875C126.086 70.0625 127.878 69.6562 129.919 69.6562C134.107 69.6562 137.367 71.3229 139.701 74.6562C141.93 77.8021 143.044 81.7917 143.044 86.625C143.044 91.9583 141.753 96.2292 139.169 99.4375C136.857 102.292 133.753 103.719 129.857 103.719C125.982 103.719 122.815 102.094 120.357 98.8438V116.75H112.888ZM120.357 92.3438C122.669 96.0938 125.253 97.9688 128.107 97.9688C130.482 97.9688 132.294 96.8125 133.544 94.5C134.711 92.3333 135.294 89.6771 135.294 86.5312C135.294 83.3021 134.659 80.6354 133.388 78.5312C132.117 76.4479 130.294 75.4062 127.919 75.4062C125.107 75.4062 122.586 77.1979 120.357 80.7812V92.3438ZM179.098 70.375V91.5312C179.098 95.4271 179.192 99.25 179.379 103H172.348L172.098 98.1875C170.202 100.188 168.39 101.615 166.66 102.469C164.931 103.302 162.952 103.719 160.723 103.719C156.494 103.719 153.577 102.188 151.973 99.125C151.035 97.3333 150.567 94.2917 150.567 90V70.375H158.035V89.625C158.035 92.2292 158.244 94.0729 158.66 95.1562C159.39 97.0312 160.9 97.9688 163.192 97.9688C166.15 97.9688 168.963 96.125 171.629 92.4375V70.375H179.098ZM191.058 76.0625H185.808V70.375H191.058V63.2812L198.527 61.8438V70.375H205.964V76.0625H198.527V91.2188C198.527 93.4271 198.745 94.9583 199.183 95.8125C199.829 97.0833 201.068 97.7188 202.902 97.7188C203.818 97.7188 204.995 97.4479 206.433 96.9062L207.089 102.625C204.797 103.354 202.579 103.719 200.433 103.719C196.745 103.719 194.152 102.594 192.652 100.344C191.589 98.7396 191.058 95.8333 191.058 91.625V76.0625ZM230.133 103V76.0625H224.915V70.375H230.133V68.2188C230.133 64.3021 230.727 61.3854 231.915 59.4688C233.581 56.8021 236.425 55.4688 240.446 55.4688C242.3 55.4688 244.279 55.7604 246.383 56.3438L245.79 62.3125C244.456 61.7083 243.196 61.4062 242.008 61.4062C240.425 61.4062 239.29 61.9792 238.602 63.125C237.936 64.2708 237.602 66.1979 237.602 68.9062V70.375H245.071V76.0625H237.602V103H230.133ZM251.906 103V70.375H259.374V103H251.906ZM255.656 55.0938C257.01 55.0938 258.114 55.5312 258.968 56.4062C259.843 57.2812 260.281 58.4062 260.281 59.7812C260.281 61.1354 259.843 62.2604 258.968 63.1562C258.114 64.0312 257.02 64.4688 255.687 64.4688C254.312 64.4688 253.187 64.0312 252.312 63.1562C251.458 62.2604 251.031 61.1146 251.031 59.7188C251.031 58.3854 251.468 57.2812 252.343 56.4062C253.218 55.5312 254.322 55.0938 255.656 55.0938ZM274.928 89.0625C275.178 91.75 275.865 93.7812 276.99 95.1562C278.657 97.1354 281.115 98.125 284.365 98.125C287.574 98.125 290.803 97.0729 294.053 94.9688L296.709 100.469C292.938 102.635 288.761 103.719 284.178 103.719C278.428 103.719 274.074 102.104 271.115 98.875C268.428 95.9792 267.084 91.9479 267.084 86.7812C267.084 81.3229 268.605 77.0208 271.647 73.875C274.334 71.0833 278.022 69.6875 282.709 69.6875C289.605 69.6875 294.084 72.3542 296.147 77.6875C297.168 80.3333 297.699 84.125 297.74 89.0625H274.928ZM290.084 83.7812C290.022 81.8438 289.647 80.1875 288.959 78.8125C287.73 76.4167 285.647 75.2188 282.709 75.2188C280.438 75.2188 278.605 75.9792 277.209 77.5C275.834 79.0208 275.095 81.1146 274.99 83.7812H290.084ZM305.388 103V56.2188H312.857V103H305.388ZM343.316 56.2188H350.785V91.5312C350.785 96.3229 350.879 100.146 351.066 103H343.91L343.66 98.3438C342.223 100.302 340.754 101.688 339.254 102.5C337.754 103.312 335.931 103.719 333.785 103.719C329.556 103.719 326.264 102.031 323.91 98.6562C321.723 95.5312 320.629 91.5312 320.629 86.6562C320.629 81.3646 321.92 77.125 324.504 73.9375C326.816 71.1042 329.91 69.6875 333.785 69.6875C337.618 69.6875 340.795 71.2917 343.316 74.5V56.2188ZM343.316 80.8438C341.254 77.2396 338.733 75.4375 335.754 75.4375C333.379 75.4375 331.556 76.4792 330.285 78.5625C329.014 80.6667 328.379 83.3333 328.379 86.5625C328.379 89.7083 328.962 92.3646 330.129 94.5312C331.379 96.8229 333.191 97.9688 335.566 97.9688C338.462 97.9688 341.045 96.0938 343.316 92.3438V80.8438ZM58 180V153.062H52.7812V147.375H58V145.219C58 141.302 58.5938 138.385 59.7812 136.469C61.4479 133.802 64.2917 132.469 68.3125 132.469C70.1667 132.469 72.1458 132.76 74.25 133.344L73.6562 139.312C72.3229 138.708 71.0625 138.406 69.875 138.406C68.2917 138.406 67.1562 138.979 66.4688 140.125C65.8021 141.271 65.4688 143.198 65.4688 145.906V147.375H72.9375V153.062H65.4688V180H58ZM84.241 166.062C84.491 168.75 85.1785 170.781 86.3035 172.156C87.9702 174.135 90.4285 175.125 93.6785 175.125C96.8868 175.125 100.116 174.073 103.366 171.969L106.022 177.469C102.251 179.635 98.0743 180.719 93.491 180.719C87.741 180.719 83.3868 179.104 80.4285 175.875C77.741 172.979 76.3972 168.948 76.3972 163.781C76.3972 158.323 77.9181 154.021 80.9597 150.875C83.6472 148.083 87.3347 146.688 92.0222 146.688C98.9181 146.688 103.397 149.354 105.46 154.688C106.481 157.333 107.012 161.125 107.053 166.062H84.241ZM99.3972 160.781C99.3347 158.844 98.9597 157.188 98.2722 155.812C97.0431 153.417 94.9597 152.219 92.0222 152.219C89.7514 152.219 87.9181 152.979 86.5222 154.5C85.1472 156.021 84.4077 158.115 84.3035 160.781H99.3972ZM120.107 166.062C120.357 168.75 121.044 170.781 122.169 172.156C123.836 174.135 126.294 175.125 129.544 175.125C132.753 175.125 135.982 174.073 139.232 171.969L141.888 177.469C138.117 179.635 133.94 180.719 129.357 180.719C123.607 180.719 119.253 179.104 116.294 175.875C113.607 172.979 112.263 168.948 112.263 163.781C112.263 158.323 113.784 154.021 116.826 150.875C119.513 148.083 123.201 146.688 127.888 146.688C134.784 146.688 139.263 149.354 141.326 154.688C142.347 157.333 142.878 161.125 142.919 166.062H120.107ZM135.263 160.781C135.201 158.844 134.826 157.188 134.138 155.812C132.909 153.417 130.826 152.219 127.888 152.219C125.617 152.219 123.784 152.979 122.388 154.5C121.013 156.021 120.274 158.115 120.169 160.781H135.263ZM170.817 133.219H178.285V168.531C178.285 173.323 178.379 177.146 178.567 180H171.41L171.16 175.344C169.723 177.302 168.254 178.688 166.754 179.5C165.254 180.312 163.431 180.719 161.285 180.719C157.056 180.719 153.765 179.031 151.41 175.656C149.223 172.531 148.129 168.531 148.129 163.656C148.129 158.365 149.421 154.125 152.004 150.938C154.317 148.104 157.41 146.688 161.285 146.688C165.119 146.688 168.296 148.292 170.817 151.5V133.219ZM170.817 157.844C168.754 154.24 166.233 152.438 163.254 152.438C160.879 152.438 159.056 153.479 157.785 155.562C156.515 157.667 155.879 160.333 155.879 163.562C155.879 166.708 156.463 169.365 157.629 171.531C158.879 173.823 160.692 174.969 163.067 174.969C165.963 174.969 168.546 173.094 170.817 169.344V157.844ZM195.12 180H187.964C188.152 176.604 188.245 172.781 188.245 168.531V133.219H195.714V151.5C198.235 148.292 201.412 146.688 205.245 146.688C209.454 146.688 212.724 148.354 215.058 151.688C217.287 154.833 218.402 158.823 218.402 163.656C218.402 168.99 217.11 173.25 214.527 176.438C212.214 179.292 209.12 180.719 205.245 180.719C203.099 180.719 201.266 180.312 199.745 179.5C198.245 178.667 196.787 177.281 195.37 175.344L195.12 180ZM195.714 169.344C197.985 173.094 200.568 174.969 203.464 174.969C205.839 174.969 207.652 173.823 208.902 171.531C210.068 169.365 210.652 166.708 210.652 163.562C210.652 160.333 210.016 157.667 208.745 155.562C207.474 153.479 205.652 152.438 203.277 152.438C200.318 152.438 197.797 154.24 195.714 157.844V169.344ZM243.955 176.281C242.434 177.906 240.903 179.052 239.361 179.719C237.84 180.385 236.018 180.719 233.893 180.719C230.518 180.719 227.924 179.823 226.111 178.031C224.278 176.26 223.361 173.865 223.361 170.844C223.361 166.76 225.018 163.76 228.33 161.844C230.413 160.635 233.705 160.031 238.205 160.031C239.393 160.031 241.174 160.094 243.549 160.219V159.625C243.549 154.688 241.143 152.219 236.33 152.219C233.601 152.219 230.663 153.125 227.518 154.938L225.518 149.562C229.309 147.646 233.236 146.688 237.299 146.688C242.57 146.688 246.34 148.104 248.611 150.938C249.528 152.104 250.153 153.458 250.486 155C250.84 156.542 251.018 158.854 251.018 161.938V171.688C251.018 175.146 251.122 177.917 251.33 180H244.236L243.955 176.281ZM243.549 164.906C242.32 164.802 241.195 164.75 240.174 164.75C237.153 164.75 234.976 165.167 233.643 166C231.955 167.062 231.111 168.625 231.111 170.688C231.111 172.167 231.57 173.365 232.486 174.281C233.403 175.177 234.632 175.625 236.174 175.625C239.028 175.625 241.486 174.104 243.549 171.062V164.906ZM283.196 172.438L285.602 177.906C282.602 179.781 279.071 180.719 275.008 180.719C269.904 180.719 265.915 179.177 263.04 176.094C260.248 173.073 258.852 168.979 258.852 163.812C258.852 158.292 260.331 153.969 263.29 150.844C265.936 148.052 269.613 146.656 274.321 146.656C277.967 146.656 281.498 147.479 284.915 149.125L282.665 154.719C280.123 153.115 277.613 152.312 275.133 152.312C272.217 152.312 270.061 153.365 268.665 155.469C267.29 157.51 266.602 160.24 266.602 163.656C266.602 167.198 267.404 169.99 269.008 172.031C270.592 173.99 272.831 174.969 275.727 174.969C278.29 174.969 280.779 174.125 283.196 172.438ZM291.281 180V133.219H298.749V161.125L310.312 147.375H318.968L306.374 161.688L320.218 180H311.124L298.749 163.25V180H291.281Z" fill="#00FFB9"/>
<path d="M501.258 171V161.313H503.131C504.298 161.313 505.143 161.484 505.667 161.826C506.414 162.309 506.788 163.079 506.788 164.137C506.788 164.829 506.606 165.406 506.241 165.866C505.94 166.24 505.539 166.509 505.038 166.673C504.537 166.832 503.858 166.912 503.001 166.912H502.379V171H501.258ZM502.379 165.989H502.837C503.771 165.989 504.427 165.894 504.806 165.702C505.334 165.433 505.599 164.911 505.599 164.137C505.599 163.809 505.537 163.51 505.414 163.241C505.291 162.968 505.122 162.756 504.908 162.605C504.548 162.359 503.917 162.236 503.015 162.236H502.379V165.989ZM512.309 170.173C511.99 170.519 511.666 170.768 511.338 170.918C511.014 171.064 510.632 171.137 510.189 171.137C509.447 171.137 508.879 170.927 508.487 170.508C508.141 170.139 507.968 169.651 507.968 169.045C507.968 168.111 508.362 167.445 509.15 167.049C509.615 166.816 510.301 166.7 511.208 166.7C511.349 166.7 511.689 166.709 512.227 166.728V166.536C512.227 166.021 512.161 165.629 512.028 165.36C511.791 164.868 511.322 164.622 510.62 164.622C510.046 164.622 509.435 164.827 508.788 165.237L508.323 164.472C509.066 164.002 509.87 163.768 510.736 163.768C511.812 163.768 512.548 164.089 512.944 164.731C513.081 164.959 513.172 165.221 513.218 165.518C513.268 165.809 513.293 166.274 513.293 166.912V169.229C513.293 169.959 513.311 170.549 513.348 171H512.356L512.309 170.173ZM512.227 167.541C511.976 167.523 511.712 167.514 511.434 167.514C510.673 167.514 510.119 167.614 509.772 167.814C509.317 168.074 509.089 168.475 509.089 169.018C509.089 169.4 509.203 169.706 509.431 169.934C509.668 170.166 509.984 170.282 510.381 170.282C511.124 170.282 511.739 169.92 512.227 169.195V167.541ZM515.375 170.651L515.696 169.811C516.348 170.125 516.922 170.282 517.419 170.282C517.825 170.282 518.153 170.173 518.403 169.954C518.654 169.731 518.779 169.441 518.779 169.086C518.779 168.776 518.693 168.546 518.52 168.396C518.351 168.241 517.964 168.047 517.357 167.814C516.966 167.66 516.672 167.53 516.476 167.425C516.284 167.32 516.107 167.19 515.942 167.035C515.582 166.702 515.402 166.274 515.402 165.75C515.402 165.126 515.646 164.624 516.134 164.246C516.549 163.927 517.082 163.768 517.733 163.768C518.399 163.768 519.073 163.943 519.757 164.294L519.436 165.135C518.925 164.793 518.39 164.622 517.829 164.622C517.419 164.622 517.098 164.715 516.865 164.902C516.637 165.085 516.524 165.338 516.524 165.661C516.524 165.948 516.617 166.176 516.804 166.345C516.991 166.509 517.38 166.709 517.973 166.946C518.428 167.133 518.761 167.288 518.971 167.411C519.185 167.534 519.365 167.682 519.511 167.855C519.771 168.152 519.9 168.537 519.9 169.011C519.9 169.694 519.643 170.23 519.128 170.617C518.668 170.964 518.093 171.137 517.405 171.137C516.735 171.137 516.059 170.975 515.375 170.651ZM521.217 170.651L521.538 169.811C522.19 170.125 522.764 170.282 523.261 170.282C523.666 170.282 523.995 170.173 524.245 169.954C524.496 169.731 524.621 169.441 524.621 169.086C524.621 168.776 524.535 168.546 524.361 168.396C524.193 168.241 523.805 168.047 523.199 167.814C522.807 167.66 522.513 167.53 522.317 167.425C522.126 167.32 521.948 167.19 521.784 167.035C521.424 166.702 521.244 166.274 521.244 165.75C521.244 165.126 521.488 164.624 521.976 164.246C522.39 163.927 522.924 163.768 523.575 163.768C524.241 163.768 524.915 163.943 525.599 164.294L525.277 165.135C524.767 164.793 524.232 164.622 523.671 164.622C523.261 164.622 522.94 164.715 522.707 164.902C522.479 165.085 522.365 165.338 522.365 165.661C522.365 165.948 522.459 166.176 522.646 166.345C522.832 166.509 523.222 166.709 523.815 166.946C524.27 167.133 524.603 167.288 524.813 167.411C525.027 167.534 525.207 167.682 525.353 167.855C525.612 168.152 525.742 168.537 525.742 169.011C525.742 169.694 525.485 170.23 524.97 170.617C524.51 170.964 523.935 171.137 523.247 171.137C522.577 171.137 521.9 170.975 521.217 170.651ZM528.932 171L526.984 163.904H528.077L529.246 168.348C529.429 169.04 529.574 169.621 529.684 170.091C529.825 169.535 529.987 168.938 530.169 168.3L531.406 163.904H532.794L534.066 168.197C534.262 168.872 534.439 169.503 534.599 170.091C534.735 169.539 534.893 168.933 535.07 168.272L536.253 163.904H537.217L535.228 171H533.888L532.521 166.468C532.334 165.848 532.172 165.287 532.035 164.786C531.894 165.342 531.735 165.932 531.557 166.557L530.285 171H528.932ZM541.569 163.768C542.603 163.768 543.43 164.157 544.05 164.937C544.574 165.593 544.836 166.431 544.836 167.452C544.836 168.55 544.533 169.437 543.927 170.111C543.312 170.795 542.526 171.137 541.569 171.137C540.534 171.137 539.707 170.747 539.087 169.968C538.563 169.307 538.301 168.452 538.301 167.404C538.301 166.329 538.604 165.456 539.21 164.786C539.821 164.107 540.607 163.768 541.569 163.768ZM541.569 164.622C540.798 164.622 540.22 164.968 539.832 165.661C539.559 166.149 539.422 166.737 539.422 167.425C539.422 168.222 539.586 168.874 539.914 169.38C540.306 169.981 540.858 170.282 541.569 170.282C542.339 170.282 542.917 169.934 543.305 169.236C543.578 168.753 543.715 168.159 543.715 167.452C543.715 166.668 543.551 166.026 543.223 165.524C542.831 164.923 542.279 164.622 541.569 164.622ZM546.932 171V166.953C546.932 166.064 546.918 165.158 546.891 164.232L546.884 163.904H547.875L547.916 165.21C548.194 164.695 548.488 164.326 548.798 164.103C549.108 163.875 549.477 163.761 549.905 163.761C550.051 163.761 550.218 163.779 550.404 163.815L550.309 164.772C550.177 164.741 550.051 164.725 549.933 164.725C549.409 164.725 548.946 164.989 548.545 165.518C548.317 165.814 548.135 166.144 547.998 166.509V171H546.932ZM556.164 160.767H557.231V168.416C557.231 169.077 557.247 169.854 557.279 170.747L557.285 171H556.28L556.246 169.92C555.886 170.389 555.554 170.711 555.248 170.884C554.947 171.057 554.574 171.144 554.127 171.144C553.266 171.144 552.573 170.788 552.049 170.077C551.534 169.384 551.277 168.493 551.277 167.404C551.277 166.265 551.568 165.356 552.152 164.677C552.676 164.071 553.316 163.768 554.072 163.768C554.916 163.768 555.613 164.139 556.164 164.882V160.767ZM556.164 165.948C555.709 165.064 555.082 164.622 554.284 164.622C553.683 164.622 553.223 164.873 552.904 165.374C552.566 165.907 552.398 166.593 552.398 167.432C552.398 168.211 552.541 168.863 552.828 169.387C553.156 169.988 553.646 170.289 554.298 170.289C554.667 170.289 554.995 170.187 555.282 169.981C555.57 169.776 555.863 169.435 556.164 168.956V165.948ZM560.003 163.111L560.338 162.072L562.286 162.872L562.115 160.767H563.209L563.025 162.872L564.987 162.072L565.322 163.111L563.305 163.597L564.611 165.107L563.729 165.75L562.662 164.027L561.596 165.75L560.714 165.107L562.02 163.597L560.003 163.111Z" fill="#FF7687"/>
<g filter="url(#filter0_i_7490_24809)">
<g clip-path="url(#clip0_7490_24809)">
<rect x="500" y="178" width="320" height="32" rx="2" fill="#331131"/>
<path d="M511.507 192.034C512.054 192.034 512.521 192.23 512.908 192.622C513.3 193.019 513.496 193.499 513.496 194.064C513.496 194.625 513.302 195.104 512.915 195.5C512.523 195.896 512.054 196.095 511.507 196.095C510.96 196.095 510.491 195.899 510.099 195.507C509.702 195.106 509.504 194.616 509.504 194.037C509.504 193.481 509.702 193.009 510.099 192.622C510.5 192.23 510.969 192.034 511.507 192.034ZM518.675 192.034C519.222 192.034 519.689 192.23 520.076 192.622C520.468 193.019 520.664 193.499 520.664 194.064C520.664 194.625 520.47 195.104 520.083 195.5C519.691 195.896 519.222 196.095 518.675 196.095C518.128 196.095 517.659 195.899 517.267 195.507C516.87 195.106 516.672 194.616 516.672 194.037C516.672 193.481 516.87 193.009 517.267 192.622C517.668 192.23 518.137 192.034 518.675 192.034ZM525.843 192.034C526.39 192.034 526.857 192.23 527.244 192.622C527.636 193.019 527.832 193.499 527.832 194.064C527.832 194.625 527.638 195.104 527.251 195.5C526.859 195.896 526.39 196.095 525.843 196.095C525.296 196.095 524.827 195.899 524.435 195.507C524.038 195.106 523.84 194.616 523.84 194.037C523.84 193.481 524.038 193.009 524.435 192.622C524.836 192.23 525.305 192.034 525.843 192.034ZM533.011 192.034C533.558 192.034 534.025 192.23 534.412 192.622C534.804 193.019 535 193.499 535 194.064C535 194.625 534.806 195.104 534.419 195.5C534.027 195.896 533.558 196.095 533.011 196.095C532.464 196.095 531.995 195.899 531.603 195.507C531.206 195.106 531.008 194.616 531.008 194.037C531.008 193.481 531.206 193.009 531.603 192.622C532.004 192.23 532.473 192.034 533.011 192.034ZM540.179 192.034C540.726 192.034 541.193 192.23 541.58 192.622C541.972 193.019 542.168 193.499 542.168 194.064C542.168 194.625 541.974 195.104 541.587 195.5C541.195 195.896 540.726 196.095 540.179 196.095C539.632 196.095 539.163 195.899 538.771 195.507C538.374 195.106 538.176 194.616 538.176 194.037C538.176 193.481 538.374 193.009 538.771 192.622C539.172 192.23 539.641 192.034 540.179 192.034ZM547.347 192.034C547.894 192.034 548.361 192.23 548.748 192.622C549.14 193.019 549.336 193.499 549.336 194.064C549.336 194.625 549.142 195.104 548.755 195.5C548.363 195.896 547.894 196.095 547.347 196.095C546.8 196.095 546.331 195.899 545.939 195.507C545.542 195.106 545.344 194.616 545.344 194.037C545.344 193.481 545.542 193.009 545.939 192.622C546.34 192.23 546.809 192.034 547.347 192.034ZM554.515 192.034C555.062 192.034 555.529 192.23 555.916 192.622C556.308 193.019 556.504 193.499 556.504 194.064C556.504 194.625 556.31 195.104 555.923 195.5C555.531 195.896 555.062 196.095 554.515 196.095C553.968 196.095 553.499 195.899 553.107 195.507C552.71 195.106 552.512 194.616 552.512 194.037C552.512 193.481 552.71 193.009 553.107 192.622C553.508 192.23 553.977 192.034 554.515 192.034ZM561.683 192.034C562.23 192.034 562.697 192.23 563.084 192.622C563.476 193.019 563.672 193.499 563.672 194.064C563.672 194.625 563.478 195.104 563.091 195.5C562.699 195.896 562.23 196.095 561.683 196.095C561.136 196.095 560.667 195.899 560.275 195.507C559.878 195.106 559.68 194.616 559.68 194.037C559.68 193.481 559.878 193.009 560.275 192.622C560.676 192.23 561.145 192.034 561.683 192.034ZM568.851 192.034C569.398 192.034 569.865 192.23 570.252 192.622C570.644 193.019 570.84 193.499 570.84 194.064C570.84 194.625 570.646 195.104 570.259 195.5C569.867 195.896 569.398 196.095 568.851 196.095C568.304 196.095 567.835 195.899 567.443 195.507C567.046 195.106 566.848 194.616 566.848 194.037C566.848 193.481 567.046 193.009 567.443 192.622C567.844 192.23 568.313 192.034 568.851 192.034ZM576.019 192.034C576.566 192.034 577.033 192.23 577.42 192.622C577.812 193.019 578.008 193.499 578.008 194.064C578.008 194.625 577.814 195.104 577.427 195.5C577.035 195.896 576.566 196.095 576.019 196.095C575.472 196.095 575.003 195.899 574.611 195.507C574.214 195.106 574.016 194.616 574.016 194.037C574.016 193.481 574.214 193.009 574.611 192.622C575.012 192.23 575.481 192.034 576.019 192.034ZM583.187 192.034C583.734 192.034 584.201 192.23 584.588 192.622C584.98 193.019 585.176 193.499 585.176 194.064C585.176 194.625 584.982 195.104 584.595 195.5C584.203 195.896 583.734 196.095 583.187 196.095C582.64 196.095 582.171 195.899 581.779 195.507C581.382 195.106 581.184 194.616 581.184 194.037C581.184 193.481 581.382 193.009 581.779 192.622C582.18 192.23 582.649 192.034 583.187 192.034Z" fill="white"/>
<path fill-rule="evenodd" clip-rule="evenodd" d="M804 186C797 186 794 194 794 194C794 194 797 202 804 202C811 202 814 194 814 194C814 194 811 186 804 186ZM804 200C799.581 200 797.035 195.72 796.19 194C797.037 192.276 799.583 188 804 188C808.419 188 810.965 192.28 811.81 194C810.963 195.724 808.416 200 804 200ZM804 190.5C802.067 190.5 800.5 192.067 800.5 194C800.5 195.933 802.067 197.5 804 197.5C805.933 197.5 807.5 195.933 807.5 194C807.5 192.067 805.933 190.5 804 190.5ZM804 195.5C803.173 195.5 802.5 194.827 802.5 194C802.5 193.173 803.173 192.5 804 192.5C804.827 192.5 805.5 193.173 805.5 194C805.5 194.827 804.827 195.5 804 195.5Z" fill="white" fill-opacity="0.45"/>
</g>
<rect x="500.5" y="178.5" width="319" height="31" rx="1.5" stroke="#FF2640"/>
</g>
<path d="M508 217.333C511.682 217.334 514.666 220.319 514.666 224C514.666 227.681 511.681 230.666 508 230.666C504.319 230.666 501.334 227.682 501.333 224C501.333 220.319 504.319 217.333 508 217.333ZM508 218.666C505.06 218.666 502.666 221.06 502.666 224C502.667 226.941 505.06 229.333 508 229.333C510.941 229.333 513.333 226.941 513.333 224C513.333 221.06 510.941 218.667 508 218.666ZM510.471 222.471L508.943 224L510.471 225.529L509.529 226.471L508 224.943L506.471 226.471L505.529 225.529L507.057 224L505.529 222.471L506.471 221.529L508 223.057L509.529 221.529L510.471 222.471Z" fill="#FF2640"/>
<path d="M521.258 229V219.313H522.379V229H521.258ZM525.022 229V224.215C525.022 223.135 525.003 222.365 524.967 221.904H526.02L526.061 223.039C526.498 222.579 526.913 222.253 527.305 222.062C527.701 221.866 528.146 221.768 528.638 221.768C529.536 221.768 530.151 222.096 530.483 222.752C530.588 222.966 530.663 223.237 530.709 223.565C530.755 223.889 530.777 224.333 530.777 224.898V229H529.711V224.878C529.711 224.167 529.661 223.668 529.561 223.381C529.383 222.875 528.975 222.622 528.337 222.622C527.567 222.622 526.817 223.064 526.088 223.948V229H525.022ZM537.843 227.653L538.253 228.48C537.61 228.918 536.893 229.137 536.1 229.137C535.079 229.137 534.279 228.825 533.7 228.2C533.094 227.544 532.791 226.648 532.791 225.514C532.791 224.27 533.112 223.312 533.755 222.643C534.315 222.055 535.065 221.761 536.004 221.761C536.733 221.761 537.44 221.952 538.123 222.335L537.72 223.176C537.146 222.802 536.571 222.615 535.997 222.615C535.309 222.615 534.787 222.868 534.432 223.374C534.085 223.866 533.912 224.536 533.912 225.384C533.912 226.291 534.117 227.013 534.527 227.551C534.906 228.038 535.434 228.282 536.113 228.282C536.715 228.282 537.291 228.073 537.843 227.653ZM542.68 221.768C543.714 221.768 544.541 222.157 545.161 222.937C545.685 223.593 545.947 224.431 545.947 225.452C545.947 226.55 545.644 227.437 545.038 228.111C544.423 228.795 543.637 229.137 542.68 229.137C541.645 229.137 540.818 228.747 540.198 227.968C539.674 227.307 539.412 226.452 539.412 225.404C539.412 224.329 539.715 223.456 540.321 222.786C540.932 222.107 541.718 221.768 542.68 221.768ZM542.68 222.622C541.91 222.622 541.331 222.968 540.943 223.661C540.67 224.149 540.533 224.737 540.533 225.425C540.533 226.222 540.697 226.874 541.025 227.38C541.417 227.981 541.969 228.282 542.68 228.282C543.45 228.282 544.029 227.934 544.416 227.236C544.69 226.753 544.826 226.159 544.826 225.452C544.826 224.668 544.662 224.026 544.334 223.524C543.942 222.923 543.391 222.622 542.68 222.622ZM548.043 229V224.953C548.043 224.064 548.029 223.158 548.002 222.232L547.995 221.904H548.986L549.027 223.21C549.305 222.695 549.599 222.326 549.909 222.103C550.219 221.875 550.588 221.761 551.017 221.761C551.163 221.761 551.329 221.779 551.516 221.815L551.42 222.772C551.288 222.741 551.163 222.725 551.044 222.725C550.52 222.725 550.057 222.989 549.656 223.518C549.429 223.814 549.246 224.144 549.11 224.509V229H548.043ZM553.119 229V224.953C553.119 224.064 553.106 223.158 553.078 222.232L553.071 221.904H554.063L554.104 223.21C554.382 222.695 554.676 222.326 554.986 222.103C555.295 221.875 555.665 221.761 556.093 221.761C556.239 221.761 556.405 221.779 556.592 221.815L556.496 222.772C556.364 222.741 556.239 222.725 556.12 222.725C555.596 222.725 555.134 222.989 554.733 223.518C554.505 223.814 554.322 224.144 554.186 224.509V229H553.119ZM558.578 225.739C558.656 226.532 558.838 227.122 559.125 227.51C559.517 228.025 560.096 228.282 560.862 228.282C561.513 228.282 562.16 228.059 562.803 227.612L563.213 228.439C562.475 228.904 561.684 229.137 560.841 229.137C559.72 229.137 558.856 228.77 558.25 228.036C557.722 227.394 557.457 226.532 557.457 225.452C557.457 224.144 557.81 223.162 558.517 222.506C559.045 222.014 559.722 221.768 560.547 221.768C561.809 221.768 562.657 222.285 563.09 223.319C563.332 223.903 563.461 224.709 563.48 225.739H558.578ZM562.345 224.885C562.331 224.361 562.24 223.923 562.071 223.572C561.766 222.939 561.247 222.622 560.513 222.622C559.948 222.622 559.494 222.825 559.153 223.23C558.811 223.632 558.628 224.183 558.606 224.885H562.345ZM570.046 227.653L570.456 228.48C569.814 228.918 569.096 229.137 568.303 229.137C567.282 229.137 566.482 228.825 565.904 228.2C565.297 227.544 564.994 226.648 564.994 225.514C564.994 224.27 565.316 223.312 565.958 222.643C566.519 222.055 567.268 221.761 568.207 221.761C568.936 221.761 569.643 221.952 570.326 222.335L569.923 223.176C569.349 222.802 568.775 222.615 568.2 222.615C567.512 222.615 566.99 222.868 566.635 223.374C566.289 223.866 566.115 224.536 566.115 225.384C566.115 226.291 566.321 227.013 566.731 227.551C567.109 228.038 567.638 228.282 568.317 228.282C568.918 228.282 569.495 228.073 570.046 227.653ZM572.532 222.759H571.383V221.904H572.532V220.353L573.598 220.127V221.904H575.273V222.759H573.598V226.635C573.598 227.223 573.648 227.624 573.748 227.838C573.894 228.134 574.163 228.282 574.555 228.282C574.792 228.282 575.063 228.212 575.368 228.07L575.464 228.918C575.054 229.064 574.671 229.137 574.316 229.137C573.664 229.137 573.204 228.964 572.935 228.617C572.666 228.271 572.532 227.681 572.532 226.847V222.759ZM581.385 225.739C581.463 226.532 581.645 227.122 581.932 227.51C582.324 228.025 582.903 228.282 583.668 228.282C584.32 228.282 584.967 228.059 585.61 227.612L586.02 228.439C585.282 228.904 584.491 229.137 583.648 229.137C582.527 229.137 581.663 228.77 581.057 228.036C580.528 227.394 580.264 226.532 580.264 225.452C580.264 224.144 580.617 223.162 581.324 222.506C581.852 222.014 582.529 221.768 583.354 221.768C584.616 221.768 585.464 222.285 585.897 223.319C586.138 223.903 586.268 224.709 586.286 225.739H581.385ZM585.152 224.885C585.138 224.361 585.047 223.923 584.878 223.572C584.573 222.939 584.053 222.622 583.32 222.622C582.755 222.622 582.301 222.825 581.959 223.23C581.618 223.632 581.435 224.183 581.412 224.885H585.152ZM588.334 229V224.215C588.334 223.135 588.316 222.365 588.28 221.904H589.332L589.373 223.025C589.629 222.757 589.866 222.538 590.084 222.369C590.599 221.968 591.16 221.768 591.766 221.768C592.254 221.768 592.657 221.888 592.976 222.13C593.295 222.367 593.511 222.713 593.625 223.169C594.081 222.654 594.494 222.292 594.863 222.082C595.232 221.872 595.649 221.768 596.114 221.768C596.961 221.768 597.542 222.096 597.857 222.752C597.957 222.966 598.028 223.237 598.069 223.565C598.114 223.894 598.137 224.338 598.137 224.898V229H597.071V224.878C597.071 224.167 597.025 223.668 596.934 223.381C596.77 222.875 596.396 222.622 595.813 222.622C595.111 222.622 594.43 223.064 593.769 223.948V229H592.702V224.755C592.702 224.094 592.652 223.629 592.552 223.36C592.365 222.868 592.008 222.622 591.479 222.622C590.772 222.622 590.08 223.064 589.401 223.948V229H588.334ZM604.444 228.173C604.125 228.519 603.801 228.768 603.473 228.918C603.149 229.064 602.767 229.137 602.325 229.137C601.582 229.137 601.014 228.927 600.622 228.508C600.276 228.139 600.103 227.651 600.103 227.045C600.103 226.111 600.497 225.445 601.286 225.049C601.75 224.816 602.436 224.7 603.343 224.7C603.484 224.7 603.824 224.709 604.362 224.728V224.536C604.362 224.021 604.296 223.629 604.163 223.36C603.926 222.868 603.457 222.622 602.755 222.622C602.181 222.622 601.57 222.827 600.923 223.237L600.458 222.472C601.201 222.002 602.006 221.768 602.871 221.768C603.947 221.768 604.683 222.089 605.079 222.731C605.216 222.959 605.307 223.221 605.353 223.518C605.403 223.809 605.428 224.274 605.428 224.912V227.229C605.428 227.959 605.446 228.549 605.483 229H604.492L604.444 228.173ZM604.362 225.541C604.111 225.523 603.847 225.514 603.569 225.514C602.808 225.514 602.254 225.614 601.908 225.814C601.452 226.074 601.224 226.475 601.224 227.018C601.224 227.4 601.338 227.706 601.566 227.934C601.803 228.166 602.12 228.282 602.516 228.282C603.259 228.282 603.874 227.92 604.362 227.195V225.541ZM608.043 229V221.904H609.11V229H608.043ZM608.57 218.63C608.793 218.63 608.975 218.701 609.117 218.842C609.258 218.983 609.329 219.163 609.329 219.382C609.329 219.605 609.258 219.787 609.117 219.929C608.975 220.07 608.795 220.141 608.577 220.141C608.353 220.141 608.171 220.07 608.03 219.929C607.888 219.787 607.818 219.603 607.818 219.375C607.818 219.161 607.888 218.983 608.03 218.842C608.176 218.701 608.356 218.63 608.57 218.63ZM611.711 229V218.767H612.778V229H611.711ZM621.782 221.768C622.816 221.768 623.643 222.157 624.263 222.937C624.787 223.593 625.049 224.431 625.049 225.452C625.049 226.55 624.746 227.437 624.14 228.111C623.525 228.795 622.739 229.137 621.782 229.137C620.747 229.137 619.92 228.747 619.3 227.968C618.776 227.307 618.514 226.452 618.514 225.404C618.514 224.329 618.817 223.456 619.423 222.786C620.034 222.107 620.82 221.768 621.782 221.768ZM621.782 222.622C621.012 222.622 620.433 222.968 620.045 223.661C619.772 224.149 619.635 224.737 619.635 225.425C619.635 226.222 619.799 226.874 620.127 227.38C620.519 227.981 621.071 228.282 621.782 228.282C622.552 228.282 623.131 227.934 623.518 227.236C623.792 226.753 623.928 226.159 623.928 225.452C623.928 224.668 623.764 224.026 623.436 223.524C623.044 222.923 622.493 222.622 621.782 222.622ZM627.145 229V224.953C627.145 224.064 627.131 223.158 627.104 222.232L627.097 221.904H628.088L628.129 223.21C628.407 222.695 628.701 222.326 629.011 222.103C629.321 221.875 629.69 221.761 630.119 221.761C630.265 221.761 630.431 221.779 630.618 221.815L630.522 222.772C630.39 222.741 630.265 222.725 630.146 222.725C629.622 222.725 629.159 222.989 628.758 223.518C628.53 223.814 628.348 224.144 628.211 224.509V229H627.145ZM635.889 232.008V224.769C635.889 223.985 635.876 223.158 635.848 222.287L635.835 221.904H636.833L636.874 222.984C637.111 222.661 637.338 222.419 637.557 222.26C637.999 221.932 638.496 221.768 639.047 221.768C639.872 221.768 640.551 222.118 641.085 222.82C641.59 223.486 641.843 224.347 641.843 225.404C641.843 226.58 641.547 227.523 640.955 228.234C640.444 228.84 639.79 229.144 638.993 229.144C638.564 229.144 638.2 229.062 637.899 228.897C637.598 228.733 637.284 228.444 636.956 228.029V232.008H635.889ZM636.956 226.963C637.161 227.273 637.343 227.514 637.503 227.688C637.881 228.089 638.321 228.289 638.822 228.289C639.474 228.289 639.963 227.988 640.292 227.387C640.579 226.863 640.722 226.211 640.722 225.432C640.722 224.593 640.554 223.907 640.216 223.374C639.897 222.873 639.437 222.622 638.836 222.622C638.093 222.622 637.466 223.055 636.956 223.921V226.963ZM647.678 228.173C647.359 228.519 647.036 228.768 646.708 228.918C646.384 229.064 646.001 229.137 645.559 229.137C644.816 229.137 644.249 228.927 643.857 228.508C643.511 228.139 643.338 227.651 643.338 227.045C643.338 226.111 643.732 225.445 644.52 225.049C644.985 224.816 645.671 224.7 646.578 224.7C646.719 224.7 647.059 224.709 647.596 224.728V224.536C647.596 224.021 647.53 223.629 647.398 223.36C647.161 222.868 646.692 222.622 645.99 222.622C645.416 222.622 644.805 222.827 644.158 223.237L643.693 222.472C644.436 222.002 645.24 221.768 646.106 221.768C647.182 221.768 647.918 222.089 648.314 222.731C648.451 222.959 648.542 223.221 648.588 223.518C648.638 223.809 648.663 224.274 648.663 224.912V227.229C648.663 227.959 648.681 228.549 648.717 229H647.726L647.678 228.173ZM647.596 225.541C647.346 225.523 647.081 225.514 646.803 225.514C646.042 225.514 645.489 225.614 645.142 225.814C644.686 226.074 644.459 226.475 644.459 227.018C644.459 227.4 644.573 227.706 644.8 227.934C645.037 228.166 645.354 228.282 645.751 228.282C646.493 228.282 647.109 227.92 647.596 227.195V225.541ZM650.745 228.651L651.066 227.811C651.718 228.125 652.292 228.282 652.789 228.282C653.194 228.282 653.522 228.173 653.773 227.954C654.024 227.731 654.149 227.441 654.149 227.086C654.149 226.776 654.063 226.546 653.889 226.396C653.721 226.241 653.333 226.047 652.727 225.814C652.335 225.66 652.041 225.53 651.845 225.425C651.654 225.32 651.476 225.19 651.312 225.035C650.952 224.702 650.772 224.274 650.772 223.75C650.772 223.126 651.016 222.624 651.504 222.246C651.918 221.927 652.452 221.768 653.103 221.768C653.769 221.768 654.443 221.943 655.127 222.294L654.805 223.135C654.295 222.793 653.759 222.622 653.199 222.622C652.789 222.622 652.467 222.715 652.235 222.902C652.007 223.085 651.893 223.338 651.893 223.661C651.893 223.948 651.987 224.176 652.174 224.345C652.36 224.509 652.75 224.709 653.342 224.946C653.798 225.133 654.131 225.288 654.34 225.411C654.555 225.534 654.735 225.682 654.881 225.855C655.14 226.152 655.27 226.537 655.27 227.011C655.27 227.694 655.013 228.23 654.498 228.617C654.037 228.964 653.463 229.137 652.775 229.137C652.105 229.137 651.428 228.975 650.745 228.651ZM656.587 228.651L656.908 227.811C657.56 228.125 658.134 228.282 658.631 228.282C659.036 228.282 659.364 228.173 659.615 227.954C659.866 227.731 659.991 227.441 659.991 227.086C659.991 226.776 659.904 226.546 659.731 226.396C659.563 226.241 659.175 226.047 658.569 225.814C658.177 225.66 657.883 225.53 657.687 225.425C657.496 225.32 657.318 225.19 657.154 225.035C656.794 224.702 656.614 224.274 656.614 223.75C656.614 223.126 656.858 222.624 657.345 222.246C657.76 221.927 658.293 221.768 658.945 221.768C659.61 221.768 660.285 221.943 660.968 222.294L660.647 223.135C660.137 222.793 659.601 222.622 659.041 222.622C658.631 222.622 658.309 222.715 658.077 222.902C657.849 223.085 657.735 223.338 657.735 223.661C657.735 223.948 657.828 224.176 658.015 224.345C658.202 224.509 658.592 224.709 659.184 224.946C659.64 225.133 659.973 225.288 660.182 225.411C660.397 225.534 660.577 225.682 660.722 225.855C660.982 226.152 661.112 226.537 661.112 227.011C661.112 227.694 660.855 228.23 660.34 228.617C659.879 228.964 659.305 229.137 658.617 229.137C657.947 229.137 657.27 228.975 656.587 228.651ZM664.301 229L662.353 221.904H663.447L664.616 226.348C664.798 227.04 664.944 227.621 665.053 228.091C665.195 227.535 665.357 226.938 665.539 226.3L666.776 221.904H668.164L669.435 226.197C669.631 226.872 669.809 227.503 669.968 228.091C670.105 227.539 670.262 226.933 670.44 226.272L671.623 221.904H672.587L670.597 229H669.258L667.89 224.468C667.704 223.848 667.542 223.287 667.405 222.786C667.264 223.342 667.104 223.932 666.926 224.557L665.655 229H664.301ZM676.938 221.768C677.973 221.768 678.8 222.157 679.42 222.937C679.944 223.593 680.206 224.431 680.206 225.452C680.206 226.55 679.903 227.437 679.297 228.111C678.681 228.795 677.895 229.137 676.938 229.137C675.904 229.137 675.077 228.747 674.457 227.968C673.933 227.307 673.671 226.452 673.671 225.404C673.671 224.329 673.974 223.456 674.58 222.786C675.191 222.107 675.977 221.768 676.938 221.768ZM676.938 222.622C676.168 222.622 675.589 222.968 675.202 223.661C674.928 224.149 674.792 224.737 674.792 225.425C674.792 226.222 674.956 226.874 675.284 227.38C675.676 227.981 676.227 228.282 676.938 228.282C677.708 228.282 678.287 227.934 678.675 227.236C678.948 226.753 679.085 226.159 679.085 225.452C679.085 224.668 678.921 224.026 678.593 223.524C678.201 222.923 677.649 222.622 676.938 222.622ZM682.302 229V224.953C682.302 224.064 682.288 223.158 682.261 222.232L682.254 221.904H683.245L683.286 223.21C683.564 222.695 683.858 222.326 684.168 222.103C684.478 221.875 684.847 221.761 685.275 221.761C685.421 221.761 685.587 221.779 685.774 221.815L685.679 222.772C685.546 222.741 685.421 222.725 685.303 222.725C684.778 222.725 684.316 222.989 683.915 223.518C683.687 223.814 683.505 224.144 683.368 224.509V229H682.302ZM691.534 218.767H692.6V226.416C692.6 227.077 692.616 227.854 692.648 228.747L692.655 229H691.65L691.616 227.92C691.256 228.389 690.923 228.711 690.618 228.884C690.317 229.057 689.944 229.144 689.497 229.144C688.636 229.144 687.943 228.788 687.419 228.077C686.904 227.384 686.646 226.493 686.646 225.404C686.646 224.265 686.938 223.356 687.521 222.677C688.045 222.071 688.686 221.768 689.442 221.768C690.285 221.768 690.983 222.139 691.534 222.882V218.767ZM691.534 223.948C691.078 223.064 690.452 222.622 689.654 222.622C689.053 222.622 688.592 222.873 688.273 223.374C687.936 223.907 687.767 224.593 687.767 225.432C687.767 226.211 687.911 226.863 688.198 227.387C688.526 227.988 689.016 228.289 689.668 228.289C690.037 228.289 690.365 228.187 690.652 227.981C690.939 227.776 691.233 227.435 691.534 226.956V223.948ZM696.015 227.482C696.252 227.482 696.448 227.562 696.603 227.722C696.763 227.877 696.843 228.073 696.843 228.31C696.843 228.547 696.763 228.745 696.603 228.904C696.448 229.059 696.252 229.137 696.015 229.137C695.779 229.137 695.58 229.059 695.421 228.904C695.266 228.745 695.188 228.542 695.188 228.296C695.188 228.068 695.268 227.877 695.428 227.722C695.587 227.562 695.783 227.482 696.015 227.482ZM709.47 227.701L709.75 228.597C708.825 228.957 707.957 229.137 707.145 229.137C705.815 229.137 704.744 228.708 703.933 227.852C703.062 226.931 702.627 225.723 702.627 224.229C702.627 223.194 702.832 222.278 703.242 221.48C703.698 220.601 704.329 219.97 705.136 219.587C705.719 219.313 706.371 219.177 707.091 219.177C707.934 219.177 708.802 219.377 709.695 219.778L709.333 220.674C708.531 220.291 707.79 220.1 707.111 220.1C706.045 220.1 705.229 220.503 704.664 221.31C704.099 222.121 703.816 223.096 703.816 224.235C703.816 225.019 703.962 225.732 704.254 226.375C704.527 226.977 704.91 227.435 705.402 227.749C705.894 228.059 706.478 228.214 707.152 228.214C707.913 228.214 708.686 228.043 709.47 227.701ZM711.47 229V218.767H712.536V223.005C713.315 222.18 714.165 221.768 715.086 221.768C715.979 221.768 716.594 222.096 716.932 222.752C717.036 222.966 717.112 223.235 717.157 223.559C717.203 223.882 717.226 224.329 717.226 224.898V229H716.159V224.878C716.159 224.167 716.109 223.668 716.009 223.381C715.836 222.875 715.428 222.622 714.785 222.622C714.01 222.622 713.261 223.064 712.536 223.948V229H711.47ZM720.36 225.739C720.438 226.532 720.62 227.122 720.907 227.51C721.299 228.025 721.878 228.282 722.644 228.282C723.295 228.282 723.942 228.059 724.585 227.612L724.995 228.439C724.257 228.904 723.466 229.137 722.623 229.137C721.502 229.137 720.638 228.77 720.032 228.036C719.504 227.394 719.239 226.532 719.239 225.452C719.239 224.144 719.592 223.162 720.299 222.506C720.827 222.014 721.504 221.768 722.329 221.768C723.591 221.768 724.439 222.285 724.872 223.319C725.114 223.903 725.243 224.709 725.262 225.739H720.36ZM724.127 224.885C724.113 224.361 724.022 223.923 723.854 223.572C723.548 222.939 723.029 222.622 722.295 222.622C721.73 222.622 721.276 222.825 720.935 223.23C720.593 223.632 720.41 224.183 720.388 224.885H724.127ZM731.828 227.653L732.238 228.48C731.596 228.918 730.878 229.137 730.085 229.137C729.064 229.137 728.264 228.825 727.686 228.2C727.079 227.544 726.776 226.648 726.776 225.514C726.776 224.27 727.098 223.312 727.74 222.643C728.301 222.055 729.05 221.761 729.989 221.761C730.718 221.761 731.425 221.952 732.108 222.335L731.705 223.176C731.131 222.802 730.557 222.615 729.982 222.615C729.294 222.615 728.772 222.868 728.417 223.374C728.071 223.866 727.897 224.536 727.897 225.384C727.897 226.291 728.103 227.013 728.513 227.551C728.891 228.038 729.42 228.282 730.099 228.282C730.7 228.282 731.277 228.073 731.828 227.653ZM733.835 229V218.767H734.901V224.912L737.786 221.904H739.119L736.023 225.056L739.324 229H737.957L734.901 225.336V229H733.835ZM746.25 229.103L743.454 221.904H744.596L746.216 226.149C746.389 226.614 746.583 227.154 746.797 227.77C747.002 227.168 747.2 226.612 747.392 226.102L748.964 221.904H749.962L747.077 229.602C746.722 230.554 746.353 231.217 745.97 231.591C745.592 231.965 745.095 232.151 744.48 232.151C744.147 232.151 743.798 232.106 743.434 232.015L743.618 231.146C743.901 231.247 744.165 231.297 744.411 231.297C744.707 231.297 744.96 231.224 745.17 231.078C745.38 230.937 745.569 230.704 745.737 230.381C745.938 229.998 746.109 229.572 746.25 229.103ZM754.054 221.768C755.088 221.768 755.916 222.157 756.535 222.937C757.059 223.593 757.321 224.431 757.321 225.452C757.321 226.55 757.018 227.437 756.412 228.111C755.797 228.795 755.011 229.137 754.054 229.137C753.019 229.137 752.192 228.747 751.572 227.968C751.048 227.307 750.786 226.452 750.786 225.404C750.786 224.329 751.089 223.456 751.695 222.786C752.306 222.107 753.092 221.768 754.054 221.768ZM754.054 222.622C753.284 222.622 752.705 222.968 752.318 223.661C752.044 224.149 751.907 224.737 751.907 225.425C751.907 226.222 752.071 226.874 752.4 227.38C752.791 227.981 753.343 228.282 754.054 228.282C754.824 228.282 755.403 227.934 755.79 227.236C756.064 226.753 756.2 226.159 756.2 225.452C756.2 224.668 756.036 224.026 755.708 223.524C755.316 222.923 754.765 222.622 754.054 222.622ZM765.016 221.904V226.689C765.016 227.792 765.034 228.562 765.07 229H764.018L763.977 227.865C763.567 228.307 763.159 228.631 762.753 228.836C762.352 229.036 761.919 229.137 761.454 229.137C760.575 229.137 759.971 228.809 759.643 228.152C759.533 227.938 759.456 227.669 759.41 227.346C759.369 227.022 759.349 226.576 759.349 226.006V221.904H760.415V226.026C760.415 226.742 760.465 227.241 760.566 227.523C760.739 228.029 761.133 228.282 761.748 228.282C762.5 228.282 763.234 227.84 763.949 226.956V221.904H765.016ZM767.638 229V224.953C767.638 224.064 767.624 223.158 767.597 222.232L767.59 221.904H768.581L768.622 223.21C768.9 222.695 769.194 222.326 769.504 222.103C769.814 221.875 770.183 221.761 770.612 221.761C770.757 221.761 770.924 221.779 771.111 221.815L771.015 222.772C770.883 222.741 770.757 222.725 770.639 222.725C770.115 222.725 769.652 222.989 769.251 223.518C769.023 223.814 768.841 224.144 768.704 224.509V229H767.638ZM780.73 218.767H781.796V226.416C781.796 227.077 781.812 227.854 781.844 228.747L781.851 229H780.846L780.812 227.92C780.452 228.389 780.119 228.711 779.814 228.884C779.513 229.057 779.139 229.144 778.693 229.144C777.831 229.144 777.139 228.788 776.615 228.077C776.1 227.384 775.842 226.493 775.842 225.404C775.842 224.265 776.134 223.356 776.717 222.677C777.241 222.071 777.881 221.768 778.638 221.768C779.481 221.768 780.178 222.139 780.73 222.882V218.767ZM780.73 223.948C780.274 223.064 779.647 222.622 778.85 222.622C778.248 222.622 777.788 222.873 777.469 223.374C777.132 223.907 776.963 224.593 776.963 225.432C776.963 226.211 777.107 226.863 777.394 227.387C777.722 227.988 778.212 228.289 778.864 228.289C779.233 228.289 779.561 228.187 779.848 227.981C780.135 227.776 780.429 227.435 780.73 226.956V223.948ZM784.999 225.739C785.077 226.532 785.259 227.122 785.546 227.51C785.938 228.025 786.517 228.282 787.283 228.282C787.934 228.282 788.581 228.059 789.224 227.612L789.634 228.439C788.896 228.904 788.105 229.137 787.262 229.137C786.141 229.137 785.277 228.77 784.671 228.036C784.143 227.394 783.878 226.532 783.878 225.452C783.878 224.144 784.231 223.162 784.938 222.506C785.466 222.014 786.143 221.768 786.968 221.768C788.23 221.768 789.078 222.285 789.511 223.319C789.753 223.903 789.882 224.709 789.901 225.739H784.999ZM788.766 224.885C788.752 224.361 788.661 223.923 788.492 223.572C788.187 222.939 787.668 222.622 786.934 222.622C786.369 222.622 785.915 222.825 785.574 223.23C785.232 223.632 785.049 224.183 785.027 224.885H788.766ZM792.099 222.759H790.951V221.904H792.099V220.353L793.165 220.127V221.904H794.84V222.759H793.165V226.635C793.165 227.223 793.216 227.624 793.316 227.838C793.462 228.134 793.73 228.282 794.122 228.282C794.359 228.282 794.631 228.212 794.936 228.07L795.032 228.918C794.621 229.064 794.239 229.137 793.883 229.137C793.231 229.137 792.771 228.964 792.502 228.617C792.233 228.271 792.099 227.681 792.099 226.847V222.759ZM800.552 228.173C800.233 228.519 799.91 228.768 799.581 228.918C799.258 229.064 798.875 229.137 798.433 229.137C797.69 229.137 797.123 228.927 796.731 228.508C796.384 228.139 796.211 227.651 796.211 227.045C796.211 226.111 796.606 225.445 797.394 225.049C797.859 224.816 798.545 224.7 799.452 224.7C799.593 224.7 799.932 224.709 800.47 224.728V224.536C800.47 224.021 800.404 223.629 800.272 223.36C800.035 222.868 799.565 222.622 798.864 222.622C798.289 222.622 797.679 222.827 797.032 223.237L796.567 222.472C797.31 222.002 798.114 221.768 798.98 221.768C800.055 221.768 800.791 222.089 801.188 222.731C801.325 222.959 801.416 223.221 801.461 223.518C801.511 223.809 801.536 224.274 801.536 224.912V227.229C801.536 227.959 801.555 228.549 801.591 229H800.6L800.552 228.173ZM800.47 225.541C800.219 225.523 799.955 225.514 799.677 225.514C798.916 225.514 798.362 225.614 798.016 225.814C797.56 226.074 797.332 226.475 797.332 227.018C797.332 227.4 797.446 227.706 797.674 227.934C797.911 228.166 798.228 228.282 798.624 228.282C799.367 228.282 799.982 227.92 800.47 227.195V225.541ZM804.152 229V221.904H805.218V229H804.152ZM804.678 218.63C804.901 218.63 805.084 218.701 805.225 218.842C805.366 218.983 805.437 219.163 805.437 219.382C805.437 219.605 805.366 219.787 805.225 219.929C805.084 220.07 804.904 220.141 804.685 220.141C804.462 220.141 804.279 220.07 804.138 219.929C803.997 219.787 803.926 219.603 803.926 219.375C803.926 219.161 803.997 218.983 804.138 218.842C804.284 218.701 804.464 218.63 804.678 218.63ZM807.82 229V218.767H808.886V229H807.82ZM810.955 228.651L811.276 227.811C811.928 228.125 812.502 228.282 812.999 228.282C813.404 228.282 813.732 228.173 813.983 227.954C814.234 227.731 814.359 227.441 814.359 227.086C814.359 226.776 814.272 226.546 814.099 226.396C813.93 226.241 813.543 226.047 812.937 225.814C812.545 225.66 812.251 225.53 812.055 225.425C811.864 225.32 811.686 225.19 811.522 225.035C811.162 224.702 810.982 224.274 810.982 223.75C810.982 223.126 811.226 222.624 811.713 222.246C812.128 221.927 812.661 221.768 813.313 221.768C813.978 221.768 814.653 221.943 815.336 222.294L815.015 223.135C814.505 222.793 813.969 222.622 813.409 222.622C812.999 222.622 812.677 222.715 812.445 222.902C812.217 223.085 812.103 223.338 812.103 223.661C812.103 223.948 812.196 224.176 812.383 224.345C812.57 224.509 812.96 224.709 813.552 224.946C814.008 225.133 814.341 225.288 814.55 225.411C814.764 225.534 814.944 225.682 815.09 225.855C815.35 226.152 815.48 226.537 815.48 227.011C815.48 227.694 815.222 228.23 814.707 228.617C814.247 228.964 813.673 229.137 812.985 229.137C812.315 229.137 811.638 228.975 810.955 228.651ZM524.977 248.173C524.658 248.519 524.334 248.768 524.006 248.918C523.682 249.064 523.299 249.137 522.857 249.137C522.115 249.137 521.547 248.927 521.155 248.508C520.809 248.139 520.636 247.651 520.636 247.045C520.636 246.111 521.03 245.445 521.818 245.049C522.283 244.816 522.969 244.7 523.876 244.7C524.017 244.7 524.357 244.709 524.895 244.728V244.536C524.895 244.021 524.828 243.629 524.696 243.36C524.459 242.868 523.99 242.622 523.288 242.622C522.714 242.622 522.103 242.827 521.456 243.237L520.991 242.472C521.734 242.002 522.538 241.768 523.404 241.768C524.48 241.768 525.216 242.089 525.612 242.731C525.749 242.959 525.84 243.221 525.886 243.518C525.936 243.809 525.961 244.274 525.961 244.912V247.229C525.961 247.959 525.979 248.549 526.016 249H525.024L524.977 248.173ZM524.895 245.541C524.644 245.523 524.38 245.514 524.102 245.514C523.34 245.514 522.787 245.614 522.44 245.814C521.985 246.074 521.757 246.475 521.757 247.018C521.757 247.4 521.871 247.706 522.099 247.934C522.336 248.166 522.652 248.282 523.049 248.282C523.792 248.282 524.407 247.92 524.895 247.195V245.541ZM528.576 249V244.215C528.576 243.135 528.558 242.365 528.522 241.904H529.574L529.615 243.039C530.053 242.579 530.467 242.253 530.859 242.062C531.256 241.866 531.7 241.768 532.192 241.768C533.09 241.768 533.705 242.096 534.038 242.752C534.143 242.966 534.218 243.237 534.264 243.565C534.309 243.889 534.332 244.333 534.332 244.898V249H533.266V244.878C533.266 244.167 533.216 243.668 533.115 243.381C532.938 242.875 532.53 242.622 531.892 242.622C531.121 242.622 530.372 243.064 529.643 243.948V249H528.576ZM541.227 238.767H542.293V246.416C542.293 247.077 542.309 247.854 542.341 248.747L542.348 249H541.343L541.309 247.92C540.949 248.389 540.616 248.711 540.311 248.884C540.01 249.057 539.636 249.144 539.19 249.144C538.328 249.144 537.635 248.788 537.111 248.077C536.596 247.384 536.339 246.493 536.339 245.404C536.339 244.265 536.631 243.356 537.214 242.677C537.738 242.071 538.378 241.768 539.135 241.768C539.978 241.768 540.675 242.139 541.227 242.882V238.767ZM541.227 243.948C540.771 243.064 540.144 242.622 539.347 242.622C538.745 242.622 538.285 242.873 537.966 243.374C537.629 243.907 537.46 244.593 537.46 245.432C537.46 246.211 537.604 246.863 537.891 247.387C538.219 247.988 538.709 248.289 539.36 248.289C539.73 248.289 540.058 248.187 540.345 247.981C540.632 247.776 540.926 247.435 541.227 246.956V243.948ZM548.959 242.759H547.811V241.904H548.959V240.353L550.026 240.127V241.904H551.7V242.759H550.026V246.635C550.026 247.223 550.076 247.624 550.176 247.838C550.322 248.134 550.591 248.282 550.983 248.282C551.22 248.282 551.491 248.212 551.796 248.07L551.892 248.918C551.482 249.064 551.099 249.137 550.743 249.137C550.092 249.137 549.631 248.964 549.362 248.617C549.094 248.271 548.959 247.681 548.959 246.847V242.759ZM553.57 249V244.953C553.57 244.064 553.557 243.158 553.529 242.232L553.523 241.904H554.514L554.555 243.21C554.833 242.695 555.127 242.326 555.437 242.103C555.747 241.875 556.116 241.761 556.544 241.761C556.69 241.761 556.856 241.779 557.043 241.815L556.947 242.772C556.815 242.741 556.69 242.725 556.571 242.725C556.047 242.725 555.585 242.989 555.184 243.518C554.956 243.814 554.774 244.144 554.637 244.509V249H553.57ZM560.882 249.103L558.086 241.904H559.228L560.848 246.149C561.021 246.614 561.215 247.154 561.429 247.77C561.634 247.168 561.832 246.612 562.024 246.102L563.596 241.904H564.594L561.709 249.602C561.354 250.554 560.985 251.217 560.602 251.591C560.223 251.965 559.727 252.151 559.112 252.151C558.779 252.151 558.43 252.106 558.066 252.015L558.25 251.146C558.533 251.247 558.797 251.297 559.043 251.297C559.339 251.297 559.592 251.224 559.802 251.078C560.012 250.937 560.201 250.704 560.369 250.381C560.57 249.998 560.741 249.572 560.882 249.103ZM573.584 248.173C573.265 248.519 572.942 248.768 572.614 248.918C572.29 249.064 571.907 249.137 571.465 249.137C570.722 249.137 570.155 248.927 569.763 248.508C569.417 248.139 569.243 247.651 569.243 247.045C569.243 246.111 569.638 245.445 570.426 245.049C570.891 244.816 571.577 244.7 572.484 244.7C572.625 244.7 572.964 244.709 573.502 244.728V244.536C573.502 244.021 573.436 243.629 573.304 243.36C573.067 242.868 572.598 242.622 571.896 242.622C571.322 242.622 570.711 242.827 570.064 243.237L569.599 242.472C570.342 242.002 571.146 241.768 572.012 241.768C573.087 241.768 573.823 242.089 574.22 242.731C574.357 242.959 574.448 243.221 574.493 243.518C574.544 243.809 574.569 244.274 574.569 244.912V247.229C574.569 247.959 574.587 248.549 574.623 249H573.632L573.584 248.173ZM573.502 245.541C573.252 245.523 572.987 245.514 572.709 245.514C571.948 245.514 571.394 245.614 571.048 245.814C570.592 246.074 570.365 246.475 570.365 247.018C570.365 247.4 570.478 247.706 570.706 247.934C570.943 248.166 571.26 248.282 571.657 248.282C572.399 248.282 573.015 247.92 573.502 247.195V245.541ZM581.641 241.904H582.68C582.644 243.053 582.625 243.985 582.625 244.7V248.248C582.625 249.014 582.584 249.588 582.502 249.971C582.425 250.358 582.274 250.704 582.051 251.01C581.495 251.771 580.668 252.151 579.57 252.151C578.626 252.151 577.733 251.894 576.89 251.379L577.348 250.559C578.073 251.051 578.806 251.297 579.549 251.297C580.383 251.297 580.962 250.96 581.285 250.285C581.468 249.907 581.559 249.26 581.559 248.344V247.756C580.898 248.503 580.176 248.877 579.392 248.877C578.599 248.877 577.94 248.558 577.416 247.92C576.901 247.296 576.644 246.448 576.644 245.377C576.644 244.219 576.929 243.303 577.498 242.629C577.986 242.055 578.624 241.768 579.412 241.768C580.347 241.768 581.076 242.178 581.6 242.998L581.641 241.904ZM581.559 243.989C581.367 243.625 581.153 243.34 580.916 243.135C580.52 242.793 580.094 242.622 579.638 242.622C579.005 242.622 578.524 242.909 578.196 243.483C577.908 243.989 577.765 244.616 577.765 245.363C577.765 246.088 577.915 246.696 578.216 247.188C578.562 247.744 579.05 248.022 579.679 248.022C580.44 248.022 581.067 247.608 581.559 246.778V243.989ZM588.891 248.173C588.572 248.519 588.248 248.768 587.92 248.918C587.597 249.064 587.214 249.137 586.772 249.137C586.029 249.137 585.462 248.927 585.07 248.508C584.723 248.139 584.55 247.651 584.55 247.045C584.55 246.111 584.944 245.445 585.733 245.049C586.198 244.816 586.883 244.7 587.79 244.7C587.932 244.7 588.271 244.709 588.809 244.728V244.536C588.809 244.021 588.743 243.629 588.611 243.36C588.374 242.868 587.904 242.622 587.202 242.622C586.628 242.622 586.018 242.827 585.37 243.237L584.906 242.472C585.648 242.002 586.453 241.768 587.319 241.768C588.394 241.768 589.13 242.089 589.527 242.731C589.663 242.959 589.755 243.221 589.8 243.518C589.85 243.809 589.875 244.274 589.875 244.912V247.229C589.875 247.959 589.894 248.549 589.93 249H588.939L588.891 248.173ZM588.809 245.541C588.558 245.523 588.294 245.514 588.016 245.514C587.255 245.514 586.701 245.614 586.355 245.814C585.899 246.074 585.671 246.475 585.671 247.018C585.671 247.4 585.785 247.706 586.013 247.934C586.25 248.166 586.567 248.282 586.963 248.282C587.706 248.282 588.321 247.92 588.809 247.195V245.541ZM592.491 249V241.904H593.557V249H592.491ZM593.017 238.63C593.24 238.63 593.423 238.701 593.564 238.842C593.705 238.983 593.776 239.163 593.776 239.382C593.776 239.605 593.705 239.787 593.564 239.929C593.423 240.07 593.243 240.141 593.024 240.141C592.8 240.141 592.618 240.07 592.477 239.929C592.336 239.787 592.265 239.603 592.265 239.375C592.265 239.161 592.336 238.983 592.477 238.842C592.623 238.701 592.803 238.63 593.017 238.63ZM596.159 249V244.215C596.159 243.135 596.14 242.365 596.104 241.904H597.157L597.198 243.039C597.635 242.579 598.05 242.253 598.442 242.062C598.838 241.866 599.283 241.768 599.775 241.768C600.673 241.768 601.288 242.096 601.62 242.752C601.725 242.966 601.801 243.237 601.846 243.565C601.892 243.889 601.914 244.333 601.914 244.898V249H600.848V244.878C600.848 244.167 600.798 243.668 600.698 243.381C600.52 242.875 600.112 242.622 599.474 242.622C598.704 242.622 597.954 243.064 597.225 243.948V249H596.159ZM605.261 247.482C605.498 247.482 605.694 247.562 605.849 247.722C606.009 247.877 606.088 248.073 606.088 248.31C606.088 248.547 606.009 248.745 605.849 248.904C605.694 249.059 605.498 249.137 605.261 249.137C605.024 249.137 604.826 249.059 604.666 248.904C604.511 248.745 604.434 248.542 604.434 248.296C604.434 248.068 604.514 247.877 604.673 247.722C604.833 247.562 605.029 247.482 605.261 247.482Z" fill="#FF7687"/>
<defs>
<filter id="filter0_i_7490_24809" x="500" y="178" width="320" height="34" filterUnits="userSpaceOnUse" color-interpolation-filters="sRGB">
<feFlood flood-opacity="0" result="BackgroundImageFix"/>
<feBlend mode="normal" in="SourceGraphic" in2="BackgroundImageFix" result="shape"/>
<feColorMatrix in="SourceAlpha" type="matrix" values="0 0 0 0 0 0 0 0 0 0 0 0 0 0 0 0 0 0 127 0" result="hardAlpha"/>
<feOffset dy="2"/>
<feGaussianBlur stdDeviation="2"/>
<feComposite in2="hardAlpha" operator="arithmetic" k2="-1" k3="1"/>
<feColorMatrix type="matrix" values="0 0 0 0 0 0 0 0 0 0 0 0 0 0 0 0 0 0 0.6 0"/>
<feBlend mode="normal" in2="shape" result="effect1_innerShadow_7490_24809"/>
</filter>
<clipPath id="clip0_7490_24809">
<rect x="500" y="178" width="320" height="32" rx="2" fill="white"/>
</clipPath>
</defs>
</svg>
